<?xml version="1.0" encoding="utf-8"?>
<svg version="1.1" xmlns:xlink="http://www.w3.org/1999/xlink" width="10px" height="13px" xmlns="http://www.w3.org/2000/svg">
  <g transform="matrix(1 0 0 1 -556 -499 )">
    <path d="M 7.04374999999999 10.4841904761904  C 7.41038199999997 10.200685052381  7.61861312499997 9.76105736666682  7.604375 9.3005714285714  C 7.60815318749997 9.07649321428562  7.57110193749998 8.85357670476196  7.495 8.64252380952371  C 7.40919381250001 8.43395855714289  7.27056949999997 8.25081530000011  7.09249999999997 8.11076190476206  C 6.84799662499995 7.91944672380941  6.57766709374994 7.76296114285719  6.28937500000001 7.64585714285704  C 5.861138375 7.46634045238102  5.42292914999996 7.3111209476192  4.97687499999995 7.18095238095248  C 4.42216036874999 7.01954184285705  3.87922918749996 6.82077729047614  3.35187500000001 6.58604761904758  C 2.89137478750001 6.3847153190477  2.46040421875 6.12276530666668  2.07062500000001 5.80728571428585  C 1.72433394374997 5.52528518904774  1.43815303125001 5.17785769428588  1.22874999999999 4.78523809523813  C 1.01987135749999 4.37501725142852  0.915381493124983 3.92044802809528  0.924374999999998 3.46109523809514  C 0.919492395625014 2.99017708476185  1.02835168499996 2.52492709238095  1.24187499999999 2.10414285714296  C 1.45644259374995 1.68645561809535  1.76088614999998 1.32046096619047  2.13374999999996 1.03195238095236  C 2.54622768749999 0.715630877619105  3.01374193125002 0.476861394904745  3.513125 0.327476190476091  C 4.08857975624994 0.154488995142856  4.68741525625001 0.0699347591057631  5.28874999999999 0.0767619047619519  C 5.9246423125 0.0672249094213839  6.55731287499998 0.167999334285696  7.15812499999998 0.374523809523907  C 7.67310056249994 0.550240252714275  8.14861256249998 0.82357878571429  8.55812500000002 1.1792857142857  C 8.93050031249999 1.50929283142864  9.22862206249999 1.91319706809531  9.43312499999996 2.36476190476196  C 9.63661281249995 2.81680179857153  9.74038118749996 3.30664288809521  9.73750000000001 3.80157142857138  L 7.604375 3.80157142857138  C 7.6074378125 3.52314137190479  7.56023749999997 3.24641000047632  7.46499999999998 2.98442857142868  C 7.37418337499997 2.73985843857145  7.22793256249997 2.51918296809527  7.03750000000002 2.33938095238091  C 6.82883399999997 2.14816564857142  6.58087005624998 2.00392970142866  6.31062499999996 1.91657142857139  C 5.97452012500003 1.80984054952387  5.62288272499995 1.75900925571432  5.26999999999998 1.766142857143  C 4.9387396125 1.75910713333337  4.60826053749997 1.80083200761896  4.28937500000001 1.88995238095231  C 4.03875249999999 1.96038750142861  3.80496357499999 2.07995788619041  3.60187500000001 2.24157142857143  C 3.42427626250003 2.38457093333341  3.28496592499999 2.56869076285716  3.19624999999996 2.77766666666662  C 3.10764197499998 2.98997405571436  3.06300855000001 3.21775226809518  3.065 3.44747619047621  C 3.06985475624998 3.90958838523807  3.31418927499999 4.33678427619043  3.71187499999996 4.57847619047629  C 4.32184476249995 4.95856240285707  4.98829781874997 5.24140524142854  5.68687499999999 5.41666666666674  C 6.30545198124997 5.58959873952381  6.90821087500001 5.81386888952375  7.48874999999998 6.08709523809534  C 7.94944575 6.30172121428586  8.37552312499997 6.58271986666659  8.75312500000001 6.92095238095249  C 9.076035375 7.21256869047625  9.331822875 7.56958304761906  9.50312500000001 7.9677619047618  C 9.67178493749998 8.38438776190469  9.75506837500001 8.83008774761902  9.74812499999996 9.27890476190487  C 9.75570625 9.75844300476183  9.64997506249995 10.2330939285714  9.43937499999998 10.6649523809524  C 9.232522625 11.077108652381  8.93141231250002 11.4357628666667  8.56 11.712380952381  C 8.14477887499999 12.0166689190476  7.67562950000001 12.2411354000001  7.176875 12.3741428571429  C 6.58649807500001 12.5342040571429  5.97642516874998 12.6117163714287  5.364375 12.6044285714286  C 4.772790525 12.6045088000001  4.18398339999999 12.5243188571428  3.614375 12.3660952380953  C 3.05989608124997 12.2167552619048  2.53599166875 11.9726955523811  2.06624999999997 11.6449047619049  C 1.61432096875001 11.3286533904761  1.2374433 10.9186065857143  0.961874999999964 10.4433333333334  C 0.67369627124998 9.92600600952392  0.529402879999964 9.34215236190471  0.543749999999989 8.7514761904763  L 2.68374999999998 8.7514761904763  C 2.67515464999997 9.09297572857145  2.74593577500002 9.43186158571439  2.890625 9.7419523809524  C 3.02158172499998 10.0109441714285  3.21628430624997 10.2445709476192  3.458125 10.4229047619046  C 3.71267365 10.6058993238096  4.00138499374998 10.7369914476189  4.3075 10.8085714285714  C 4.65334089999999 10.8925677714285  5.00829290000001 10.9341492619048  5.364375 10.932380952381  C 5.95922759375003 10.9753564142857  6.55122380624999 10.8173648142858  7.04374999999999 10.4841904761904  Z " fill-rule="nonzero" fill="#ffffff" stroke="none" transform="matrix(1 0 0 1 556 499 )" />
  </g>
</svg>