<?xml version="1.0" encoding="utf-8"?>
<svg version="1.1" xmlns:xlink="http://www.w3.org/1999/xlink" width="55px" height="67px" xmlns="http://www.w3.org/2000/svg">
  <g transform="matrix(1 0 0 1 -670 -426 )">
    <path d="M 29.0937912087912 66.8563423423423  C 29.0224725274725 66.8581531531531  28.9505494505494 66.8593603603604  28.8792307692307 66.8593603603604  C 28.4806125274725 66.8595728288287  28.0824959340659 66.8311298198198  27.687967032967 66.7742522522522  L 27.309010989011 66.719927927928  L 27.6438461538461 66.5346216216217  C 28.1245866483516 66.2632523063062  28.7198582967033 66.2979583063063  29.1657142857143 66.6233513513514  L 29.4751648351648 66.8466846846848  L 29.0937912087912 66.8563423423423  Z M 36.3271978021978 64.0568288288289  L 36.2685714285715 64.0984774774774  L 36.2026923076924 64.0707117117117  C 35.5681542857143 63.8060997387388  35.2132942857143 63.1267306036036  35.3590606043956 62.4556036756758  C 35.5048269230769 61.7844767477477  36.1096456043956 61.3130007657658  36.7969364835164 61.3347323063063  C 37.4842267582418 61.3564644504504  38.0579704395604 61.8652069189188  38.160934065934 62.544198198198  L 38.1718131868131 62.6154234234234  L 38.1168131868133 62.6619009009009  C 37.5190659340659 63.1695315315314  36.9164835164835 63.6391351351351  36.3271978021978 64.0568288288289  Z M 36.7557142857142 61.5905045045045  C 36.212397087912 61.5900113603605  35.7404499450549 61.9636389729731  35.6169417032967 62.4920383963963  C 35.4934340659341 63.0204378198198  35.7509682417582 63.5641277297298  36.2383516483517 63.803918918919  C 36.7823076923077 63.4145945945945  37.3401648351648 62.9812072072073  37.8937912087912 62.5134144144145  C 37.7821001098901 61.9748557387388  37.3064226373626 61.5891107837838  36.7557142857142 61.5905045045045  Z M 20.324010989011 63.3572522522522  L 20.2557142857143 63.4665045045044  L 20.1463186813187 63.3976936936938  C 19.4023076923077 62.9317117117116  18.6782417582418 62.4452072072072  17.9928571428571 61.9532702702702  L 17.8876923076923 61.8778198198197  L 17.9638461538461 61.7733963963965  C 18.4095347252747 61.1432438918919  19.2774232417582 60.9836553243242  19.918621098901 61.4139486396396  C 20.5598183516483 61.8442425585586  20.7398049450549 62.7070383783785  20.324010989011 63.3572522522522  Z M 18.2551648351648 61.8222882882883  L 18.2551648351648 61.8240990990992  C 18.8668131868132 62.2605045045045  19.5092857142857 62.6908738738739  20.1686813186813 63.1073603603604  C 20.2445480769231 62.9514018648649  20.284213956044 62.7803617297297  20.2847252747253 62.6069729729729  C 20.2870957142857 62.1245488288289  19.9910276923077 61.6907371081081  19.5405444505494 61.5165678918918  C 19.0900612087912 61.342398072072  18.5786802747252 61.4640272162162  18.2551648351648 61.8222882882883  Z M 28.3316483516484 61.2887027027027  L 28.3328571428571 61.2887027027027  C 27.5455055494505 61.2883695135135  26.9074698901099 60.6507196486486  26.9076923076923 59.8643998018017  C 26.9079147252747 59.0780793513513  27.5463112087912 58.4407898378379  28.3336628021978 58.4409009009009  C 29.121015 58.441011963964  29.7592307692307 59.0784813513512  29.7592307692307 59.8648018018018  C 29.7582304945055 60.6514934684685  29.1193728571428 61.2887033063064  28.3316483516484 61.2887027027027  Z M 28.3316483516484 58.6974324324324  L 28.3328571428571 58.6974324324324  C 27.6877820879121 58.6977656216216  27.1650536263736 59.2201694504504  27.1651648351648 59.8643991981983  C 27.165276043956 60.5086289459459  27.6881852197802 61.030852900901  28.3332602747253 61.030963963964  C 28.9783353296703 61.0310750270271  29.5014246153846 60.5090315495495  29.5017582417582 59.8648018018018  C 29.5015980769231 59.555036054054  29.3782288461538 59.2580214324323  29.158790934066 59.0390968198199  C 28.9393524175824 58.8201728108108  28.6418205494505 58.6972724774776  28.3316483516484 58.6974324324324  Z M 36.7557142857142 56.2715495495495  L 36.756923076923 56.2715495495495  C 35.9695708791209 56.2715495495495  35.3312650549451 55.634170099099  35.3311538461538 54.8478496486487  C 35.3310426373627 54.0615298018017  35.9691683516483 53.4239698738738  36.7565205494506 53.4237477477477  C 37.5438721428571 53.4235256216216  38.1823586813186 54.0607251981983  38.1826923076923 54.847045045045  C 38.1816926373626 55.63359909009  37.5433003846154 56.2708843783782  36.7557142857142 56.2715495495495  Z M 36.7557142857142 53.6802792792794  L 36.756923076923 53.6802792792794  C 36.1116908791208 53.6802792792794  35.5886263736264 54.2026583603604  35.5886263736264 54.847045045045  C 35.5886263736264 55.4914317297298  36.1116908791208 56.0138108108108  36.756923076923 56.0138108108108  C 37.4021552747253 56.0138108108108  37.9252197802198 55.4914317297298  37.9252197802198 54.847045045045  C 37.9245525274725 54.2024627927929  37.4011423076923 53.6802786756757  36.7557142857142 53.6802792792794  Z M 19.1146153846154 56.1206486486487  L 19.1158241758241 56.1206486486487  C 18.3285511538461 56.1203154594593  17.6905481318681 55.482788126126  17.6906593406594 54.6965467477478  C 17.6907705494505 53.9103047657657  18.3289536813186 53.2729579099098  19.1162273076923 53.2728468468467  C 19.9035003296704 53.2727357837837  20.5418641758242 53.9099027657658  20.5421978021978 54.6961441441442  C 20.5411975274725 55.4829335945947  19.9024378021978 56.120316063063  19.1146153846154 56.1206486486487  Z M 19.1146153846154 53.5293783783784  L 19.1158241758241 53.5293783783784  C 18.4706705494506 53.5297115675676  17.9479094505494 54.052237927928  17.9481318681318 54.6965461441441  C 17.9483542857143 55.3408543603603  18.4714762087912 55.8630209729729  19.1166298351648 55.8629099099098  C 19.7617834615384 55.8627988468468  20.2847252747253 55.3404523603604  20.2847252747253 54.6961441441442  C 20.284058021978 54.0513264864865  19.7602797252747 53.5290445855855  19.1146153846154 53.5293783783784  Z M 45.595 53.3784774774774  L 45.5962087912088 53.3784774774774  C 44.9655528021979 53.3863466576577  44.4027559340659 52.984512045045  44.2061865384615 52.3860064774774  C 44.0096171428571 51.7875009099098  44.2247656593406 51.1308314954954  44.7375699450549 50.7641332522521  C 45.2503748351648 50.3974356126125  45.9421618131868 50.4055703783783  46.4461787912088 50.7842254054053  C 46.9501951648351 51.1628804324325  47.1498016483516 51.824426963964  46.9391758241759 52.4181441441442  L 46.9234615384615 52.4489279279278  L 46.8775274725274 52.5159279279278  C 46.7639010989011 52.6819189189189  46.6502747252747 52.8485135135136  46.5354395604396 53.0132972972972  L 46.5124725274725 53.038045045045  C 46.2573517032968 53.2576112882882  45.9317825274725 53.3784153063064  45.595 53.3784774774774  Z M 45.595 50.7872072072073  L 45.5962087912088 50.7872072072073  C 45.1723727472528 50.7775803333334  44.7765413736263 50.9978926306305  44.5617917582417 51.3629436396395  C 44.3470421428572 51.7279952522522  44.3470421428572 52.1805542972972  44.5617917582417 52.5456059099099  C 44.7765413736263 52.9106569189189  45.1723727472528 53.1309692162163  45.5962087912088 53.1213423423424  C 45.8661578571429 53.1205866306307  46.1272954395604 53.0253247027026  46.3341758241759 52.8521351351351  C 46.4447802197802 52.6921801801802  46.5553846153846 52.5310180180181  46.6647802197801 52.3692522522522  L 46.7010439560439 52.316135135135  C 46.7414707692308 52.1995847117116  46.7628971978022 52.0773079009009  46.7645054945056 51.9539729729729  C 46.7638382417582 51.3093907207208  46.240428021978 50.7872066036036  45.595 50.7872072072073  Z M 28.3316483516484 53.3784774774774  L 28.3328571428571 53.3784774774774  C 27.5455841208791 53.3781442882882  26.9075810989011 52.7406169549549  26.9076923076923 51.9543755765767  C 26.9078035164835 51.1681335945946  27.5459866483516 50.5307867387387  28.3332602747253 50.5306756756756  C 29.1205332967033 50.5305646126126  29.7588971428571 51.1677315945944  29.7592307692307 51.9539729729729  C 29.7582304945055 52.7407624234233  29.1194707692308 53.3781448918919  28.3316483516484 53.3784774774774  Z M 28.3316483516484 50.7872072072073  L 28.3328571428571 50.7872072072073  C 27.8600257692308 50.7872072072073  27.4337636813187 51.0716928288289  27.252875934066 51.507982945946  C 27.0719875824176 51.9442730630631  27.1721045054945 52.4464271981981  27.5065329120879 52.7802447387387  C 27.8409619230769 53.1140622792793  28.3438263186813 53.2137884594595  28.7805952197802 53.0329120000001  C 29.2173641208791 52.8520349369369  29.502003021978 52.4261847477478  29.5017582417582 51.9539729729729  C 29.5010909890109 51.3091553153154  28.9773126923076 50.7868734144145  28.3316483516484 50.7872072072073  Z M 10.7667032967033 53.2275765765767  L 10.7679120879121 53.2275765765767  C 9.98055989010987 53.2275765765767  9.34225406593407 52.590197126126  9.34214285714285 51.8038766756756  C 9.34203164835162 51.0175568288289  9.98015736263733 50.379996900901  10.7675095604396 50.3797747747747  C 11.5548611538461 50.3795526486485  12.1933476923077 51.0167522252252  12.1936813186813 51.8030720720722  C 12.1926816483517 52.5896261171172  11.5542893956044 53.2269114054054  10.7667032967033 53.2275765765767  Z M 10.7667032967033 50.6363063063063  L 10.7679120879121 50.6363063063063  C 10.2950257142857 50.6360624504505  9.86857868131864 50.9203929459459  9.68749994505492 51.3566637477477  C 9.50642120879121 51.7929345495495  9.60638884615383 52.2951870720722  9.94077010989008 52.629130162162  C 10.2751513736263 52.9630732522523  10.7780629120879 53.0629098918919  11.2149061538461 52.8820684414413  C 11.6517493956044 52.701226990991  11.9364529670329 52.2753387747748  11.9362087912088 51.8030720720722  C 11.9355415384615 51.1584898198198  11.4121313186813 50.6363057027027  10.7667032967033 50.6363063063063  Z M 36.7557142857142 48.3607207207208  L 36.756923076923 48.3607207207208  C 35.9694923076923 48.3607207207208  35.3311538461538 47.7232187387388  35.3311538461538 46.9368198198199  C 35.3311538461538 46.1504209009008  35.9694923076923 45.512918918919  36.756923076923 45.512918918919  C 37.5443538461539 45.512918918919  38.1826923076923 46.1504209009008  38.1826923076923 46.9368198198199  C 38.181692032967 47.7232760810812  37.5432024725275 48.3603881351351  36.7557142857142 48.3607207207208  Z M 36.7557142857142 45.7694504504504  L 36.756923076923 45.7694504504504  C 36.2840917032967 45.7692059909909  35.8576827472527 46.0534719009008  35.6765683516484 46.4896684594594  C 35.4954545604396 46.9258650180179  35.5953115934066 47.4280704594594  35.9295671428571 47.7620612342344  C 36.2638226923077 48.0960514054054  36.7666357142857 48.1960371351352  37.2034982967033 48.0153858198198  C 37.6403608791209 47.8347351081081  37.9252197802198 47.4090315945946  37.9252197802198 46.9368198198199  C 37.9245531318682 46.2921397837838  37.4012402197802 45.769783036036  36.7557142857142 45.7694504504504  Z M 19.1146153846154 48.2098198198198  L 19.1158241758241 48.2098198198198  C 18.3284725824176 48.2094866306306  17.6904369230769 47.5718367657657  17.6906593406594 46.7855169189188  C 17.6908817582417 45.9991964684684  18.3292782417583 45.361906954955  19.1166298351648 45.362018018018  C 19.9039820329671 45.3621290810811  20.5421978021978 45.9995984684685  20.5421978021978 46.7859189189189  C 20.5411975274725 47.5726105855856  19.9023398901098 48.2098204234235  19.1146153846154 48.2098198198198  Z M 19.1146153846154 45.6185495495495  L 19.1158241758241 45.6185495495495  C 18.6430478021978 45.6185495495495  18.2168237912088 45.9029699819819  18.0359003846153 46.3391858558559  C 17.854976978022 46.7754023333332  17.9549826923077 47.2775081801801  18.289285989011 47.6113740090091  C 18.6235898901099 47.9452392342341  19.1263545604395 48.045113900901  19.5631434065934 47.8644275765766  C 19.9999316483516 47.6837412522523  20.2847252747253 47.2580757657659  20.2847252747253 46.7859189189189  C 20.2845651098901 46.4761531711711  20.1611958791209 46.1791385495494  19.941757967033 45.960213936937  C 19.7223194505495 45.7412899279279  19.4247875824176 45.6183895945946  19.1146153846154 45.6185495495495  Z M 45.1852197802198 43.1220450450451  L 45.1864285714286 43.1220450450451  C 44.3991555494506 43.1217118558559  43.7611525274725 42.4841845225226  43.7612637362637 41.6979431441441  C 43.761374945055 40.9117011621622  44.399558076923 40.2743543063064  45.1868317032967 40.2742432432433  C 45.9741047252747 40.2741321801802  46.6124685714285 40.9112991621621  46.6128021978021 41.6975405405406  C 46.6121349450549 42.4844676126127  45.97318 43.1220450450451  45.1852197802198 43.1220450450451  Z M 45.1852197802198 40.5307747747747  L 45.1864285714286 40.5307747747747  C 44.541274945055 40.5311079639639  44.0185138461538 41.0536343243243  44.0187362637362 41.6979425405405  C 44.0189586813187 42.3422507567568  44.5420806043957 42.8644173693694  45.1872342307693 42.8643063063064  C 45.8323878571429 42.8641952432433  46.3553296703296 42.3418487567567  46.3553296703296 41.6975405405406  C 46.3546624175824 41.0527228828828  45.8308841208791 40.5304409819819  45.1852197802198 40.5307747747747  Z M 27.9224725274725 43.1220450450451  L 27.9236813186814 43.1220450450451  C 27.1363291208791 43.1220450450451  26.4980232967033 42.4846655945946  26.4979120879121 41.698345144144  C 26.4978008791209 40.9120252972973  27.1359265934066 40.2744653693694  27.9232787912088 40.2742432432433  C 28.7106303846153 40.2740211171172  29.3491169230769 40.9112206936936  29.3494505494505 41.6975405405406  C 29.3484508791209 42.4840945855856  28.7100586263736 43.1213798738738  27.9224725274725 43.1220450450451  Z M 27.9224725274725 40.5307747747747  L 27.9236813186814 40.5307747747747  C 27.2784491208791 40.5307747747747  26.7553846153846 41.0531538558557  26.7553846153846 41.6975405405406  C 26.7553846153846 42.3419272252252  27.2784491208791 42.8643063063064  27.9236813186814 42.8643063063064  C 28.5689135164835 42.8643063063064  29.091978021978 42.3419272252252  29.091978021978 41.6975405405406  C 29.0913107692307 41.0529582882882  28.5679005494505 40.5307741711711  27.9224725274725 40.5307747747747  Z M 10.2813736263736 43.1220450450451  L 10.2825824175824 43.1220450450451  C 9.49530939560441 43.1217118558559  8.85730637362639 42.4841845225226  8.85741758241755 41.6979431441441  C 8.85752879120878 40.9117011621622  9.49571192307684 40.2743543063064  10.2829855494505 40.2742432432433  C 11.0702585714286 40.2741321801802  11.7086224175824 40.9112991621621  11.708956043956 41.6975405405406  C 11.7082887912088 42.4844676126127  11.0693338461538 43.1220450450451  10.2813736263736 43.1220450450451  Z M 10.2813736263736 40.5307747747747  L 10.2825824175824 40.5307747747747  C 9.63742879120878 40.5311079639639  9.11466769230765 41.0536343243243  9.11489010989004 41.6979425405405  C 9.11511252747255 42.3422507567568  9.63823445054948 42.8644173693694  10.2833880769231 42.8643063063064  C 10.9285417032967 42.8641952432433  11.4514835164835 42.3418487567567  11.4514835164835 41.6975405405406  C 11.4508162637362 41.0527228828828  10.927037967033 40.5304409819819  10.2813736263736 40.5307747747747  Z M 53.5337362637363 38.1042882882882  L 53.5349450549451 38.1042882882882  C 52.7475142857143 38.1042882882882  52.1091758241759 37.4667863063062  52.1091758241759 36.6803873873873  C 52.1091758241759 35.8939884684685  52.7475142857143 35.2564864864864  53.5349450549451 35.2564864864864  C 54.3223758241758 35.2564864864864  54.9607142857143 35.8939884684685  54.9607142857143 36.6803873873873  C 54.9593815934065 37.4667054234235  54.3210872527472 38.1036237207206  53.5337362637363 38.1042882882882  Z M 53.5337362637363 35.5130180180181  L 53.5349450549451 35.5130180180181  C 52.8897914285715 35.5130180180181  52.3667595604396 36.0352745675675  52.3666483516483 36.6795827837836  C 52.3665371428572 37.323891  52.8893889010989 37.8463274234234  53.5345425274725 37.8465495495495  C 54.1796961538461 37.8467716756757  54.7029081318682 37.3246956036037  54.7032417582418 36.6803873873873  C 54.7029081318682 36.0355697297298  54.1794006043956 35.5130180180181  53.5337362637363 35.5130180180181  Z M 36.345934065934 38.1042882882882  L 36.3471428571428 38.1042882882882  C 35.5597912637363 38.103955099099  34.9217556043956 37.4663052342341  34.921978021978 36.6799853873874  C 34.9222004395604 35.8936649369368  35.560596923077 35.2563754234234  36.3479485164835 35.2564864864864  C 37.1353007142857 35.2565975495495  37.7735164835165 35.894066936937  37.7735164835165 36.6803873873873  C 37.7725162087912 37.467079054054  37.1336585714286 38.1042888918919  36.345934065934 38.1042882882882  Z M 36.345934065934 35.5130180180181  L 36.3471428571428 35.5130180180181  C 35.7020678021978 35.5133512072073  35.1793393406593 36.0357550360361  35.1794505494505 36.6799847837838  C 35.1795617582418 37.3242145315314  35.702470934066 37.8464384864865  36.347545989011 37.8465495495495  C 36.992621043956 37.8466606126126  37.5157103296702 37.3246171351352  37.516043956044 36.6803873873873  C 37.5158837912088 36.3706216396397  37.3925145604396 36.073607018018  37.1730766483516 35.8546824054054  C 36.9536381318682 35.6357583963963  36.6561062637362 35.512858063063  36.345934065934 35.5130180180181  Z M 18.6310989010989 38.1042882882882  C 17.8439842307693 38.1032911351351  17.2060567582417 37.4664700180181  17.2047252747253 36.6803873873873  C 17.2412724725274 35.8543981081082  17.8823627472527 35.1819420450449  18.7066483516484 35.1049819819821  C 19.4937624175824 35.1063117207207  20.1314191208791 35.7434032522522  20.1324175824175 36.5294864864866  C 20.0966494505494 37.3554733513513  19.455418956044 38.0280893693694  18.6310989010989 38.1042882882882  Z M 18.7054395604395 35.3621171171171  L 18.7066483516484 35.3621171171171  C 18.2272363186813 35.3614845405405  17.7966262087912 35.6548944414415  17.6223626373626 36.1009279279278  C 17.4106682417582 36.460550126126  17.408839945055 36.9060488198197  17.6175758241758 37.267391891892  C 17.8263117032967 37.628734963964  18.2133986813187 37.8501590990991  18.6310989010989 37.8471531531532  C 19.1103598351648 37.8478823063062  19.540927032967 37.5547422162163  19.7153846153846 37.1089459459458  L 19.7220329670329 37.0932522522523  C 19.821126043956 36.9217660540539  19.8738245054944 36.7274763153152  19.874945054945 36.5294864864866  C 19.8746114285715 35.8846688288288  19.3511039010988 35.3621171171171  18.7054395604395 35.3621171171171  Z M 1.44208791208791 38.1042882882882  L 1.44329670329665 38.1042882882882  C 0.655945109890126 38.103955099099  0.017909450549439 37.4663052342341  0.0181318681318317 36.6799853873874  C 0.0183542857142811 35.8936649369368  0.656750769230769 35.2563754234234  1.44410236263735 35.2564864864864  C 2.23145456043954 35.2565975495495  2.86967032967027 35.894066936937  2.86967032967027 36.6803873873873  C 2.86867005494508 37.467079054054  2.22981241758237 38.1042888918919  1.44208791208791 38.1042882882882  Z M 1.44208791208791 35.5130180180181  L 1.44329670329665 35.5130180180181  C 0.798221648351671 35.5133512072073  0.275493186813151 36.0357550360361  0.275604395604432 36.6799847837838  C 0.2757156043956 37.3242145315314  0.798624780219768 37.8464384864865  1.44369983516481 37.8465495495495  C 2.08877489010985 37.8466606126126  2.61186417582411 37.3246171351352  2.61219780219778 36.6803873873873  C 2.61203763736262 36.3706216396397  2.48866840659343 36.073607018018  2.26923049450551 35.8546824054054  C 2.04979197802197 35.6357583963963  1.75226010989007 35.512858063063  1.44208791208791 35.5130180180181  Z M 45.7884065934066 34.6637477477477  L 45.7896153846153 34.6637477477477  C 45.0023423626374 34.6634145585585  44.3643393406594 34.0258872252252  44.3644505494506 33.2396458468468  C 44.3645617582417 32.4534038648649  45.0027448901099 31.816057009009  45.7900185164835 31.8159459459459  C 46.5772915384615 31.8158348828829  47.2156553846154 32.4530018648647  47.215989010989 33.2392432432432  C 47.2153217582418 34.0261703153153  46.5763668131867 34.6637477477477  45.7884065934066 34.6637477477477  Z M 45.7884065934066 32.0724774774774  L 45.7896153846153 32.0724774774774  C 45.1444617582417 32.0728106666666  44.6217006593406 32.595337027027  44.6219230769231 33.2396452432433  C 44.6221454945055 33.8839534594595  45.1452674175824 34.4061200720721  45.790421043956 34.406009009009  C 46.4355746703296 34.405897945946  46.9585164835164 33.8835514594593  46.9585164835164 33.2392432432432  C 46.9578492307692 32.5944255855857  46.4340709340659 32.0721436846848  45.7884065934066 32.0724774774774  Z M 28.5256593406593 34.6637477477477  L 28.5268681318681 34.6637477477477  C 27.7395159340659 34.6637477477477  27.1012101098901 34.0263682972973  27.1010989010989 33.2400478468469  C 27.1009876923076 32.453728  27.7391134065934 31.8161680720721  28.5264656043956 31.8159459459459  C 29.3138171978022 31.8157238198198  29.9523037362637 32.4529233963965  29.9526373626373 33.2392432432432  C 29.9516376923077 34.0257972882882  29.3132454395604 34.6630825765765  28.5256593406593 34.6637477477477  Z M 28.5256593406593 32.0724774774774  L 28.5268681318681 32.0724774774774  C 27.8816359340659 32.0724774774774  27.3585714285714 32.5948565585586  27.3585714285714 33.2392432432432  C 27.3585714285714 33.8836299279278  27.8816359340659 34.406009009009  28.5268681318681 34.406009009009  C 29.1721003296703 34.406009009009  29.6951648351648 33.8836299279278  29.6951648351648 33.2392432432432  C 29.6944975824176 32.5946609909909  29.1710873626373 32.0724768738739  28.5256593406593 32.0724774774774  Z M 10.9601098901099 34.6637477477477  L 10.9613186813187 34.6637477477477  C 10.1740456593407 34.6634145585585  9.53604263736264 34.0258872252252  9.53615384615387 33.2396458468468  C 9.53626505494503 32.4534038648649  10.1744481868132 31.816057009009  10.9617218131868 31.8159459459459  C 11.7489948351648 31.8158348828829  12.3873586813187 32.4530018648647  12.3876923076923 33.2392432432432  C 12.387025054945 34.0261703153153  11.7480701098901 34.6637477477477  10.9601098901099 34.6637477477477  Z M 10.9601098901099 32.0724774774774  L 10.9613186813187 32.0724774774774  C 10.316165054945 32.0728106666666  9.79340395604396 32.595337027027  9.79362637362635 33.2396452432433  C 9.79384879120875 33.8839534594595  10.3169707142857 34.4061200720721  10.9621243406593 34.406009009009  C 11.6072779670329 34.405897945946  12.1302197802198 33.8835514594593  12.1302197802198 33.2392432432432  C 12.1295525274725 32.5944255855857  11.6057742307692 32.0721436846848  10.9601098901099 32.0724774774774  Z M 36.9491208791209 29.6453873873875  L 36.9503296703297 29.6459909909911  C 36.1629780769231 29.6456578018017  35.5249424175825 29.008007936937  35.5251648351648 28.2216880900901  C 35.5253872527472 27.4353676396397  36.1637837362637 26.798078126126  36.9511353296704 26.7981891891891  C 37.7384875274724 26.7983002522521  38.3767032967032 27.4357696396396  38.3767032967032 28.22209009009  C 38.3757024175824 29.0086839729729  37.7367474725274 29.6457211801801  36.9491208791209 29.6453873873875  Z M 36.9491208791209 27.0547207207208  L 36.9503296703297 27.0547207207208  C 36.3047632417582 27.0547207207208  35.7814285714286 27.5773696126125  35.7814285714286 28.22209009009  C 35.7814285714286 28.8668105675677  36.3047632417582 29.3894594594594  36.9503296703297 29.3894594594594  C 37.5958960989011 29.3894594594594  38.1192307692307 28.8668105675677  38.1192307692307 28.22209009009  C 38.1185635164835 27.5771746486487  37.5948831318681 27.0547201171171  36.9491208791209 27.0547207207208  Z M 19.3086263736264 29.6453873873875  C 18.5213739010989 29.6447222162162  17.8832524175824 29.0077067387388  17.8822527472527 28.2214864864866  C 17.8826691758242 28.2012651621621  17.8844865934066 28.1810969549549  17.8876923076923 28.1611261261262  C 17.8846703296703 28.1146486486487  17.8822527472527 28.0941261261262  17.8822527472527 28.0729999999999  C 17.8822527472527 27.2864344864865  18.5207265934066 26.6487972972973  19.3083241758242 26.6487972972973  C 20.0959217582417 26.6487972972973  20.7343956043956 27.2864344864865  20.7343956043956 28.0729999999999  C 20.7340172527473 28.0932237387387  20.7321992307693 28.1133943603604  20.728956043956 28.1333603603603  C 20.731978021978 28.1804414414414  20.7343956043956 28.2009639639639  20.7343956043956 28.22209009009  C 20.7330641208791 29.0078395315315  20.0954074175824 29.6443902342342  19.3086263736264 29.6453873873875  Z M 19.3086263736264 26.9032162162162  C 18.6633361538461 26.9038813873874  18.1403913186813 27.4261409549549  18.1397252747252 28.0705855855856  L 18.1475824175824 28.136981981982  L 18.1427472527473 28.1973423423424  C 18.1379967032967 28.6137563963964  18.356052967033 29.0010695135136  18.7147756593406 29.2133852702702  C 19.0734989560439 29.4257010270271  19.5183903296703 29.4307628468468  19.8818635714285 29.2266645495495  C 20.2453374175824 29.0225662522523  20.4721725274725 28.6403149549549  20.4769230769231 28.2239009009008  L 20.4696703296703 28.1575045045045  L 20.4739010989011 28.0971441441441  C 20.4802182417582 27.7838841351352  20.3604373076923 27.4811865855856  20.141394065934 27.2568705855856  C 19.9223508241758 27.0325551891892  19.6223572527472 26.9053728918918  19.3086263736264 26.9038198198198  Z M 2.12082417582417 29.6453873873875  C 1.33347258241758 29.6450541981981  0.695436923076898 29.0074043333334  0.69565934065929 28.2210844864865  C 0.69588175824174 27.4347640360361  1.33427824175823 26.7974745225224  2.12162983516481 26.7975855855855  C 2.908982032967 26.7976966486485  3.54719780219773 27.435166036036  3.54719780219773 28.2214864864866  C 3.54653115384616 29.0078449639639  2.90821445054945 29.6450548018017  2.12082417582417 29.6453873873875  Z M 2.12082417582417 27.0541171171171  C 1.47525774725273 27.0541171171171  0.951923076923037 27.5767660090089  0.951923076923037 28.2214864864866  C 0.951923076923037 28.866206963964  1.47525774725273 29.3888558558558  2.12082417582417 29.3888558558558  C 2.76639060439555 29.3888558558558  3.28972527472524 28.866206963964  3.28972527472524 28.2214864864866  C 3.28872620879116 27.5772778648648  2.76587868131867 27.0553852882883  2.12082417582417 27.0547207207208  Z M 27.6958241758242 24.6572072072072  C 26.9083934065934 24.6572072072072  26.2700549450549 24.0197052252252  26.2700549450549 23.2333063063063  C 26.2700549450549 22.4469073873875  26.9083934065934 21.8094054054054  27.6958241758242 21.8094054054054  C 28.483254945055 21.8094054054054  29.1215934065934 22.4469073873875  29.1215934065934 23.2333063063063  C 29.1209273626373 24.0195271621622  28.483076043956 24.6568124504504  27.6958241758242 24.6578108108108  Z M 27.6958241758242 22.0665405405405  C 27.050591978022 22.0665405405405  26.5275274725274 22.5889196216217  26.5275274725274 23.2333063063063  C 26.5275274725274 23.8776929909909  27.050591978022 24.4000720720721  27.6958241758242 24.4000720720721  C 28.3410563736264 24.4000720720721  28.8641208791208 23.8776929909909  28.8641208791208 23.2333063063063  C 28.8631218131868 22.5894308738739  28.340545054945 22.0678087117117  27.6958241758242 22.0671441441441  Z M 10.2813736263736 24.5063063063062  C 9.494022032967 24.505973117117  8.85598637362642 23.8683232522521  8.85620879120881 23.0820034054054  C 8.85643120879121 22.2956829549548  9.49482769230769 21.6583934414414  10.2821792857143 21.6585045045044  C 11.0695314835165 21.6586155675675  11.7077472527473 22.2960849549549  11.7077472527473 23.0824054054053  C 11.7074136263736 23.8689992882883  11.0689996153846 24.5065767207207  10.2813736263736 24.5069099099098  Z M 10.2813736263736 21.9192612612612  L 10.2813736263736 21.9156396396397  C 9.63621999999998 21.9159728288289  9.11345890109891 22.4384991891891  9.1136813186813 23.0828074054054  C 9.11390373626369 23.7271156216216  9.63702565934062 24.2492822342342  10.2821792857143 24.2491711711712  C 10.9273329120879 24.2490601081081  11.4502747252747 23.7267136216217  11.4502747252747 23.0824054054053  C 11.4476129670329 22.439474009009  10.925154065934 21.9195878108108  10.2813736263736 21.9192612612612  Z M 35.9917582417582 19.4167207207208  L 36.1628021978022 19.6708378378378  L 35.8606043956044 19.6140990990991  C 35.1860475274725 19.4888541279279  34.6965964835164 18.9013693963964  34.695934065934 18.2161531531531  C 34.6969518681319 18.1351239567568  34.7050410989011 18.0543376504504  34.7201098901098 17.9747117117117  L 34.7726923076923 17.6698918918919  L 34.954010989011 17.9228018018018  C 35.2985164835165 18.4056846846847  35.6448351648352 18.9084864864865  35.9917582417582 19.4167207207208  Z M 34.9636813186813 18.3869729729729  C 35.0177511538461 18.7445422549549  35.2350265384615 19.0567595387388  35.5517582417583 19.2320180180179  C 35.3547252747252 18.9489279279278  35.1589010989011 18.6658378378379  34.9636813186813 18.3875765765765  Z M 18.6286813186813 19.4885495495496  L 18.6298901098901 19.4885495495496  C 18.6096482967033 19.4885192486486  18.5894397252747 19.4869047297298  18.5694505494505 19.4837207207206  L 18.535 19.4837207207206  C 18.5150108241758 19.4869072045044  18.4948022527472 19.4885217837839  18.4745604395604 19.4885495495496  C 17.6871296703296 19.4885495495496  17.0487912087912 18.8510473864865  17.0487912087912 18.0646486486487  C 17.0487912087912 17.2782499108107  17.6871296703296 16.6407477477478  18.4745604395604 16.6407477477478  C 18.4948052747253 16.6406973468468  18.5150204945055 16.642312409009  18.535 16.6455765765766  L 18.5682417582418 16.6455765765766  C 18.5882218681318 16.6423151252252  18.6084364835165 16.6407000630632  18.6286813186813 16.6407477477478  C 19.416112087912 16.6407477477478  20.0544505494506 17.2782499108107  20.0544505494506 18.0646486486487  C 20.0544505494506 18.8510473864865  19.416112087912 19.4885495495496  18.6286813186813 19.4885495495496  Z M 18.5041758241758 16.9002972972974  L 18.4993406593406 16.900900900901  C 18.0767291208791 16.8883238540541  17.6803543956044 17.1049936450449  17.4631962637362 17.4672871513512  C 17.2460375274725 17.8295806576577  17.2420587912088 18.2808361  17.4527946153846 18.6468927126125  C 17.663531043956 19.0129493252252  18.0560237362637 19.236556754955  18.4787912087912 19.2314144144143  C 18.5912087912088 19.2187387387387  18.5815384615384 19.2259819819819  18.6045054945055 19.2314144144143  L 18.6087362637363 19.2314144144143  C 19.0256967032967 19.235188264865  19.413000054945 19.0165212099098  19.6247524725275 18.6577830495496  C 19.8365054945054 18.2990448891892  19.8405374175824 17.8547364414414  19.6353293956043 17.4922244306306  C 19.430121978022 17.1297124198197  19.0468505494505 16.9040710873874  18.6298901098901 16.9002972972974  C 18.6214406593407 16.899651018919  18.6129549450549 16.899651018919  18.6045054945055 16.9002972972974  C 18.5712045054945 16.9046539873873  18.5374768131869 16.9046539873873  18.5041758241758 16.9002972972974  Z M 1.44208791208791 19.4885495495496  C 0.654657142857161 19.4882161189189  0.016589450549418 18.8504437828828  0.0169230769230921 18.0640451054055  C 0.0172573076923186 17.2776464882884  0.65586653846151 16.6404146792793  1.44329670329665 16.6407479891891  C 2.23072747252746 16.6410813594593  2.86879516483515 17.2788535747748  2.86846153846153 18.0652522522523  C 2.86779489010985 18.851610609009  2.2294781868132 19.4888203864864  1.44208791208791 19.4891531531532  Z M 1.44208791208791 16.8978828828829  C 0.797012857142818 16.8982162531531  0.274284395604354 17.4206200216215  0.274395604395579 18.0648497693694  C 0.274506813186804 18.7090795171171  0.797415989010972 19.23130310991  1.44249104395601 19.2314142333332  C 2.08756609890111 19.2315253567567  2.61065538461537 18.7094819396395  2.61098901098899 18.0652522522523  C 2.61032236263736 17.4209057072071  2.08728021978021 16.8988191324324  1.44208791208791 16.8984864864865  Z M 28.5256593406593 13.5291711711711  L 28.5256593406593 13.5279639639639  C 27.7382285714285 13.5279639639639  27.0998901098901 12.890461800901  27.0998901098901 12.104063063063  C 27.0998901098901 11.3176643252252  27.7382285714285 10.6801621621621  28.5256593406593 10.6801621621621  C 29.3130901098901 10.6801621621621  29.9514285714286 11.3176643252252  29.9514285714286 12.104063063063  C 29.9510955494505 12.8905196261262  29.3131475274725 13.5281723279279  28.5256593406593 13.5291711711711  Z M 28.5256593406593 10.9366936936938  C 27.8805057142857 10.936693754054  27.3574738461538 11.4589500018019  27.3573626373627 12.1032583387387  C 27.3572514285714 12.7475666756757  27.8801031868131 13.2700029783784  28.5252568131868 13.2702251648648  C 29.1704104395604 13.2704473513513  29.6936224175823 12.7483713396396  29.6939560439561 12.104063063063  C 29.6932899999999 11.4599519234234  29.1706153296703 10.9379627099099  28.5256593406593 10.9372972972974  Z M 10.9601098901099 13.5291711711711  L 10.9601098901099 13.5279639639639  C 10.1727582967033 13.5276306540541  9.53472263736262 12.8899809702702  9.53494505494501 12.1036608216216  C 9.53516747252741 11.3173406729729  10.1735639560439 10.6800512198197  10.9609155494505 10.680162282883  C 11.7482677472527 10.680273345946  12.3864835164835 11.3177429144143  12.3864835164835 12.104063063063  C 12.3864835164835 12.8908928945946  11.7479721978022 13.5288379216215  10.9601098901099 13.5291711711711  Z M 10.9601098901099 10.9366936936938  C 10.3150348351649 10.937027063964  9.79230637362639 11.4594308324324  9.79241758241756 12.1036605801801  C 9.79252879120878 12.747890327928  10.3154379670329 13.2701139207206  10.960513021978 13.2702250441441  C 11.605588076923 13.2703361675676  12.1286773626373 12.7482927504504  12.129010989011 12.104063063063  C 12.1283443406593 11.459716518018  11.6053021978022 10.9376299432431  10.9601098901099 10.9372972972974  Z M 19.3086263736264 8.51081081081088  C 18.521275989011 8.50981317477476  17.8832518131868 7.8726248252251  17.8822527472527 7.08630630630637  C 17.8826045054945 7.06608142072082  17.8844225274726 7.04590850540535  17.8876923076923 7.02594594594598  C 17.8846703296703 6.97886486486482  17.8822527472527 6.95773873873873  17.8822527472527 6.93661261261263  C 17.8822527472527 6.15004715945952  18.5207265934066 5.51240990990982  19.3083241758242 5.51240990990982  C 20.0959217582417 5.51240990990982  20.7343956043956 6.15004715945952  20.7343956043956 6.93661261261263  C 20.7340027472527 6.95683526486482  20.7321853296703 6.97700528288283  20.728956043956 6.99697297297303  C 20.731978021978 7.04405405405396  20.7343956043956 7.06397297297303  20.7343956043956 7.08509909909912  C 20.7343968131868 7.87188939459452  20.0964475824175 8.51008256306295  19.3086263736264 8.5114144144145  Z M 19.3086263736264 5.76863963963956  C 18.6634340659341 5.76897228558551  18.1403919230769 6.29105886036041  18.1397252747252 6.93540540540539  L 18.1475824175824 7.0024054054054  L 18.1427472527473 7.06276576576579  C 18.1355706593407 7.7064860117116  18.6522757142857 8.23413455225227  19.2968406593407 8.24130180180191  C 19.9414056043956 8.24846905135132  20.4697464835165 7.73244096666667  20.4769230769231 7.08872072072063  L 20.4696703296703 7.02232432432425  L 20.4769230769231 6.93781981981988  C 20.4772573076923 6.29300167927931  19.9542901098901 5.76990962162154  19.3086263736264 5.76924324324318  Z M 2.12082417582417 8.51081081081088  C 1.33355115384614 8.51047744054063  0.695548131868122 7.8729503486486  0.69565934065929 7.08670878918929  C 0.695770549450515 6.30046722972975  1.33395368131869 5.66312025315301  2.12122730769232 5.66300912972974  C 2.90850032967029 5.66289800630625  3.54686417582417 6.30006480720726  3.54719780219773 7.08630630630637  C 3.54686478021972 7.87299827477477  2.90854807692307 8.51074833783787  2.12082417582417 8.5114144144145  Z M 2.12082417582417 5.91954054054054  C 1.47567054945051 5.91987385045036  0.952909450549441 6.44240021081077  0.953131868131891 7.08670848738734  C 0.953354285714283 7.73101682432434  1.47647620879121 8.25318295405395  2.12162983516481 8.2530718909909  C 2.76678346153847 8.25296082792784  3.28972527472524 7.73061464324314  3.28972527472524 7.08630630630637  C 3.28872560439555 6.44219546846853  2.76578076923073 5.92047624684687  2.12082417582417 5.92014414414416  Z M 10.2813736263736 3.37233333333324  L 10.2801648351648 3.37172972972962  C 9.4928132417582 3.3713964198198  8.85477758241757 2.73374673603598  8.85499999999996 1.94742658738733  C 8.85522241758235 1.16110643873867  9.4936189010989 0.523816985585654  10.2809704945055 0.523928048648713  C 11.0683226923077 0.524039111711772  11.7065384615384 1.16150868018008  11.7065384615384 1.94782882882873  C 11.705873021978 2.73381440000003  11.0683897802197 3.37100256846838  10.2813736263736 3.37233333333324  Z M 10.2813736263736 0.781063063063129  L 10.2801648351648 0.780459459459507  C 9.6345984065934 0.780459459459507  9.11126373626371 1.30310853243236  9.11126373626371 1.94782882882873  C 9.11126373626371 2.5925491252251  9.6345984065934 3.11519819819819  10.2801648351648 3.11519819819819  C 10.9257312637363 3.11519819819819  11.4490659340659 2.5925491252251  11.4490659340659 1.94782882882873  C 11.4484004945054 1.30395303423415  10.9260939010989 0.782061000900967  10.2813736263736 0.781063063063129  Z " fill-rule="nonzero" fill="#ffffff" stroke="none" transform="matrix(1 0 0 1 670 426 )" />
  </g>
</svg>