<?xml version="1.0" encoding="utf-8"?>
<svg version="1.1" xmlns:xlink="http://www.w3.org/1999/xlink" width="72px" height="33px" xmlns="http://www.w3.org/2000/svg">
  <g transform="matrix(1 0 0 1 -601 -457 )">
    <path d="M 68.2063865546219 16.3368333333333  C 74.698487394958 12.5070000000001  72.2438319327731 -3.50105555555547  57.3017142857143 1.15011111111107  C 57.3017142857143 1.15011111111107  42.6887394957983 9.12022222222231  24.5042016806723 18.3333333333333  C 20.4631260504202 20.6115555555555  16.7983865546218 19.1846111111111  15.3886386554622 18.9945555555555  C 13.9788907563025 18.8045  9.65586554621848 14.9129444444445  8.24914285714283 17.0011111111112  C 6.84242016806724 19.0892777777779  9.00060504201679 19.7511111111112  9.2825546218487 20.8932777777777  C 9.56450420168068 22.0354444444445  2.42258823529409 17.9507777777778  0.919058823529383 21.9370555555556  C -0.58447058823532 25.9233333333334  0.919058823529383 34.1818888888888  14.1694789915966 32.1884444444445  C 24.6972100840336 29.9102222222223  24.7577142857143 27.3936666666666  32.0248739495798 26.2087222222222  C 41.3751932773109 24.6809444444443  61.7142857142857 20.1666666666667  68.2063865546219 16.3368333333333  Z " fill-rule="nonzero" fill="#fac896" stroke="none" transform="matrix(1 0 0 1 601 457 )" />
  </g>
</svg>