<?xml version="1.0" encoding="utf-8"?>
<svg version="1.1" xmlns:xlink="http://www.w3.org/1999/xlink" width="22px" height="22px" xmlns="http://www.w3.org/2000/svg">
  <g transform="matrix(1 0 0 1 -448 -519 )">
    <path d="M 12.7587518973062 1.59994912243155  C 14.6962589883905 -0.391377610071686  17.8375787310248 -0.391377610071686  19.7750858221091 1.59994912243155  L 20.1215299229023 1.95601667046913  C 21.0519536541325 2.91228550534447  21.5746602307045 4.20926435785623  21.5746602307045 5.56163275837139  C 21.5746602307045 6.9140010724625  21.0519536120883 8.21097996818639  20.1215299229023 9.1672487598496  L 9.23544902758863 20.3557207911442  C 7.2981060770104 22.346878823683  4.15711062119033 22.3470722841701  2.21953554465568 20.356152911955  L 1.87267100199259 19.9996532431069  C 0.942247270762437 19.0433844082313  0.419540652146253 17.7464055989317  0.419540652146253 16.3940371984165  C 0.419540652146253 15.0416688843254  0.942247270762437 13.7446899886015  1.87267100199256 12.7884211537262  L 12.7587518973062 1.59994912243155  Z " fill-rule="nonzero" fill="#fac896" stroke="none" transform="matrix(1 0 0 1 448 519 )" />
  </g>
</svg>