<?xml version="1.0" encoding="utf-8"?>
<svg version="1.1" xmlns:xlink="http://www.w3.org/1999/xlink" width="5px" height="5px" xmlns="http://www.w3.org/2000/svg">
  <g transform="matrix(1 0 0 1 -664 -314 )">
    <path d="M 1.111875 0.0606250000000728  L 4.29187500000006 0.0606250000000728  C 4.59314811250005 0.0779350625000461  4.82858963750004 0.327292506249933  4.82858963750004 0.629062499999918  C 4.82858963750004 0.930832493749904  4.59314811250005 1.18018993750002  4.29187500000006 1.19749999999999  L 1.64937500000002 1.19749999999999  L 1.64937500000002 3.98125000000005  C 1.66119241249999 4.18165306249989  1.56099108125005 4.37210296874991  1.38913954374999 4.47587236250001  C 1.21728800624999 4.57964175624988  1.00208699562501 4.57964175624988  0.830235458125003 4.47587236250001  C 0.658383920000006 4.37210296874991  0.558182589375008 4.18165306249989  0.57000000000005 3.98125000000005  L 0.57000000000005 0.629374999999982  C 0.563355629375053 0.322984950000091  0.805522180625019 0.0688078343750931  1.111875 0.0606250000000728  Z " fill-rule="nonzero" fill="#192684" stroke="none" transform="matrix(1 0 0 1 664 314 )" />
  </g>
</svg>