<?xml version="1.0" encoding="utf-8"?>
<svg version="1.1" xmlns:xlink="http://www.w3.org/1999/xlink" width="19px" height="19px" xmlns="http://www.w3.org/2000/svg">
  <g transform="matrix(1 0 0 1 -621 -262 )">
    <path d="M 15.928129032258 7.71518749999996  L 12.1017741935484 7.71518749999996  L 12.1017741935484 3.20803124999998  C 12.1322254935483 2.20233453125002  11.5957769193548 1.26014650000002  10.7014547032258 0.748588956249932  C 9.80713242580646 0.237031460000026  8.69641596129031 0.237031460000026  7.80209368387096 0.748588956249932  C 6.9077714677419 1.26014650000002  6.37132289354838 2.20233453125002  6.40177419354836 3.20803124999998  L 6.40177419354836 7.71518749999996  L 3.02529032258064 7.71518749999996  C 2.0236384548387 7.70076917187498  1.09163868709675 8.21018731562503  0.586466993548356 9.04821461562506  C 0.0812952999999652 9.88624191562508  0.0812952999999652 10.922914334375  0.586466993548356 11.7609416343751  C 1.09163868709675 12.5989689343751  2.0236384548387 13.1083870781249  3.02529032258064 13.0939687499999  L 6.40177419354836 13.0939687499999  L 6.40177419354836 16.1470312500001  C 6.44698953548385 17.640332390625  7.70963907096774 18.8281708281249  9.25177419354839 18.8281708281249  C 10.793909316129 18.8281708281249  12.0565588516129 17.640332390625  12.1017741935484 16.1470312500001  L 12.1017741935484 13.0939687499999  L 15.928129032258 13.0939687499999  C 16.9297809 13.1083870781249  17.8617806677419 12.5989689343751  18.3669523612903 11.7609416343751  C 18.8721240548387 10.922914334375  18.8721240548387 9.88624191562508  18.3669523612903 9.04821461562506  C 17.8617806677419 8.21018731562503  16.9297809 7.70076917187498  15.928129032258 7.71518749999996  Z " fill-rule="nonzero" fill="#ffffff" stroke="none" transform="matrix(1 0 0 1 621 262 )" />
  </g>
</svg>