<?xml version="1.0" encoding="utf-8"?>
<svg version="1.1" xmlns:xlink="http://www.w3.org/1999/xlink" width="21px" height="73px" xmlns="http://www.w3.org/2000/svg">
  <g transform="matrix(1 0 0 1 -657 -428 )">
    <path d="M 18.5166 72.9016611570248  L 18.4691999999999 72.9137272727273  L 18.4266 72.8895950413223  C 17.8814508 72.5839253388431  17.6004857999999 71.9546955041324  17.7355398 71.3419443636365  C 17.8705938 70.7291932231406  18.3896376 70.2782384380164  19.0121778 70.2327781404958  C 19.634718 70.1873178429751  20.213115 70.5581337107437  20.4348 71.1448347107437  L 20.4582 71.2051652892562  L 20.4312 71.2467933884298  C 20.1490344 72.1137142396694  19.4113614 72.7513149421488  18.5166 72.9016611570248  Z M 20.178 71.1924958677685  C 19.9981158 70.7628226942149  19.579035 70.4839584710744  19.1154 70.4854214876034  C 18.5962871999999 70.4832676859505  18.1394526 70.8294439421488  17.9984664 71.3318021900827  C 17.8574808 71.8341604380166  18.0669468 72.3693988512396  18.5106 72.6404297520662  C 19.2878171999999 72.5004965950413  19.9271682 71.9452978099173  20.178 71.1924958677685  Z M 11.3808 66.4861074380165  C 11.3798088 67.2718028181819  10.7467895999999 67.9085800082644  9.96539999999993 67.909909090909  C 9.18377399999997 67.909909090909  8.55011039999999 67.2728441239669  8.55000000000001 66.486911644628  C 8.54988960000003 65.7009797685951  9.18337439999999 65.0637344132231  9.96500040000001 65.0635123966943  C 10.7466257999999 65.0632903801652  11.3804688 65.7001755619835  11.3808 66.4861074380165  Z M 9.96539999999993 65.3199173553719  C 9.32486039999998 65.3199173553719  8.80559999999997 65.8420386942148  8.80559999999997 66.4861074380165  C 8.80559999999997 67.1301761818181  9.32486039999998 67.6522975206613  9.96539999999993 67.6522975206613  C 10.6059396 67.6522975206613  11.1252 67.1301761818181  11.1252 66.4861074380165  C 11.1245388 65.8423144049586  10.6056654 65.320582198347  9.96539999999993 65.3199173553719  Z M 19.1154 65.169090909091  C 18.333774 65.169090909091  17.7001104 64.5320259421487  17.7 63.74609346281  C 17.6998896 62.9601615867769  18.3333744 62.3229162314049  19.1150004 62.322694214876  C 19.8966258 62.322472198347  20.5304688 62.9593573801653  20.5308 63.7452892561982  C 20.5298088 64.5309846363637  19.8967896 65.1677618264462  19.1154 65.169090909091  Z M 19.1154 62.5790991735537  C 18.4748604 62.5790991735537  17.9555999999999 63.1012205123966  17.9555999999999 63.7452892561982  C 17.9555999999999 64.3893579999999  18.4748604 64.911479338843  19.1154 64.911479338843  C 19.7559396 64.911479338843  20.2751999999999 64.3893579999999  20.2751999999999 63.7452892561982  C 20.2745388 63.1014962231404  19.7556654 62.579764016529  19.1154 62.5790991735537  Z M 1.67759999999998 65.0182644628098  C 0.89605247999998 65.0179314380166  0.262689659999978 64.3807186611571  0.262800120000009 63.5948652148761  C 0.262910579999982 62.8090111652891  0.896452500000009 62.1719787768595  1.67800007999995 62.1718677685951  C 2.45954766 62.1717567603305  3.09326862 62.8086093636364  3.09359999999998 63.5944628099173  C 3.09260831999995 64.3803934793389  2.45922407999996 65.0172671983471  1.67759999999998 65.0182644628098  Z M 1.67759999999998 62.4282727272728  C 1.03713833999996 62.428605752066  0.518179199999963 62.9508742975206  0.518400059999976 63.5948646115703  C 0.518620919999989 64.2388549256198  1.03793819999999 64.7607639008265  1.67839991999995 64.7606528925619  C 2.31886164000002 64.7605418842975  2.83799993999997 64.238453123967  2.83800000000002 63.5944628099173  C 2.83733807999999 62.9504338842976  2.31809999999996 62.4286051487602  1.67759999999998 62.4282727272728  Z M 11.3808 58.579785123967  C 11.3798082 59.3653821652893  10.7466924 60.0019862066115  9.96539999999993 60.0029834710745  C 9.183696 60.0029834710745  8.55000000000001 59.3657960330579  8.55000000000001 58.579785123967  C 8.55000000000001 57.7937742148761  9.183696 57.1565867768595  9.96539999999993 57.1565867768595  C 10.747104 57.1565867768595  11.3808 57.7937742148761  11.3808 58.579785123967  Z M 9.96539999999993 57.4129917355372  C 9.32493840000001 57.4129917355372  8.80571039999995 57.9349906033058  8.80559999999997 58.5789809173555  C 8.80548959999999 59.2229712314049  9.32453879999997 59.7451498842975  9.96500040000001 59.7453719008265  C 10.605462 59.7455939173553  11.1248687999999 59.2237754380164  11.1252 58.579785123967  C 11.1248694 57.935756198347  10.6059 57.4136571818183  9.96539999999993 57.4129917355372  Z M 19.1154 57.2621652892562  C 18.333696 57.2621652892562  17.7 56.6249778512397  17.7 55.8389669421488  C 17.7 55.0529560330579  18.333696 54.4157685950413  19.1154 54.4157685950413  C 19.897104 54.4157685950413  20.5308 55.0529560330579  20.5308 55.8389669421488  C 20.5298081999999 56.624563983471  19.8966924 57.2611680247933  19.1154 57.2621652892562  Z M 20.2751999999999 55.8389669421488  C 20.2748693999999 55.1949380165288  19.7559 54.6728390000001  19.1154 54.6721735537189  C 18.4749384 54.6721735537189  17.9557103999999 55.1941724214876  17.9555999999999 55.8381627355373  C 17.9554896 56.4821530495867  18.4745388 57.0043317024792  19.1150004 57.0045537190083  C 19.755462 57.0047757355371  20.2748688 56.4829572561982  20.2751999999999 55.8389669421488  Z M 1.81559999999996 57.0980661157025  L 1.64879999999994 57.115561983471  L 1.67699999999996 56.949652892562  C 1.78620000000001 56.2992892561983  1.90320000000003 55.4661239669422  2.0256 54.4706694214876  L 2.04659999999996 54.3059669421489  L 2.20019999999994 54.3662975206612  C 2.80749029999998 54.6068566528925  3.17133359999997 55.2349335702479  3.07984499999998 55.8847662975206  C 2.98835639999999 56.5345990247934  2.46543281999999 57.0364504958677  1.81559999999996 57.0980661157025  Z M 2.82613433999995 55.8487953966942  C 2.89220069999999 55.3789999752066  2.66710937999994 54.9160997355373  2.25779999999997 54.6800165289255  C 2.15279999999996 55.5246446280992  2.05439999999999 56.2250826446279  1.95779999999996 56.8133057851239  C 2.41616039999997 56.7005895619834  2.76006797999997 56.3185908181817  2.82613433999995 55.8487953966942  Z M 11.3808 50.6728595041322  C 11.3798088 51.4585548842974  10.7467895999999 52.0953320743802  9.96539999999993 52.0966611570248  C 9.18377399999997 52.0966611570248  8.55011039999999 51.4595961900827  8.55000000000001 50.6736637107438  C 8.54988960000003 49.8877318347106  9.18337439999999 49.2504864793389  9.96500040000001 49.2502644628098  C 10.7466257999999 49.250042446281  11.3804688 49.8869276280991  11.3808 50.6728595041322  Z M 9.96539999999993 49.5066694214877  C 9.32486039999998 49.5066694214877  8.80559999999997 50.0287907603306  8.80559999999997 50.6728595041322  C 8.80559999999997 51.3169282479339  9.32486039999998 51.8390495867768  9.96539999999993 51.8390495867768  C 10.6059396 51.8390495867768  11.1252 51.3169282479339  11.1252 50.6728595041322  C 11.1245388 50.0290664710744  10.6056654 49.5073342644628  9.96539999999993 49.5066694214877  Z M 18.7085999999999 47.0107933884296  C 17.926896 47.0107933884296  17.2932 46.3736059504131  17.2932 45.5875950413224  C 17.2932 44.8015841322315  17.926896 44.1643966942149  18.7085999999999 44.1643966942149  C 19.490304 44.1643966942149  20.124 44.8015841322315  20.124 45.5875950413224  C 20.1230082 46.3731920826447  19.4898924 47.0097961239669  18.7085999999999 47.0107933884296  Z M 18.7085999999999 44.4208016528926  C 18.0677286 44.4208016528926  17.5482 44.9431926694215  17.5482 45.5875950413224  C 17.5482 46.2319974132231  18.0677286 46.754388429752  18.7085999999999 46.754388429752  C 19.3494714 46.754388429752  19.869 46.2319974132231  19.869 45.5875950413224  C 19.8683387999999 44.9434683801653  19.3491972 44.4214664958677  18.7085999999999 44.4208016528926  Z M 10.974 40.4214876033059  C 10.9382346 41.2469571239669  10.3018032 41.9190982892562  9.48359999999997 41.9955123966943  C 8.70217019999996 41.9948469504131  8.06886179999998 41.3580492479339  8.06819999999999 40.5723140495868  C 8.10345059999997 39.7466243223141  8.74015259999999 39.0741971900827  9.55859999999996 38.9982892561984  C 10.3400298 38.9989547024793  10.9733382 39.6357524049586  10.974 40.4214876033059  Z M 9.55859999999996 39.2552975206611  C 9.0828702 39.2541307272727  8.65530419999993 39.5469759586776  8.48219999999998 39.9925371900827  C 8.27026499999999 40.3522781735537  8.26747199999994 40.798916305785  8.47489200000001 41.1613088181819  C 8.68231259999999 41.5237007272726  9.06778320000001 41.7456557190082  9.48359999999997 41.742123966942  C 9.95920859999995 41.7427743305784  10.386429 41.4497625867768  10.5594 41.0042809917356  C 10.6614942 40.8281205289256  10.7164787999999 40.6283780495867  10.719 40.4245041322315  C 10.7193186 40.1147313471074  10.5972414 39.8175187851239  10.3796238 39.5982497107439  C 10.1620068 39.3789812396694  9.86667539999996 39.2556172727273  9.55859999999996 39.2552975206611  Z M 20.7228 37.1334710743802  C 20.7221382 37.9194415619834  20.0884638 38.556337  19.3068 38.5566694214876  C 18.5251746 38.5563363966942  17.8917792 37.9190011487603  17.8919999999999 37.1330692727272  C 17.8922208 36.3471367933885  18.5259744 35.7101617190083  19.3075997999999 35.7102727272727  C 20.0892258 35.7103837355371  20.7228 36.3475385950412  20.7228 37.1334710743802  Z M 19.3068 35.96547107438  L 19.3068 35.9666776859503  C 18.6659286 35.9666776859503  18.1464 36.4890687024792  18.1464 37.1334710743802  C 18.1464 37.7778734462809  18.6659286 38.30026446281  19.3068 38.30026446281  C 19.9476714 38.30026446281  20.4672 37.7778734462809  20.4672 37.1334710743802  C 20.4672006 36.488873231405  19.9478652 35.966137123967  19.3068 35.96547107438  Z M 11.5728 32.1151735537189  C 11.5734629999999 32.9022818760332  10.9395948 33.5409926611569  10.1568 33.5419917355371  C 9.37527360000001 33.5409938677685  8.74206120000002 32.904023016529  8.7414 32.1181900826446  C 8.74177079999998 32.0979998512396  8.74337399999996 32.0778518512398  8.74619999999999 32.0578595041322  C 8.74619999999999 32.0071818181818  8.7414 31.9878760330578  8.7414 31.9667603305786  C 8.7414 31.1805829090908  9.37523039999996 30.5432603305785  10.1571 30.5432603305785  C 10.9389696 30.5432603305785  11.5728 31.1805829090908  11.5728 31.9667603305786  C 11.5724262 31.9869740909091  11.5706214 32.0071353636363  11.5674 32.0270909090909  C 11.5704 32.0735454545454  11.5728 32.0940578512398  11.5728 32.1151735537189  Z M 10.1568 30.8011735537191  C 9.51653459999994 30.8018383966942  8.99766119999998 31.3235706033058  8.99700000000001 31.9673636363636  C 9.00179999999995 32.0065785123966  9.00360000000001 32.0216611570247  9.00419999999997 32.0373471074379  C 9.00403499999999 32.056546107438  9.00243060000003 32.0757046859503  8.99940000000004 32.0946611570248  C 8.986605 32.5165547024794  9.20164679999994 32.9124385289256  9.56158740000001 33.1296280082645  C 9.9215274 33.3468168842976  10.3701186 33.3513706363635  10.7343462 33.1415330413224  C 11.0985744 32.9316954462811  11.3215212 32.5402573801653  11.3172 32.1181900826446  L 11.3094 32.051826446281  L 11.3142 31.9914958677687  C 11.319822 31.6786999173553  11.200542 31.3766856446282  10.9830324 31.1529889090909  C 10.7655228 30.9292927768595  10.4679294 30.8025750330578  10.1568 30.8011735537191  Z M 18.4836 28.5556694214877  C 17.701896 28.5556694214877  17.0682 27.9184819834711  17.0682 27.1324710743802  C 17.0682 26.3464601652893  17.701896 25.7092727272727  18.4836 25.7092727272727  C 19.265304 25.7092727272727  19.899 26.3464601652893  19.899 27.1324710743802  C 19.8983382 27.9182062727273  19.2650298 28.5550039752065  18.4836 28.5556694214877  Z M 18.4836 25.9662809917354  C 17.8431384 25.9666140165289  17.3241791999999 26.4888825619835  17.3244 27.1328728760329  C 17.3246208 27.7768631900826  17.8439382 28.2987721652892  18.4843998 28.2986611570248  C 19.1248614 28.2985501487603  19.644 27.7764613884297  19.644 27.1324710743802  C 19.6430082 26.488580305785  19.1239631999999 25.9669452314049  18.4836 25.9662809917354  Z M 9.47879999999998 23.3901652892562  L 9.48359999999997 23.3901652892562  C 9.46350419999999 23.3901604628099  9.44344079999996 23.3885460165288  9.42360000000002 23.3853388429752  L 9.38999999999999 23.3853388429752  C 9.37016879999999 23.3886292727273  9.35009879999996 23.3902437190084  9.32999999999998 23.3901652892562  C 8.54829660000001 23.3901646859504  7.91460059999997 22.7529772479338  7.91460059999997 21.9669669421487  C 7.91460059999997 21.1809566363636  8.54829660000001 20.543769198347  9.32999999999998 20.5437685950412  C 9.35007599999994 20.5442047851238  9.37011000000001 20.5458162148759  9.38999999999999 20.5485950413222  C 9.43739999999997 20.5485950413222  9.45779999999996 20.5437685950412  9.47879999999998 20.5437685950412  C 9.98447399999998 20.5437685950412  10.451736 20.8150281487603  10.704573 21.2553677685951  C 10.95741 21.695706785124  10.95741 22.2382270991736  10.704573 22.6785661157026  C 10.451736 23.1189057355373  9.98447399999998 23.3901652892562  9.47879999999998 23.3901652892562  Z M 9.35759999999999 20.8068099173554  L 9.35399999999993 20.8037933884298  C 8.934462 20.7912223057851  8.54097000000002 21.007785553719  8.32539119999996 21.3698999421488  C 8.10981179999999 21.7320149338843  8.105862 22.1830475454544  8.31506519999999 22.5489235454545  C 8.52426899999995 22.9147995454546  8.91390719999998 23.1382965867767  9.33359999999993 23.1331570247935  L 9.35820000000001 23.1331570247935  C 9.39148019999999 23.1291365950412  9.4251198 23.1291365950412  9.45839999999998 23.1331570247935  L 9.46319999999997 23.1331570247935  C 9.88273800000002 23.1457281074379  10.2762299999999 22.929164859504  10.4918088 22.5670504710743  C 10.7073882 22.2049354793389  10.711338 21.7539028677686  10.5021348 21.3880268677685  C 10.292931 21.0221508677687  9.90329280000003 20.7986538264463  9.48359999999997 20.8037933884298  L 9.41759999999994 20.8110330578513  L 9.35759999999999 20.8068099173554  Z M 19.0284 17.2153305785123  L 19.0577999999999 17.4204545454545  L 18.8616 17.354694214876  C 18.3571583999999 17.1886712801652  17.9884104 16.7515515033058  17.9077974 16.2240421008264  C 17.8271837999999 15.6965327586777  18.0484026 15.1682589677687  18.48 14.8576115702479  L 18.6473999999999 14.7369504132232  L 18.6816 14.9426776859505  C 18.8058 15.7046528925619  18.9216 16.4696446280991  19.0284 17.2153305785123  Z M 18.4662 15.2111487603306  C 18.219651 15.4703783966943  18.1069068 15.8300925330577  18.1610874 16.1846205925619  C 18.215268 16.5391486520662  18.4302204 16.8482292644628  18.7428 17.0210661157025  C 18.6564 16.4256033057852  18.5634 15.8150578512395  18.4662 15.2117520661157  Z M 11.5728 10.9916280991736  C 11.5731318 11.7784030347107  10.9392635999999 12.4165735595041  10.1568 12.4172396694214  C 9.37537019999996 12.4165743438016  8.74206179999999 11.7797763396693  8.7414 10.9940413223139  C 8.74174319999997 10.973849944628  8.74334639999995 10.9537001347107  8.74619999999999 10.9337107438016  C 8.74619999999999 10.8824297520662  8.7414 10.8631239669421  8.7414 10.842611570248  C 8.7414 10.0564342090909  9.37523039999996 9.41911157024788  10.1571 9.41911157024788  C 10.9389696 9.41911157024788  11.5728 10.0564342090909  11.5728 10.842611570248  C 11.5724388 10.862825813223  11.570634 10.8829878702479  11.5674 10.9029421487603  C 11.5704 10.95  11.5728 10.9705123966942  11.5728 10.9916280991736  Z M 10.1568 9.67642148760319  C 9.5163 9.67708705454538  8.9973306 10.1991859504133  8.99700000000001 10.843214876033  C 9.00179999999995 10.8818264462809  9.00360000000001 10.8975123966943  9.00419999999997 10.9125950413222  C 9.00410640000001 10.932797761157  9.00250139999997 10.9529648256198  8.99940000000004 10.9729256198348  C 8.9866596 11.394855846281  9.2017902 11.7907390694215  9.56180759999995 12.0078676752066  C 9.92182439999999 12.2249962809917  10.3704582 12.2294337760331  10.7346534 12.019468461157  C 11.0988486 11.8095030859504  11.3216832 11.4179518396693  11.3172 10.9958512396695  L 11.3094 10.9288842975207  L 11.3142 10.871570247934  C 11.3211252 10.5579468033059  11.202423 10.2546802487602  10.9847718 10.0299302016529  C 10.76712 9.8051801545455  10.468779 9.67780100661162  10.1568 9.67642148760319  Z M 9.66899999999998 2.24912396694208  L 9.459 2.27627272727273  L 9.53279999999995 2.07597520661147  C 9.89279999999997 1.09922314049595  10.1232 0.48385123966932  10.1232 0.48385123966932  L 10.14 0.439206611570171  L 10.1813999999999 0.416280991735448  C 10.33644 0.332406344627998  10.4967846 0.25884629586767  10.6614 0.196074380165328  L 10.7904 0.144793388429662  L 10.8305999999999 0.278123966942076  C 10.8737219999999 0.411860268595092  10.8963804 0.551409361157084  10.8978 0.691991735537158  C 10.8976278 0.71216935785128  10.8962256 0.732317357851116  10.8936 0.752322314049479  C 10.8936 0.802999999999884  10.8978 0.822305785123945  10.8978 0.843421487603337  C 10.8942336 1.55458248016521  10.369962 2.15433039008258  9.66899999999998 2.24912396694208  Z M 10.3464 0.619595041322327  C 10.2924 0.76318181818192  10.1136 1.24160330578502  9.85559999999998 1.94143801652899  C 10.324806 1.78216130743795  10.6415652 1.34076397190074  10.644 0.842818181818075  C 10.643658 0.834904438842841  10.6426548 0.827033711570266  10.641 0.819289256198317  C 10.638504 0.80391129338841  10.6369014 0.788400120661208  10.6362 0.772834710743837  C 10.6363692 0.753636072727204  10.6379742 0.734477433884194  10.641 0.715520661156916  C 10.642908 0.640026172727175  10.6364682 0.564552196694194  10.6218 0.490487603305837  C 10.5324 0.527892561983435  10.44 0.569520661156957  10.3464 0.619595041322327  Z " fill-rule="nonzero" fill="#ffffff" stroke="none" transform="matrix(1 0 0 1 657 428 )" />
  </g>
</svg>