<?xml version="1.0" encoding="utf-8"?>
<svg version="1.1" xmlns:xlink="http://www.w3.org/1999/xlink" width="4px" height="4px" xmlns="http://www.w3.org/2000/svg">
  <g transform="matrix(1 0 0 1 -647 -409 )">
    <path d="M 1.65866666666665 3.85866666666652  C 1.31855606666664 3.70947079999996  1.16322966666667 3.31325433333336  1.31133333333332 2.97266666666656  C 1.46012739999998 2.63233353333339  1.8566088 2.47701706666658  2.196979 2.62572646666672  C 2.53734913333329 2.77443586666664  2.6927642 3.17087859999992  2.54413953333329 3.51128573333335  C 2.39551486666664 3.85169286666655  1.99911079999998 4.00720666666666  1.65866666666665 3.85866666666652  Z M 3.41266666666661 1.50999999999999  L 3.41133333333329 1.50999999999999  C 3.46385119999997 1.4695138666666  3.49813266666661 1.40982126666677  3.50663460000004 1.34405666666657  C 3.51513646666666 1.27829213333325  3.49716213333335 1.21184399999993  3.45666666666665 1.15933333333328  C 2.99223080000002 0.659043333333329  2.31642600000004 0.411223533333214  1.63866666666667 0.492666666666537  C 0.924142466666638 0.493972333333204  0.294415466666635 0.962140666666528  0.0873333333333335 1.64599999999996  C 0.0614410666666458 1.77812573333335  0.144834866666656 1.90702506666662  0.275964933333341 1.9375622  C 0.40709506666667 1.96809933333338  0.538855999999953 1.88930453333342  0.574000000000012 1.75933333333342  C 0.72787093333335 1.28933726666673  1.17302059999997 0.9769182  1.66733333333332 0.991999999999962  C 2.1800929333333 0.923463333333302  2.69544519999999 1.09828859999993  3.06066666666669 1.46466666666674  C 3.11617773333336 1.53651319999994  3.20620000000002 1.57272613333339  3.29599999999999 1.55933333333337  C 3.33839966666665 1.55289393333328  3.37851000000001 1.53593300000011  3.41266666666661 1.50999999999999  Z " fill-rule="nonzero" fill="#231f20" stroke="none" transform="matrix(1 0 0 1 647 409 )" />
  </g>
</svg>