<?xml version="1.0" encoding="utf-8"?>
<svg version="1.1" xmlns:xlink="http://www.w3.org/1999/xlink" width="11px" height="7px" xmlns="http://www.w3.org/2000/svg">
  <g transform="matrix(1 0 0 1 -461 -514 )">
    <path d="M 10.4017222222222 6.78941666666674  C 10.4982890833333 6.84103198333332  10.6198825944444 6.81747150000001  10.6877222222222 6.73399999999992  C 10.7174199 6.68701699166672  10.7257317444444 6.63049601666671  10.7107332444444 6.57752410000012  C 10.6957347444445 6.5245521249999  10.65872665 6.47972301666664  10.6082777777777 6.45341666666673  L 0.612944444444452 0.337750000000142  C 0.514334272222243 0.269485358333441  0.376794916666654 0.288056533333247  0.301888888888868 0.379750000000058  C 0.272342400000014 0.426863091666746  0.264115500000003 0.483412766666788  0.279095116666667 0.536428083333476  C 0.294074733333332 0.589443399999936  0.330975455555574 0.634374941666692  0.381333333333316 0.660916666666708  L 10.3766666666667 6.77600000000007  C 10.3846457611111 6.78107890833326  10.3930223222222 6.78556433333347  10.4017222222222 6.78941666666674  Z " fill-rule="nonzero" fill="#ffffff" stroke="none" transform="matrix(1 0 0 1 461 514 )" />
  </g>
</svg>