<?xml version="1.0" encoding="utf-8"?>
<svg version="1.1" xmlns:xlink="http://www.w3.org/1999/xlink" width="5px" height="5px" xmlns="http://www.w3.org/2000/svg">
  <g transform="matrix(1 0 0 1 -664 -360 )">
    <path d="M 1.111875 4.92499999999995  L 4.29187500000006 4.92499999999995  C 4.59528934374998 4.91076399999997  4.83396891250004 4.66062312500003  4.83396891250004 4.35687499999995  C 4.83396891250004 4.05312687500009  4.59528934374998 3.80298599999992  4.29187500000006 3.78874999999994  L 1.64937500000002 3.78874999999994  L 1.64937500000002 1.00437499999998  C 1.66119241249999 0.803971937500137  1.56099108125005 0.613522000000103  1.38913954374999 0.509752624999919  C 1.21728800624999 0.405983249999963  1.00208699562501 0.405983249999963  0.830235458125003 0.509752624999919  C 0.658383920000006 0.613522000000103  0.558182589375008 0.803971937500137  0.57000000000005 1.00437499999998  L 0.57000000000005 4.35687499999995  C 0.563359385000012 4.6631574999999  0.80562099812505 4.91715493750007  1.111875 4.92499999999995  Z " fill-rule="nonzero" fill="#192684" stroke="none" transform="matrix(1 0 0 1 664 360 )" />
  </g>
</svg>