<?xml version="1.0" encoding="utf-8"?>
<svg version="1.1" xmlns:xlink="http://www.w3.org/1999/xlink" width="5px" height="6px" xmlns="http://www.w3.org/2000/svg">
  <g transform="matrix(1 0 0 1 -470 -520 )">
    <path d="M 0.853333333333353 5.15039999999999  C -0.118333333333339 4.42560000000003  -0.259444444444455 2.82120000000009  0.537222222222226 1.57439999999997  C 1.33444444444444 0.326999999999998  2.77388888888891 -0.0989999999999327  3.74555555555554 0.625800000000027  C 4.71722222222223 1.35059999999999  4.85666666666668 2.95499999999993  4.06166666666667 4.20240000000013  C 3.26666666666665 5.4498000000001  1.82499999999999 5.87519999999995  0.853333333333353 5.15039999999999  Z M 0.844444444444434 1.80240000000003  L 0.843333333333362 1.80240000000003  C 0.162222222222226 2.86740000000009  0.261666666666656 4.221  1.06555555555553 4.81979999999999  C 1.86944444444447 5.41859999999997  3.07555555555558 5.03940000000011  3.75666666666666 3.97379999999998  C 4.4377777777778 2.90820000000008  4.33833333333331 1.55520000000001  3.53444444444443 0.956400000000031  C 2.73055555555555 0.357600000000048  1.52499999999998 0.73739999999998  0.844444444444434 1.80240000000003  Z " fill-rule="nonzero" fill="#ffffff" stroke="none" transform="matrix(1 0 0 1 470 520 )" />
  </g>
</svg>