<?xml version="1.0" encoding="utf-8"?>
<svg version="1.1" xmlns:xlink="http://www.w3.org/1999/xlink" width="10px" height="13px" xmlns="http://www.w3.org/2000/svg">
  <g transform="matrix(1 0 0 1 -566 -499 )">
    <path d="M 7.78647058823526 8.46857142857152  L 9.78411764705879 8.47104761904757  C 9.73790882352938 9.04176575714291  9.60339117647061 9.60070211904758  9.38588235294117 10.1257619047619  C 9.18049841176469 10.6219720904762  8.88013164705882 11.0683056714286  8.5035294117647 11.4369047619048  C 8.10383094117645 11.8201415428571  7.63406211764703 12.1135652857142  7.12294117647059 12.299238095238  C 6.51723347058822 12.5162506238096  5.8803304117647 12.6209794285714  5.24058823529413 12.6087619047619  C 4.57696564705878 12.6191218523809  3.91885035294115 12.4806886285714  3.30999999999995 12.2026666666666  C 2.7435426470588 11.9385357619049  2.24090376470588 11.5435027809524  1.83941176470586 11.0469047619047  C 1.41567052941173 10.5138717666666  1.09765294117642 9.89693200476199  0.904117647058797 9.23247619047629  C 0.677504941176437 8.45961919523825  0.567345764705863 7.65417107619055  0.577647058823516 6.84542857142856  L 0.577647058823516 5.85495238095245  C 0.567698882352943 5.0466489357143  0.68049211764702 4.24186114857139  0.91176470588232 3.471  C 1.11160799999999 2.80289722142857  1.4361868823529 2.18350607428579  1.8664705882353 1.64914285714281  C 2.27861352941176 1.14864282619055  2.79139005882348 0.750893680952458  3.36764705882354 0.48471428571429  C 3.98970858823526 0.203365219571424  4.6612352941176 0.0635015266475421  5.33823529411762 0.0742857142856792  C 5.96137770588234 0.0625449008475698  6.58144611764703 0.168856577809493  7.16882352941172 0.388142857142839  C 7.67035258823529 0.578907759857202  8.12954988235293 0.875514875238196  8.51823529411763 1.25976190476194  C 8.88999976470586 1.63590187428576  9.18519694117646 2.08767510095231  9.38588235294117 2.587619047619  C 9.60078276470585 3.1239837385715  9.73627823529409 3.69184968285708  9.7876470588235 4.27142857142849  L 7.78176470588232 4.27142857142849  C 7.74619252941176 3.91761322952379  7.67278676470585 3.56915365238092  7.56294117647059 3.23266666666655  C 7.46854970588237 2.94219653619052  7.31815135294113 2.67538178761902  7.12117647058824 2.44895238095251  C 6.92011429411764 2.22761259190474  6.67191217647058 2.05977202476197  6.39705882352939 1.95928571428567  C 6.05595017647056 1.83958659857149  5.69770329411762 1.78303477238092  5.33823529411762 1.79214285714284  C 4.92405511764701 1.78210082142846  4.5134834705882 1.87521920857148  4.13999999999999 2.06390476190472  C 3.79619129411759 2.24625370047625  3.50177364705883 2.51712369999996  3.28411764705879 2.85133333333329  C 3.0387950588235 3.23669328047617  2.86458605882353 3.66720325523806  2.7705882352941 4.12038095238108  C 2.65024976470585 4.68404708571438  2.59280270588232 5.26056231380949  2.59941176470585 5.83823809523801  L 2.59941176470585 6.84357142857152  C 2.59436547058823 7.40043212380942  2.64503688235294 7.95630481904777  2.75058823529412 8.50199999999995  C 2.83482599999996 8.95371601428565  2.99413023529411 9.3862497857142  3.22117647058826 9.77971428571436  C 3.42406305882349 10.1244099666667  3.7076188235294 10.4085376571429  4.0447058823529 10.6049047619049  C 4.41474117647056 10.809591495238  4.82859605882351 10.9106403095238  5.2464705882353 10.8983333333333  C 5.61982747058823 10.9075458761904  5.99218041176465 10.8538353238096  6.34941176470585 10.7392380952381  C 6.62847411764704 10.6456106095238  6.88302205882349 10.4849665142858  7.09294117647056 10.27  C 7.29574299999996 10.0531796857142  7.45200158823531 9.79310973333327  7.55117647058825 9.50733333333346  C 7.66770135294115 9.17187922857147  7.74666576470588 8.82327197142854  7.78647058823526 8.46857142857152  Z " fill-rule="nonzero" fill="#ffffff" stroke="none" transform="matrix(1 0 0 1 566 499 )" />
  </g>
</svg>