<?xml version="1.0" encoding="utf-8"?>
<svg version="1.1" xmlns:xlink="http://www.w3.org/1999/xlink" width="47px" height="36px" xmlns="http://www.w3.org/2000/svg">
  <g transform="matrix(1 0 0 1 -557 -447 )">
    <path d="M 26.8707435897436 35.8145084745763  L 26.6038076923077 35.8181694915254  L 26.7695128205128 35.606440677966  C 27.0339935705128 35.263077559322  27.4391267615384 35.0611840677966  27.8691501282051 35.0584480677967  C 28.2991734948718 35.0557126779661  28.7067797897436 35.2524362033898  28.9755 35.5924067796609  L 29.1448205128205 35.8023050847457  L 28.877282051282 35.8023050847457  C 28.2144615384615 35.8090169491525  27.542 35.8126779661018  26.8707435897436 35.8145084745763  Z M 27.8782307692308 35.318440677966  C 27.6275540397436 35.3187366101695  27.3839014602564 35.402336542373  27.1846794871794 35.5564067796611  C 27.6446367320513 35.5564067796611  28.1031880141026 35.5533559322034  28.5603333333333 35.5472542372881  C 28.3630739717948 35.3993454915253  28.1242833615385 35.319171661017  27.8788333333333 35.318440677966  Z M 10.9853461538461 35.2281355932203  L 11.4927051282051 35.5014915254237  L 10.9190641025641 35.4734237288135  C 10.5470812166666 35.4551186440679  10.1791153846154 35.4364065762711  9.81516666666664 35.4172881355933  L 9.25176923076924 35.386779661017  L 9.77298717948719 35.1671186440678  C 10.1653875884615 35.0005417627119  10.611191325641 35.0229789152543  10.9853461538461 35.2281355932203  Z M 36.2767692307692 32.865559322034  L 36.2767692307692 32.8625084745763  C 35.4917247961538 32.8625084745763  34.8553205128205 32.2180718644067  34.8553205128205 31.4231186440677  C 34.8553205128205 30.6281654237289  35.4917247961538 29.9837288135593  36.2767692307692 29.9837288135593  C 37.0618136653846 29.9837288135593  37.6982179487179 30.6281654237289  37.6982179487179 31.4231186440677  C 37.6988839628205 32.2188449491525  37.0625767525641 32.8645488813559  36.2767692307692 32.865559322034  Z M 36.2767692307692 30.2461016949153  L 36.2767692307692 30.2430508474577  C 35.8053707397436 30.2428037288134  35.3802536910256 30.5301618305084  35.1996884282051 30.9711032542373  C 35.0191231051282 31.4120446779662  35.1186774807692 31.9197130169491  35.451920375641 32.257336881356  C 35.7851632705128 32.5949601355933  36.2864521948718 32.6960334915254  36.721990951282 32.5134170847457  C 37.1575297076923 32.3308012881355  37.4415255807692 31.9004670508475  37.4415256410256 31.4231186440677  C 37.4392054076923 30.7730934915255  36.9186956525641 30.2471048135594  36.2767692307692 30.2461016949153  Z M 18.645141025641 32.8625084745763  C 17.8602741666667 32.8618360677965  17.224086324359 32.2178912542372  17.2230897435898 31.4231186440677  C 17.2245133012821 31.274312338983  17.2491194282051 31.1266653559321  17.296 30.9856271186441  C 17.5188382679487 30.2853776949153  18.2281698 29.8688454915255  18.9390420884615 30.0208027118645  C 19.6499143769231 30.1727599322035  20.1324671730769 30.844071457627  20.0567909666667 31.5757787796611  C 19.9811147602564 32.3074854915253  19.3716794987179 32.8629905084745  18.645141025641 32.8625084745763  Z M 18.6891282051282 30.0935593220338  L 18.6891282051282 30.0905084745762  C 18.1326794179487 30.0915884745762  17.6545322089743 30.4906875254237  17.5472692307692 31.0435932203391  L 17.5436538461538 31.0588474576271  C 17.5030530769231 31.1766077288135  17.481485198718 31.3002305084747  17.479782051282 31.4249491525422  C 17.4808290064103 32.0312629830507  17.9356706025641 32.5380020338982  18.5316071025641 32.5967875932204  C 19.1275436025641 32.6555731525423  19.6704142705128 32.2472526101694  19.787 31.6525423728813  C 19.8287859525641 31.5301301694915  19.8515527525641 31.401891457627  19.8544871794872 31.272406779661  C 19.8528288628205 30.621567661017  19.3318560974359 30.0945648813558  18.6891282051282 30.0935593220338  Z M 1.5094230769231 32.865559322034  L 1.5094230769231 32.8625084745763  C 0.72445715641021 32.8621716610169  0.0883551794871664 32.2175855593221  0.0885769833333256 31.4227122711864  C 0.0887987871794849 30.6278383728813  0.725260434615393 29.9836165423728  1.51022641538458 29.9837288135593  C 2.29519239615382 29.9838410847458  2.93147429871794 30.6282447457627  2.93147435897436 31.4231186440677  C 2.93195406025637 31.8054038644068  2.78236227948713 32.1722060338984  2.51564125641028 32.4427515254238  C 2.24892023333331 32.7132970169491  1.88694334615383 32.8653976271187  1.5094230769231 32.865559322034  Z M 1.5094230769231 30.2461016949153  L 1.5094230769231 30.2430508474577  C 0.865813091025643 30.2430508474577  0.344064102564062 30.7713850169491  0.344064102564062 31.4231186440677  C 0.344064102564062 32.0748522711865  0.865813091025643 32.603186440678  1.5094230769231 32.603186440678  C 2.1530330628205 32.603186440678  2.67478205128202 32.0748522711865  2.67478205128202 31.4231186440677  C 2.67246055256408 30.7728555254237  2.15158467948714 30.246769220339  1.5094230769231 30.2461016949153  Z M 45.0892692307692 29.9410169491525  L 45.0892692307692 29.9379661016949  C 44.5143469128205 29.9379661016949  43.9960351307692 29.5872699661018  43.7760218641025 29.049406779661  C 43.5560085974359 28.5115435932203  43.6776217 27.8924363389831  44.084153201282 27.480773898305  C 44.4906847025641 27.0691114576271  45.1020751038461 26.9459633898305  45.6332340948718 27.1687533559323  C 46.1643930858974 27.3915439322034  46.5107179487179 27.9163976949153  46.5107179487179 28.4985762711865  C 46.5113839628205 29.2943025762711  45.8750767525641 29.9400065084747  45.0892692307692 29.9410169491525  Z M 45.0892692307692 27.3215593220339  L 45.0892692307692 27.3185084745762  C 44.6178707397436 27.3182613559322  44.1927536910256 27.6056194576272  44.0121884282051 28.0465608813558  C 43.8316231051282 28.4875023050847  43.9311774807692 28.9951706440677  44.264420375641 29.3327945084745  C 44.5976632705128 29.6704177627119  45.0989521948718 29.771491118644  45.534490951282 29.5888747118645  C 45.9700297076923 29.4062589152543  46.2540255807692 28.9759246779661  46.2540256410256 28.4985762711865  C 46.2517054076923 27.8485511186441  45.7311956525641 27.322562440678  45.0892692307692 27.3215593220339  Z M 27.8788333333333 29.9410169491525  L 27.8782307692308 29.9379661016949  C 27.0931863346154 29.9379661016949  26.4567820512821 29.2935294915253  26.4567820512821 28.4985762711865  C 26.4567820512821 27.7036230508475  27.0931863346154 27.0591864406779  27.8782307692308 27.0591864406779  C 28.6632752038461 27.0591864406779  29.2996794871795 27.7036230508475  29.2996794871795 28.4985762711865  C 29.3001592487179 28.8806497627118  29.1507328115384 29.2472676610168  28.8842723974359 29.5177777627118  C 28.6178119833333 29.7882878644068  28.2561446935898 29.9405318644067  27.8788333333333 29.9410169491525  Z M 27.8788333333333 27.3215593220339  L 27.8782307692308 27.3185084745762  C 27.2346207833333 27.3185084745762  26.7128717948718 27.8468426440677  26.7128717948718 28.4985762711865  C 26.7128717948718 29.1503098983051  27.2346207833333 29.6786440677965  27.8782307692308 29.6786440677965  C 28.5218407551282 29.6786440677965  29.0435897435897 29.1503098983051  29.0435897435897 28.4985762711865  C 29.04094045 27.8486902372881  28.5206231538461 27.3228955932202  27.8788333333333 27.3215593220339  Z M 10.3219230769231 29.9410169491525  L 10.3219230769231 29.9379661016949  C 9.53695715641027 29.9376292881357  8.90085517948717 29.2930431864406  8.90107698333333 28.4981698983052  C 8.90129878717948 27.7032959999999  9.53776043461539 27.0590741694916  10.3227264153846 27.0591864406779  C 11.1076923961538 27.0592987118644  11.7439742987179 27.7037023728813  11.7439743589744 28.4985762711865  C 11.7444540602564 28.8808614915254  11.5948622794871 29.247663661017  11.3281412564103 29.5182091525423  C 11.0614202333333 29.7887546440677  10.6994433461538 29.9408552542372  10.3219230769231 29.9410169491525  Z M 10.3219230769231 27.3215593220339  L 10.3219230769231 27.3185084745762  C 9.67831309102564 27.3185084745762  9.15656410256406 27.8468426440677  9.15656410256406 28.4985762711865  C 9.15656410256406 29.1503098983051  9.67831309102564 29.6786440677965  10.3219230769231 29.6786440677965  C 10.9655330628205 29.6786440677965  11.487282051282 29.1503098983051  11.487282051282 28.4985762711865  C 11.4849605525641 27.8483131525422  10.9640846794871 27.3222268474576  10.3219230769231 27.3215593220339  Z M 36.2767692307692 24.8692881355933  L 36.2767692307692 24.8662372881356  C 35.4917247961538 24.8662372881356  34.8553205128205 24.221800677966  34.8553205128205 23.4268474576272  C 34.8553205128205 22.6318942372882  35.4917247961538 21.9874576271186  36.2767692307692 21.9874576271186  C 37.0618136653846 21.9874576271186  37.6982179487179 22.6318942372882  37.6982179487179 23.4268474576272  C 37.6985515884615 24.2224346440678  37.0624387051282 24.8679414915255  36.2767692307692 24.8692881355933  Z M 36.2767692307692 22.2498305084746  L 36.2767692307692 22.2467796610169  C 35.6335704948718 22.2467796610169  35.1121238730769 22.774717220339  35.112013001282 23.426034101695  C 35.1119021294871 24.0773509830508  35.6331690064102 24.6054703728814  36.2763677423077 24.6056949152542  C 36.9195664179487 24.6059194576271  37.4411929051282 24.078164338983  37.4415256410256 23.4268474576272  C 37.4395350705128 22.7766831864406  36.918832374359 22.2504992542372  36.2767692307692 22.2498305084746  Z M 18.645141025641 24.8692881355933  L 18.645141025641 24.8662372881356  C 17.9266161730769 24.9413485423729  17.2446344230769 24.5298526779661  16.967879924359 23.8542077288134  C 16.6911254858974 23.1785633898305  16.8852635653846 22.3990791864408  17.4453418371795 21.9371503728814  C 18.005420048718 21.4752215593221  18.7985491461538 21.4404492203389  19.3959578307692 21.8516320677966  C 19.9933665153846 22.2628143050847  20.25330815 23.022391118644  20.0352564102564 23.7197288135594  C 19.8987232179487 24.3876301016949  19.3186973628205 24.8672837288136  18.645141025641 24.8692881355933  Z M 18.6891282051282 22.0966779661017  L 18.6891282051282 22.0942372881357  C 18.1327808294872 22.0950207457627  17.6545684833333 22.4939190508474  17.5472692307692 23.0467118644067  C 17.505244 23.1690606101695  17.4824703910256 23.2973377627118  17.479782051282 23.4268474576272  C 17.4808290064103 24.0331612881355  17.9356706025641 24.539900338983  18.5316071025641 24.5986858983051  C 19.1275436025641 24.657471457627  19.6704142705128 24.2491509152542  19.787 23.654440677966  C 19.8286918923077 23.5320034576271  19.8514560410256 23.4037799999999  19.8544871794872 23.2743050847457  C 19.8524966089743 22.6238040000001  19.3315241448718 22.0973467118645  18.6891282051282 22.0966779661017  Z M 1.5094230769231 24.8692881355933  L 1.5094230769231 24.8662372881356  C 0.72445715641021 24.8659004745762  0.0883551794871664 24.2213143728814  0.0885769833333256 23.4264410847456  C 0.0887987871794849 22.6315671864406  0.725260434615393 21.9873453559321  1.51022641538458 21.9874576271186  C 2.29519239615382 21.9875698983051  2.93147429871794 22.631973559322  2.93147435897436 23.4268474576272  C 2.93179413974354 23.8090826440678  2.78215089999998 24.1757914576272  2.51546452435895 24.4463015593219  C 2.24877814871797 24.7168116610169  1.88689417692308 24.8689647457627  1.5094230769231 24.8692881355933  Z M 1.5094230769231 22.2498305084746  L 1.5094230769231 22.2467796610169  C 0.866302855128197 22.2471164745764  0.345158479487168 22.7752029152541  0.345269411538482 23.4264404745763  C 0.345380343589738 24.0776780338983  0.866704584615377 24.6055826440677  1.50982486666663 24.6056949152542  C 2.15294514871795 24.6058071864406  2.6744492551282 24.0780850169492  2.67478205128202 23.4268474576272  C 2.67279051666668 22.7764452203389  2.15172140128203 22.2501636610168  1.5094230769231 22.2498305084746  Z M 45.0892692307692 21.9447457627118  L 45.0892692307692 21.9416949152542  C 44.5142920794872 21.9416949152542  43.9959422153846 21.5909328813559  43.7759643192308 21.0529946440679  C 43.5559864230769 20.5150564067796  43.677709975641 19.8959015593221  44.0843664487179 19.4842873220339  C 44.4910228615385 19.0726724745762  45.1025120833334 18.9496751186441  45.6336517320513 19.1726572881355  C 46.1647913807692 19.3956400677966  46.5109616858974 19.9206811525423  46.5107179487179 20.5029152542372  C 46.5110511666666 21.2984029830509  45.8748413307692 21.9437353220339  45.0892692307692 21.9447457627118  Z M 45.0892692307692 19.3258983050848  L 45.0892692307692 19.3228474576272  C 44.4460704948718 19.3228474576272  43.9246238730769 19.8507850169492  43.924513001282 20.502101898305  C 43.9244021294871 21.153418779661  44.4456690064102 21.6815381694914  45.0888677423077 21.6817627118644  C 45.7320664179487 21.6819872542374  46.2536929051282 21.1542321355932  46.2540256410256 20.5029152542372  C 46.2520350705128 19.8527509830508  45.731332374359 19.3265670508474  45.0892692307692 19.3258983050848  Z M 27.8788333333333 21.9447457627118  L 27.8782307692308 21.9416949152542  C 27.3032536179487 21.9416949152542  26.7849037538462 21.5909328813559  26.5649258576923 21.0529946440679  C 26.3449479615384 20.5150564067796  26.4666715141026 19.8959015593221  26.8733279871795 19.4842873220339  C 27.2799844 19.0726724745762  27.8914736217948 18.9496751186441  28.4226132705128 19.1726572881355  C 28.9537529192307 19.3956400677966  29.299923224359 19.9206811525423  29.2996794871795 20.5029152542372  C 29.300345501282 21.2983041355933  28.6643080589744 21.9437353220339  27.8788333333333 21.9447457627118  Z M 27.8788333333333 19.3258983050848  L 27.8782307692308 19.3228474576272  C 27.2351105474359 19.3231842711864  26.7139661717949 19.8512707118643  26.7140771038461 20.5025082711863  C 26.7141880358974 21.1537458305086  27.235512276923 21.6816504406779  27.8786325589743 21.6817627118644  C 28.5217528410256 21.6818749830509  29.0432569474359 21.1541528135592  29.0435897435897 20.5029152542372  C 29.0412695102564 19.8528901016948  28.5207597551282 19.3269014237287  27.8788333333333 19.3258983050848  Z M 10.3219230769231 21.9447457627118  L 10.3219230769231 21.9416949152542  C 9.53687870256408 21.941358101695  8.90074436794873 21.2966481355932  8.90107716410256 20.5016949152541  C 8.90140996025639 19.7067423050846  9.53808395128203 19.062578440678  10.3231282653846 19.0629152542372  C 11.1081726397436 19.0632526779661  11.7443070948718 19.7079620338982  11.7439743589744 20.5029152542372  C 11.7442940794871 20.8850943050847  11.5946316782051 21.2517402711865  11.3279280089743 21.5221539661018  C 11.0612242794871 21.7925670508475  10.699338801282 21.9445840677965  10.3219230769231 21.9447457627118  Z M 10.3219230769231 19.3258983050848  L 10.3219230769231 19.3228474576272  C 9.6788028551282 19.3231842711864  9.15765847948717 19.8512707118643  9.15776941153848 20.5025082711863  C 9.15788034358968 21.1537458305086  9.67920458461538 21.6816504406779  10.3223248666666 21.6817627118644  C 10.9654451487179 21.6818749830509  11.4869492551282 21.1541528135592  11.487282051282 20.5029152542372  C 11.4852905166667 19.8525130169492  10.964221401282 19.326231457627  10.3219230769231 19.3258983050848  Z M 36.2767692307692 16.8724067796611  L 36.2767692307692 16.8693559322035  C 35.7017920794872 16.8693559322035  35.1834422153846 16.518593898305  34.9634643192308 15.980655661017  C 34.7434864230769 15.4427174237287  34.865209975641 14.8235625762711  35.2718664487179 14.4119483389829  C 35.6785228615385 14.0003334915255  36.2900120833334 13.8773361355932  36.8211517320513 14.1003183050848  C 37.3522913807692 14.3233010847457  37.6984616858974 14.8483421694914  37.6982179487179 15.4305762711865  C 37.6985377294872 15.8126497627118  37.5489579397436 16.1792035932203  37.2823846051282 16.4495989830509  C 37.0158112102564 16.7199949830508  36.6540805307692 16.8720833898306  36.2767692307692 16.8724067796611  Z M 36.2767692307692 14.2535593220339  L 36.2767692307692 14.2505084745762  C 35.6335704948718 14.2505084745762  35.1121238730769 14.7784460338983  35.112013001282 15.4297629152543  C 35.1119021294871 16.0810797966101  35.6331690064102 16.6091991864407  36.2763677423077 16.6094237288135  C 36.9195664179487 16.6096482711864  37.4411929051282 16.0818931525423  37.4415256410256 15.4305762711865  C 37.4392054076923 14.7805511186441  36.9186956525641 14.254562440678  36.2767692307692 14.2535593220339  Z M 18.645141025641 16.8724067796611  L 18.645141025641 16.8693559322035  C 17.9268851576923 16.9441718644068  17.2453261064102 16.5326149830507  16.9688936782051 15.8571616271186  C 16.69246125 15.1817076610168  16.886738401282 14.4026060338983  17.4467048974359 13.9410152542373  C 18.0066713333333 13.4794238644067  18.7994764320513 13.4448553220338  19.3965541884615 13.8559948474576  C 19.9936319448718 14.2671349830509  20.2533270705128 15.0264414915255  20.0352564102564 15.7234576271187  C 19.8988954910257 16.3913741694914  19.3186788641025 16.8709313898305  18.645141025641 16.8724067796611  Z M 18.6891282051282 14.1034576271186  L 18.6891282051282 14.097966101695  C 18.1327808294872 14.098749559322  17.6545684833333 14.4976478644066  17.5472692307692 15.0504406779662  C 17.5052730435897 15.1727973559323  17.4825002782051 15.3010696271187  17.479782051282 15.4305762711865  C 17.4811354102564 16.0367747796611  17.9360668487179 16.5432221694914  18.5319058538461 16.6018405423729  C 19.1277448589743 16.6604589152541  19.6704393371795 16.2521578983051  19.787 15.6575593220339  C 19.8287813730769 15.5353564067796  19.8515489564102 15.4073190508475  19.8544871794872 15.278033898305  C 19.8505162820513 14.6288642033899  19.3302181474359 14.1044503728813  18.6891282051282 14.1034576271186  Z M 1.5094230769231 16.8724067796611  L 1.5094230769231 16.8693559322035  C 0.724378702564081 16.869019118644  0.0882443679487324 16.2243091525424  0.0885771641025599 15.4293559322034  C 0.0889099602563874 14.6344033220339  0.725583951282033 13.990239457627  1.51062826538458 13.9905762711865  C 2.2956726397436 13.9909136949152  2.93180709487177 14.6356230508475  2.93147435897436 15.4305762711865  C 2.93179407948719 15.8127553220338  2.78213167820508 16.1794012881355  2.51542800897431 16.4498149830508  C 2.24872427948713 16.7202280677966  1.88683880128207 16.8722450847458  1.5094230769231 16.8724067796611  Z M 1.5094230769231 14.2535593220339  L 1.5094230769231 14.2505084745762  C 0.866302855128197 14.2508452881357  0.345158479487168 14.7789317288136  0.345269411538482 15.4301692881356  C 0.345380343589738 16.0814068474576  0.866704584615377 16.6093114576272  1.50982486666663 16.6094237288135  C 2.15294514871795 16.6095359999999  2.6744492551282 16.0818138305085  2.67478205128202 15.4305762711865  C 2.67246055256408 14.7803131525422  2.15158467948714 14.2542268474576  1.5094230769231 14.2535593220339  Z M 44.6054102564102 11.7292881355932  L 44.6054102564102 11.7262372881355  C 43.8204459025641 11.725228677966  43.1843548923077 11.0811093559323  43.183358974359 10.2862372881355  C 43.1840333641026 10.0260591864408  43.2553227833333 9.77107545762715  43.3894358974359 9.54915254237289  L 43.4798205128205 9.39599999999996  L 43.5961153846154 9.5302372881356  C 44.1245641025641 10.1404067796609  44.6385512820513 10.7835254237289  45.1236153846154 11.4437288135593  L 45.2290641025641 11.5865084745762  L 45.0627564102564 11.6475254237287  C 44.9158242871795 11.700212338983  44.7612760551282 11.7278420338982  44.6054102564102 11.7292881355932  Z M 43.5280256410256 9.85057627118636  L 43.5280256410256 9.84752542372871  C 43.4699776884615 9.98631945762713  43.4400608628205 10.1355089491526  43.4400512820513 10.2862372881355  C 43.4360606807692 10.6356630508474  43.5870432397436 10.9684812203391  43.8514325205128 11.1930638644067  C 44.1158217410256 11.4176465084745  44.4657423448718 11.5103160000001  44.804858974359 11.4455593220339  C 44.395717948718 10.8994576271186  43.9672948717949 10.3631186440678  43.5280256410256 9.85057627118636  Z M 27.3967820512821 11.7292881355932  L 27.3943717948717 11.7262372881355  C 26.6094843282051 11.7259004745763  25.9734148294872 11.0814382372882  25.9735257615384 10.2866442711863  C 25.9736366935897 9.49184969491535  26.6098860576923 8.84756989830498  27.3947735846153 8.84745762711873  C 28.1796611115385 8.84734535593225  28.8160902807692 9.49144332203377  28.8164230769231 10.2862372881355  C 28.8170910794872 11.0813497627119  28.1819805012821 11.7269328813559  27.3967820512821 11.7292881355932  Z M 27.3967820512821 9.10983050847449  L 27.3943717948717 9.10677966101684  C 26.9229732435898 9.10677966101684  26.4980030397436 9.39435986440685  26.3176629551282 9.83539586440679  C 26.1373228705128 10.2764318644067  26.2371365294871 10.784048338983  26.5705518179487 11.1214970847457  C 26.9039671064102 11.4589458305084  27.4053076102564 11.5597568135593  27.8407530294872 11.3769128135593  C 28.2761985089743 11.1940682033899  28.5599745064102 10.7635856949153  28.5597307692308 10.2862372881355  C 28.5574136089743 9.63702427118642  28.0379051948718 9.11150359322028  27.3967820512821 9.10983050847449  Z M 9.83866666666665 11.7292881355932  L 9.83866666666665 11.7262372881355  C 9.05370068589741 11.7262372881355  8.41732894102563 11.0819245423729  8.41721806923078 10.2870506440679  C 8.41710719743588 9.4921773559322  9.05329913717947 8.84768216949146  9.83826511794871 8.84745762711873  C 10.623231098718 8.84723308474577  11.2597826487179 9.49136399999998  11.2601153846153 10.2862372881355  C 11.2607817 11.0820624406779  10.6245715628205 11.7279414915254  9.83866666666665 11.7292881355932  Z M 9.83866666666665 9.10983050847449  L 9.83866666666665 9.10677966101684  C 9.36721340256412 9.1065331525424  8.94205821153844 9.39395654237296  8.76152825897435 9.83497301694911  C 8.58099830641021 10.2759894915255  8.68066319230769 10.7837054237289  9.01403099871794 11.1212810847458  C 9.34739886538461 11.4588567457627  9.84878661025641 11.5597793898305  10.2843060846154 11.376970779661  C 10.7198255589743 11.1941621694916  11.0036668141025 10.763641220339  11.0034230769231 10.2862372881355  C 11.0011015782051 9.6363115932204  10.4804954730769 9.11049803389824  9.83866666666665 9.10983050847449  Z M 35.7929102564102 6.65938983050842  L 35.7929102564102 6.65389830508479  C 35.2179879384615 6.65389830508479  34.6996761564102 6.30320223050853  34.4796628897436 5.76533910508465  C 34.2596496230769 5.22747597966099  34.381262725641 4.60836878644068  34.787794226923 4.19670616271173  C 35.1943257282051 3.78504353898302  35.8057161294872 3.66189547118643  36.3368751205128 3.8846856813559  C 36.8680341115385 4.10747589152538  37.214358974359 4.63232965423731  37.214358974359 5.21450847457618  C 37.2153189192308 5.59706082711864  37.0660411346154 5.96430439322035  36.7994157384615 6.23532514576277  C 36.5327902820513 6.50634595932206  36.1706952320512 6.6589051728813  35.7929102564102 6.65938983050842  Z M 35.7929102564102 4.03566101694923  L 35.7929102564102 4.03444067796613  C 35.3215117653846 4.03419386440669  34.8963947166666 4.32155160000002  34.7158294538461 4.76249314576262  C 34.5352641307692 5.20343463050835  34.6348185064102 5.71110290847446  34.9680614012821 6.04872646779654  C 35.3013042961538 6.38635002711862  35.8025932205128 6.48742350508473  36.2381319769231 6.30480722033894  C 36.6736707333333 6.12219093559315  36.9576666064103 5.69185688135599  36.9576666666666 5.21450847457618  C 36.9563397 4.56376826440669  36.4355399910256 4.03666797966093  35.7929102564102 4.03566101694923  Z M 18.1612820512821 6.65389830508479  C 17.3765129884615 6.6532254101694  16.7404978410256 6.00918266440681  16.7398333333333 5.21450847457618  C 16.7412069987179 5.06285505762708  16.7668471858974 4.91242978983041  16.8157564102564 4.76908474576271  C 17.0423220192308 4.07103766779665  17.7526144 3.65869983050857  18.4619679858974 3.81342856271181  C 19.1713215717949 3.96815729491527  19.6509728410256 4.64005324067807  19.5736333769231 5.37065054237291  C 19.4962939730769 6.10124778305089  18.8869054705128 6.65493187118636  18.1612820512821 6.65389830508479  Z M 18.2052692307692 3.88494915254228  L 18.2052692307692 3.88189830508463  C 17.6489053448718 3.88321730847451  17.1708884102564 4.28220756610176  17.0634102564102 4.83498305084754  C 17.0210628948718 4.95703537627128  16.9982790423077 5.08516425762718  16.9959230769231 5.21450847457618  C 16.9954011358975 5.82201719999989  17.4506669371794 6.33055228474586  18.0477786782051 6.38943840000002  C 18.6448904192308 6.44832451525417  19.1884991679487 6.03829671864401  19.3037435897435 5.44210169491521  C 19.3453150897436 5.31965416271191  19.3678781628205 5.19141776949141  19.3706282051282 5.06196610169491  C 19.3683067064102 4.41170322711855  18.8474308333333 3.88561667796603  18.2052692307692 3.88494915254228  Z M 28.0710512820513 3.18142372881357  L 28.0710512820513 3.17593220338972  C 27.2860853615384 3.17559526779655  26.6499833846154 2.53100934915255  26.6502051884615 1.73613575593231  C 26.6504269923077 0.941262162711837  27.2868886397436 0.297040393220414  28.0718546205128 0.297152664406894  C 28.856820601282 0.297264935593148  29.4931025038461 0.941668779661086  29.4931025641025 1.73654237288133  C 29.4939023474359 2.1191509220339  29.3444903717948 2.48639284067804  29.0777692884615 2.75739595932191  C 28.8110482051282 3.02839907796601  28.4488913923076 3.18093882711855  28.0710512820513 3.18142372881357  Z M 28.0710512820513 0.55769491525416  L 28.0710512820513 0.556474576271285  C 27.4279310602564 0.556811572881315  26.9067866846154 1.08489795254241  26.9068976166666 1.7361355118644  C 26.907008548718 2.3873730711864  27.4283327897435 2.91527731525434  28.0714530717948 2.91538964745769  C 28.7145733538462 2.91550197966103  29.2360774602564 2.38777987118647  29.2364102564102 1.73654237288133  C 29.2354134346154 1.0854250169491  28.7140535217949 0.558030630508483  28.0710512820513 0.55769491525416  Z M 10.5147435897436 3.18142372881357  L 10.5147435897436 3.17593220338972  C 10.0489230346154 3.1752451525424  9.61294253846154 2.94367722711854  9.34757692307693 2.55600000000004  L 9.26141025641022 2.42969491525423  L 9.39758974358972 2.36440677966107  C 10.1556153846154 1.99830508474565  10.9431666666666 1.66271186440667  11.7385512820513 1.36250847457632  L 11.8807564102564 1.3094237288135  L 11.9096794871795 1.46074576271189  C 11.9267617576923 1.55167309830517  11.9356359602564 1.6439860677965  11.9361923076923 1.73654237288133  C 11.9369920910256 2.11904536271186  11.7876627871795 2.48619490169494  11.5210719782051 2.75718044745759  C 11.2544811692308 3.02816599322023  10.8924792153846 3.18077707118641  10.5147435897436 3.18142372881357  Z M 9.65428205128205 2.53281355932199  L 9.65428205128205 2.52976271186435  C 9.97762276923078 2.89058345084754  10.4869334487179 3.01265255593216  10.9356948717949 2.83688542372875  C 11.3844562948718 2.66111835254242  11.6800893076923 2.22377570847448  11.6795 1.73654237288133  C 11.6795 1.71274576271185  11.6795 1.68894915254236  11.6764871794872 1.66454237288121  C 10.9913717948718 1.92996610169484  10.312282051282 2.22040677966106  9.65428205128205 2.53281355932199  Z " fill-rule="nonzero" fill="#ffffff" stroke="none" transform="matrix(1 0 0 1 557 447 )" />
  </g>
</svg>