<?xml version="1.0" encoding="utf-8"?>
<svg version="1.1" xmlns:xlink="http://www.w3.org/1999/xlink" width="3px" height="2px" xmlns="http://www.w3.org/2000/svg">
  <g transform="matrix(1 0 0 1 -473 -519 )">
    <path d="M 0.294600000000003 0.545000000000073  L 0.295799999999986 0.545000000000073  C 0.337925556000016 0.569750919999933  0.392457505200014 0.574484595000058  0.439799999999991 0.557499999999891  C 0.885219863999964 0.337519998500056  1.43457717000001 0.322247503499966  1.89659999999998 0.517000000000053  C 2.47919999999999 0.852000000000089  2.45460000000003 1.70800000000008  2.45400000000001 1.7170000000001  C 2.45780682600002 1.78222063500016  2.52099268199999 1.83411152000008  2.59930472400004 1.83633036500009  C 2.67761675999998 1.83854920499994  2.74488610200001 1.79035455000007  2.75400000000002 1.72550000000001  C 2.78669943 1.192473565  2.535273942 0.674617570000009  2.06700000000001 0.310500000000047  C 1.52188125599997 0.0619901945101446  0.860837561999972 0.0678626023500328  0.322200000000009 0.326000000000022  C 0.271413319200008 0.343690957000035  0.236254743000018 0.383062716500035  0.230505370200035 0.428682738000134  C 0.224755997399996 0.474302759500006  0.249331874999996 0.518902419999904  0.294600000000003 0.545000000000073  Z " fill-rule="nonzero" fill="#231f20" stroke="none" transform="matrix(1 0 0 1 473 519 )" />
  </g>
</svg>