<?xml version="1.0" encoding="utf-8"?>
<svg version="1.1" xmlns:xlink="http://www.w3.org/1999/xlink" width="39px" height="57px" xmlns="http://www.w3.org/2000/svg">
  <g transform="matrix(1 0 0 1 -426 -530 )">
    <path d="M 16.7616 29.0099680851065  L 15.9042 29.8770957446809  C 15.7448106 30.0381807765957  15.4863894 30.0381807765957  15.327 29.8770957446809  C 15.1676106 29.7160107127659  15.1676106 29.4548403510639  15.327 29.2937553191489  L 16.1844 28.4266276595745  C 16.3437894 28.2655426276597  16.6022106 28.2655426276597  16.7616 28.4266276595745  C 16.9209894 28.5877126914895  16.9209894 28.8488830531915  16.7616 29.0099680851065  Z M 11.9328 15.0146489361703  L 12.7902 15.8817765957447  C 12.9495894 16.0428616276595  13.2080106 16.0428616276595  13.3674 15.8817765957447  C 13.5267894 15.7206915638299  13.5267894 15.4595212021277  13.3674 15.2984361702129  L 12.51 14.4313085106382  C 12.35050614 14.2704786446809  12.09229386 14.2704786446809  11.9328 14.4313085106382  C 11.77432002 14.5927731382978  11.77432002 14.8531843085107  11.9328 15.0146489361703  Z M 11.9322 25.3443829787234  L 11.9322 25.3413510638297  L 12.7902 26.2078723404256  C 12.9495894 26.3689573723404  13.2080106 26.3689573723404  13.3674 26.2078723404256  C 13.5267894 26.0467873085106  13.5267894 25.7856169468084  13.3674 25.6245319148936  L 12.51 24.7574042553192  C 12.350235 24.5972383180851  12.092565 24.5972383180851  11.9328 24.7574042553192  C 11.855631 24.835124119149  11.81220558 24.9406643489363  11.81209302 25.0507679138298  C 11.81198046 25.1608714787235  11.85519006 25.2665021808511  11.9322 25.3443829787234  Z M 11.9322 29.0099680851065  L 11.9322 29.0069361702128  L 12.7902 29.8740638297872  C 12.89330682 29.9782676521277  13.0435884 30.0189639542555  13.18443504 29.9808227680851  C 13.32528168 29.9426815819149  13.43529546 29.8314974425532  13.47303516 29.6891524340426  C 13.51077486 29.5468074255318  13.47050694 29.3949271053191  13.3674 29.2907234042555  L 12.51 28.4235957446808  C 12.35037012 28.2630986617021  12.09242988 28.2630986617021  11.9328 28.4235957446808  C 11.85566742 28.5012119170212  11.81225682 28.6066517904255  11.81214426 28.7166561510639  C 11.8120317 28.8266604510638  11.85522642 28.9321908574468  11.9322 29.0099680851065  Z M 11.9322 43.0052872340425  L 11.9322 43.0022553191491  L 12.7902 43.8693829787235  C 12.9495894 44.0304680106383  13.2080106 44.0304680106383  13.3674 43.8693829787235  C 13.5267894 43.7082979468084  13.5267894 43.4471275851065  13.3674 43.2860425531915  L 12.51 42.4189148936171  C 12.35037012 42.2584180531915  12.09242988 42.2584180531915  11.9328 42.4189148936171  C 11.85566742 42.4965313085106  11.81225682 42.601971  11.81214426 42.7119755425533  C 11.8120317 42.8219794787235  11.85522642 42.9275101276596  11.9322 43.0052872340425  Z M 11.9322 39.3390957446809  L 11.9322 39.3360638297872  L 12.7902 40.2031914893616  C 12.9495894 40.3642765212767  13.2080106 40.3642765212767  13.3674 40.2031914893616  C 13.5267894 40.0421064574468  13.5267894 39.7809360957447  13.3674 39.6198510638299  L 12.51 38.7527234042554  C 12.350235 38.5925576489362  12.092565 38.5925576489362  11.9328 38.7527234042554  C 11.85566742 38.830339819149  11.81225682 38.9357795106382  11.81214426 39.0457840531915  C 11.8120317 39.1557879893617  11.85522642 39.261318638298  11.9322 39.3390957446809  Z M 11.9322 32.6761595744681  L 11.9322 32.6731276595744  L 12.7902 33.5402553191489  C 12.89214378 33.6505757872342  13.04552532 33.695890787234  13.19021376 33.6584351170213  C 13.33490214 33.6209788404256  13.44783972 33.5067211276596  13.48475106 33.3604548829787  C 13.5216624 33.214188031915  13.47666522 33.0592220106382  13.3674 32.9563085106383  L 12.51 32.0897872340427  C 12.35050614 31.9289573680851  12.09229386 31.9289573680851  11.9328 32.0897872340427  C 11.85566742 32.1674034063831  11.81225682 32.2728433404257  11.81214426 32.3828478829787  C 11.8120317 32.4928518191489  11.85522642 32.5983824680852  11.9322 32.6761595744681  Z M 16.7616 14.4313085106382  L 16.7616 14.4282765957448  C 16.60210614 14.2674467297873  16.34389386 14.2674467297873  16.1844 14.4282765957448  L 15.327 15.2954042553192  C 15.1676106 15.456489287234  15.1676106 15.7176596489362  15.327 15.878744680851  C 15.4863894 16.0398297127661  15.7448106 16.0398297127661  15.9042 15.878744680851  L 16.7616 15.0116170212766  C 16.9187517 14.8507819404256  16.9187517 14.5921435914893  16.7616 14.4313085106382  Z M 16.7616 18.0975000000001  L 16.7616 18.0944680851064  C 16.60197012 17.9339710021277  16.34402988 17.9339710021277  16.1844 18.0944680851064  L 15.327 18.9609893617021  C 15.17674014 19.1235962329788  15.18096354 19.377281281915  15.33655104 19.5346874489362  C 15.49213854 19.6920936159574  15.74314872 19.6966255404254  15.9042 19.5449361702129  L 16.7616 18.6778085106382  C 16.91842818 18.5168393585107  16.91842818 18.2584691521276  16.7616 18.0975000000001  Z M 16.7616 24.7604361702129  L 16.7616 24.7574042553192  C 16.601835 24.5972383180851  16.344165 24.5972383180851  16.1844 24.7574042553192  L 15.327 25.6245319148936  C 15.16761084 25.7856169468084  15.1676109 26.046787187234  15.32700018 26.2078721585106  C 15.48638952 26.368957069149  15.7448106 26.3689571297873  15.9042 26.2078723404256  L 16.7616 25.3413510638297  C 16.91882244 25.1803091457448  16.91882244 24.9214780882978  16.7616 24.7604361702129  Z M 11.9322 18.6808404255319  L 11.9322 18.6778085106382  L 12.7902 19.5449361702129  C 12.89214378 19.6552568202128  13.04552532 19.7005716382978  13.19021376 19.6631156648937  C 13.33490214 19.6256597521276  13.44783972 19.5114020393617  13.48475106 19.3651355521276  C 13.5216624 19.2188690648936  13.47666522 19.0639029829788  13.3674 18.9609893617021  L 12.51 18.0944680851064  C 12.35037012 17.9339710021277  12.09242988 17.9339710021277  11.9328 18.0944680851064  C 11.85566742 18.1720842574468  11.81225682 18.2775241308511  11.81214426 18.3875284914893  C 11.8120317 18.4975327914894  11.85522642 18.6030631978724  11.9322 18.6808404255319  Z M 16.7616 10.7651170212766  L 16.7616 10.762085106383  C 16.601835 10.6019191691489  16.344165 10.6019191691489  16.1844 10.762085106383  L 15.327 11.6292127659574  C 15.22389318 11.7334164670212  15.18362532 11.8852967265957  15.22136508 12.0276416744682  C 15.25910478 12.1699866223405  15.3691185 12.281170701064  15.50996508 12.3193118872341  C 15.65081166 12.3574531340425  15.80109318 12.3167568925533  15.9042 12.2125531914894  L 16.7616 11.345425531915  C 16.91842818 11.1844563797872  16.91842818 10.9260861734042  16.7616 10.7651170212766  Z M 26.5542 42.4219468085107  L 26.5542 42.4189148936171  C 26.39436474 42.258347712766  26.13623526 42.258347712766  25.9764 42.4189148936171  L 25.119 43.2860425531915  C 24.9596106 43.4471275851065  24.9596106 43.7082979468084  25.119 43.8693829787235  C 25.2783894 44.0304680106383  25.5368106 44.0304680106383  25.6962 43.8693829787235  L 26.5542 43.0022553191491  C 26.71070628 42.8411527021276  26.71070628 42.583049425532  26.5542 42.4219468085107  Z M 24.804 36.5400319148937  L 24.804 36.537  C 24.96362988 36.6974968404256  25.22157012 36.6974968404256  25.3812 36.537  L 26.2392 35.6704787234044  C 26.3985894 35.5093936914893  26.3985894 35.2482233297872  26.2392 35.0871382978723  C 26.0798106 34.9260532659575  25.8213894 34.9260532659575  25.662 35.0871382978723  L 24.804 35.953659574468  C 24.72665052 36.0311965531914  24.68314284 36.1367417553192  24.68314284 36.246845744681  C 24.68314284 36.3569497340425  24.72665052 36.4624949361703  24.804 36.5400319148937  Z M 25.3812 8.5463617021278  L 26.2392 7.67984042553189  C 26.34846522 7.57692680425544  26.3934624 7.42196072234037  26.35655106 7.27569423510636  C 26.31963972 7.12942774787234  26.20670214 7.01517003510639  26.06201376 6.97771412234056  C 25.91732532 6.94025814893621  25.76394378 6.9855729670212  25.662 7.09589361702137  L 24.804 7.96302127659578  C 24.6446106 8.12410630851059  24.6446106 8.38527667021276  24.804 8.5463617021278  C 24.9633894 8.70744673404261  25.2218106 8.70744673404261  25.3812 8.5463617021278  Z M 24.804 50.5353510638299  L 24.804 50.5323191489363  C 24.96362988 50.6928159893616  25.22157012 50.6928159893616  25.3812 50.5323191489363  L 26.2392 49.6657978723404  C 26.34846522 49.5628843723405  26.3934624 49.4079183510639  26.35655106 49.2616515  C 26.31963972 49.1153852553191  26.20670214 49.0011275425531  26.06201376 48.9636712659574  C 25.91732532 48.9262155957447  25.76394378 48.9715305957448  25.662 49.0818510638298  L 24.804 49.9489787234043  C 24.72679908 50.0265957446809  24.68339424 50.1321106276596  24.68339424 50.242164893617  C 24.68339424 50.3522191595746  24.72679908 50.4577340425533  24.804 50.5353510638299  Z M 26.5542 46.0881382978723  L 26.5542 46.0851063829787  C 26.39450052 45.9242069042552  26.13609948 45.9242069042552  25.9764 46.0851063829787  L 25.119 46.9516276595746  C 25.00973478 47.0545411595745  24.9647376 47.209507180851  25.00164894 47.355774031915  C 25.03856028 47.5020402765958  25.15149786 47.6162979893618  25.29618624 47.6537542659576  C 25.44087468 47.6912099361703  25.59425622 47.6458949361702  25.6962 47.5355744680851  L 26.5542 46.6684468085107  C 26.71070628 46.5073441914894  26.71070628 46.2492409148936  26.5542 46.0881382978723  Z M 25.6962 54.1985106382979  L 26.5542 53.3319893617022  C 26.65963542 53.2281347553192  26.7016338 53.0749848510638  26.66413722 52.9310956276595  C 26.62664064 52.7872070106382  26.5154481 52.6748315106383  26.37307356 52.6369356063831  C 26.23069908 52.5990403085107  26.07916122 52.6414852978724  25.9764 52.7480425531915  L 25.119 53.6151702127659  C 25.01589306 53.7193740957446  24.97562514 53.8712542340427  25.01336484 54.0135990000001  C 25.05110454 54.1559443723404  25.16111832 54.2671283297873  25.30196496 54.3052698191489  C 25.4428116 54.3434107021276  25.59309318 54.3027145212766  25.6962 54.1985106382979  Z M 24.804 22.5447127659575  L 24.804 22.5416808510638  C 24.96349386 22.7025107170214  25.22170614 22.7025107170214  25.3812 22.5416808510638  L 26.2392 21.6751595744681  C 26.34846522 21.5722459531914  26.3934624 21.4172798712766  26.35655106 21.2710133840426  C 26.31963972 21.1247468968086  26.20670214 21.0104891840426  26.06201376 20.9730332712766  C 25.91732532 20.9355772978724  25.76394378 20.9808921159574  25.662 21.0912127659574  L 24.804 21.958340425532  C 24.72665052 22.0358775861703  24.68314284 22.1414224851064  24.68314284 22.2515265957447  C 24.68314284 22.361630706383  24.72665052 22.4671756053192  24.804 22.5447127659575  Z M 11.9946 56.3760319148937  L 11.9946 56.373  L 12.435 56.3639042553191  C 12.29905374 56.2784103191489  12.12573798 56.2831831595745  11.9946 56.3760319148937  Z M 13.6824 21.958340425532  L 12.825 21.0912127659574  C 12.66486126 20.9334752712766  12.40900794 20.9351358510639  12.25088694 21.0949389287234  C 12.092766 21.2547420670214  12.0911229 21.513317230851  12.2472 21.6751595744681  L 13.1052 22.5416808510638  C 13.2645894 22.7027658829788  13.5230106 22.7027658829788  13.6824 22.5416808510638  C 13.8417894 22.380595819149  13.8417894 22.1194254574468  13.6824 21.958340425532  Z M 13.78803492 36.352088361702  C 13.82577468 36.2097435957446  13.78550682 36.0578634574467  13.6824 35.953659574468  L 12.825 35.0871382978723  C 12.66410478 34.9352799893618  12.4130901 34.939548319149  12.25734084 35.0967907021277  C 12.10159158 35.2540336914894  12.09710736 35.5077140106384  12.2472 35.6704787234044  L 13.1052 36.537  C 13.20830682 36.6412038829787  13.35858834 36.6819000638297  13.49943492 36.6437585744682  C 13.6402815 36.6056176914894  13.75029522 36.4944337340426  13.78803492 36.352088361702  Z M 12.2472 49.6657978723404  L 13.1052 50.5323191489363  C 13.2645894 50.6934041808511  13.5230106 50.6934041808511  13.6824 50.5323191489363  C 13.8417894 50.3712341170212  13.8417894 50.1100637553191  13.6824 49.9489787234043  L 12.825 49.0818510638298  C 12.66486126 48.9241138723405  12.40900794 48.9257741489362  12.25088694 49.0855772872342  C 12.092766 49.2453804255319  12.0911229 49.5039554680852  12.2472 49.6657978723404  Z M 11.9328 53.3319893617022  L 12.7902 54.1985106382979  C 12.89330682 54.3027145212766  13.0435884 54.3434107021276  13.18443504 54.3052698191489  C 13.32528168 54.2671283297873  13.43529546 54.1559443723404  13.47303516 54.0135990000001  C 13.51077486 53.8712542340427  13.47050694 53.7193740957446  13.3674 53.6151702127659  L 12.51 52.7480425531915  C 12.350235 52.5878767978725  12.092565 52.5878767978725  11.9328 52.7480425531915  C 11.7745755 52.9098497872342  11.7745755 53.1701821276597  11.9328 53.3319893617022  Z M 11.9322 46.6714787234043  L 11.9322 46.6684468085107  L 12.7902 47.5355744680851  C 12.89214378 47.6458949361702  13.04552532 47.6912099361703  13.19021376 47.6537542659576  C 13.33490214 47.6162979893618  13.44783972 47.5020402765958  13.48475106 47.355774031915  C 13.5216624 47.209507180851  13.47666522 47.0545411595745  13.3674 46.9516276595746  L 12.51 46.0851063829787  C 12.35050614 45.9242766382979  12.09229386 45.9242766382979  11.9328 46.0851063829787  C 11.85566742 46.1627227978724  11.81225682 46.2681624893617  11.81214426 46.3781670319149  C 11.8120317 46.4881709680851  11.85522642 46.5937016170212  11.9322 46.6714787234043  Z M 0.154200000000003 39.3360638297872  L 1.01220000000001 40.2031914893616  C 1.17158937600001 40.3642765212767  1.430010624 40.3642765212767  1.58940000000001 40.2031914893616  C 1.74878937599999 40.0421064574468  1.74878937599999 39.7809360957447  1.58940000000001 39.6198510638299  L 0.731400000000008 38.7527234042554  C 0.572010624000001 38.5916383723404  0.31358937600001 38.5916383723404  0.154200000000003 38.7527234042554  C -0.00518937600000413 38.9138084361703  -0.00518937600000413 39.1749787978724  0.154200000000003 39.3360638297872  Z M 4.9836 32.0928191489363  L 4.9836 32.0897872340427  C 4.82410614 31.9289573680851  4.56589385999999 31.9289573680851  4.40639999999999 32.0897872340427  L 3.54839999999999 32.9563085106383  C 3.43913477999999 33.0592220106382  3.39413759999999 33.214188031915  3.43104894000001 33.3604548829787  C 3.46796028 33.5067211276596  3.58089785999999 33.6209788404256  3.72558623999998 33.6584351170213  C 3.87027467999999 33.695890787234  4.02365621999999 33.6505757872342  4.12559999999999 33.5402553191489  L 4.9836 32.6731276595744  C 5.14075170000001 32.5122924574468  5.14075170000001 32.2536543510639  4.9836 32.0928191489363  Z M 1.90440000000001 36.5400319148937  L 1.90440000000001 36.537  C 2.06288000999999 36.3755353723404  2.06288000999999 36.1151242021276  1.90440000000001 35.953659574468  L 1.2234 35.2654148936172  C 1.12440000000001 35.5552659574469  1.02420000000001 35.8457234042553  0.927599999999984 36.1331489361703  L 1.32720000000001 36.537  C 1.48600322999999 36.6983385000001  1.74394593 36.6996937659576  1.90440000000001 36.5400319148937  Z M 0.154200000000003 43.0022553191491  L 1.01220000000001 43.8693829787235  C 1.17158937600001 44.0304680106383  1.430010624 44.0304680106383  1.58940000000001 43.8693829787235  C 1.74878937599999 43.7082979468084  1.74878937599999 43.4471275851065  1.58940000000001 43.2860425531915  L 0.731400000000008 42.4189148936171  C 0.572010624000001 42.2578298617022  0.31358937600001 42.2578298617022  0.154200000000003 42.4189148936171  C -0.00518937600000413 42.5799999255319  -0.00518937600000413 42.841170287234  0.154200000000003 43.0022553191491  Z M 0.469200000000001 49.6657978723404  L 1.32720000000001 50.5323191489363  C 1.48658937600001 50.6934041808511  1.745010624 50.6934041808511  1.90440000000001 50.5323191489363  C 2.06378937599999 50.3712341170212  2.06378937599999 50.1100637553191  1.90440000000001 49.9489787234043  L 1.04640000000001 49.0818510638298  C 0.885348743999998 48.9301619361702  0.634338569999983 48.9346934361702  0.478751052000007 49.0920995425531  C 0.323163539999996 49.2495056489361  0.318940134000002 49.503190819149  0.469200000000001 49.6657978723404  Z M 0.154200000000003 46.6684468085107  L 1.01220000000001 47.5355744680851  C 1.17325125600001 47.6872635957448  1.42426143 47.6827320957448  1.57984894800001 47.5253259893618  C 1.73543645999999 47.3679198829789  1.73965986599998 47.1142347127659  1.58940000000001 46.9516276595746  L 0.731400000000008 46.0851063829787  C 0.572010588000012 45.9240213510639  0.31358949600002 45.9240213510639  0.154200198000012 46.0851063829787  C -0.0051891059999889 46.2461914148937  -0.00518919600000345 46.5073617765959  0.154200000000003 46.6684468085107  Z M 3.23340000000002 50.5353510638299  L 3.23340000000002 50.5323191489363  C 3.39302988 50.6928159893616  3.65097012000001 50.6928159893616  3.81059999999999 50.5323191489363  L 4.6686 49.6657978723404  C 4.77786522 49.5628843723405  4.82286239999999 49.4079183510639  4.78595106 49.2616515  C 4.74903972000001 49.1153852553191  4.63610213999999 49.0011275425531  4.49141376 48.9636712659574  C 4.34672532000002 48.9262155957447  4.19334377999999 48.9715305957448  4.09139999999999 49.0818510638298  L 3.23340000000002 49.9489787234043  C 3.15619907999999 50.0265957446809  3.11279424 50.1321106276596  3.11279424 50.242164893617  C 3.11279424 50.3522191595746  3.15619907999999 50.4577340425533  3.23340000000002 50.5353510638299  Z M 4.12559999999999 54.1985106382979  L 4.9836 53.3319893617022  C 5.13385986 53.1693823085106  5.12963646 52.9156971382979  4.97404896 52.758291031915  C 4.81846146000001 52.600884925532  4.56745128 52.596353425532  4.40639999999999 52.7480425531915  L 3.54839999999999 53.6151702127659  C 3.38901060000001 53.7762552446809  3.38901060000001 54.0374256063831  3.54839999999999 54.1985106382979  C 3.7077894 54.3595956702129  3.96621060000001 54.3595956702129  4.12559999999999 54.1985106382979  Z M 3.81059999999999 36.537  L 4.6686 35.6704787234044  C 4.82798922000001 35.5093936914893  4.8279891 35.2482233297872  4.66859982 35.0871382978723  C 4.50921048000001 34.9260532659575  4.2507894 34.9260532659575  4.09139999999999 35.0871382978723  L 3.23340000000002 35.953659574468  C 3.07401084 36.1147446063831  3.07401090000002 36.3759149680852  3.23340017999999 36.537  C 3.39278952000001 36.698084425532  3.65121060000001 36.6980850319148  3.81059999999999 36.537  Z M 0.154200000000003 53.3319893617022  L 1.01220000000001 54.1985106382979  C 1.17158937600001 54.3595956702129  1.430010624 54.3595956702129  1.58940000000001 54.1985106382979  C 1.74878937599999 54.0374256063831  1.74878937599999 53.7762552446809  1.58940000000001 53.6151702127659  L 0.731400000000008 52.7480425531915  C 0.570348744 52.596353425532  0.319338570000014 52.600884925532  0.163751052000009 52.758291031915  C 0.00816353999999819 52.9156971382979  0.00394013400000404 53.1693823085106  0.154200000000003 53.3319893617022  Z M 4.9836 38.7563617021276  L 4.9836 38.7527234042554  C 4.823835 38.5925576489362  4.56616500000001 38.5925576489362  4.40639999999999 38.7527234042554  L 3.54839999999999 39.6198510638299  C 3.38901060000001 39.7809360957447  3.38901060000001 40.0421064574468  3.54839999999999 40.2031914893616  C 3.7077894 40.3642765212767  3.96621060000001 40.3642765212767  4.12559999999999 40.2031914893616  L 4.9836 39.3360638297872  C 5.14035713999999 39.175301393617  5.14035713999999 38.9171241382978  4.9836 38.7563617021276  Z M 4.9836 42.4219468085107  L 4.9836 42.4189148936171  C 4.82397011999998 42.2584180531915  4.56602988 42.2584180531915  4.40639999999999 42.4189148936171  L 3.54839999999999 43.2860425531915  C 3.44529305999998 43.3902464361702  3.40502513999999 43.5421265744681  3.44276483999999 43.6844713404255  C 3.48050454 43.826816712766  3.59051832 43.9380006702127  3.73136496000001 43.9761421595745  C 3.87221160000001 44.0142830425532  4.02249318 43.9735868617022  4.12559999999999 43.8693829787235  L 4.9836 43.0022553191491  C 5.14075170000001 42.8414201170212  5.14075170000001 42.5827820106383  4.9836 42.4219468085107  Z M 4.9836 46.0881382978723  L 4.9836 46.0851063829787  C 4.82410614 45.9242766382979  4.56589385999999 45.9242766382979  4.40639999999999 46.0851063829787  L 3.54839999999999 46.9516276595746  C 3.43913477999999 47.0545411595745  3.39413759999999 47.209507180851  3.43104894000001 47.355774031915  C 3.46796028 47.5020402765958  3.58089785999999 47.6162979893618  3.72558623999998 47.6537542659576  C 3.87027467999999 47.6912099361703  4.02365621999999 47.6458949361702  4.12559999999999 47.5355744680851  L 4.9836 46.6684468085107  C 5.14075170000001 46.5076116063831  5.14075170000001 46.2489734999999  4.9836 46.0881382978723  Z M 16.7616 46.0881382978723  L 16.7616 46.0851063829787  C 16.60210614 45.9242766382979  16.34389386 45.9242766382979  16.1844 46.0851063829787  L 15.327 46.9516276595746  C 15.17674014 47.1142347127659  15.18096354 47.3679198829789  15.33655104 47.5253259893618  C 15.49213854 47.6827320957448  15.74314872 47.6872635957448  15.9042 47.5355744680851  L 16.7616 46.6684468085107  C 16.9187517 46.5076116063831  16.9187517 46.2489734999999  16.7616 46.0881382978723  Z M 15.9042 54.1985106382979  L 16.7616 53.3319893617022  C 16.91185986 53.1693823085106  16.90763646 52.9156971382979  16.75204896 52.758291031915  C 16.59646146 52.600884925532  16.34545128 52.596353425532  16.1844 52.7480425531915  L 15.327 53.6151702127659  C 15.16761084 53.7762552446809  15.1676109 54.0374256063831  15.32700018 54.1985106382979  C 15.48638952 54.3595950638298  15.7448106 54.3595956702129  15.9042 54.1985106382979  Z M 15.012 36.5400319148937  L 15.012 36.537  C 15.17162988 36.6974968404256  15.42957012 36.6974968404256  15.5892 36.537  L 16.4466 35.6704787234044  C 16.6059894 35.5093936914893  16.6059894 35.2482233297872  16.4466 35.0871382978723  C 16.2872106 34.9260532659575  16.0287894 34.9260532659575  15.8694 35.0871382978723  L 15.012 35.953659574468  C 14.93465052 36.0311965531914  14.89114284 36.1367417553192  14.89114284 36.246845744681  C 14.89114284 36.3569497340425  14.93465052 36.4624949361703  15.012 36.5400319148937  Z M 15.012 50.5353510638299  L 15.012 50.5323191489363  C 15.17162988 50.6928159893616  15.42957012 50.6928159893616  15.5892 50.5323191489363  L 16.4466 49.6657978723404  C 16.55586522 49.5628843723405  16.6008624 49.4079183510639  16.56395106 49.2616515  C 16.52703972 49.1153852553191  16.41410214 49.0011275425531  16.26941376 48.9636712659574  C 16.12472532 48.9262155957447  15.97134378 48.9715305957448  15.8694 49.0818510638298  L 15.012 49.9489787234043  C 14.93479908 50.0265957446809  14.89139424 50.1321106276596  14.89139424 50.242164893617  C 14.89139424 50.3522191595746  14.93479908 50.4577340425533  15.012 50.5353510638299  Z M 16.7616 32.0928191489363  L 16.7616 32.0897872340427  C 16.60210614 31.9289573680851  16.34389386 31.9289573680851  16.1844 32.0897872340427  L 15.327 32.9563085106383  C 15.17674014 33.1189155638299  15.18096354 33.3726007340426  15.33655104 33.5300068404256  C 15.49213854 33.6874129468085  15.74314872 33.6919444468085  15.9042 33.5402553191489  L 16.7616 32.6731276595744  C 16.9187517 32.5122924574468  16.9187517 32.2536543510639  16.7616 32.0928191489363  Z M 16.7616 38.7563617021276  L 16.7616 38.7527234042554  C 16.601835 38.5925576489362  16.344165 38.5925576489362  16.1844 38.7527234042554  L 15.327 39.6198510638299  C 15.16761084 39.7809360957447  15.1676109 40.0421064574468  15.32700018 40.2031914893616  C 15.48638952 40.3642759148936  15.7448106 40.3642765212767  15.9042 40.2031914893616  L 16.7616 39.3360638297872  C 16.91835714 39.175301393617  16.91835714 38.9171241382978  16.7616 38.7563617021276  Z M 16.7616 42.4219468085107  L 16.7616 42.4189148936171  C 16.60197012 42.2584180531915  16.34402988 42.2584180531915  16.1844 42.4189148936171  L 15.327 43.2860425531915  C 15.1676106 43.4471275851065  15.1676106 43.7082979468084  15.327 43.8693829787235  C 15.4863894 44.0304680106383  15.7448106 44.0304680106383  15.9042 43.8693829787235  L 16.7616 43.0022553191491  C 16.9187517 42.8414201170212  16.9187517 42.5827820106383  16.7616 42.4219468085107  Z M 4.9836 56.4172659574467  L 4.9836 56.4142340425533  C 4.823835 56.2540682872341  4.56616500000001 56.2540682872341  4.40639999999999 56.4142340425533  L 4.38900000000001 56.4318191489363  L 4.99680000000001 56.4318191489363  C 4.9914 56.4318191489363  4.98959999999999 56.423329787234  4.9836 56.4172659574467  Z M 0.26339999999999 56.3408617021278  L 0.645600000000002 56.3566276595745  C 0.528860909999992 56.2868293404256  0.385192685999982 56.2811311595744  0.26339999999999 56.3414680851063  Z M 4.4034 28.4235957446808  L 3.5454 29.2907234042555  C 3.38601059999999 29.4518084361703  3.38601059999999 29.7129787978724  3.5454 29.8740638297872  C 3.70478939999998 30.0351488617021  3.9632106 30.0351488617021  4.12260000000001 29.8740638297872  L 4.98059999999998 29.0069361702128  C 5.13998940000002 28.8458511382978  5.13998940000002 28.5846807765959  4.98059999999998 28.4235957446808  C 4.8212106 28.262510712766  4.56278939999999 28.262510712766  4.4034 28.4235957446808  Z M 5.0898 25.1182021276595  L 5.08680000000001 25.1151702127659  L 5.01480000000001 25.2892021276596  C 5.05248690000002 25.2387941776597  5.07815303999999 25.1802753702127  5.0898 25.1182021276595  Z M 15.5868 8.5463617021278  L 16.4442 7.67984042553189  C 16.55346522 7.57692680425544  16.5984624 7.42196072234037  16.56155106 7.27569423510636  C 16.52463972 7.12942774787234  16.41170214 7.01517003510639  16.26701376 6.97771412234056  C 16.12232532 6.94025814893621  15.96894378 6.9855729670212  15.867 7.09589361702137  L 15.0096 7.96302127659578  C 14.90649318 8.06722497765963  14.86622532 8.21910523723409  14.90396508 8.36145018510638  C 14.94170478 8.50379513297867  15.0517185 8.61497921170212  15.19256508 8.65312039787227  C 15.33341166 8.69126164468094  15.48369318 8.65056540319142  15.5868 8.5463617021278  Z M 15.012 22.5447127659575  L 15.0096 22.5416808510638  C 15.16909386 22.7025107170214  15.42730614 22.7025107170214  15.5868 22.5416808510638  L 16.4442 21.6751595744681  C 16.55346522 21.5722459531914  16.5984624 21.4172798712766  16.56155106 21.2710133840426  C 16.52463972 21.1247468968086  16.41170214 21.0104891840426  16.26701376 20.9730332712766  C 16.12232532 20.9355772978724  15.96894378 20.9808921159574  15.867 21.0912127659574  L 15.0096 21.958340425532  C 14.93256702 22.0362004851063  14.88949074 22.1419274202128  14.8899414 22.2520318340426  C 14.89039206 22.3621362478723  14.93433234 22.467499474468  15.012 22.5447127659575  Z M 21.7248 1.02114893617022  L 22.5822 1.88827659574463  C 22.74309522 2.0401349648937  22.9941099 2.03586663510646  23.14985916 1.87862394893614  C 23.30560842 1.72138126276604  23.31009264 1.46770076170219  23.16 1.30493617021284  L 22.302 0.437808510638206  C 22.1426106 0.276723478723397  21.8841894 0.276723478723397  21.7248 0.437808510638206  C 21.5654106 0.598893542553242  21.5654106 0.860063904255412  21.7248 1.02114893617022  Z M 38.3322 24.7604361702129  L 38.3322 24.7622553191488  C 38.172435 24.602089381915  37.914765 24.602089381915  37.755 24.7622553191488  L 36.897 25.6293829787235  C 36.74690736 25.7921475702128  36.75139158 26.0458280712767  36.90714084 26.2030707574468  C 37.0628901 26.3603134436171  37.31390478 26.3645817734043  37.4748 26.2127234042553  L 38.3322 25.3462021276596  C 38.40921672 25.2686089978724  38.4525045 25.1632243053193  38.4525045 25.0533191489362  C 38.4525045 24.9434139925531  38.40921672 24.8380293  38.3322 24.7604361702129  Z M 33.5028 15.0164680851065  L 34.3608 15.8835957446809  C 34.5201894 16.0446805946808  34.77861048 16.0446804734042  34.93799982 15.883595562766  C 35.0973891 15.7225105914895  35.09738922 15.4613403510639  34.938 15.3002553191488  L 34.0806 14.4331276595744  C 33.97876968 14.322700043617  33.82543482 14.2772241702128  33.68070798 14.3145281840425  C 33.53598114 14.3518321978725  33.42292614 14.4659712414893  33.3858645 14.6121988595744  C 33.3488028 14.758426538298  33.39364062 14.9134397968085  33.5028 15.0164680851065  Z M 37.44 21.0960638297872  L 36.582 21.9631914893616  C 36.43190736 22.1259560808512  36.43639158 22.3796365819148  36.59214084 22.5368792680852  C 36.7478901 22.6941219542553  36.99890478 22.6983902840425  37.1598 22.5465319148936  L 38.0172 21.680010638298  C 38.12646522 21.5770970170213  38.1714624 21.4221309351065  38.13455106 21.2758644478724  C 38.09763972 21.1295979606384  37.98470214 21.0153402478725  37.84001376 20.9778843351064  C 37.69532532 20.9404283617021  37.54194378 20.9857431797873  37.44 21.0960638297872  Z M 37.1598 36.5418510638299  L 38.0172 35.6753297872342  C 38.1765894 35.5142447553192  38.1765894 35.253074393617  38.0172 35.0919893617022  C 37.8578106 34.9309043297872  37.5993894 34.9309043297872  37.44 35.0919893617022  L 36.582 35.9585106382979  C 36.43190736 36.1212753510638  36.43639158 36.3749556702128  36.59214084 36.5321986595745  C 36.7478901 36.6894410425532  36.99890478 36.6937093723404  37.1598 36.5418510638299  Z M 33.4998 18.6826595744681  L 34.3578 19.5497872340425  C 34.51885128 19.7014766042553  34.76986146 19.6969446797873  34.92544896 19.5395385127661  C 35.08103646 19.3821323457446  35.08525986 19.1284472968084  34.935 18.965840425532  L 34.0776 18.0993191489363  C 33.91670478 17.9474607797872  33.6656901 17.9517291095744  33.50994084 18.1089717957448  C 33.35419158 18.2662144819149  33.34970736 18.5198949829787  33.4998 18.6826595744681  Z M 33.4998 29.0117872340427  L 34.3578 29.8789148936171  C 34.46090682 29.9831185946809  34.61118834 30.0238148361702  34.75203492 29.9856735893618  C 34.8928815 29.9475324031914  35.00289522 29.8363483244682  35.04063492 29.6940033765957  C 35.07837468 29.5516584287234  35.03810682 29.3997781691489  34.935 29.2955744680851  L 34.0776 28.4284468085107  C 33.91670478 28.2765884393618  33.6656901 28.2808567691488  33.50994084 28.4380994553192  C 33.35419158 28.5953421414895  33.34970736 28.8490226425531  33.4998 29.0117872340427  Z M 33.4998 25.3462021276596  L 34.3578 26.2127234042553  C 34.46090682 26.3169271053191  34.61118834 26.3576233468086  34.75203492 26.3194821  C 34.8928815 26.2813409138298  35.00289522 26.1701568351064  35.04063492 26.0278118872341  C 35.07837468 25.8854669393618  35.03810682 25.7335866797873  34.935 25.6293829787235  L 34.0776 24.7622553191488  C 33.91746126 24.6045178244681  33.66160794 24.6061784042554  33.50348694 24.7659814819149  C 33.345366 24.9257846202129  33.3437229 25.1843597840425  33.4998 25.3462021276596  Z M 38.3322 46.0881382978723  L 38.3292 46.0899574468085  C 38.16970614 45.9291277021277  37.91149386 45.9291277021277  37.752 46.0899574468085  L 36.894 46.9564787234042  C 36.7379229 47.1183211276596  36.739566 47.3768961702128  36.89768694 47.5366993085106  C 37.05580794 47.6965024468086  37.31166126 47.6981627234043  37.4718 47.5404255319149  L 38.3292 46.6732978723405  C 38.40657906 46.5962120425531  38.4503928 46.4911543723404  38.45095578 46.3813475106383  C 38.45151876 46.2715412553191  38.40878454 46.1660300106382  38.3322 46.0881382978723  Z M 37.4718 54.2033617021277  L 38.3292 53.336840425532  C 38.47945986 53.1742333723405  38.47523646 52.9205482021277  38.31964896 52.7631420957448  C 38.16406146 52.6057359893616  37.91305128 52.6012044893616  37.752 52.7528936170213  L 36.894 53.6200212765957  C 36.74390736 53.7827859893616  36.74839158 54.0364663085106  36.90414084 54.1937092978724  C 37.0598901 54.350951680851  37.31090478 54.3552200106383  37.4718 54.2033617021277  Z M 38.3322 42.4219468085107  L 38.3292 42.4237659574469  C 38.16957012 42.2632691170213  37.91162988 42.2632691170213  37.752 42.4237659574469  L 36.894 43.2908936170213  C 36.74390736 43.4536583297872  36.74839158 43.7073386489362  36.90414084 43.8645816382978  C 37.0598901 44.0218240212766  37.31090478 44.0260923510639  37.4718 43.8742340425533  L 38.3292 43.0071063829787  C 38.40657906 42.9300205531915  38.4503928 42.8249628829788  38.45095578 42.7151560212767  C 38.45151876 42.6053497659575  38.40878454 42.4998385212766  38.3322 42.4219468085107  Z M 38.3322 32.0928191489363  L 38.3292 32.0946382978723  C 38.16970614 31.9338084319149  37.91149386 31.9338084319149  37.752 32.0946382978723  L 36.894 32.9611595744682  C 36.7379229 33.1230019787236  36.739566 33.3815770212766  36.89768694 33.5413801595744  C 37.05580794 33.7011832978724  37.31166126 33.702843574468  37.4718 33.5451063829787  L 38.3292 32.6779787234043  C 38.40657906 32.6008928936171  38.4503928 32.4958352234044  38.45095578 32.3860283617021  C 38.45151876 32.2762221063831  38.40878454 32.1707109223405  38.3322 32.0928191489363  Z M 38.3322 38.7563617021276  L 38.3292 38.7575744680851  C 38.169435 38.5974087127661  37.911765 38.5974087127661  37.752 38.7575744680851  L 36.894 39.6247021276595  C 36.74390736 39.7874668404256  36.74839158 40.0411471595744  36.90414084 40.1983901489361  C 37.0598901 40.355632531915  37.31090478 40.359900861702  37.4718 40.2080425531915  L 38.3292 39.3409148936171  C 38.40639534 39.2638533191489  38.45009214 39.1589248085106  38.45065488 39.0492671170214  C 38.45121768 38.9396094255319  38.40860022 38.8342285531915  38.3322 38.7563617021276  Z M 38.3322 28.4266276595745  L 38.3292 28.4284468085107  C 38.16957012 28.2679497255319  37.91162988 28.2679497255319  37.752 28.4284468085107  L 36.894 29.2955744680851  C 36.74390736 29.4583390595744  36.74839158 29.7120195606383  36.90414084 29.8692622468086  C 37.0598901 30.0265049329787  37.31090478 30.0307732627659  37.4718 29.8789148936171  L 38.3292 29.0117872340427  C 38.40643188 28.9346216042554  38.45014344 28.8295926765959  38.45070618 28.7198358414894  C 38.45126886 28.6100790063829  38.40863652 28.5045980202128  38.3322 28.4266276595745  Z M 33.4998 11.3502765957446  L 34.3578 12.2174042553193  C 34.46090682 12.3216079563829  34.61118834 12.3623041978724  34.75203492 12.324162951064  C 34.8928815 12.2860217648936  35.00289522 12.1748376861703  35.04063492 12.0324927382978  C 35.07837468 11.8901477904255  35.03810682 11.7382675308511  34.935 11.6340638297872  L 34.0776 10.7669361702128  C 33.91670478 10.6150778010638  33.6656901 10.619346130851  33.50994084 10.7765888170213  C 33.35419158 10.9338315031916  33.34970736 11.1875120042553  33.4998 11.3502765957446  Z M 33.4998 53.336840425532  L 34.3578 54.2033617021277  C 34.46090682 54.3075655851064  34.61118834 54.3482617659574  34.75203492 54.3101202765959  C 34.8928815 54.2719793936171  35.00289522 54.1607954361702  35.04063492 54.0184500638297  C 35.07837468 53.8761052978723  35.03810682 53.7242251595744  34.935 53.6200212765957  L 34.0776 52.7528936170213  C 33.91746126 52.595156425532  33.66160794 52.5968167021276  33.50348694 52.7566198404256  C 33.345366 52.9164229787234  33.3437229 53.1749980212767  33.4998 53.336840425532  Z M 35.25 21.9631914893616  L 34.392 21.0960638297872  C 34.23094872 20.9443744595744  33.97993854 20.9489063840426  33.82435104 21.1063125510639  C 33.66876354 21.2637187180851  33.66454014 21.5174037670213  33.8148 21.680010638298  L 34.6728 22.5465319148936  C 34.8321894 22.7076169468085  35.0906106 22.7076169468085  35.25 22.5465319148936  C 35.4093894 22.3854468829788  35.4093894 22.1242765212767  35.25 21.9631914893616  Z M 35.25 7.96787234042563  L 34.392 7.10074468085099  C 34.23094872 6.94905531063819  33.97993854 6.9535872351064  33.82435104 7.11099340212763  C 33.66876354 7.2683995691491  33.66454014 7.52208461808505  33.8148 7.68469148936174  L 34.6728 8.55121276595742  C 34.8321894 8.71229779787245  35.0906106 8.71229779787245  35.25 8.55121276595742  C 35.4093894 8.39012773404261  35.4093894 8.12895737234044  35.25 7.96787234042563  Z M 33.5028 4.10218085106385  L 33.4998 4.10400000000004  C 33.34132002 4.26546462765964  33.34132002 4.52587579787246  33.4998 4.68734042553183  L 34.3578 5.55446808510646  C 34.48749786 5.6815896670214  34.68489594 5.70634124999992  34.8414 5.61510638297864  C 34.6716 5.18760638297886  34.4958 4.76617021276593  34.317 4.34170212765957  L 34.077 4.0991489361702  C 33.91677702 3.94181638404257  33.66138756 3.94316491914901  33.5028 4.10218085106385  Z M 37.752 18.0993191489363  L 36.894 18.965840425532  C 36.7379229 19.127682769149  36.739566 19.3862579329787  36.89768694 19.5460610712767  C 37.05580794 19.7058641489361  37.31166126 19.7075247287235  37.4718 19.5497872340425  L 38.3292 18.6826595744681  C 38.4885894 18.5215745425533  38.4885894 18.2604041808511  38.3292 18.0993191489363  C 38.1698106 17.9382341170212  37.9113894 17.9382341170212  37.752 18.0993191489363  Z M 37.6878 14.498010638298  L 36.894 15.3002553191488  C 36.74390736 15.4630199106384  36.74839158 15.7167004117023  36.90414084 15.8739430978724  C 37.0598901 16.0311857840425  37.31090478 16.0354541138297  37.4718 15.8835957446809  L 37.9194 15.4306276595744  C 37.8432 15.1195531914893  37.767 14.8084787234043  37.6878 14.498010638298  Z M 33.4998 39.3409148936171  L 34.3578 40.2080425531915  C 34.5171894 40.3691275851065  34.77561048 40.3691275851065  34.93499982 40.2080425531915  C 35.0943891 40.0469575212767  35.09438922 39.7857871595745  34.935 39.6247021276595  L 34.0776 38.7575744680851  C 33.97576968 38.6471466702128  33.82243482 38.6016709787234  33.67770798 38.6389750531914  C 33.53298114 38.6762791276597  33.41992614 38.7904179893617  33.3828645 38.9366454255319  C 33.3458028 39.0828734680852  33.39064062 39.2378867872342  33.4998 39.3409148936171  Z M 33.4998 32.6779787234043  L 34.3578 33.5451063829787  C 34.51885128 33.6967955106384  34.76986146 33.6922640106384  34.92544896 33.5348579042552  C 35.08103646 33.3774517978725  35.08525986 33.1237666276595  34.935 32.9611595744682  L 34.0776 32.0946382978723  C 33.97576968 31.9842106819149  33.82243482 31.9387348085106  33.67770798 31.9760388223406  C 33.53298114 32.0133428361703  33.41992614 32.1274818797872  33.3828645 32.2737092553191  C 33.3458028 32.4199372978724  33.39064062 32.5749506170214  33.4998 32.6779787234043  Z M 33.4998 43.0071063829787  L 34.3578 43.8742340425533  C 34.5171894 44.0353190744681  34.7756106 44.0353190744681  34.935 43.8742340425533  C 35.0943894 43.7131490106383  35.0943894 43.4519786489361  34.935 43.2908936170213  L 34.0776 42.4237659574469  C 33.97576968 42.3133381595744  33.82243482 42.2678624680852  33.67770798 42.3051665425533  C 33.53298114 42.3424706170213  33.41992614 42.4566094787233  33.3828645 42.6028369148937  C 33.3458028 42.7490649574468  33.39064062 42.9040782765958  33.4998 43.0071063829787  Z M 35.25 35.9585106382979  L 34.392 35.0919893617022  C 34.2326106 34.9309043297872  33.9741894 34.9309043297872  33.8148 35.0919893617022  C 33.6554106 35.253074393617  33.6554106 35.5142447553192  33.8148 35.6753297872342  L 34.6728 36.5418510638299  C 34.8321894 36.7029360957447  35.09061048 36.7029354893616  35.24999982 36.5418510638299  C 35.4093891 36.3807660319148  35.40938916 36.1195956702127  35.25 35.9585106382979  Z M 33.8148 49.6706489361702  L 34.6728 50.5371702127661  C 34.8321894 50.6982552446809  35.0906106 50.6982552446809  35.25 50.5371702127661  C 35.4093894 50.3760851808511  35.4093894 50.1149148191489  35.25 49.9538297872341  L 34.392 49.0867021276597  C 34.23094872 48.935013  33.97993854 48.9395445  33.82435104 49.096950606383  C 33.66876354 49.2543567127659  33.66454014 49.5080418829787  33.8148 49.6706489361702  Z M 33.4998 46.6732978723405  L 34.3578 47.5404255319149  C 34.51885128 47.6921146595746  34.76986146 47.6875831595744  34.92544896 47.5301770531914  C 35.08103646 47.3727709468085  35.08525986 47.1190857765957  34.935 46.9564787234042  L 34.0776 46.0899574468085  C 33.97576968 45.9795296489363  33.82243482 45.9340539574468  33.67770798 45.9713580319149  C 33.53298114 46.0086621063831  33.41992614 46.1228009680851  33.3828645 46.2690284042553  C 33.3458028 46.4152564468086  33.39064062 46.5702697659574  33.4998 46.6732978723405  Z M 21.7218 46.6732978723405  L 22.5792 47.5404255319149  C 22.73933874 47.6981627234043  22.99519206 47.6965024468086  23.15331306 47.5366993085106  C 23.311434 47.3768961702128  23.3130771 47.1183211276596  23.157 46.9564787234042  L 22.299 46.0899574468085  C 22.1396106 45.9288724148937  21.8811894 45.9288724148937  21.7218 46.0899574468085  C 21.5624106 46.2510424787233  21.5624106 46.5122128404255  21.7218 46.6732978723405  Z M 21.7218 4.68734042553183  L 22.5792 5.55446808510646  C 22.73933874 5.71220557978722  22.99519206 5.71054500000014  23.15331306 5.55074192234042  C 23.311434 5.39093878404265  23.3130771 5.1323636202128  23.157 4.97052127659572  L 22.299 4.10400000000004  C 22.1396106 3.94291496808523  21.8811894 3.94291496808523  21.7218 4.10400000000004  C 21.5624106 4.26508503191485  21.5624106 4.52625539361702  21.7218 4.68734042553183  Z M 26.5542 0.432957446808587  L 26.5512 0.437808510638206  C 26.39136474 0.277241147872473  26.13323526 0.277241147872473  25.9734 0.437808510638206  L 25.116 1.30493617021284  C 24.9566106 1.46602120212765  24.9566106 1.72719156382982  25.116 1.88827659574463  C 25.2753894 2.04936162765966  25.5338106 2.04936162765966  25.6932 1.88827659574463  L 26.5512 1.02114893617022  C 26.6292042 0.943785322340546  26.67339942 0.838136731914801  26.67396282 0.727684921276705  C 26.67452616 0.617233050000095  26.63141094 0.51112967234053  26.5542 0.432957446808587  Z M 21.7218 15.0164680851065  L 22.5792 15.8835957446809  C 22.74009522 16.0354541138297  22.9911099 16.0311857840425  23.14685916 15.8739430978724  C 23.30260842 15.7167004117023  23.30709264 15.4630199106384  23.157 15.3002553191488  L 22.299 14.4331276595744  C 22.1396106 14.2720426276596  21.8811894 14.2720426276596  21.7218 14.4331276595744  C 21.5624106 14.5942126914895  21.5624106 14.8553830531916  21.7218 15.0164680851065  Z M 26.5542 4.10218085106385  L 26.5512 4.10157446808512  C 26.39136474 3.94100710531916  26.13323526 3.94100710531916  25.9734 4.10157446808512  L 25.116 4.9680957446808  C 25.00673478 5.07100936595748  24.9617376 5.22597544787232  24.99864894 5.37224193510633  C 25.03556028 5.51850842234035  25.14849786 5.63276613510629  25.29318624 5.67022204787236  C 25.43787468 5.70767802127671  25.59125622 5.66236320319149  25.6932 5.55204255319154  L 26.5512 4.68491489361713  C 26.7101175 4.52435432234051  26.7114558 4.26440394255314  26.5542 4.10218085106385  Z M 21.7218 11.3478510638299  L 22.5792 12.2149787234043  C 22.74009522 12.3668370925532  22.9911099 12.3625687627659  23.14685916 12.2053260765958  C 23.30260842 12.0480833904255  23.30709264 11.7944028893617  23.157 11.6316382978723  L 22.299 10.7645106382979  C 22.1396106 10.6034256063831  21.8811894 10.6034256063831  21.7218 10.7645106382979  C 21.5624106 10.9255956702127  21.5624106 11.1867660319149  21.7218 11.3478510638299  Z M 26.5542 24.7604361702129  L 26.5512 24.7598297872341  C 26.39109606 24.5999220478723  26.13350394 24.5999220478723  25.9734 24.7598297872341  L 25.116 25.6269574468085  C 24.9566106 25.7880424787234  24.9566106 26.0492128404255  25.116 26.2102978723406  C 25.2753894 26.3713829042554  25.5338106 26.3713829042554  25.6932 26.2102978723406  L 26.5512 25.3437765957447  C 26.71018806 25.1830084595745  26.71152594 24.9228658563829  26.5542 24.7604361702129  Z M 26.5542 28.4266276595745  L 26.5512 28.4260212765957  C 26.39136474 28.2654539138298  26.13323526 28.2654539138298  25.9734 28.4260212765957  L 25.116 29.2931489361702  C 24.9566106 29.4542339680852  24.9566106 29.7154043297874  25.116 29.8764893617022  C 25.2753894 30.037574393617  25.5338106 30.037574393617  25.6932 29.8764893617022  L 26.5512 29.0093617021278  C 26.7101175 28.8488011308511  26.7114558 28.5888507510638  26.5542 28.4266276595745  Z M 26.5542 10.7651170212766  L 26.5512 10.7645106382979  C 26.39109606 10.6046028989363  26.13350394 10.6046028989363  25.9734 10.7645106382979  L 25.116 11.6316382978723  C 24.9566106 11.7927233297873  24.9566106 12.0538936914893  25.116 12.2149787234043  C 25.2753894 12.3760637553191  25.5338106 12.3760637553191  25.6932 12.2149787234043  L 26.5512 11.3478510638299  C 26.7101175 11.1872904925533  26.7114558 10.9273401127659  26.5542 10.7651170212766  Z M 26.5542 32.0928191489363  L 26.5512 32.0922127659574  C 26.39150052 31.9313131053191  26.13309948 31.9313131053191  25.9734 32.0922127659574  L 25.116 32.9587340425533  C 25.00673478 33.0616475425531  24.9617376 33.2166135638297  24.99864894 33.3628804148937  C 25.03556028 33.5091466595745  25.14849786 33.6234043723405  25.29318624 33.6608606489363  C 25.43787468 33.6983163191489  25.59125622 33.6530013191489  25.6932 33.5426808510638  L 26.5512 32.6755531914894  C 26.7101175 32.514992680851  26.7114558 32.2550423617022  26.5542 32.0928191489363  Z M 21.7218 18.6802340425531  L 22.5792 19.5473617021275  C 22.68196122 19.653918775532  22.83349908 19.6963639468086  22.97587356 19.6584684670213  C 23.1182481 19.620572987234  23.22944064 19.5081975478722  23.26693722 19.3643083851064  C 23.3044338 19.2204192829788  23.26243542 19.0672693180852  23.157 18.963414893617  L 22.299 18.0968936170214  C 22.1396106 17.9358085851063  21.8811894 17.9358085851063  21.7218 18.0968936170214  C 21.5624106 18.2579786489362  21.5624106 18.5191490106383  21.7218 18.6802340425531  Z M 26.5542 18.0975000000001  L 26.5512 18.0968936170214  C 26.39136474 17.9363262542554  26.13323526 17.9363262542554  25.9734 18.0968936170214  L 25.116 18.963414893617  C 25.00673478 19.0663285148937  24.9617376 19.2212945968085  24.99864894 19.3675610840426  C 25.03556028 19.5138275712766  25.14849786 19.6280852840425  25.29318624 19.6655411968086  C 25.43787468 19.7029971702127  25.59125622 19.6576823521277  25.6932 19.5473617021275  L 26.5512 18.6802340425531  C 26.7101175 18.5196734712765  26.7114558 18.2597230914894  26.5542 18.0975000000001  Z M 26.5542 14.4313085106382  L 26.5512 14.4307021276595  C 26.39150052 14.2698024670212  26.13309948 14.2698024670212  25.9734 14.4307021276595  L 25.116 15.2978297872342  C 24.9566106 15.458914819149  24.9566106 15.7200851808511  25.116 15.8811702127659  C 25.2753894 16.0422552446807  25.5338106 16.0422552446807  25.6932 15.8811702127659  L 26.5512 15.0140425531915  C 26.7101175 14.8534819819149  26.7114558 14.5935316021278  26.5542 14.4313085106382  Z M 21.7218 29.0093617021278  L 22.5792 29.8764893617022  C 22.74009522 30.028347730851  22.9911099 30.0240794010638  23.14685916 29.8668367148937  C 23.30260842 29.7095940287234  23.30709264 29.4559135276595  23.157 29.2931489361702  L 22.299 28.4260212765957  C 22.1396106 28.2649362446809  21.8811894 28.2649362446809  21.7218 28.4260212765957  C 21.5624106 28.5871063085108  21.5624106 28.8482766702127  21.7218 29.0093617021278  Z M 23.4714 21.9607659574467  L 22.614 21.0936382978723  C 22.45294872 20.9419489276595  22.20193854 20.9464808521277  22.04635104 21.1038870191489  C 21.89076354 21.2612931861702  21.88654014 21.5149782351064  22.0368 21.677585106383  L 22.8942 22.5441063829787  C 23.0535894 22.7051914148938  23.3120106 22.7051914148938  23.4714 22.5441063829787  C 23.6307894 22.3830213510639  23.6307894 22.1218509893617  23.4714 21.9607659574467  Z M 23.4714 35.9560851063829  L 22.614 35.0895638297873  C 22.4546106 34.9284787978725  22.19618952 34.9284787978725  22.03680018 35.0895638297873  C 21.8774109 35.2506488617021  21.87741078 35.5118192234042  22.0368 35.6729042553193  L 22.8942 36.539425531915  C 23.0535894 36.7005105638298  23.3120106 36.7005105638298  23.4714 36.539425531915  C 23.6307894 36.3783404999999  23.6307894 36.1171701382978  23.4714 35.9560851063829  Z M 23.4714 7.96544680851071  L 22.614 7.09831914893607  C 22.45294872 6.94662977872349  22.20193854 6.95116170319147  22.04635104 7.10856787021271  C 21.89076354 7.26597403723417  21.88654014 7.51965908617012  22.0368 7.68226595744682  L 22.8942 8.54878723404249  C 23.0535894 8.70987226595753  23.3120106 8.70987226595753  23.4714 8.54878723404249  C 23.6307894 8.38770220212768  23.6307894 8.12653184042551  23.4714 7.96544680851071  Z M 36.897 12.2155851063831  L 36.894 12.2149787234043  C 36.95136732 12.2702225776595  37.0239609 12.3065883351064  37.1022 12.3192765957447  C 37.0362 12.0876382978722  36.9678 11.8572127659575  36.8994 11.6261808510637  L 36.894 11.6316382978723  C 36.73594968 11.7940063755318  36.7372899 12.0548844606383  36.897 12.2155851063831  Z M 21.7218 53.3344148936171  L 22.5792 54.2009361702128  C 22.74009522 54.3527944787234  22.9911099 54.3485261489363  23.14685916 54.1912837659575  C 23.30260842 54.0340407765957  23.30709264 53.7803604574469  23.157 53.6175957446808  L 22.299 52.7504680851064  C 22.13794872 52.5987789574467  21.88693854 52.6033104574469  21.73135104 52.7607165638299  C 21.57576354 52.9181226702128  21.57154014 53.1718078404256  21.7218 53.3344148936171  Z M 22.0368 49.6682234042553  L 22.8942 50.534744680851  C 23.0535894 50.695829712766  23.3120106 50.695829712766  23.4714 50.534744680851  C 23.6307894 50.3736596489362  23.6307894 50.112489287234  23.4714 49.9514042553192  L 22.614 49.0842765957448  C 22.45294872 48.9325874680851  22.20193854 48.9371189680851  22.04635104 49.094525074468  C 21.89076354 49.251931180851  21.88654014 49.505616351064  22.0368 49.6682234042553  Z M 21.7218 32.6755531914894  L 22.5792 33.5426808510638  C 22.73933874 33.7004180425531  22.99519206 33.6987577659575  23.15331306 33.5389546276595  C 23.311434 33.3791514893617  23.3130771 33.1205764468086  23.157 32.9587340425533  L 22.299 32.0922127659574  C 22.1396106 31.9311277340425  21.8811894 31.9311277340425  21.7218 32.0922127659574  C 21.5624106 32.2532977978724  21.5624106 32.5144681595746  21.7218 32.6755531914894  Z M 21.7218 25.3437765957447  L 22.5792 26.2102978723406  C 22.74009522 26.3621562414894  22.9911099 26.3578879117022  23.14685916 26.2006452255318  C 23.30260842 26.0434025393618  23.30709264 25.7897220382979  23.157 25.6269574468085  L 22.299 24.7598297872341  C 22.13794872 24.6081404170213  21.88693854 24.6126723414893  21.73135104 24.7700785085108  C 21.57576354 24.927484675532  21.57154014 25.1811697244682  21.7218 25.3437765957447  Z M 26.5542 38.7563617021276  L 26.5512 38.7551489361701  C 26.39122992 38.5949122340426  26.13337008 38.5949122340426  25.9734 38.7551489361701  L 25.116 39.6222765957446  C 25.012893 39.7264804787235  24.97262514 39.8783606170214  25.01036484 40.0207053829788  C 25.04810454 40.1630507553191  25.15811832 40.274234712766  25.29896496 40.3123762021276  C 25.4398116 40.3505170851063  25.59009318 40.3098209042553  25.6932 40.2056170212766  L 26.5512 39.3384893617022  C 26.70972246 39.1779997978724  26.71105974 38.9185115425532  26.5542 38.7563617021276  Z M 36.5802 50.5353510638299  L 36.579 50.534744680851  C 36.73883526 50.6953118617021  36.99696474 50.6953118617021  37.1568 50.534744680851  L 38.0142 49.6682234042553  C 38.12346522 49.5653099042554  38.1684624 49.4103438829789  38.13155106 49.2640770319149  C 38.09463972 49.117810787234  37.98170214 49.0035530744681  37.83701376 48.9660967978723  C 37.69232532 48.9286411276596  37.53894378 48.9739561276597  37.437 49.0842765957448  L 36.579 49.9514042553192  C 36.42045426 50.1132733404256  36.42099036 50.374149  36.5802 50.5353510638299  Z M 21.7218 43.0046808510638  L 22.5792 43.8718085106384  C 22.74009522 44.023666819149  22.9911099 44.0193984893617  23.14685916 43.8621561063831  C 23.30260842 43.7049131170213  23.30709264 43.4512327978723  23.157 43.2884680851064  L 22.299 42.421340425532  C 22.1396106 42.2602553936169  21.8811894 42.2602553936169  21.7218 42.421340425532  C 21.5624106 42.5824254574468  21.5624106 42.843595819149  21.7218 43.0046808510638  Z M 21.7218 39.3384893617022  L 22.5792 40.2056170212766  C 22.74009522 40.3574753297873  22.9911099 40.3532070000001  23.14685916 40.1959646170212  C 23.30260842 40.0387216276595  23.30709264 39.7850413085107  23.157 39.6222765957446  L 22.299 38.7551489361701  C 22.1396106 38.5940639042553  21.88118952 38.5940639042553  21.72180018 38.7551489361701  C 21.5624109 38.9162339680852  21.56241078 39.1774043297874  21.7218 39.3384893617022  Z " fill-rule="nonzero" fill="#ed5858" stroke="none" transform="matrix(1 0 0 1 426 530 )" />
  </g>
</svg>