<?xml version="1.0" encoding="utf-8"?>
<svg version="1.1" xmlns:xlink="http://www.w3.org/1999/xlink" width="68px" height="86px" xmlns="http://www.w3.org/2000/svg">
  <g transform="matrix(1 0 0 1 -548 -394 )">
    <path d="M 19.4034690265486 5.70325352112673  C 23.1645309734513 5.4761408450704  24.827221238938 3.50783098591546  24.827221238938 3.50783098591546  C 24.827221238938 3.50783098591546  35.4436460176991 -3.60836619718316  44.4232566371682 3.129309859155  C 48.6645309734513 7.06592957746489  53.7043539823009 6.30888732394374  54.9831150442478 10.2455070422534  C 56.2618761061947 14.1821267605633  50.0185132743363 17.6015352112677  51.5229380530973 23.3483943661972  C 53.0273628318584 29.0952535211268  60.3990442477876 34.9250845070421  60.3238230088496 40.9057183098591  C 60.2486017699115 46.8863521126759  59.646831858407 44.7466478873239  59.9477168141593 47.7094084507041  C 60.2486017699115 50.6721690140846  71.7574513274336 56.5764929577465  66.4167433628318 70.7331830985916  C 65.213203539823 74.1398732394366  64.1601061946902 74.8212112676056  65.5140884955752 78.379309859155  C 66.8680707964602 81.9374084507042  65.5140884955752 85.3440985915493  61.9786902654867 85.4955070422534  C 58.4432920353982 85.6469154929578  0.14683185840704 87.0095915492957  5.03621238938052 68.7648732394366  C 6.31497345132743 65.055366197183  -1.73369911504426 61.8000845070421  1.04948672566371 54.1539577464789  C 3.83267256637168 46.5078309859155  10.1512566371681 44.6152253521127  8.49638938053096 31.2912816901408  C 6.84152212389381 17.967338028169  9.77515044247787 6.76311267605638  19.4034690265486 5.70325352112673  Z " fill-rule="nonzero" fill="#55312f" stroke="none" transform="matrix(1 0 0 1 548 394 )" />
  </g>
</svg>