<?xml version="1.0" encoding="utf-8"?>
<svg version="1.1" xmlns:xlink="http://www.w3.org/1999/xlink" width="484px" height="397px" xmlns="http://www.w3.org/2000/svg">
  <g transform="matrix(1 0 0 1 -340 -211 )">
    <path d="M 0 396.470464939024  C 50.5299625468165 381.861349085366  368.788664169788 292.454649390244  483 328.931445121951  L 483 99.0581570121951  C 464.043006242197 100.65281402439  444.792978776529 106.044388719512  425.361073657928 106.754268292683  C 330.932129837703 110.20381097561  262.410781523096 5.92292530487794  168.448314606742 0.504117378048704  C 147.145667915106 -0.728640243902419  123.957173533084 4.13521493902431  108.110856429463 20.4751539634146  C 99.5112459425718 29.3453201219513  93.8917702871411 40.8891844512195  90.5799051186017 52.9486646341463  C 86.7127390761548 66.9217332317073  89.8789812734082 85.7768125  74.7196903870162 93.737993902439  C 63.609443196005 99.5634847560975  49.9770786516854 98.1497774390243  38.2801098626717 97.8919695121951  C 25.5655930087391 97.6002713414634  12.7525842696629 96.1914054878048  0 97.250475609756  L 0 396.470464939024  Z " fill-rule="nonzero" fill="#edf2f9" stroke="none" transform="matrix(1 0 0 1 340 211 )" />
  </g>
</svg>