<?xml version="1.0" encoding="utf-8"?>
<svg version="1.1" xmlns:xlink="http://www.w3.org/1999/xlink" width="62px" height="60px" xmlns="http://www.w3.org/2000/svg">
  <g transform="matrix(1 0 0 1 -425 -502 )">
    <path d="M 56.6175490196079 28.3024242424242  C 56.415137254902 24.1612121212122  58.6434901960785 22.7466666666667  60.1630980392157 18.9587878787879  C 60.1630980392157 18.9587878787879  65.2282549019608 7.44363636363641  55.0979411764706 4.46424242424246  C 51.7548039215686 3.45393939393944  51.9572156862745 3.40363636363645  47.3479411764706 1.28242424242421  C 42.7386666666667 -0.838787878787798  34.5832352941176 1.98909090909092  28.0489215686275 7.1915151515152  C 25.1106078431372 9.61575757575747  22.2744117647059 8.27454545454543  15.5370784313726 12.8339393939393  C 8.79974509803921 17.3933333333334  11.5860980392157 21.6357575757577  10.4214705882353 26.5854545454545  C 9.25684313725492 31.5351515151515  -2.79911764705881 31.9387878787879  1.15186274509804 43.9084848484849  C 5.10284313725492 55.8781818181819  38.5846666666667 63.8581818181817  44.6630980392157 56.9890909090909  C 50.7415294117647 50.1200000000001  51.3493725490196 52.7975757575757  54.6925098039216 50.7266666666667  C 58.0356470588235 48.6557575757577  56.4655882352941 45.1206060606062  55.1483921568628 41.3327272727274  C 53.8311960784314 37.5448484848484  56.8199607843137 32.4436363636364  56.6175490196079 28.3024242424242  Z " fill-rule="nonzero" fill="#192684" stroke="none" transform="matrix(1 0 0 1 425 502 )" />
  </g>
</svg>