<?xml version="1.0" encoding="utf-8"?>
<svg version="1.1" xmlns:xlink="http://www.w3.org/1999/xlink" width="31px" height="21px" xmlns="http://www.w3.org/2000/svg">
  <g transform="matrix(1 0 0 1 -453 -504 )">
    <path d="M 30.480294117647 9.64394117647066  C 29.6700392156863 12.3208235294117  28.5345882352941 17.5004117647059  25.6831960784314 15.4498235294118  C 25.6831960784314 15.4498235294118  21.1596274509804 12.0626470588236  20.3998235294118 7.8935294117648  C 20.3493725490196 8.09982352941188  14.3213921568628 11.651294117647  12.2954509803922 11.2905882352941  C 11.2201764705882 11.0583529411765  11.4341372549019 12.2170588235294  10.7758431372549 13.0409999999999  C 10.1175490196078 13.8649411764707  9.81362745098039 12.2689411764707  9.61060784313725 11.4450000000002  C 9.4075882352941 10.6210588235294  6.47049019607846 7.53344117647066  5.05178431372548 10.5185294117648  C 3.63307843137255 13.5036176470589  5.05725490196079 17.2119705882353  7.79254901960786 16.8518823529412  C 9.01796078431374 16.6048235294118  8.59976470588236 17.6585294117647  5.61890196078434 19.9950882352941  C 0.122176470588215 24.3037941176472  -0.97558823529414 11.599411764706  1.65819607843139 7.8935294117648  C 4.29198039215686 4.18764705882359  14.3213921568628 -2.14323529411763  18.9312745098039 0.996882352941157  C 23.5411568627451 4.13699999999994  31.2905490196079 6.96705882352944  30.480294117647 9.64394117647066  Z " fill-rule="nonzero" fill="#192684" stroke="none" transform="matrix(1 0 0 1 453 504 )" />
  </g>
</svg>