<?xml version="1.0" encoding="utf-8"?>
<svg version="1.1" xmlns:xlink="http://www.w3.org/1999/xlink" width="15px" height="12px" xmlns="http://www.w3.org/2000/svg">
  <g transform="matrix(1 0 0 1 -430 -317 )">
    <path d="M 14.2182 0.413999999999987  C 13.77811914 0.0624859800000195  13.13641986 0.134203679999928  12.7848 0.574200000000019  L 5.89619999999999 9.19620000000009  L 2.11619999999999 6.17460000000005  C 1.67556432000001 5.83361519999994  1.04283906000001 5.90930189999995  0.695062086000007 6.34459674000004  C 0.347285082000013 6.77989157999991  0.413150645999991 7.41371447999995  0.842999999999989 7.76819999999998  L 5.20140000000001 11.2482  C 5.25515124 11.3278156199999  5.32000715999999 11.39933898  5.39400000000001 11.4605999999999  C 5.83467252 11.8100601000001  6.47474964 11.7385236600001  6.82739999999998 11.3004000000001  L 6.8562 11.2650000000001  L 14.3808 1.84500000000003  C 14.72842572 1.40418677999992  14.65586328 0.765583319999905  14.2182 0.413999999999987  Z " fill-rule="nonzero" fill="#3478f6" stroke="none" transform="matrix(1 0 0 1 430 317 )" />
  </g>
</svg>