<?xml version="1.0" encoding="utf-8"?>
<svg version="1.1" xmlns:xlink="http://www.w3.org/1999/xlink" width="66px" height="78px" xmlns="http://www.w3.org/2000/svg">
  <g transform="matrix(1 0 0 1 -467 -341 )">
    <path d="M 19.1066972477065 27.384046511628  C -7.42409174311928 5.8427441860465  2.25489908256878 1.30665116279079  2.25489908256878 1.30665116279079  C 15.6589541284404 -6.05134883720939  19.1066972477065 27.384046511628  19.1066972477065 27.384046511628  Z M 25.938 39.4988372093023  C 25.938 39.4988372093023  9.84611009174313 16.0546976744185  3.06809174311928 27.0000930232559  C 3.06809174311928 27.0000930232559  -2.14409174311925 34.3302790697674  25.938 39.4988372093023  Z M 37.9845137614679 53.9560465116278  L 37.9875412844037 53.9560465116278  C 37.9875412844037 53.9560465116278  10.5333577981651 31.6746511627907  6.42198165137614 47.2299069767441  C 6.41895412844036 47.2317209302325  2.87009174311925 57.8850697674418  37.9845137614679 53.9560465116278  Z M 49.4031192660551 69.3619534883721  L 49.4061467889908 69.3601395348837  C 49.4061467889908 69.3601395348837  17.2877614678899 48.3853953488372  14.6199082568808 65.6838604651164  C 14.6168807339449 65.6838604651164  11.9968623853211 77.6178604651163  49.4031192660551 69.3619534883721  Z M 31.470495412844 17.134  L 31.4735229357798 17.134  C 18.5211743119266 17.0179069767441  30.0015412844037 42.9937209302325  30.0015412844037 42.9937209302325  C 40.4973577981651 16.6460465116279  31.470495412844 17.134  31.470495412844 17.134  Z M 48.5523853211009 30.4931627906976  L 48.5554128440367 30.4931627906976  C 32.5561651376147 28.2662325581396  42.6039082568807 62.082558139535  42.6039082568807 62.082558139535  C 59.7941834862385 31.3433023255814  48.5523853211009 30.4931627906976  48.5523853211009 30.4931627906976  Z M 61.4169357798165 43.0511627906976  L 61.4199633027523 43.0511627906976  C 43.936623853211 41.9742790697674  57.6125504587156 77.7980465116279  57.6125504587156 77.7980465116279  C 73.6420733944954 43.0348372093024  61.4169357798165 43.0511627906976  61.4169357798165 43.0511627906976  Z " fill-rule="nonzero" fill="#8dbffc" stroke="none" transform="matrix(1 0 0 1 467 341 )" />
  </g>
</svg>