<?xml version="1.0" encoding="utf-8"?>
<svg version="1.1" xmlns:xlink="http://www.w3.org/1999/xlink" width="44px" height="33px" xmlns="http://www.w3.org/2000/svg">
  <g transform="matrix(1 0 0 1 -634 -386 )">
    <path d="M 8.50972222222219 6.95994444444432  C 4.71288888888887 6.57983333333323  -5.63383333333337 14.0793888888888  4.8076111111111 20.1538333333333  C 4.8076111111111 20.1538333333333  13.3503333333333 25.1845000000001  16.8623888888889 17.780888888889  C 16.9577222222222 17.8756111111111  20.0896666666667 21.0558333333333  27.588 23.7606111111111  C 28.3570106111111 24.1716679722222  28.8330117777778 24.976863938889  28.8224444444444 25.8487777777777  C 28.8676666666667 27.2494444444444  30.1167777777777 26.2453888888888  29.9609444444444 24.6149444444445  C 29.805111111111 22.9845  31.3848333333333 21.4017222222221  32.7139999999999 22.1472777777778  C 34.0431666666667 22.8928333333333  33.9478333333333 27.4639444444445  31.1953888888889 30.4052222222222  C 30.2652777777778 32.1566666666668  31.9543888888889 32.5881111111112  31.9543888888889 32.5881111111112  C 31.9543888888889 32.5881111111112  48.7550555555555 20.8181111111112  41.6362222222222 13.6992777777778  C 38.8862222222222 11.4216666666666  38.3142222222222 13.0350000000001  36.1307222222222 9.14344444444441  C 33.9472222222222 5.25188888888897  30.151 6.10622222222219  28.8224444444444 5.72611111111109  C 27.4938888888889 5.346  18.9505555555555 -2.15172222222213  14.2046666666666 1.2650000000001  C 9.45877777777775 4.68172222222233  12.3065555555555 7.34005555555564  8.50972222222219 6.95994444444432  Z " fill-rule="nonzero" fill="#f97700" stroke="none" transform="matrix(1 0 0 1 634 386 )" />
  </g>
</svg>