<?xml version="1.0" encoding="utf-8"?>
<svg version="1.1" xmlns:xlink="http://www.w3.org/1999/xlink" width="51px" height="43px" xmlns="http://www.w3.org/2000/svg">
  <g transform="matrix(1 0 0 1 -460 -537 )">
    <path d="M 3.03024999999997 37.7206901408451  C -0.612607142857144 33.4624788732394  -1.55185714285716 19.0017605633802  9.51757142857144 23.2823802816902  C 10.6530265035714 23.761682628169  11.6605347821429 24.4989483338029  12.4597857142857 25.4354084507042  C 13.4312142857143 26.5061690140847  15.9951785714286 27.4685211267606  22.5195357142857 23.084338028169  C 32.1324285714286 16.6240422535211  39.6203214285714 14.504323943662  40.2274642857143 13.6970140845071  C 40.8346071428571 12.889704225352  47.2096071428571 5.52095774647887  48.0195357142857 3.09842253521128  C 48.8294642857143 0.675887323943698  50.3467142857143 -0.23256338028159  50.5488928571428 1.48319718309858  C 50.7510714285714 3.19895774647898  49.5373928571429 12.3882394366196  46.1981071428572 15.7676760563381  C 42.8588214285714 19.1471126760564  18.0096785714286 56.0508028169013  3.03024999999997 37.7206901408451  Z " fill-rule="nonzero" fill="#fac896" stroke="none" transform="matrix(1 0 0 1 460 537 )" />
  </g>
</svg>