<?xml version="1.0" encoding="utf-8"?>
<svg version="1.1" xmlns:xlink="http://www.w3.org/1999/xlink" width="24px" height="47px" xmlns="http://www.w3.org/2000/svg">
  <g transform="matrix(1 0 0 1 -445 -529 )">
    <path d="M 18.7194 28.4952564102564  C 18.879165 28.3360991653847  19.136835 28.3360991653847  19.2966 28.4952564102564  L 20.1546 29.3569230769231  C 20.30469264 29.5186626102566  20.30020842 29.7707454833333  20.14445916 29.9269978871794  C 19.9887099 30.0832502910257  19.73769522 30.0874917397437  19.5768 29.9365897435898  L 18.7194 29.0755256410257  C 18.56019402 28.9151436846155  18.56019402 28.6556383666666  18.7194 28.4952564102564  Z M 18.7194 7.88214102564098  L 19.5768 8.74320512820509  C 19.73769522 8.89410712435892  19.9887099 8.88986567564098  20.14445916 8.73361327179487  C 20.30020842 8.57736086794876  20.30469264 8.32527799487184  20.1546 8.16353846153856  L 19.2966 7.30247435897445  C 19.1372106 7.14240380769229  18.8787894 7.14240380769229  18.7194 7.30247435897445  C 18.5600106 7.46254491025638  18.5600106 7.72207047435904  18.7194 7.88214102564098  Z M 18.7194 25.4342307692309  L 19.5768 26.2952948717948  C 19.73769522 26.4461968679486  19.9887099 26.4419554192309  20.14445916 26.2857030153846  C 20.30020842 26.1294506115385  20.30469264 25.8773677384615  20.1546 25.7156282051283  L 19.2966 24.8545641025642  C 19.1372106 24.6944937320513  18.87878952 24.6944938525642  18.71940018 24.8545642833333  C 18.5600109 25.0146347743589  18.56001078 25.2741602179487  18.7194 25.4342307692309  Z M 18.7194 21.7911282051282  L 19.5768 22.6521923076923  C 19.73769522 22.8030943038461  19.9887099 22.7988528551282  20.14445916 22.6426004512821  C 20.30020842 22.486348047436  20.30469264 22.2342651743591  20.1546 22.0725256410258  L 19.2966 21.2114615384614  C 19.1372106 21.0513909871795  18.8787894 21.0513909871795  18.7194 21.2114615384614  C 18.5600106 21.3715320897436  18.5600106 21.6310576538463  18.7194 21.7911282051282  Z M 20.4696 18.4300256410256  L 19.6116 17.5683589743589  C 19.4522106 17.408288423077  19.1937894 17.408288423077  19.0344 17.5683589743589  C 18.8750106 17.7284295256411  18.8750106 17.9879550897435  19.0344 18.1480256410257  L 19.8918 19.0096923076924  C 19.99363032 19.1194244730771  20.14696518 19.1646139487179  20.29169202 19.1275448679487  C 20.43641886 19.0904757871795  20.54947386 18.9770555679488  20.5865355 18.8317488615385  C 20.6235972 18.6864420948718  20.57875938 18.5324050782051  20.4696 18.4300256410256  Z M 20.4696 32.3366025641026  L 19.6116 31.4755384615385  C 19.4522106 31.3154679102565  19.1937894 31.3154679102565  19.0344 31.4755384615385  C 18.8750106 31.6356090128206  18.8750106 31.8951345769231  19.0344 32.0552051282052  L 19.8918 32.9168717948719  C 20.05193874 33.0736158910256  20.30779206 33.0719657692307  20.46591306 32.9131690987181  C 20.624034 32.7543723679487  20.6256771 32.4974256576922  20.4696 32.3366025641026  Z M 1.6602 17.5665512820513  C 1.50070614000001 17.4067342897436  1.24249386 17.4067342897436  1.083 17.5665512820513  L 0.603000000000009 18.0486025641026  C 0.647999999999996 18.3800128205128  0.691800000000001 18.711423076923  0.749400000000009 19.0440384615385  C 0.767150999999984 19.0342936743589  0.784015799999992 19.0230024666666  0.799800000000005 19.0102948717949  L 1.65780000000001 18.1486282051283  C 1.73528322000001 18.071924325641  1.77910596000001 17.9673538448717  1.77955643999999 17.8580910769231  C 1.78000698 17.7488283089745  1.73704806000001 17.6438969525641  1.6602 17.5665512820513  Z M 1.97819999999999 14.5904871794871  L 1.9752 14.5880769230769  C 1.81543500000001 14.4289196782051  1.55776499999999 14.4289196782051  1.398 14.5880769230769  L 0.539999999999992 15.4497435897435  C 0.436893060000017 15.5532910371794  0.396625139999998 15.7042148461539  0.434364840000001 15.8456633948717  C 0.472104540000004 15.9871119435898  0.582118320000006 16.0975958679487  0.722964960000013 16.135496848718  C 0.863811599999991 16.1733978294872  1.01409318 16.132957824359  1.1172 16.0294102564103  L 1.9752 15.1677435897436  C 2.13325710000001 15.0085412128205  2.13459378000002 14.7513377499999  1.97819999999999 14.5904871794871  Z M 20.4696 46.242576923077  L 20.4666 46.242576923077  L 19.6086 45.3809102564103  C 19.4492106 45.2208397051281  19.19078952 45.2208403076922  19.03140018 45.3809102564103  C 18.8720109 45.5409808076924  18.87201084 45.8005063717949  19.0314 45.960576923077  L 19.8174 46.7505384615386  C 20.031 46.6107435897436  20.2536 46.4492564102563  20.4816 46.2648717948719  C 20.478 46.2582435897436  20.4762 46.2492051282052  20.4696 46.242576923077  Z M 1.12020000000001 8.74561538461535  L 1.97819999999999 7.88455128205123  C 2.1375894 7.7244807307693  2.1375894 7.46495516666664  1.97819999999999 7.30488461538471  C 1.81881060000001 7.14481406410255  1.56038939999999 7.14481406410255  1.40100000000001 7.30488461538471  L 1.38120000000001 7.32416666666654  C 1.23420000000002 7.80320512820526  1.10939999999999 8.30694871794867  0.998400000000004 8.82696153846155  C 1.04368434 8.8076896705129  1.08499097999999 8.78010229743586  1.12020000000001 8.74561538461535  Z M 18.7194 42.9851153846155  L 19.5768 43.8461794871796  C 19.73769522 43.9970814230769  19.9887099 43.992839974359  20.14445916 43.8365878717948  C 20.30020842 43.6803351666667  20.30469264 43.4282524743589  20.1546 43.2665128205128  L 19.2966 42.4048461538462  C 19.13554872 42.2541123333333  18.88453854 42.2586152948718  18.72895104 42.4150300897436  C 18.57336354 42.5714448846154  18.56914014 42.8235323974359  18.7194 42.9851153846155  Z M 22.6548 14.9086410256411  L 22.1136 15.4521538461538  C 21.9542106 15.612224397436  21.9542106 15.8717499615384  22.1136 16.0318205128206  C 22.2729894 16.1918910641025  22.5314106 16.1918910641025  22.6908 16.0318205128206  L 22.9212 15.8004358974358  C 22.83040002 15.5055812166665  22.74160002 15.2083162192307  22.6548 14.9086410256411  Z M 23.5488 28.4952564102564  L 23.5488 28.4976666666667  C 23.38869606 28.3387659935897  23.13110394 28.3387659935897  22.971 28.4976666666667  L 22.1136 29.3593333333333  C 21.9542106 29.5194038846155  21.9542106 29.7789294487179  22.1136 29.9390000000001  C 22.2729894 30.099070551282  22.5314106 30.099070551282  22.6908 29.9390000000001  L 23.5488 29.077935897436  C 23.7089424 28.9170020525642  23.7089424 28.6561902551282  23.5488 28.4952564102564  Z M 23.5488 38.759935897436  L 23.5488 38.7623461538462  C 23.38896474 38.6027901923078  23.13083526 38.6027901923078  22.971 38.7623461538462  L 22.1136 39.6234102564104  C 21.95421078 39.7834808076923  21.9542109 40.0430063717949  22.11360018 40.2030769230769  C 22.27298952 40.363147474359  22.5314106 40.363147474359  22.6908 40.2030769230769  L 23.5488 39.3420128205128  C 23.6256693 39.2648297820513  23.66885526 39.1601378846153  23.66885526 39.0509743589744  C 23.66885526 38.9418108333334  23.6256693 38.8371189358975  23.5488 38.759935897436  Z M 23.5488 35.1168333333333  L 23.5488 35.1192435897435  C 23.38910052 34.9593574230769  23.13069948 34.9593574230769  22.971 35.1192435897435  L 22.1136 35.9803076923076  C 21.96334014 36.1418906794872  21.96756354 36.3939781923077  22.12315104 36.5503929871795  C 22.27873854 36.7068077820513  22.52974872 36.7113107435898  22.6908 36.560576923077  L 23.5488 35.6989102564103  C 23.6256693 35.6217272179488  23.66885526 35.5170353205128  23.66885526 35.4078717948719  C 23.66885526 35.2987082692307  23.6256693 35.194016371795  23.5488 35.1168333333333  Z M 22.971 42.4048461538462  L 22.1136 43.2665128205128  C 21.9542106 43.426583371795  21.9542106 43.6861089358974  22.1136 43.8461794871796  C 22.2729894 44.0062500384615  22.5314106 44.0062500384615  22.6908 43.8461794871796  L 23.5488 42.9851153846155  C 23.7048771 42.8242922307693  23.703234 42.5673456410257  23.54511306 42.4085489102565  C 23.38699206 42.2497521794871  23.13113874 42.2481023589744  22.971 42.4048461538462  Z M 18.7194 11.527653846154  L 19.5768 12.3887179487181  C 19.73769522 12.5396199448719  19.9887099 12.535378496154  20.14445916 12.3791260923076  C 20.30020842 12.2228736884615  20.30469264 11.9707908153846  20.1546 11.8090512820513  L 19.2966 10.9473846153846  C 19.13554872 10.7966505538461  18.88453854 10.8011539371796  18.72895104 10.9575687923077  C 18.57336354 11.1139836474358  18.56914014 11.3660710397437  18.7194 11.527653846154  Z M 21.7986 32.9150641025642  L 21.7986 32.9186794871796  C 21.958365 33.0778367320513  22.216035 33.0778367320513  22.3758 32.9186794871796  L 23.2338 32.0570128205129  C 23.33690682 31.9534653730771  23.37717468 31.802541624359  23.33943492 31.6610931358975  C 23.30169522 31.5196446474358  23.1916815 31.4091607833334  23.05083492 31.3712598025641  C 22.90998834 31.3333587615384  22.75970682 31.3737987064103  22.6566 31.4773461538462  L 21.7986 32.3384102564103  C 21.64177182 32.4983656576924  21.64177182 32.7551087012821  21.7986 32.9150641025642  Z M 22.3758 19.0115000000001  L 23.2338 18.1498333333334  C 23.3931894 17.9897627820512  23.3931894 17.7302372179488  23.2338 17.5701666666666  C 23.0744106 17.4100961153847  22.8159894 17.4100961153847  22.6566 17.5701666666666  L 21.7986 18.4318333333333  C 21.6392106 18.5919038846155  21.6392106 18.8514294487179  21.7986 19.0115000000001  C 21.9579894 19.171570551282  22.2164106 19.171570551282  22.3758 19.0115000000001  Z M 20.1558 35.9815128205128  L 19.2978 35.1204487179489  C 19.1384106 34.9603781666667  18.87998952 34.9603781666667  18.72060018 35.1204487179489  C 18.5612109 35.2805192692308  18.56121078 35.5400448333332  18.7206 35.7001153846154  L 19.578 36.5617820512821  C 19.73813874 36.7185258461539  19.99399206 36.7168760256411  20.15211306 36.5580792948717  C 20.310234 36.3992825641026  20.3118771 36.142335974359  20.1558 35.9815128205128  Z M 20.1558 39.6246153846155  L 19.2978 38.7635512820514  C 19.1384106 38.6034807307692  18.8799894 38.6034807307692  18.7206 38.7635512820514  C 18.5612106 38.9236218333333  18.5612106 39.183147397436  18.7206 39.3432179487179  L 19.578 40.204282051282  C 19.73889522 40.3551839871795  19.9899099 40.3509425384616  20.14565916 40.1946904358974  C 20.30140842 40.0384377307691  20.30589264 39.7863550384616  20.1558 39.6246153846155  Z M 23.5488 24.8527564102565  L 23.55 24.8563717948718  C 23.39030052 24.6964854474359  23.13189948 24.6964854474359  22.9722 24.8563717948718  L 22.1148 25.717435897436  C 21.9554106 25.8775064487179  21.9554106 26.1370320128206  22.1148 26.2971025641025  C 22.2741894 26.4571731153847  22.5326106 26.4571731153847  22.692 26.2971025641025  L 23.55 25.4360384615386  C 23.6270784 25.3586468153846  23.67028218 25.253606575641  23.670057 25.1441470705129  C 23.66983182 25.0346875653845  23.62619622 24.9298275525641  23.5488 24.8527564102565  Z M 1.97819999999999 10.9449743589744  C 1.81843500000002 10.7858171141027  1.560765 10.7858171141027  1.40100000000001 10.9449743589744  L 0.55619999999999 11.7933846153846  C 0.539400000000001 11.974153846154  0.523799999999994 12.1549230769231  0.509399999999999 12.3356923076924  C 0.519089040000011 12.3537176512821  0.530332020000003 12.3708558397436  0.543000000000006 12.3869102564104  C 0.702493860000004 12.5467272487181  0.960706139999985 12.5467272487181  1.12020000000001 12.3869102564104  L 1.97819999999999 11.5258461538463  C 2.13780516 11.3653947820512  2.13780516 11.1054257307692  1.97819999999999 10.9449743589744  Z M 23.5488 21.209653846154  C 23.38896474 21.0500977038462  23.13083526 21.0500977038462  22.971 21.209653846154  L 22.1136 22.0707179487181  C 21.9542106 22.2307885  21.9542106 22.4903140641024  22.1136 22.6503846153846  C 22.2729894 22.8104551666668  22.5314106 22.8104551666668  22.6908 22.6503846153846  L 23.5488 21.7893205128205  C 23.70727998 21.6288727564101  23.70727998 21.3701016025641  23.5488 21.209653846154  Z M 18.7194 15.1677435897436  L 19.5768 16.0294102564103  C 19.73769522 16.1803122525641  19.9887099 16.1760708038462  20.14445916 16.0198184000001  C 20.30020842 15.863565996154  20.30469264 15.6114831230771  20.1546 15.4497435897435  L 19.2966 14.5880769230769  C 19.1372106 14.4280063717949  18.8787894 14.4280063717949  18.7194 14.5880769230769  C 18.5600106 14.748147474359  18.5600106 15.0076730384617  18.7194 15.1677435897436  Z M 8.92740000000003 21.7893205128205  L 9.78480000000002 22.6503846153846  C 9.94418939999997 22.8104551666668  10.2026106 22.8104551666668  10.362 22.6503846153846  C 10.5213894 22.4903140641024  10.5213894 22.2307885  10.362 22.0707179487181  L 9.50459999999998 21.209653846154  C 9.34521060000003 21.0495832948718  9.08678939999999 21.0495832948718  8.92740000000003 21.209653846154  C 8.76801060000003 21.3697243974359  8.76801060000003 21.6292499615386  8.92740000000003 21.7893205128205  Z M 8.92740000000003 15.1677435897436  L 9.78480000000002 16.0294102564103  C 9.94418939999997 16.1894808076922  10.2026106 16.1894808076922  10.362 16.0294102564103  C 10.5213894 15.8693397051281  10.5213894 15.6098141410257  10.362 15.4497435897435  L 9.50459999999998 14.5880769230769  C 9.34521060000003 14.4280063717949  9.08678939999999 14.4280063717949  8.92740000000003 14.5880769230769  C 8.76801060000003 14.748147474359  8.76801060000003 15.0076730384617  8.92740000000003 15.1677435897436  Z M 8.92740000000003 25.432423076923  L 9.78480000000002 26.2934871794873  C 9.94418939999997 26.4535577307693  10.2026106 26.4535577307693  10.362 26.2934871794873  C 10.5213894 26.1334166282052  10.5213894 25.8738910641025  10.362 25.7138205128206  L 9.50459999999998 24.8527564102565  C 9.34521060000003 24.6926858589743  9.08678939999999 24.6926858589743  8.92740000000003 24.8527564102565  C 8.76801060000003 25.0128269615384  8.76801060000003 25.2723525256411  8.92740000000003 25.432423076923  Z M 8.92740000000003 29.0755256410257  L 9.78480000000002 29.9365897435898  C 9.88790682000001 30.0401373115385  10.0381884 30.0805773166667  10.17903504 30.0426763358976  C 10.31988168 30.0047753551282  10.42989546 29.8942914307693  10.46763516 29.7528428820513  C 10.50537486 29.6113943333335  10.46510694 29.4604705243589  10.362 29.3569230769231  L 9.50459999999998 28.4952564102564  C 9.40265621999998 28.3856305371794  9.24927467999999 28.3406011025641  9.10458624 28.3778211858976  C 8.95989786000001 28.4150412089743  8.84696028000002 28.52857935  8.81004894 28.6739246807692  C 8.77313759999998 28.8192700115385  8.81813477999998 28.9732601487181  8.92740000000003 29.0755256410257  Z M 8.92740000000003 7.87912820512815  L 8.92740000000003 7.88214102564098  L 9.78480000000002 8.74320512820509  C 9.94418939999997 8.90327567948725  10.2026106 8.90327567948725  10.362 8.74320512820509  C 10.5213894 8.58313457692316  10.5213894 8.3236090128205  10.362 8.16353846153856  L 9.50459999999998 7.29946153846163  C 9.40149317999999 7.19591409102577  9.25121166000002 7.15547414615389  9.11036508000001 7.19337518717953  C 8.96951849999999 7.23127616794864  8.85950478000001 7.3417600320513  8.82176508000003 7.48320852051279  C 8.78402532000001 7.62465700897451  8.82429317999998 7.7755807576923  8.92740000000003 7.87912820512815  Z M 8.92740000000003 11.5252435897437  L 9.78480000000002 12.3863076923078  C 9.94418939999997 12.5463782435897  10.2026106 12.5463782435897  10.362 12.3863076923078  C 10.5213894 12.2262371410256  10.5213894 11.966711576923  10.362 11.8066410256411  L 9.50459999999998 10.9449743589744  C 9.40265621999998 10.8353484858974  9.24927467999999 10.790319051282  9.10458624 10.8275391346153  C 8.95989786000001 10.8647591576923  8.84696028000002 10.978297298718  8.81004894 11.1236426294872  C 8.77313759999998 11.2689879602565  8.81813477999998 11.4229780974358  8.92740000000003 11.5252435897437  Z M 9.24180000000001 32.0546025641027  L 10.0998 32.9162692307693  C 10.20174378 33.0258951038461  10.35512532 33.0709245384617  10.49981376 33.0337044551281  C 10.64450214 32.9964844320514  10.75743972 32.8829462910257  10.79435106 32.7376009602565  C 10.8312624 32.5922556294872  10.78626522 32.4382654923077  10.677 32.336  L 9.81959999999998 31.4749358974359  C 9.65870477999999 31.3240339012821  9.40769010000002 31.32827535  9.25194084000003 31.4845277538461  C 9.09619157999998 31.6407801576922  9.09170735999999 31.8928630307691  9.24180000000001 32.0546025641027  Z M 13.7562 42.4024358974359  L 13.7562 42.403641025641  C 13.596435 42.2444839615384  13.338765 42.2444839615384  13.179 42.403641025641  L 12.8592 42.7254102564102  C 13.0392 42.9375128205129  13.2192 43.1472051282051  13.3992 43.3448461538462  L 13.7592 42.9833076923078  C 13.91797956 42.8220259871796  13.91663688 42.5620545256411  13.7562 42.4024358974359  Z M 1.97819999999999 21.209653846154  L 1.97819999999999 21.2108589743591  C 1.81857012 21.0513726692309  1.56062987999999 21.0513726692309  1.40100000000001 21.2108589743591  L 1.2534 21.3584871794872  C 1.33019999999999 21.6637863448718  1.41019997999999 21.96908545  1.49340000000001 22.2743846153846  L 1.9734 21.7923333333333  C 2.05123974 21.7158482448717  2.09551074000001 21.6113577846154  2.09641164000001 21.5019956538461  C 2.09731253999999 21.3926335833335  2.05476900000002 21.2874218538461  1.97819999999999 21.209653846154  Z M 10.6782 4.51983333333328  L 9.82080000000002 3.65876923076917  C 9.65990478000003 3.50786723461533  9.40889010000001 3.51210868333328  9.25314084000001 3.66836108717962  C 9.09739158000002 3.82461349102573  9.09290735999997 4.07669636410265  9.243 4.23843589743592  L 10.101 5.1001025641026  C 10.20294378 5.20972843717959  10.35632532 5.25475787179494  10.50101376 5.21753778846164  C 10.64570214 5.18031776538464  10.75863972 5.06677962435901  10.79555106 4.92143429358975  C 10.8324624 4.7760889628205  10.78746522 4.62209882564093  10.6782 4.51983333333328  Z M 10.6782 18.4276153846154  L 9.82080000000002 17.5659487179487  C 9.65990478000003 17.4150467217949  9.40889010000001 17.4192881705128  9.25314084000001 17.5755405743589  C 9.09739158000002 17.7317929782052  9.09290735999997 17.9838758512819  9.243 18.1456153846154  L 10.101 19.0072820512821  C 10.20410682 19.1108296192308  10.3543884 19.151269624359  10.49523504 19.1133686435896  C 10.63608168 19.0754676628205  10.74609546 18.9649837384616  10.78383516 18.8235351897436  C 10.82157486 18.6820866410258  10.78130694 18.5311628320512  10.6782 18.4276153846154  Z M 8.92860000000002 1.25996153846154  L 9.786 2.12162820512822  C 9.94538940000001 2.28169875641015  10.2038106 2.28169875641015  10.3632 2.12162820512822  C 10.5225894 1.96155765384606  10.5225894 1.70203208974362  10.3632 1.54196153846169  L 9.50580000000002 0.680294871794786  C 9.34641060000001 0.520224320512853  9.08798939999997 0.520224320512853  8.92860000000002 0.680294871794786  C 8.76921060000001 0.840365423076946  8.76921060000001 1.09989098717961  8.92860000000002 1.25996153846154  Z M 8.92860000000002 35.6958974358975  L 9.786 36.5575641025641  C 9.94705127999998 36.708297923077  10.19806146 36.7037949615385  10.35364896 36.5473801666667  C 10.50923646 36.3909653717949  10.51345986 36.1388778589744  10.3632 35.9772948717948  L 9.50580000000002 35.1162307692307  C 9.34641060000001 34.9561602179488  9.08798939999997 34.9561602179488  8.92860000000002 35.1162307692307  C 8.76921060000001 35.2763013205129  8.76921060000001 35.5358268846155  8.92860000000002 35.6958974358975  Z M 12.0066 32.9150641025642  L 12.006 32.9144615384616  C 12.165765 33.0736187833334  12.423435 33.0736187833334  12.5832 32.9144615384616  L 13.4412 32.052794871795  C 13.55035938 31.9504154346155  13.5951972 31.7963784179487  13.5581355 31.6510716512821  C 13.52107386 31.5057649448718  13.40801886 31.3923447256411  13.26329202 31.3552756448719  C 13.11856518 31.3182065641026  12.96523032 31.3633960397435  12.8634 31.4731282051282  L 12.006 32.3341923076923  C 11.84656044 32.4948099269232  11.84682894 32.7547790384615  12.0066 32.9150641025642  Z M 13.7562 35.1168333333333  L 13.7556 35.1162307692307  C 13.59610614 34.9564138974358  13.33789386 34.9564138974358  13.1784 35.1162307692307  L 12.321 35.9772948717948  C 12.21173478 36.0795602435896  12.1667376 36.2335503205129  12.20364894 36.3788960128206  C 12.24056028 36.5242411025642  12.35349786 36.6377792435896  12.49818624 36.6749996282051  C 12.64287468 36.7122194102565  12.79625622 36.6671897948718  12.8982 36.5575641025641  L 13.7556 35.6958974358975  C 13.91450424 35.5359576410258  13.9147725 35.2771051410257  13.7562 35.1168333333333  Z M 13.1784 38.7593333333334  L 12.321 39.6203974358975  C 12.21789318 39.7239450641025  12.17762532 39.8748686923077  12.21536508 40.0163170000001  C 12.25310478 40.1577659102563  12.3631185 40.2682496538462  12.50396508 40.3061503333333  C 12.64481166 40.3440516153846  12.79509318 40.3036117307693  12.8982 40.2000641025641  L 13.7556 39.3389999999999  C 13.91498922 39.178929448718  13.9149891 38.9194038846153  13.75559982 38.7593333333334  C 13.59621048 38.5992627820513  13.3377894 38.5992627820513  13.1784 38.7593333333334  Z M 12.0066 19.0078846153847  L 12.006 19.0072820512821  C 12.165765 19.1664392961538  12.423435 19.1664392961538  12.5832 19.0072820512821  L 13.4412 18.1456153846154  C 13.55035938 18.043235947436  13.5951972 17.8891989307692  13.5581355 17.7438921641026  C 13.52107386 17.5985854576923  13.40801886 17.4851652384616  13.26329202 17.4480961576924  C 13.11856518 17.4110270769231  12.96523032 17.456216552564  12.8634 17.5659487179487  L 12.006 18.4276153846154  C 11.84662914 18.5880263846154  11.84689776 18.8478063512821  12.0066 19.0078846153847  Z M 12.5832 5.1001025641026  L 13.4412 4.23843589743592  C 13.55035938 4.13605646025644  13.5951972 3.98201944358971  13.5581355 3.83671267692307  C 13.52107386 3.69140597051273  13.40801886 3.57798575128209  13.26329202 3.54091667051284  C 13.11856518 3.5038475897436  12.96523032 3.54903706538471  12.8634 3.65876923076917  L 12.006 4.51983333333328  C 11.89673478 4.62209882564093  11.8517376 4.7760889628205  11.88864894 4.92143429358975  C 11.92556028 5.06677962435901  12.03849786 5.18031776538464  12.18318624 5.21753778846164  C 12.32787468 5.25475787179494  12.48125622 5.20972843717959  12.5832 5.1001025641026  Z M 13.7562 0.68089743589735  L 13.7556 0.680294871794786  C 13.595835 0.521137626923064  13.338165 0.521137626923064  13.1784 0.680294871794786  L 12.321 1.54196153846169  C 12.21789306 1.64550898589755  12.17762514 1.79643279487186  12.21536484 1.93788134358988  C 12.25310454 2.07932989230767  12.36311832 2.18981381666663  12.50396496 2.22771479743597  C 12.6448116 2.26561577820507  12.79509318 2.2251757730769  12.8982 2.12162820512822  L 13.7556 1.25996153846154  C 13.91450424 1.10002168333335  13.9147725 0.841169062820427  13.7562 0.68089743589735  Z M 13.7562 28.4952564102564  L 13.7556 28.4946538461538  C 13.595835 28.3354966012821  13.338165 28.3354966012821  13.1784 28.4946538461538  L 12.321 29.3563205128205  C 12.1616106 29.5163910641027  12.1616106 29.7759166282051  12.321 29.9359871794873  C 12.4803894 30.0960577307692  12.7388106 30.0960577307692  12.8982 29.9359871794873  L 13.7556 29.0749230769231  C 13.91457372 28.9147768435898  13.91484186 28.6557342346155  13.7562 28.4952564102564  Z M 13.7562 24.8527564102565  L 13.7556 24.8521538461539  C 13.59610614 24.6923368538462  13.33789386 24.6923368538462  13.1784 24.8521538461539  L 12.321 25.713217948718  C 12.1616106 25.8732884999999  12.1616106 26.1328140641026  12.321 26.2928846153845  C 12.4803894 26.4529551666667  12.7388106 26.4529551666667  12.8982 26.2928846153845  L 13.7556 25.4318205128204  C 13.91450424 25.2718806576922  13.9147725 25.0130280371795  13.7562 24.8527564102565  Z M 13.7562 7.29946153846163  L 13.7556 7.30187179487189  C 13.59597012 7.14238548974367  13.33802988 7.14238548974367  13.1784 7.30187179487189  L 12.321 8.162935897436  C 12.21789306 8.26648334487186  12.17762514 8.41740715384617  12.21536484 8.55885570256419  C 12.25310454 8.7003042512822  12.36311832 8.81078817564116  12.50396496 8.84868915641027  C 12.6448116 8.88659013717938  12.79509318 8.84615013205121  12.8982 8.74260256410253  L 13.7556 7.88153846153841  C 13.83269622 7.80451413846163  13.87609206 7.69983808846155  13.87620462 7.59062509230762  C 13.87631718 7.48141209615392  13.83313728 7.376646023077  13.7562 7.29946153846163  Z M 13.7562 10.9449743589744  L 13.7556 10.9443717948718  C 13.595835 10.7852145500001  13.338165 10.7852145500001  13.1784 10.9443717948718  L 12.321 11.8060384615385  C 12.1616106 11.9661090128204  12.1616106 12.2256345769231  12.321 12.3857051282052  C 12.4803894 12.5457756794872  12.7388106 12.5457756794872  12.8982 12.3857051282052  L 13.7556 11.5246410256409  C 13.91457372 11.3644947923076  13.91484186 11.1054521833335  13.7562 10.9449743589744  Z M 13.7562 21.209653846154  L 13.7556 21.2090512820514  C 13.59597012 21.0495649769232  13.33802988 21.0495649769232  13.1784 21.2090512820514  L 12.321 22.0701153846155  C 12.21789306 22.1736628320514  12.17762514 22.3245866410257  12.21536484 22.4660351897437  C 12.25310454 22.6074837384615  12.36311832 22.7179676628205  12.50396496 22.7558686435898  C 12.6448116 22.7937696243589  12.79509318 22.7533296192307  12.8982 22.649782051282  L 13.7556 21.7887179487179  C 13.91417628 21.6286418538461  13.91444418 21.37006105  13.7562 21.209653846154  Z M 13.7562 14.5904871794871  L 13.7556 14.5874743589743  C 13.595835 14.4283171141026  13.338165 14.4283171141026  13.1784 14.5874743589743  L 12.321 15.449141025641  C 12.1616106 15.6092115769231  12.1616106 15.8687371410256  12.321 16.0288076923077  C 12.4803894 16.1888782435897  12.7388106 16.1888782435897  12.8982 16.0288076923077  L 13.7556 15.1671410256411  C 13.91259474 15.0073502448718  13.91286186 14.7506071410257  13.7562 14.5904871794871  Z " fill-rule="nonzero" fill="#ed5858" stroke="none" transform="matrix(1 0 0 1 445 529 )" />
  </g>
</svg>