<?xml version="1.0" encoding="utf-8"?>
<svg version="1.1" xmlns:xlink="http://www.w3.org/1999/xlink" width="5px" height="5px" xmlns="http://www.w3.org/2000/svg">
  <g transform="matrix(1 0 0 1 -701 -360 )">
    <path d="M 4.81687499999998 4.35687499999995  C 4.82387731250003 4.66234200000008  4.58291893750004 4.91614412500007  4.27750000000003 4.92499999999995  L 1.09500000000003 4.92499999999995  C 0.79158568750006 4.91076399999997  0.552906062500028 4.66062312500003  0.552906062500028 4.35687499999995  C 0.552906062500028 4.05312687500009  0.79158568750006 3.80298599999992  1.09500000000003 3.78874999999994  L 3.73812499999997 3.78874999999994  L 3.73812499999997 1.00437499999998  C 3.72854731250004 0.805479999999989  3.82920556249996 0.617454250000037  4.00003431250002 0.515138562499942  C 4.17086306249996 0.412822812500053  4.38413693749999 0.412822812500053  4.55496568749999 0.515138562499942  C 4.72579443749999 0.617454250000037  4.82645268750002 0.805479999999989  4.81687499999998 1.00437499999998  L 4.81687499999998 4.35687499999995  Z " fill-rule="nonzero" fill="#192684" stroke="none" transform="matrix(1 0 0 1 701 360 )" />
  </g>
</svg>