<?xml version="1.0" encoding="utf-8"?>
<svg version="1.1" xmlns:xlink="http://www.w3.org/1999/xlink" width="3px" height="2px" xmlns="http://www.w3.org/2000/svg">
  <g transform="matrix(1 0 0 1 -649 -414 )">
    <path d="M 2.35680000000002 0.554000000000087  C 2.43368927999995 0.516168866666703  2.52362621999998 0.554684533333329  2.55777449999999 0.640067600000066  C 2.59192271999996 0.725450666666575  2.55737604000001 0.825430800000049  2.48057591999998 0.863484666666636  C 2.40377573999996 0.901538533333223  2.31374868 0.863283799999863  2.27940000000001 0.77800000000002  C 2.24528297999996 0.692390733333241  2.27988683999996 0.592245199999979  2.35680000000002 0.554000000000087  Z M 1.76399999999995 1.53666666666663  C 1.79834868 1.6219504666667  1.88837573999996 1.66020520000006  1.96517591999998 1.62215133333325  C 2.04197603999995 1.58409746666666  2.07652271999996 1.48411733333342  2.04237449999994 1.39873426666668  C 2.00822621999998 1.31335119999994  1.91828927999995 1.27483553333332  1.84139999999996 1.3126666666667  C 1.80434789999998 1.33089706666669  1.77535571999999 1.36477280000008  1.76083170000004 1.40680619999989  C 1.74630762000004 1.44883953333328  1.74744773999998 1.49556933333338  1.76399999999995 1.53666666666663  Z M 1.20779999999996 0.564666666666653  C 1.13122218000001 0.602906733333384  1.09668251999994 0.702568933333396  1.13040000000001 0.788000000000011  C 1.15538286000003 0.85063306666666  1.21187015999999 0.890368999999964  1.27350905999998 0.888669933333404  C 1.33514795999997 0.886970866666616  1.38979241999999 0.844171533333338  1.41194933999998 0.780238999999938  C 1.43410625999996 0.716306533333409  1.41940956000002 0.643838866666556  1.37471562000002 0.596644133333257  C 1.33002168000002 0.549449399999958  1.26413760000003 0.536827399999993  1.20779999999996 0.564666666666653  Z M 0.440231700000027 1.36880620000011  C 0.425707620000026 1.41083953333327  0.426847739999971 1.45756933333337  0.443399999999997 1.49866666666662  C 0.477748679999991 1.58395046666669  0.567775740000002 1.62220520000005  0.644575919999966 1.58415133333324  C 0.721376039999939 1.54609746666665  0.755922720000001 1.4461173333334  0.721774499999924 1.36073426666667  C 0.68762621999997 1.27535119999993  0.597689279999997 1.23683553333331  0.520799999999952 1.27466666666669  C 0.483747899999969 1.29289706666668  0.45475571999998 1.32677280000007  0.440231700000027 1.36880620000011  Z " fill-rule="nonzero" fill="#f97700" stroke="none" transform="matrix(1 0 0 1 649 414 )" />
  </g>
</svg>