<?xml version="1.0" encoding="utf-8"?>
<svg version="1.1" xmlns:xlink="http://www.w3.org/1999/xlink" width="55px" height="73px" xmlns="http://www.w3.org/2000/svg">
  <g transform="matrix(1 0 0 1 -478 -357 )">
    <path d="M 48.2881868131868 44.3663583333332  C 48.2803296703297 44.4436166666667  47.4722527472528 52.2302833333333  46.8448901098901 62.5232833333332  C 46.8355971043956 62.6566342583333  46.7941030494505 62.7856867  46.724010989011 62.8992333333333  C 49.1343406593406 65.5239890916666  51.6290844505494 68.1227890916666  54.2082417582417 70.6956333333333  C 54.3939296153847 71.018274475  54.6309826373626 71.3080449333333  54.9099450549451 71.5533833333334  C 54.5249450549451 71.8831  54.1387362637362 72.2109916666666  53.7561538461538 72.54375  C 48.3649450549451 67.2220499999999  43.3085714285714 61.7294083333334  38.6553296703297 56.2495416666666  C 33.019945054945 52.3531666666665  22.5626923076923 52.2345416666667  22.4575274725274 52.2345416666667  C 21.9979643956044 52.2292887083333  21.6265950879121 51.8557702166665  21.621043956044 51.3932166666666  C 21.6169581208791 51.1727487583332  21.7015872857143 50.9599799166667  21.8557007307692 50.8032580416666  C 22.0098142362637 50.646536775  22.2203241978022 50.5591721999999  22.4393956043956 50.5610166666665  C 22.8074725274725 50.5664916666667  29.997967032967 50.6516583333332  35.9210439560439 52.981575  C 34.2529120879121 50.9574474250001  32.6411904560439 48.946297425  31.0858791208791 46.9481249999999  C 31.0072347417582 46.8801565250001  30.9423825494505 46.7975302583334  30.8948901098901 46.7047916666666  C 28.926978021978 44.1802083333334  27.0473076923077 41.6943555758332  25.2558791208791 39.2472333333333  C 21.4717582417583 37.593175  9.95620879120878 34.855675  9.83895604395605 34.8276916666666  C 9.39246048351652 34.7194119225001  9.11170403846154 34.2742723399999  9.20434065934063 33.8215083333332  C 9.25137085714283 33.6067861333333  9.38216363736262 33.4200966025001  9.56731714835166 33.3034072583332  C 9.75247059890108 33.1867178533332  9.97644854945054 33.1498200641668  10.1889010989011 33.2010083333334  C 10.5956593406593 33.2959083333333  18.6075274725275 35.2030333333332  23.5007142857143 36.8278916666666  C 21.3684065934066 33.8598333333334  19.3817582417582 30.9878916666667  17.5377472527472 28.2449166666665  C 17.5262637362637 28.2333583333334  17.5105494505494 28.2357916666667  17.4990659340659 28.2218  C 17.4223076923077 28.1421083333332  9.69208791208791 20.13705  0.61527472527473 16.185925  C 0.194078862637355 16.0028102183333  -0.0053890934066203 15.5151933958334  0.165604395604419 15.0866666666666  C 0.249308472527446 14.8832563033334  0.410980912087894 14.7224210608333  0.614038857142873 14.6405541766667  C 0.817096802197796 14.5586872925001  1.04437680769229 14.56270868  1.24445054945056 14.6517083333333  C 5.80339365934066 16.7476096908333  10.0586820714286 19.4564936908334  13.8938461538461 22.7042166666668  C 5.93576923076921 10.334975  1.55752747252745 1.74105000000009  1.4614285714286 1.5476000000001  C 1.3591373351648 1.3517580941666  1.33949115384615 1.12271159083343  1.40692127472528 0.912121738333326  C 1.4743513956044 0.701531946666591  1.62317867582419 0.527135190000081  1.81983516483518 0.428266666666559  C 2.23070160439562 0.226849385833248  2.7260684120879 0.396577792500011  2.92950549450552 0.808475000000044  C 7.3509247912088 9.1698533291667  12.198387021978 17.2958406033333  17.4525274725274 25.1539749999999  L 18.3325274725275 13.8389749999999  C 18.3493403681319 13.6201372425001  18.4530580989011 13.4173513333333  18.6202482472527 13.2764315858333  C 18.787438456044 13.1355118991667  19.0039937637363 13.0683489791666  19.220989010989 13.0901166666667  C 19.6784727252747 13.1360318416666  20.0158225384615 13.5412199841667  19.9807142857143 14.0026166666667  L 18.9387362637362 27.3859500000001  C 22.3281868131868 32.4302499999999  26.2198901098901 37.9155916666666  30.5727472527473 43.6016833333333  C 30.6374175824176 38.1029583333334  32.6978021978022 29.7614916666666  32.8023626373626 29.3393083333333  C 32.855348065934 29.1256746849999  32.9918846593407 28.9426719583334  33.1809435934066 28.8318886183333  C 33.3700025274725 28.7211053391666  33.5955264615385 28.6919505991666  33.8062637362637 28.7510500000001  C 34.2492443131869 28.8718588558334  34.5157799340659 29.3260862691666  34.4070329670329 29.7748750000001  C 34.3768131868132 29.8934999999999  31.5101648351648 41.4773833333334  32.3780769230769 45.9358583333333  C 36.3278021978022 50.9917166666667  40.6268681318682 56.16985  45.2637912087912 61.3054  C 45.8826923076923 51.5252249999999  46.6381868131868 44.2367833333333  46.646043956044 44.1607416666666  C 46.6676254120879 43.9421420108333  46.7761418626374 43.74162482  46.946902478022 43.6048137558332  C 47.1176631538461 43.4680026916667  47.3361452142857 43.406533285  47.5526373626374 43.4343916666667  C 48.007413989011 43.4945422675  48.332846934066 43.9068771099999  48.2881868131868 44.3663583333332  Z " fill-rule="nonzero" fill="#3478f6" stroke="none" transform="matrix(1 0 0 1 478 357 )" />
  </g>
</svg>