<?xml version="1.0" encoding="utf-8"?>
<svg version="1.1" xmlns:xlink="http://www.w3.org/1999/xlink" width="5px" height="5px" xmlns="http://www.w3.org/2000/svg">
  <g transform="matrix(1 0 0 1 -701 -314 )">
    <path d="M 4.27750000000003 0.0606250000000728  L 1.09500000000003 0.0606250000000728  C 0.793726875000061 0.0779350625000461  0.558285375000082 0.327292506249933  0.558285375000082 0.629062499999918  C 0.558285375000082 0.930832493749904  0.793726875000061 1.18018993750002  1.09500000000003 1.19749999999999  L 3.73812499999997 1.19749999999999  L 3.73812499999997 3.98125000000005  C 3.72854731250004 4.180145025  3.82920556249996 4.36817073125007  4.00003431250002 4.47048644999995  C 4.17086306249996 4.57280217500011  4.38413693749999 4.57280217500011  4.55496568749999 4.47048644999995  C 4.72579443749999 4.36817073125007  4.82645268750002 4.180145025  4.81687499999998 3.98125000000005  L 4.81687499999998 0.629374999999982  C 4.82388193750006 0.323799531249961  4.5830175625 0.0698173787500309  4.27750000000003 0.0606250000000728  Z " fill-rule="nonzero" fill="#192684" stroke="none" transform="matrix(1 0 0 1 701 314 )" />
  </g>
</svg>