<?xml version="1.0" encoding="utf-8"?>
<svg version="1.1" xmlns:xlink="http://www.w3.org/1999/xlink" width="30px" height="51px" xmlns="http://www.w3.org/2000/svg">
  <g transform="matrix(1 0 0 1 -656 -423 )">
    <path d="M 17.6976 50.7510714285713  L 17.5812 50.8803928571429  L 17.493 50.7292142857143  C 17.3613102 50.5095433214285  17.2915884 50.2575723571429  17.2914 50.0006428571428  C 17.2920612 49.2098119642858  17.9252736 48.5687899285713  18.7068 48.5677857142857  C 18.8818536 48.5683394285713  19.0552518 48.6021135714286  19.218 48.6673571428571  L 19.38 48.7317142857144  L 19.2714 48.8689285714286  C 18.7218 49.5635  18.1914 50.1955357142856  17.6976 50.7510714285713  Z M 18.9528 48.8567857142857  C 18.8720466 48.838385642857  18.7895735999999 48.828818892857  18.7068 48.82825  C 18.0663 48.8289196785713  17.5473306 49.3543392857143  17.547 50.0024642857143  C 17.547111 50.1510752500001  17.5762704 50.2981962857143  17.6328 50.4353571428571  C 18.0528 49.9611785714285  18.4956 49.43175  18.9528 48.8567857142857  Z M 9.9402 46.3158928571429  L 9.93779999999998 46.3158928571429  C 9.15609599999993 46.3158928571429  8.52239999999995 45.6746528571427  8.52239999999995 44.8836428571428  C 8.52239999999995 44.0926328571429  9.15609599999993 43.4513928571428  9.93779999999998 43.4513928571428  C 10.719504 43.4513928571428  11.3532 44.0926328571429  11.3532 44.8836428571428  C 11.3525412 45.6734288571429  10.720692 46.31388625  9.9402 46.3158928571429  Z M 9.9402 43.7094285714286  L 9.93779999999998 43.7094285714286  C 9.46840739999999 43.7091826785713  9.04509959999996 43.9951153928571  8.86530239999996 44.4338696071429  C 8.68550579999999 44.8726238214285  8.7846366 45.3777739642858  9.11646119999995 45.7137231071429  C 9.44828579999995 46.0496716428572  9.94744200000002 46.150243642857  10.3811274 45.9685330714285  C 10.8148128 45.7868231071429  11.0976 45.3586234642858  11.0976 44.8836428571428  C 11.0969436 44.2366016071428  10.5796254 43.7117678928571  9.9402 43.7094285714286  Z M 19.716 39.6846785714285  C 19.6802322 40.5157320714286  19.0435343999999 41.1924182857142  18.225 41.2693214285714  C 17.4436104 41.267983892857  16.8105912 40.62715675  16.8096 39.8364642857143  C 16.8456222 39.0058552142857  17.4819186 38.3295830714285  18.3 38.2524285714285  C 19.0813902 38.2534315714286  19.7146782 38.8939867142858  19.716 39.6846785714285  Z M 18.3 38.5110714285713  C 17.8241724 38.5101661785714  17.3966502 38.8050852142858  17.2236 39.2536071428572  L 17.217 39.2687857142857  C 17.118783 39.441563392857  17.0664834 39.6371453571428  17.0652 39.8364642857143  C 17.124411 40.4845892857143  17.6781096 40.970204  18.3205254 40.9374316428571  C 18.9629406 40.9046592857142  19.4655666 40.365157  19.4600609999999 39.7142919642856  C 19.4545554 39.0634269285713  18.9428754 38.5327106071429  18.3 38.5110714285713  Z M 2.42159999999996 40.4794285714286  L 2.3304 40.6609642857143  L 2.20679999999999 40.5031071428571  C 1.65840000000003 39.8030714285715  1.17239999999998 39.2038214285715  0.71999999999997 38.6713571428572  L 0.589200000000005 38.51775  L 0.782399999999996 38.4631071428571  C 0.905712779999988 38.4247156785714  1.03379616000001 38.4042731785714  1.1628 38.4023928571428  C 1.9440927 38.4033964642858  2.57720831999995 39.0440493571427  2.57820000000004 39.8346428571429  C 2.57726783999999 40.0590962857143  2.5235907 40.2801072142856  2.42159999999996 40.4794285714286  Z M 1.05479999999994 38.6701428571428  C 1.43099999999998 39.117  1.83120000000002 39.6099999999999  2.2722 40.1691785714286  C 2.30528730000003 40.0614337857141  2.32227497999997 39.9492902499999  2.32259999999997 39.8364642857143  C 2.32193855999998 39.1885766785715  1.80306569999999 38.6635262142856  1.1628 38.6628571428571  C 1.12668425999993 38.6629816071429  1.09061243999997 38.6654150357142  1.05479999999994 38.6701428571428  Z M 10.6116 37.8086071428572  C 9.82997399999999 37.8086071428572  9.19631040000002 37.1674903928572  9.19619999999998 36.3765593214284  C 9.19608959999999 35.5856288571429  9.82957439999996 34.9443305714285  10.6112004 34.9441071428571  C 11.3928258 34.9438837142857  12.0266688 35.5848195357144  12.027 36.3757499999999  C 12.0263388 37.1665808928572  11.3931264 37.8076029285714  10.6116 37.8086071428572  Z M 11.772 36.3757499999999  C 11.7710082 35.7277640357142  11.2519632 35.2028113214285  10.6116 35.2021428571429  C 9.97113839999997 35.2024779999999  9.45217919999993 35.7280682142857  9.45240000000001 36.3761543571429  C 9.45262079999998 37.0242404999999  9.97193819999995 37.5494688571428  10.6123998 37.5493571428572  C 11.2528614 37.5492454285713  11.772 37.0238361428571  11.772 36.3757499999999  Z M 27.1566 37.2555  L 27.0612 37.4109285714285  L 26.9484 37.2688571428571  C 26.605407 36.8407874285715  26.5367064 36.25111025  26.7719178 35.7540636428571  C 27.0071292 35.2570164285714  27.5041926 34.9414812499999  28.0488 34.9435000000001  C 28.0988262 34.9443578928572  28.1487384 34.9486176071428  28.1982 34.95625  L 28.4172 34.9841785714286  L 28.3326 35.1499285714285  C 27.9245999999999 35.9440714285715  27.5406 36.6331785714285  27.1566 37.2555  Z M 28.0164 35.2027499999999  C 27.3890544 35.2211294285714  26.8897104 35.7406706785714  26.889 36.3757499999999  C 26.8891752 36.5775691428571  26.9421725999999 36.7757405714285  27.0425999999999 36.9501071428572  C 27.3606 36.4237142857144  27.681 35.8493571428571  28.0164 35.2027499999999  Z M 18.8987999999999 32.7614285714285  L 18.8964 32.7614285714285  C 18.1152438 32.7600916428571  17.4823212 32.11963425  17.481 31.3291785714287  C 17.48139 31.3088374642857  17.4831942 31.2885491785714  17.4864 31.2684642857143  C 17.4834 31.2217142857144  17.481 31.2010714285714  17.481 31.1798214285714  C 17.481 30.3886438571428  18.1148304 29.7472678571428  18.8967 29.7472678571428  C 19.6785695999999 29.7472678571428  20.3124 30.3886438571428  20.3124 31.1798214285714  C 20.3120568 31.2001412857144  20.3104536 31.2204192500001  20.3076 31.2405357142857  C 20.3076 31.2915357142856  20.3124 31.3115714285714  20.3124 31.3322142857144  C 20.3094354 32.1207750714286  19.678086 32.7590983571429  18.8987999999999 32.7614285714285  Z M 18.8987999999999 30.0013571428572  L 18.8964 30.0031785714286  C 18.2559 30.0038482499999  17.7369306 30.5292678571429  17.7366 31.1773928571429  L 17.7444 31.2441785714286  L 17.7396 31.3048928571429  C 17.734884 31.7237485714286  17.9513544 32.1133327142857  18.3074682 32.3268933928571  C 18.6635826 32.5404540714285  19.1052384 32.5455455714286  19.4660682 32.3402505357142  C 19.8268985999999 32.1349554999999  20.052084 31.7504628571428  20.0568 31.3316071428571  C 20.0530356 31.3082782857143  20.0504322 31.284772142857  20.049 31.2611785714284  C 20.0490348 31.2408447499999  20.0506398 31.2205449285714  20.0538 31.2004642857144  C 20.0599062 30.885841642857  19.9411506 30.5818664642857  19.724091 30.3565174999999  C 19.5070314 30.1311685357143  19.2097758 30.0032459642857  18.8987999999999 30.0013571428572  Z M 1.83420000000001 32.7614285714285  C 1.34260613999999 32.7616677857143  0.886535279999976 32.5022611428572  0.631200000000035 32.0771785714285  L 0.591599999999971 32.0122142857142  L 0.628800000000012 31.9454285714285  C 0.970199999999977 31.3316071428571  1.33920000000001 30.6643571428572  1.72199999999998 29.9631071428571  L 1.75859999999994 29.8963214285714  L 1.83420000000001 29.8963214285714  C 2.61606954000001 29.8963214285714  3.24989999999997 30.5376974285714  3.24989999999997 31.3288749999999  C 3.24989999999997 32.1200525714285  2.61606954000001 32.7614285714285  1.83420000000001 32.7614285714285  Z M 0.892799999999966 32.0049285714285  L 0.890399999999943 32.0037142857143  C 1.10508821999997 32.3166168928572  1.45775759999998 32.5031050714285  1.83420000000001 32.5027857142857  C 2.46438216000001 32.5086689285713  2.98388369999998 32.0042643571428  3.00410262000003 31.3668809285714  C 3.02432154000002 30.7294981071429  2.53785768 30.1924183214285  1.90859999999998 30.1573928571429  C 1.55520000000001 30.8076428571428  1.21259999999995 31.42875  0.892799999999966 32.0049285714285  Z M 27.225 27.7439999999999  L 27.2226 27.7439999999999  C 26.4409745999999 27.7436648571429  25.8075792 27.1022761071429  25.8077999999999 26.3113456428571  C 25.8080208 25.5204145714285  26.4417744 24.8793882857142  27.2233998 24.8795  C 28.0050258 24.8796117142856  28.6386 25.5208189285713  28.6386 26.3117500000001  C 28.6376112 27.1016343571428  28.0055898 27.741994  27.225 27.7439999999999  Z M 27.225 25.1375357142856  L 27.2226 25.1375357142856  C 26.5817286 25.1375357142856  26.0622 25.6632491785715  26.0622 26.3117500000001  C 26.0622 26.9602508214286  26.5817286 27.4859642857143  27.2226 27.4859642857143  C 27.8634714 27.4859642857143  28.383 26.9602508214286  28.383 26.3117500000001  C 28.3823424 25.6644725714286  27.8646594 25.1395411071428  27.225 25.1375357142856  Z M 9.9402 27.5922142857144  L 9.93539999999996 27.5922142857144  C 9.15369600000002 27.5922142857144  8.51999999999998 26.9509742857142  8.51999999999998 26.1599642857143  C 8.51999999999998 25.3689542857144  9.15369600000002 24.7277142857142  9.93539999999996 24.7277142857142  C 10.717104 24.7277142857142  11.3508 25.3689542857144  11.3508 26.1599642857143  C 11.3501466 26.9488061785714  10.7197542 27.5888731785715  9.9402 27.5922142857144  Z M 9.9402 24.9857500000001  L 9.93539999999996 24.9857500000001  C 9.46600739999997 24.9855041071428  9.04269959999999 25.2714368214286  8.86290239999994 25.7101910357142  C 8.68310580000002 26.14894525  8.78223660000003 26.654095392857  9.11406120000004 26.9900445357143  C 9.44588579999993 27.3259930714287  9.945042 27.4265650714285  10.3787274 27.2448545  C 10.8124127999999 27.0631445357142  11.0952 26.6349448928572  11.0952 26.1599642857143  C 11.0945508 25.5138659285715  10.5786869999999 24.9894207857142  9.9402 24.9857500000001  Z M 18.2196 22.5456428571429  L 18.2226 22.5456428571429  C 18.202518 22.5453265964286  18.1824762 22.54370425  18.1626 22.5407857142857  C 18.1122 22.5407857142857  18.093 22.5456428571429  18.072 22.5456428571429  C 17.2901304 22.5456428571429  16.6563 21.9042667964286  16.6563 21.1130892857143  C 16.6563 20.321911775  17.2901304 19.6805357142857  18.072 19.6805357142857  C 18.0921048 19.6808781428572  18.112158 19.6827044285715  18.132 19.6859999999999  C 18.1782 19.6829642857142  18.1986 19.6805357142857  18.2196 19.6805357142857  C 19.0014696 19.6805357142857  19.6353 20.321911775  19.6353 21.1130892857143  C 19.6353 21.9042667964286  19.0014696 22.5456428571429  18.2196 22.5456428571429  Z M 18.0966 19.94525  L 18.0941999999999 19.9422142857143  C 17.4543227999999 19.9361786178572  16.9307646 20.4561838464285  16.9248 21.1036785714286  C 16.9188354 21.7511732964285  17.4327228 22.280964332143  18.0726 22.287  C 18.18 22.2730357142857  18.1752 22.2803214285714  18.1992 22.287  L 18.2046 22.287  C 18.618528 22.2902538000001  19.0027284 22.0698035071428  19.2124776 21.7086906607142  C 19.4222262 21.3475778750001  19.425657 20.9006641464287  19.2214776 20.5362976214285  C 19.0172975999999 20.1719311571428  18.636528 19.9454678428572  18.2226 19.9422142857143  L 18.1566 19.9501071428572  L 18.0966 19.94525  Z M 28.0488 16.5501071428571  L 28.0463999999999 16.5501071428571  C 27.2647746 16.5497718785714  26.6313792 15.9083833107143  26.6316 15.1174525428571  C 26.6318208 14.3265217749999  27.2655744 13.68549555  28.0471998 13.6856072642856  C 28.8288258 13.6857189785715  29.4624 14.3269263750001  29.4624 15.117857142857  C 29.4610824 15.9076034964285  28.829253 16.5477687928571  28.0488 16.5501071428571  Z M 28.0488 13.9436428571428  L 28.0463999999999 13.9436428571428  C 27.4060164 13.9439781821429  26.8870896 14.4694450857144  26.8872 15.1174523  C 26.8873104 15.7654595142858  27.4064166 16.2907451857143  28.0468002 16.2908569607143  C 28.6871838 16.2909687357144  29.2064687999999 15.7658642964286  29.2068 15.117857142857  C 29.2064712 14.4704418321428  28.6885968 13.9453156571428  28.0488 13.9436428571428  Z M 10.6116 16.5501071428571  L 10.6092 16.5501071428571  C 9.827496 16.5501071428571  9.19380000000001 15.9088669607142  9.19380000000001 15.117857142857  C 9.19380000000001 14.326847325  9.827496 13.6856071428572  10.6092 13.6856071428572  C 11.390904 13.6856071428572  12.0246 14.326847325  12.0246 15.117857142857  C 12.0236124 15.9075052000001  11.3919552 16.5477675785714  10.6116 16.5501071428571  Z M 10.6116 13.9436428571428  L 10.6092 13.9436428571428  C 9.96881639999998 13.9439781821429  9.44988960000001 14.4694450857144  9.44999999999999 15.1174523  C 9.45011039999997 15.7654595142858  9.96921659999998 16.2907451857143  10.6096001999999 16.2908569607143  C 11.2499838 16.2909687357144  11.7692688 15.7658642964286  11.7696 15.117857142857  C 11.7689424 14.470579775  11.2512594 13.9456485535713  10.6116 13.9436428571428  Z M 18.8987999999999 11.5029285714286  L 18.8964 11.5029285714286  C 18.1151076 11.5019250857142  17.4819918 10.861272375  17.481 10.0706785714285  C 17.4813612 10.0503357642858  17.483166 10.030045475  17.4864 10.0099642857142  C 17.4834 9.96260714285722  17.481 9.94196428571422  17.481 9.92071428571421  C 17.481 9.12953677499991  18.1148304 8.48816071428564  18.8967 8.48816071428564  C 19.6785695999999 8.48816071428564  20.3124 9.12953677499991  20.3124 9.92071428571421  C 20.3120052 9.94103153214292  20.3104026 9.96130627857133  20.3076 9.98142857142852  C 20.3076 10.0324285714287  20.3124 10.0518571428572  20.3124 10.0725  C 20.3104212 10.8616730892857  19.6786884 11.5009264571429  18.8987999999999 11.5029285714286  Z M 18.8987999999999 8.74467857142849  L 18.8964 8.74467857142849  C 18.2560374 8.74568236071423  17.7372606 9.27090634642855  17.7366 9.91889285714296  L 17.7444 9.98567857142848  L 17.7396 10.0463928571428  C 17.734884 10.4652485107142  17.9513544 10.8548329571429  18.3074682 11.0683935142856  C 18.6635826 11.2819540714286  19.1052384 11.2870457535714  19.4660682 11.0817506571429  C 19.8268985999999 10.8764555  20.052084 10.4919627964287  20.0568 10.0731071428572  C 20.0530386 10.0499812535713  20.0504352 10.0266777142856  20.049 10.0032857142858  C 20.0490426 9.9829523178571  20.050647 9.96265304285703  20.0538 9.94257142857145  C 20.0595816 9.62815715714282  19.940682 9.32449659999997  19.7236572 9.09941253214288  C 19.506633 8.87432846428578  19.2095634 8.74657231071433  18.8987999999999 8.74467857142849  Z M 27.375 6.33371428571422  L 27.3726 6.33371428571422  C 26.5910526 6.3333789607143  25.9576896 5.69211370357152  25.9578 4.9012619857142  C 25.9579103999999 4.11041026785711  26.5914522 3.46932618214282  27.3730002 3.46921440714277  C 28.1545476 3.46910263214295  28.7882688 4.11000548571428  28.7886 4.90085714285715  C 28.7876123999999 5.69084052499989  28.1556864 6.33137472142857  27.375 6.33371428571422  Z M 27.375 3.72785714285715  L 27.3726 3.72785714285715  C 26.7320604 3.72819252857153  26.2130688 4.25390611428566  26.2134006 4.90207130714293  C 26.2137317999999 5.55023649999998  26.7332604 6.07540638928572  27.3738 6.07507112500002  C 28.0143396 6.0747358000001  28.5333312 5.5490223357142  28.533 4.90085714285715  C 28.5320111999999 4.25391588928574  28.0143288 3.7295280607143  27.375 3.72785714285715  Z M 18.4206 1.27074999999991  L 17.5392 1.39521428571425  L 18.3504 1.02182142857146  C 18.5484 0.930142857142755  18.7488 0.846964285714193  18.9503999999999 0.769857142857063  L 19.7802 0.45049999999992  L 19.0728 0.996928571428498  C 18.8817648 1.14251432500009  18.6573761999999 1.23672213214286  18.4206 1.27074999999991  Z " fill-rule="nonzero" fill="#ffffff" stroke="none" transform="matrix(1 0 0 1 656 423 )" />
  </g>
</svg>