<?xml version="1.0" encoding="utf-8"?>
<svg version="1.1" xmlns:xlink="http://www.w3.org/1999/xlink" width="98px" height="9px" xmlns="http://www.w3.org/2000/svg">
  <g transform="matrix(1 0 0 1 -532 -558 )">
    <path d="M 97.416537037037 4.4991  C 97.416537037037 6.87453179999989  95.4750197160494 8.80020000000013  93.080037037037 8.80020000000013  L 4.51707407407406 8.80020000000013  C 2.12209139506172 8.80020000000013  0.180574074074059 6.87453179999989  0.180574074074059 4.4991  C 0.180574074074059 2.12366819999988  2.12209139506172 0.198000000000093  4.51707407407406 0.198000000000093  L 93.080037037037 0.198000000000093  C 95.4750197160494 0.198000000000093  97.416537037037 2.12366819999988  97.416537037037 4.4991  Z M 93.080037037037 0.798000000000002  L 4.51707407407406 0.798000000000002  C 2.45618972839503 0.798000000000002  0.785512345679024 2.4550392000001  0.785512345679024 4.4991  C 0.785512345679024 6.5431607999999  2.45618972839503 8.2002  4.51707407407406 8.2002  L 93.080037037037 8.2002  C 95.140921382716 8.2002  96.8115987654321 6.5431607999999  96.8115987654321 4.4991  C 96.8115987654321 2.4550392000001  95.140921382716 0.798000000000002  93.080037037037 0.798000000000002  Z " fill-rule="nonzero" fill="#192684" stroke="none" transform="matrix(1 0 0 1 532 558 )" />
  </g>
</svg>