<svg t="1603008333653" class="icon" viewBox="0 0 1024 1024" version="1.1" xmlns="http://www.w3.org/2000/svg" p-id="5774" width="135" height="135"><path d="M316.4 741.5C368 784 434 809.6 505.9 809.6c143.9 0 264.3-102.4 292.2-238.1-62.9 43.1-140.5 82-225.3 112.4-88.8 32-177.6 51.7-256.4 57.6zM560.7 649.9C655 616 739.9 571.6 804.1 522.8c0.1-3.8 0.2-7.7 0.2-11.5 0-164.5-133.8-298.4-298.4-298.4-164.5 0-298.4 133.8-298.4 298.4 0 74.9 27.7 143.4 73.4 195.8 83.1-1.8 181.1-21.7 279.8-57.2z m-62.3-68c-19.9 0-36.1-16.2-36.1-36.1 0-19.9 16.2-36.1 36.1-36.1 19.9 0 36.1 16.2 36.1 36.1 0 20-16.1 36.1-36.1 36.1z m213.7-150.4c13.3 0 24.1 10.8 24.1 24.1s-10.8 24.1-24.1 24.1-24.1-10.8-24.1-24.1 10.8-24.1 24.1-24.1zM525.5 269c54.8 0 99.3 44.5 99.3 99.3s-44.5 99.3-99.3 99.3-99.3-44.5-99.3-99.3c0-54.9 44.5-99.3 99.3-99.3zM335.9 386.3c26.6 0 48.1 21.6 48.1 48.1 0 26.6-21.6 48.1-48.1 48.1-26.6 0-48.1-21.6-48.1-48.1s21.5-48.1 48.1-48.1z" fill="#FFDB70" p-id="5775"></path><path d="M934.9 346.8c-17.1-47.7-78.5-75.7-172.7-78.7-5.6-0.2-11.3-0.3-17.1-0.3-10.5 0-21.5 0.3-32.7 0.9 5.7 4.9 11.3 10 16.7 15.3 5.8-0.2 10.9-0.2 15.7-0.2 5.7 0 11.4 0.1 16.9 0.3 41.8 1.3 76.7 7.7 103.7 18.8 28.6 11.8 46.9 28.4 54.5 49.4 7.5 20.9 4 45.4-10.6 72.7-13.7 25.8-36.6 52.9-68 80.5-6.5 5.7-13.4 11.5-20.7 17.3-65.9 52.4-157 101-256.6 136.8-103.8 37.3-208.5 57.8-294.9 57.8h-1.5c-5.8 0-10.9-0.1-15.5-0.2-41.8-1.3-76.7-7.7-103.7-18.8-28.6-11.8-46.9-28.4-54.5-49.4-7.5-20.9-4-45.4 10.6-72.7 13.7-25.8 36.6-52.9 68-80.5 5.1-4.5 10.5-9 16-13.6 0.7-7.5 1.6-15.1 2.9-22.5-10.4 8-20.3 16.1-29.4 24.1-70.6 62.1-100.1 122.7-82.9 170.4 17.1 47.7 78.5 75.7 172.7 78.7 5.7 0.2 11.5 0.3 17.3 0.3 10.2 0 21-0.3 32.2-0.9 82.1-4.3 174.8-24.3 268.2-57.9 88.9-31.9 170.1-73.2 234.7-119.4 17.3-12.3 33.3-25 47.7-37.7 70.7-62.2 100.2-122.8 83-170.5z" fill="#FFD133" p-id="5776"></path><path d="M944.4 343.4c-18.6-51.9-83.2-82.2-181.8-85.4-5.7-0.2-11.5-0.3-17.4-0.3-19.1 0-39 1-59.5 2.8-50.6-36.4-112.7-57.8-179.7-57.8-144.3 0-265.5 99.1-299.1 233-18.5 13.1-35.7 26.6-51.3 40.3-74.2 65.3-104.7 129.7-86 181.6 18.6 51.9 83.2 82.2 181.8 85.4 5.8 0.2 11.7 0.3 17.7 0.3 10.7 0 21.6-0.3 32.7-0.9 54.4 48.1 125.9 77.3 204.2 77.3 152.6 0 279.3-110.9 304.1-256.4 17.5-12.5 33.7-25.3 48.5-38.3 74-65.2 104.5-129.7 85.8-181.6zM505.9 212.9c164.5 0 298.4 133.8 298.4 298.4 0 3.9-0.1 7.7-0.2 11.5-64.2 48.8-149 93.3-243.4 127.2C462 685.4 364 705.3 281 707c-45.7-52.4-73.4-120.9-73.4-195.8 0-164.5 133.8-298.3 298.3-298.3z m219.2 81.3c6.7-0.2 13.2-0.4 19.7-0.4 5.6 0 11.2 0.1 16.6 0.3 81.6 2.6 135.9 25 149 61.5 13.1 36.5-14.5 88.3-75.8 142.3-6.5 5.7-13.2 11.3-20.3 16.9v-3.6c0.1-84.6-34-161.3-89.2-217z m-457.4 413c-5.1 0-10.2-0.1-15.2-0.2-81.6-2.6-135.9-25-149-61.5-13.1-36.5 14.5-88.3 75.8-142.3 6.1-5.4 12.5-10.7 19.1-16-0.6 7.9-0.9 15.9-0.9 24 0 74.4 26.3 142.7 70.2 196z m238.2 102.4c-71.9 0-138-25.6-189.5-68.1 78.8-5.8 167.5-25.6 256.5-57.5 84.8-30.4 162.4-69.3 225.3-112.4-28 135.6-148.4 238-292.3 238zM804.1 555c-64.6 46.2-145.8 87.5-234.7 119.4-93.3 33.6-186.1 53.6-268.1 57.9-11.2 0.6-22 0.9-32.2 0.9-5.8 0-11.7-0.1-17.3-0.3-94.2-3-155.5-31-172.7-78.7-17.2-47.7 12.4-108.3 83.1-170.6 9.2-8.1 19-16.2 29.4-24.1-1.2 7.5-2.2 15-2.9 22.5-5.6 4.5-10.9 9.1-16 13.6-31.4 27.6-54.3 54.7-68 80.5-14.6 27.3-18.1 51.8-10.6 72.7 7.5 20.9 25.8 37.6 54.5 49.4 27 11.1 61.9 17.5 103.7 18.8 4.6 0.1 9.7 0.2 15.5 0.2h1.5c86.4 0 191.1-20.5 294.9-57.8 99.6-35.8 190.7-84.3 256.6-136.8 7.2-5.8 14.2-11.6 20.7-17.3 31.4-27.6 54.3-54.7 68-80.5 14.6-27.3 18.1-51.8 10.6-72.7-7.5-20.9-25.8-37.6-54.5-49.4-27-11.1-61.9-17.5-103.7-18.8-5.5-0.2-11.2-0.3-16.9-0.3-4.8 0-9.9 0.1-15.7 0.2-5.4-5.3-10.9-10.4-16.7-15.3 11.2-0.6 22.2-0.9 32.7-0.9 5.8 0 11.5 0.1 17.1 0.3 94.2 3 155.5 31 172.7 78.7 17.2 47.7-12.4 108.3-83.1 170.6-14.5 12.8-30.6 25.5-47.9 37.8z" fill="#C9A063" p-id="5777"></path><path d="M525.5 457.5c49.2 0 89.2-40 89.2-89.2s-40-89.2-89.2-89.2-89.2 40-89.2 89.2 40 89.2 89.2 89.2z" fill="#FFE599" p-id="5778"></path><path d="M525.5 467.6c54.8 0 99.3-44.5 99.3-99.3S580.3 269 525.5 269s-99.3 44.5-99.3 99.3 44.5 99.3 99.3 99.3z m0-188.5c49.2 0 89.2 40 89.2 89.2s-40 89.2-89.2 89.2-89.2-40-89.2-89.2 40-89.2 89.2-89.2z" fill="#C9A063" p-id="5779"></path><path d="M297.9 434.5c0 21 17.1 38.1 38.1 38.1s38.1-17.1 38.1-38.1-17.1-38.1-38.1-38.1c-21.1 0-38.1 17.1-38.1 38.1z" fill="#FFE599" p-id="5780"></path><path d="M335.9 482.6c26.6 0 48.1-21.6 48.1-48.1 0-26.6-21.6-48.1-48.1-48.1-26.6 0-48.1 21.6-48.1 48.1 0 26.6 21.5 48.1 48.1 48.1z m38.1-48.1c0 21-17.1 38.1-38.1 38.1s-38.1-17.1-38.1-38.1 17.1-38.1 38.1-38.1 38.1 17.1 38.1 38.1z" fill="#C9A063" p-id="5781"></path><path d="M698.1 455.5c0 7.7 6.3 14 14 14s14-6.3 14-14-6.3-14-14-14c-7.7 0.1-14 6.3-14 14z" fill="#FFE599" p-id="5782"></path><path d="M712.1 479.6c13.3 0 24.1-10.8 24.1-24.1s-10.8-24.1-24.1-24.1-24.1 10.8-24.1 24.1 10.8 24.1 24.1 24.1z m14-24.1c0 7.7-6.3 14-14 14s-14-6.3-14-14 6.3-14 14-14c7.7 0.1 14 6.3 14 14z" fill="#C9A063" p-id="5783"></path><path d="M524.4 545.8c0-14.3-11.7-26-26-26s-26 11.7-26 26 11.7 26 26 26 26-11.6 26-26z" fill="#FFE599" p-id="5784"></path><path d="M498.4 509.7c-19.9 0-36.1 16.2-36.1 36.1 0 19.9 16.2 36.1 36.1 36.1 19.9 0 36.1-16.2 36.1-36.1 0-19.9-16.1-36.1-36.1-36.1z m-26 36.1c0-14.3 11.7-26 26-26s26 11.7 26 26-11.7 26-26 26-26-11.6-26-26z" fill="#C9A063" p-id="5785"></path><path d="M906.2 586.4c-24.9 0-45.1 20.2-45.1 45.1 0 24.9 20.2 45.1 45.1 45.1s45.1-20.2 45.1-45.1c0-24.8-20.2-45.1-45.1-45.1z" fill="#FFE599" p-id="5786"></path><path d="M906.2 577.4c-29.9 0-54.2 24.3-54.2 54.2 0 29.9 24.3 54.2 54.2 54.2 29.9 0 54.2-24.3 54.2-54.2 0-29.9-24.3-54.2-54.2-54.2z m0 99.3c-24.9 0-45.1-20.2-45.1-45.1 0-24.9 20.2-45.1 45.1-45.1s45.1 20.2 45.1 45.1c0 24.9-20.2 45.1-45.1 45.1z" fill="#C9A063" p-id="5787"></path><path d="M147.8 312.6c24.9 0 45.1-20.2 45.1-45.1 0-24.9-20.2-45.1-45.1-45.1-24.9 0-45.1 20.2-45.1 45.1 0 24.8 20.2 45.1 45.1 45.1z" fill="#FFE599" p-id="5788"></path><path d="M147.8 321.6c29.9 0 54.2-24.3 54.2-54.2 0-29.9-24.3-54.2-54.2-54.2-29.9 0-54.2 24.3-54.2 54.2 0.1 29.9 24.4 54.2 54.2 54.2z m0-99.3c24.9 0 45.1 20.2 45.1 45.1 0 24.9-20.2 45.1-45.1 45.1-24.9 0-45.1-20.2-45.1-45.1 0-24.8 20.2-45.1 45.1-45.1z" fill="#C9A063" p-id="5789"></path></svg>