<svg t="1603008359385" class="icon" viewBox="0 0 1024 1024" version="1.1" xmlns="http://www.w3.org/2000/svg" p-id="5935" width="135" height="135"><path d="M515.8 514.7m-284.6 0a284.6 284.6 0 1 0 569.2 0 284.6 284.6 0 1 0-569.2 0Z" fill="#55B7A8" p-id="5936"></path><path d="M515.8 806.3c-77.9 0-151.1-30.3-206.2-85.4s-85.4-128.3-85.4-206.2 30.3-151.1 85.4-206.2 128.3-85.4 206.2-85.4c77.9 0 151.1 30.3 206.2 85.4s85.4 128.3 85.4 206.2-30.3 151.1-85.4 206.2-128.3 85.4-206.2 85.4z m0-569.2c-74.2 0-143.9 28.9-196.3 81.3-52.4 52.4-81.3 122.1-81.3 196.3 0 74.2 28.9 143.9 81.3 196.3 52.4 52.4 122.1 81.3 196.3 81.3 74.2 0 143.9-28.9 196.3-81.3s81.3-122.1 81.3-196.3c0-74.2-28.9-143.9-81.3-196.3S590 237.1 515.8 237.1z" fill="#4D4D4D" p-id="5937"></path><path d="M143.1 565.8m-48 0a48 48 0 1 0 96 0 48 48 0 1 0-96 0Z" fill="#55B7A8" p-id="5938"></path><path d="M143.1 620.7c-30.3 0-55-24.7-55-55s24.7-55 55-55 55 24.7 55 55c0 30.4-24.7 55-55 55z m0-95.9c-22.6 0-41 18.4-41 41s18.4 41 41 41 41-18.4 41-41-18.4-41-41-41z" fill="#4D4D4D" p-id="5939"></path><path d="M800.4 240m-37 0a37 37 0 1 0 74 0 37 37 0 1 0-74 0Z" fill="#55B7A8" p-id="5940"></path><path d="M800.4 284c-24.2 0-44-19.7-44-44s19.7-44 44-44 44 19.7 44 44-19.7 44-44 44z m0-74c-16.5 0-30 13.4-30 30s13.4 30 30 30 30-13.4 30-30-13.4-30-30-30z" fill="#4D4D4D" p-id="5941"></path><path d="M598.4 396.3m-98.7 0a98.7 98.7 0 1 0 197.4 0 98.7 98.7 0 1 0-197.4 0Z" fill="#FFFFFF" p-id="5942"></path><path d="M598.4 502c-58.3 0-105.7-47.4-105.7-105.7s47.4-105.7 105.7-105.7S704 338.1 704 396.3 656.6 502 598.4 502z m0-197.3c-50.5 0-91.7 41.1-91.7 91.7s41.1 91.7 91.7 91.7 91.7-41.1 91.7-91.7-41.2-91.7-91.7-91.7z" fill="#4D4D4D" p-id="5943"></path><path d="M605.6 683.4m-42.6 0a42.6 42.6 0 1 0 85.2 0 42.6 42.6 0 1 0-85.2 0Z" fill="#FFFFFF" p-id="5944"></path><path d="M605.6 733c-27.4 0-49.6-22.3-49.6-49.6s22.3-49.6 49.6-49.6 49.6 22.3 49.6 49.6S633 733 605.6 733z m0-85.2c-19.6 0-35.6 16-35.6 35.6s16 35.6 35.6 35.6 35.6-16 35.6-35.6-16-35.6-35.6-35.6z" fill="#4D4D4D" p-id="5945"></path><path d="M850.9 768.6c-2.2 0-4.5-0.1-6.8-0.2-24.6-1.1-56.8-8.3-95.6-21.2-81.3-27-191.8-79.5-295.6-140.5-102.2-60-193.8-124.4-257.9-181.5-75-66.7-101.5-112.1-83.5-142.7 11.8-20 40.5-26.3 85.6-18.5 32.9 5.7 74.7 18.7 124.4 38.6 3.6 1.4 5.3 5.5 3.9 9.1-1.4 3.6-5.5 5.3-9.1 3.9-48.8-19.6-89.7-32.3-121.6-37.8-26.6-4.6-60.5-6.3-71.1 11.8-13.6 23.2 13.5 65.4 80.7 125.2 63.5 56.5 154.2 120.3 255.7 179.9 79.5 46.7 198.2 107.8 292.9 139.3 76 25.3 124.8 27.3 137.4 5.8 8.6-14.7 6.6-53.1-104.1-145.3a7 7 0 0 1-0.9-9.9 7 7 0 0 1 9.9-0.9c38.3 31.8 67.2 60.4 85.9 84.8 25.3 33 32.5 59.3 21.3 78.3-8.5 14.5-25.8 21.8-51.5 21.8z" fill="#4D4D4D" p-id="5946"></path></svg>