<?xml version="1.0" encoding="utf-8"?>
<svg version="1.1" xmlns:xlink="http://www.w3.org/1999/xlink" width="9px" height="11px" xmlns="http://www.w3.org/2000/svg">
  <defs>
    <mask fill="white" id="clip65">
      <path d="M 8.67857142857143 3.76215277777778  C 8.67857142857143 3.35251736111111  8.32600446428571 3.01736111111111  7.89508928571429 3.01736111111111  L 1.10491071428571 3.01736111111111  C 0.673995535714286 3.01736111111111  0.321428571428571 3.35251736111111  0.321428571428571 3.76215277777778  L 0.321428571428571 9.72048611111111  C 0.321428571428571 10.1301215277778  0.673995535714286 10.4652777777778  1.10491071428571 10.4652777777778  L 7.89508928571429 10.4652777777778  C 8.32600446428571 10.4652777777778  8.67857142857143 10.1301215277778  8.67857142857143 9.72048611111111  L 8.67857142857143 3.76215277777778  Z M 0.321428571428571 0.969184027777778  C 0.321428571428571 1.20813802083333  0.527092633928572 1.40364583333333  0.778459821428571 1.40364583333333  L 4.04296875 1.40364583333333  C 4.2943359375 1.40364583333333  4.5 1.20813802083333  4.5 0.969184027777778  C 4.5 0.730230034722222  4.2943359375 0.534722222222222  4.04296875 0.534722222222222  L 0.778459821428571 0.534722222222222  C 0.527092633928572 0.534722222222222  0.321428571428571 0.730230034722222  0.321428571428571 0.969184027777778  Z " fill-rule="evenodd" />
    </mask>
  </defs>
  <g transform="matrix(1 0 0 1 -20 -21 )">
    <path d="M 8.67857142857143 3.76215277777778  C 8.67857142857143 3.35251736111111  8.32600446428571 3.01736111111111  7.89508928571429 3.01736111111111  L 1.10491071428571 3.01736111111111  C 0.673995535714286 3.01736111111111  0.321428571428571 3.35251736111111  0.321428571428571 3.76215277777778  L 0.321428571428571 9.72048611111111  C 0.321428571428571 10.1301215277778  0.673995535714286 10.4652777777778  1.10491071428571 10.4652777777778  L 7.89508928571429 10.4652777777778  C 8.32600446428571 10.4652777777778  8.67857142857143 10.1301215277778  8.67857142857143 9.72048611111111  L 8.67857142857143 3.76215277777778  Z M 0.321428571428571 0.969184027777778  C 0.321428571428571 1.20813802083333  0.527092633928572 1.40364583333333  0.778459821428571 1.40364583333333  L 4.04296875 1.40364583333333  C 4.2943359375 1.40364583333333  4.5 1.20813802083333  4.5 0.969184027777778  C 4.5 0.730230034722222  4.2943359375 0.534722222222222  4.04296875 0.534722222222222  L 0.778459821428571 0.534722222222222  C 0.527092633928572 0.534722222222222  0.321428571428571 0.730230034722222  0.321428571428571 0.969184027777778  Z " fill-rule="nonzero" fill="#0079fe" stroke="none" transform="matrix(1 0 0 1 20 21 )" />
    <path d="M 8.67857142857143 3.76215277777778  C 8.67857142857143 3.35251736111111  8.32600446428571 3.01736111111111  7.89508928571429 3.01736111111111  L 1.10491071428571 3.01736111111111  C 0.673995535714286 3.01736111111111  0.321428571428571 3.35251736111111  0.321428571428571 3.76215277777778  L 0.321428571428571 9.72048611111111  C 0.321428571428571 10.1301215277778  0.673995535714286 10.4652777777778  1.10491071428571 10.4652777777778  L 7.89508928571429 10.4652777777778  C 8.32600446428571 10.4652777777778  8.67857142857143 10.1301215277778  8.67857142857143 9.72048611111111  L 8.67857142857143 3.76215277777778  Z " stroke-width="8" stroke="#ffffff" fill="none" transform="matrix(1 0 0 1 20 21 )" mask="url(#clip65)" />
    <path d="M 0.321428571428571 0.969184027777778  C 0.321428571428571 1.20813802083333  0.527092633928572 1.40364583333333  0.778459821428571 1.40364583333333  L 4.04296875 1.40364583333333  C 4.2943359375 1.40364583333333  4.5 1.20813802083333  4.5 0.969184027777778  C 4.5 0.730230034722222  4.2943359375 0.534722222222222  4.04296875 0.534722222222222  L 0.778459821428571 0.534722222222222  C 0.527092633928572 0.534722222222222  0.321428571428571 0.730230034722222  0.321428571428571 0.969184027777778  Z " stroke-width="8" stroke="#ffffff" fill="none" transform="matrix(1 0 0 1 20 21 )" mask="url(#clip65)" />
  </g>
</svg>