<?xml version="1.0" encoding="utf-8"?>
<svg version="1.1" xmlns:xlink="http://www.w3.org/1999/xlink" width="12px" height="10px" xmlns="http://www.w3.org/2000/svg">
  <defs>
    <mask fill="white" id="clip74">
      <path d="M 11.694609375 9.7607421875  C 11.895703125 9.60078125  11.901796875 9.33671875  11.712890625 9.169140625  L 8.458828125 6.43203125  C 9.095625 5.766796875  9.47953125 4.923828125  9.47953125 4.0072265625  C 9.47953125 1.86171875  7.392421875 0.122460937499999  4.814765625 0.122460937499999  C 2.237109375 0.122460937499999  0.15 1.8642578125  0.15 4.009765625  C 0.15 6.1552734375  2.237109375 7.89453125  4.814765625 7.89453125  C 5.929921875 7.89453125  6.950625 7.56953125  7.755 7.026171875  L 10.987734375 9.7455078125  C 11.085234375 9.8318359375  11.219296875 9.875  11.3503125 9.875  C 11.475234375 9.875  11.60015625 9.8369140625  11.694609375 9.7607421875  Z M 7.404609375 6.1654296875  C 6.71296875 6.741796875  5.7928125 7.0591796875  4.814765625 7.0591796875  C 3.83671875 7.0591796875  2.9165625 6.741796875  2.224921875 6.1654296875  C 1.53328125 5.5890625  1.152421875 4.822265625  1.152421875 4.009765625  C 1.152421875 3.1947265625  1.53328125 2.4279296875  2.224921875 1.8541015625  C 2.9165625 1.277734375  3.83671875 0.960351562500001  4.814765625 0.960351562500001  C 5.7928125 0.960351562500001  6.71296875 1.277734375  7.404609375 1.8541015625  C 8.09625 2.43046875  8.477109375 3.197265625  8.477109375 4.009765625  C 8.477109375 4.8248046875  8.09625 5.5916015625  7.404609375 6.1654296875  Z " fill-rule="evenodd" />
    </mask>
  </defs>
  <g transform="matrix(1 0 0 1 -202 -7 )">
    <path d="M 11.694609375 9.7607421875  C 11.895703125 9.60078125  11.901796875 9.33671875  11.712890625 9.169140625  L 8.458828125 6.43203125  C 9.095625 5.766796875  9.47953125 4.923828125  9.47953125 4.0072265625  C 9.47953125 1.86171875  7.392421875 0.122460937499999  4.814765625 0.122460937499999  C 2.237109375 0.122460937499999  0.15 1.8642578125  0.15 4.009765625  C 0.15 6.1552734375  2.237109375 7.89453125  4.814765625 7.89453125  C 5.929921875 7.89453125  6.950625 7.56953125  7.755 7.026171875  L 10.987734375 9.7455078125  C 11.085234375 9.8318359375  11.219296875 9.875  11.3503125 9.875  C 11.475234375 9.875  11.60015625 9.8369140625  11.694609375 9.7607421875  Z M 7.404609375 6.1654296875  C 6.71296875 6.741796875  5.7928125 7.0591796875  4.814765625 7.0591796875  C 3.83671875 7.0591796875  2.9165625 6.741796875  2.224921875 6.1654296875  C 1.53328125 5.5890625  1.152421875 4.822265625  1.152421875 4.009765625  C 1.152421875 3.1947265625  1.53328125 2.4279296875  2.224921875 1.8541015625  C 2.9165625 1.277734375  3.83671875 0.960351562500001  4.814765625 0.960351562500001  C 5.7928125 0.960351562500001  6.71296875 1.277734375  7.404609375 1.8541015625  C 8.09625 2.43046875  8.477109375 3.197265625  8.477109375 4.009765625  C 8.477109375 4.8248046875  8.09625 5.5916015625  7.404609375 6.1654296875  Z " fill-rule="nonzero" fill="#a0a0a1" stroke="none" transform="matrix(1 0 0 1 202 7 )" />
    <path d="M 11.694609375 9.7607421875  C 11.895703125 9.60078125  11.901796875 9.33671875  11.712890625 9.169140625  L 8.458828125 6.43203125  C 9.095625 5.766796875  9.47953125 4.923828125  9.47953125 4.0072265625  C 9.47953125 1.86171875  7.392421875 0.122460937499999  4.814765625 0.122460937499999  C 2.237109375 0.122460937499999  0.15 1.8642578125  0.15 4.009765625  C 0.15 6.1552734375  2.237109375 7.89453125  4.814765625 7.89453125  C 5.929921875 7.89453125  6.950625 7.56953125  7.755 7.026171875  L 10.987734375 9.7455078125  C 11.085234375 9.8318359375  11.219296875 9.875  11.3503125 9.875  C 11.475234375 9.875  11.60015625 9.8369140625  11.694609375 9.7607421875  Z " stroke-width="8" stroke="#ffffff" fill="none" transform="matrix(1 0 0 1 202 7 )" mask="url(#clip74)" />
    <path d="M 7.404609375 6.1654296875  C 6.71296875 6.741796875  5.7928125 7.0591796875  4.814765625 7.0591796875  C 3.83671875 7.0591796875  2.9165625 6.741796875  2.224921875 6.1654296875  C 1.53328125 5.5890625  1.152421875 4.822265625  1.152421875 4.009765625  C 1.152421875 3.1947265625  1.53328125 2.4279296875  2.224921875 1.8541015625  C 2.9165625 1.277734375  3.83671875 0.960351562500001  4.814765625 0.960351562500001  C 5.7928125 0.960351562500001  6.71296875 1.277734375  7.404609375 1.8541015625  C 8.09625 2.43046875  8.477109375 3.197265625  8.477109375 4.009765625  C 8.477109375 4.8248046875  8.09625 5.5916015625  7.404609375 6.1654296875  Z " stroke-width="8" stroke="#ffffff" fill="none" transform="matrix(1 0 0 1 202 7 )" mask="url(#clip74)" />
  </g>
</svg>