<?xml version="1.0" encoding="utf-8"?>
<svg version="1.1" xmlns:xlink="http://www.w3.org/1999/xlink" width="13px" height="11px" xmlns="http://www.w3.org/2000/svg">
  <defs>
    <mask fill="white" id="clip73">
      <path d="M 9.602734375 6.6578125  C 11.6552201704545 4.93125  13.0685546875 1.8107421875  12.6754616477273 0.3609375  C 12.6634588068182 0.3177734375  12.6274502840909 0.284765625  12.5764382102273 0.274609375  C 10.9440518465909 -0.0630859374999999  7.17215909090909 1.1404296875  5.12867542613636 2.86953125  C 4.72958096590909 3.2072265625  4.40250355113636 3.53984375  4.13544034090909 3.8623046875  C 3.50529119318182 3.8140625  2.87514204545455 3.8546875  2.33801491477273 4.052734375  C 0.82265625 4.61640625  0.381551846590909 6.0890625  0.258522727272728 6.7212890625  C 0.228515625000001 6.87109375  0.375550426136364 7.0005859375  0.552592329545455 6.9853515625  L 2.98616832386364 6.759375  C 2.98916903409091 6.957421875  3.00417258522727 7.11484375  3.01917613636364 7.2240234375  C 3.03117897727273 7.3306640625  3.08819247159091 7.4296875  3.17821377840909 7.505859375  L 4.12043678977273 8.303125  C 4.21045809659091 8.379296875  4.32748579545455 8.4275390625  4.453515625 8.4376953125  C 4.58254616477273 8.450390625  4.76859019886364 8.4630859375  4.99964488636364 8.465625  L 4.73258167613636 10.522265625  C 4.71457741477273 10.6720703125  4.86761363636364 10.796484375  5.04465553977273 10.77109375  C 5.79183238636364 10.66953125  7.53524502840909 10.2962890625  8.19840198863636 9.0140625  C 8.43245738636364 8.5595703125  8.48046875 8.02890625  8.42645596590909 7.4982421875  C 8.80754616477273 7.272265625  9.20363991477273 6.9955078125  9.602734375 6.6578125  Z M 9.59073153409091 4.4208984375  C 9.08961292613636 4.844921875  8.27942116477273 4.844921875  7.77830255681818 4.4208984375  C 7.27718394886364 3.996875  7.27718394886364 3.311328125  7.77830255681818 2.8873046875  C 8.27942116477273 2.46328125  9.08961292613636 2.46328125  9.59073153409091 2.8873046875  C 10.0918501420455 3.311328125  10.0918501420455 3.996875  9.59073153409091 4.4208984375  Z " fill-rule="evenodd" />
    </mask>
  </defs>
  <g transform="matrix(1 0 0 1 -64 -6 )">
    <path d="M 9.602734375 6.6578125  C 11.6552201704545 4.93125  13.0685546875 1.8107421875  12.6754616477273 0.3609375  C 12.6634588068182 0.3177734375  12.6274502840909 0.284765625  12.5764382102273 0.274609375  C 10.9440518465909 -0.0630859374999999  7.17215909090909 1.1404296875  5.12867542613636 2.86953125  C 4.72958096590909 3.2072265625  4.40250355113636 3.53984375  4.13544034090909 3.8623046875  C 3.50529119318182 3.8140625  2.87514204545455 3.8546875  2.33801491477273 4.052734375  C 0.82265625 4.61640625  0.381551846590909 6.0890625  0.258522727272728 6.7212890625  C 0.228515625000001 6.87109375  0.375550426136364 7.0005859375  0.552592329545455 6.9853515625  L 2.98616832386364 6.759375  C 2.98916903409091 6.957421875  3.00417258522727 7.11484375  3.01917613636364 7.2240234375  C 3.03117897727273 7.3306640625  3.08819247159091 7.4296875  3.17821377840909 7.505859375  L 4.12043678977273 8.303125  C 4.21045809659091 8.379296875  4.32748579545455 8.4275390625  4.453515625 8.4376953125  C 4.58254616477273 8.450390625  4.76859019886364 8.4630859375  4.99964488636364 8.465625  L 4.73258167613636 10.522265625  C 4.71457741477273 10.6720703125  4.86761363636364 10.796484375  5.04465553977273 10.77109375  C 5.79183238636364 10.66953125  7.53524502840909 10.2962890625  8.19840198863636 9.0140625  C 8.43245738636364 8.5595703125  8.48046875 8.02890625  8.42645596590909 7.4982421875  C 8.80754616477273 7.272265625  9.20363991477273 6.9955078125  9.602734375 6.6578125  Z M 9.59073153409091 4.4208984375  C 9.08961292613636 4.844921875  8.27942116477273 4.844921875  7.77830255681818 4.4208984375  C 7.27718394886364 3.996875  7.27718394886364 3.311328125  7.77830255681818 2.8873046875  C 8.27942116477273 2.46328125  9.08961292613636 2.46328125  9.59073153409091 2.8873046875  C 10.0918501420455 3.311328125  10.0918501420455 3.996875  9.59073153409091 4.4208984375  Z " fill-rule="nonzero" fill="#2391ff" stroke="none" transform="matrix(1 0 0 1 64 6 )" />
    <path d="M 9.602734375 6.6578125  C 11.6552201704545 4.93125  13.0685546875 1.8107421875  12.6754616477273 0.3609375  C 12.6634588068182 0.3177734375  12.6274502840909 0.284765625  12.5764382102273 0.274609375  C 10.9440518465909 -0.0630859374999999  7.17215909090909 1.1404296875  5.12867542613636 2.86953125  C 4.72958096590909 3.2072265625  4.40250355113636 3.53984375  4.13544034090909 3.8623046875  C 3.50529119318182 3.8140625  2.87514204545455 3.8546875  2.33801491477273 4.052734375  C 0.82265625 4.61640625  0.381551846590909 6.0890625  0.258522727272728 6.7212890625  C 0.228515625000001 6.87109375  0.375550426136364 7.0005859375  0.552592329545455 6.9853515625  L 2.98616832386364 6.759375  C 2.98916903409091 6.957421875  3.00417258522727 7.11484375  3.01917613636364 7.2240234375  C 3.03117897727273 7.3306640625  3.08819247159091 7.4296875  3.17821377840909 7.505859375  L 4.12043678977273 8.303125  C 4.21045809659091 8.379296875  4.32748579545455 8.4275390625  4.453515625 8.4376953125  C 4.58254616477273 8.450390625  4.76859019886364 8.4630859375  4.99964488636364 8.465625  L 4.73258167613636 10.522265625  C 4.71457741477273 10.6720703125  4.86761363636364 10.796484375  5.04465553977273 10.77109375  C 5.79183238636364 10.66953125  7.53524502840909 10.2962890625  8.19840198863636 9.0140625  C 8.43245738636364 8.5595703125  8.48046875 8.02890625  8.42645596590909 7.4982421875  C 8.80754616477273 7.272265625  9.20363991477273 6.9955078125  9.602734375 6.6578125  Z " stroke-width="8" stroke="#ffffff" fill="none" transform="matrix(1 0 0 1 64 6 )" mask="url(#clip73)" />
    <path d="M 9.59073153409091 4.4208984375  C 9.08961292613636 4.844921875  8.27942116477273 4.844921875  7.77830255681818 4.4208984375  C 7.27718394886364 3.996875  7.27718394886364 3.311328125  7.77830255681818 2.8873046875  C 8.27942116477273 2.46328125  9.08961292613636 2.46328125  9.59073153409091 2.8873046875  C 10.0918501420455 3.311328125  10.0918501420455 3.996875  9.59073153409091 4.4208984375  Z " stroke-width="8" stroke="#ffffff" fill="none" transform="matrix(1 0 0 1 64 6 )" mask="url(#clip73)" />
  </g>
</svg>