<?xml version="1.0" encoding="utf-8"?>
<svg version="1.1" xmlns:xlink="http://www.w3.org/1999/xlink" width="11px" height="11px" xmlns="http://www.w3.org/2000/svg">
  <defs>
    <mask fill="white" id="clip77">
      <path d="M 10.4652777777778 3.671875  C 10.4652777777778 3.11328125  9.90668402777778 2.65625  9.22395833333333 2.65625  L 5.90342881944444 2.65625  L 5.90342881944444 7.2240234375  L 7.38990885416667 6.0255859375  C 7.54817708333333 5.8986328125  7.80264756944444 5.8986328125  7.96091579861111 6.028125  C 8.11608072916667 6.1576171875  8.11608072916667 6.3658203125  7.9578125 6.4953125  L 5.78550347222222 8.247265625  C 5.70792100694444 8.308203125  5.60551215277778 8.3412109375  5.50310329861111 8.3412109375  C 5.45034722222222 8.3412109375  5.39759114583333 8.33359375  5.34793836805555 8.3158203125  C 5.30138888888889 8.3005859375  5.25794270833333 8.2751953125  5.220703125 8.247265625  L 3.04839409722222 6.4953125  C 2.89012586805555 6.368359375  2.88702256944444 6.1576171875  3.04529079861111 6.028125  C 3.20045572916666 5.8986328125  3.45802951388889 5.89609375  3.61629774305555 6.0255859375  L 5.10277777777778 7.2240234375  L 5.10277777777778 2.65625  L 1.77604166666667 2.65625  C 1.09331597222222 2.65625  0.534722222222222 3.11328125  0.534722222222222 3.671875  L 0.534722222222222 9.765625  C 0.534722222222222 10.32421875  1.09331597222222 10.78125  1.77604166666667 10.78125  L 9.22395833333333 10.78125  C 9.90668402777778 10.78125  10.4652777777778 10.32421875  10.4652777777778 9.765625  L 10.4652777777778 3.671875  Z M 5.90342881944444 2.65625  L 5.90342881944444 0.548828125  C 5.90342881944444 0.366015625  5.7234375 0.21875  5.5 0.21875  C 5.2765625 0.21875  5.09657118055556 0.366015625  5.09657118055556 0.548828125  L 5.09657118055556 2.65625  L 5.90342881944444 2.65625  Z " fill-rule="evenodd" />
    </mask>
  </defs>
  <g transform="matrix(1 0 0 1 -156 -6 )">
    <path d="M 10.4652777777778 3.671875  C 10.4652777777778 3.11328125  9.90668402777778 2.65625  9.22395833333333 2.65625  L 5.90342881944444 2.65625  L 5.90342881944444 7.2240234375  L 7.38990885416667 6.0255859375  C 7.54817708333333 5.8986328125  7.80264756944444 5.8986328125  7.96091579861111 6.028125  C 8.11608072916667 6.1576171875  8.11608072916667 6.3658203125  7.9578125 6.4953125  L 5.78550347222222 8.247265625  C 5.70792100694444 8.308203125  5.60551215277778 8.3412109375  5.50310329861111 8.3412109375  C 5.45034722222222 8.3412109375  5.39759114583333 8.33359375  5.34793836805555 8.3158203125  C 5.30138888888889 8.3005859375  5.25794270833333 8.2751953125  5.220703125 8.247265625  L 3.04839409722222 6.4953125  C 2.89012586805555 6.368359375  2.88702256944444 6.1576171875  3.04529079861111 6.028125  C 3.20045572916666 5.8986328125  3.45802951388889 5.89609375  3.61629774305555 6.0255859375  L 5.10277777777778 7.2240234375  L 5.10277777777778 2.65625  L 1.77604166666667 2.65625  C 1.09331597222222 2.65625  0.534722222222222 3.11328125  0.534722222222222 3.671875  L 0.534722222222222 9.765625  C 0.534722222222222 10.32421875  1.09331597222222 10.78125  1.77604166666667 10.78125  L 9.22395833333333 10.78125  C 9.90668402777778 10.78125  10.4652777777778 10.32421875  10.4652777777778 9.765625  L 10.4652777777778 3.671875  Z M 5.90342881944444 2.65625  L 5.90342881944444 0.548828125  C 5.90342881944444 0.366015625  5.7234375 0.21875  5.5 0.21875  C 5.2765625 0.21875  5.09657118055556 0.366015625  5.09657118055556 0.548828125  L 5.09657118055556 2.65625  L 5.90342881944444 2.65625  Z " fill-rule="nonzero" fill="#2391ff" stroke="none" transform="matrix(1 0 0 1 156 6 )" />
    <path d="M 10.4652777777778 3.671875  C 10.4652777777778 3.11328125  9.90668402777778 2.65625  9.22395833333333 2.65625  L 5.90342881944444 2.65625  L 5.90342881944444 7.2240234375  L 7.38990885416667 6.0255859375  C 7.54817708333333 5.8986328125  7.80264756944444 5.8986328125  7.96091579861111 6.028125  C 8.11608072916667 6.1576171875  8.11608072916667 6.3658203125  7.9578125 6.4953125  L 5.78550347222222 8.247265625  C 5.70792100694444 8.308203125  5.60551215277778 8.3412109375  5.50310329861111 8.3412109375  C 5.45034722222222 8.3412109375  5.39759114583333 8.33359375  5.34793836805555 8.3158203125  C 5.30138888888889 8.3005859375  5.25794270833333 8.2751953125  5.220703125 8.247265625  L 3.04839409722222 6.4953125  C 2.89012586805555 6.368359375  2.88702256944444 6.1576171875  3.04529079861111 6.028125  C 3.20045572916666 5.8986328125  3.45802951388889 5.89609375  3.61629774305555 6.0255859375  L 5.10277777777778 7.2240234375  L 5.10277777777778 2.65625  L 1.77604166666667 2.65625  C 1.09331597222222 2.65625  0.534722222222222 3.11328125  0.534722222222222 3.671875  L 0.534722222222222 9.765625  C 0.534722222222222 10.32421875  1.09331597222222 10.78125  1.77604166666667 10.78125  L 9.22395833333333 10.78125  C 9.90668402777778 10.78125  10.4652777777778 10.32421875  10.4652777777778 9.765625  L 10.4652777777778 3.671875  Z " stroke-width="8" stroke="#ffffff" fill="none" transform="matrix(1 0 0 1 156 6 )" mask="url(#clip77)" />
    <path d="M 5.90342881944444 2.65625  L 5.90342881944444 0.548828125  C 5.90342881944444 0.366015625  5.7234375 0.21875  5.5 0.21875  C 5.2765625 0.21875  5.09657118055556 0.366015625  5.09657118055556 0.548828125  L 5.09657118055556 2.65625  L 5.90342881944444 2.65625  Z " stroke-width="8" stroke="#ffffff" fill="none" transform="matrix(1 0 0 1 156 6 )" mask="url(#clip77)" />
  </g>
</svg>