<?xml version="1.0" encoding="utf-8"?>
<svg version="1.1" xmlns:xlink="http://www.w3.org/1999/xlink" width="12px" height="15px" xmlns="http://www.w3.org/2000/svg">
  <defs>
    <mask fill="white" id="clip64">
      <path d="M 11.85 2.294921875  C 11.85 1.244384765625  11.030390625 0.390625  10.021875 0.390625  L 1.978125 0.390625  C 0.969609375 0.390625  0.15 1.244384765625  0.15 2.294921875  L 0.15 12.705078125  C 0.15 13.755615234375  0.969609375 14.609375  1.978125 14.609375  L 10.021875 14.609375  C 11.030390625 14.609375  11.85 13.755615234375  11.85 12.705078125  L 11.85 2.294921875  Z M 10.996875 2.294921875  L 10.996875 12.705078125  C 10.996875 13.263671875  10.558125 13.720703125  10.021875 13.720703125  L 1.978125 13.720703125  C 1.441875 13.720703125  1.003125 13.263671875  1.003125 12.705078125  L 1.003125 2.294921875  C 1.003125 1.736328125  1.441875 1.279296875  1.978125 1.279296875  L 10.021875 1.279296875  C 10.558125 1.279296875  10.996875 1.736328125  10.996875 2.294921875  Z " fill-rule="evenodd" />
    </mask>
  </defs>
  <g transform="matrix(1 0 0 1 -18 -19 )">
    <path d="M 11.85 2.294921875  C 11.85 1.244384765625  11.030390625 0.390625  10.021875 0.390625  L 1.978125 0.390625  C 0.969609375 0.390625  0.15 1.244384765625  0.15 2.294921875  L 0.15 12.705078125  C 0.15 13.755615234375  0.969609375 14.609375  1.978125 14.609375  L 10.021875 14.609375  C 11.030390625 14.609375  11.85 13.755615234375  11.85 12.705078125  L 11.85 2.294921875  Z M 10.996875 2.294921875  L 10.996875 12.705078125  C 10.996875 13.263671875  10.558125 13.720703125  10.021875 13.720703125  L 1.978125 13.720703125  C 1.441875 13.720703125  1.003125 13.263671875  1.003125 12.705078125  L 1.003125 2.294921875  C 1.003125 1.736328125  1.441875 1.279296875  1.978125 1.279296875  L 10.021875 1.279296875  C 10.558125 1.279296875  10.996875 1.736328125  10.996875 2.294921875  Z " fill-rule="nonzero" fill="#0079fe" stroke="none" transform="matrix(1 0 0 1 18 19 )" />
    <path d="M 11.85 2.294921875  C 11.85 1.244384765625  11.030390625 0.390625  10.021875 0.390625  L 1.978125 0.390625  C 0.969609375 0.390625  0.15 1.244384765625  0.15 2.294921875  L 0.15 12.705078125  C 0.15 13.755615234375  0.969609375 14.609375  1.978125 14.609375  L 10.021875 14.609375  C 11.030390625 14.609375  11.85 13.755615234375  11.85 12.705078125  L 11.85 2.294921875  Z " stroke-width="8" stroke="#ffffff" fill="none" transform="matrix(1 0 0 1 18 19 )" mask="url(#clip64)" />
    <path d="M 10.996875 2.294921875  L 10.996875 12.705078125  C 10.996875 13.263671875  10.558125 13.720703125  10.021875 13.720703125  L 1.978125 13.720703125  C 1.441875 13.720703125  1.003125 13.263671875  1.003125 12.705078125  L 1.003125 2.294921875  C 1.003125 1.736328125  1.441875 1.279296875  1.978125 1.279296875  L 10.021875 1.279296875  C 10.558125 1.279296875  10.996875 1.736328125  10.996875 2.294921875  Z " stroke-width="8" stroke="#ffffff" fill="none" transform="matrix(1 0 0 1 18 19 )" mask="url(#clip64)" />
  </g>
</svg>