<?xml version="1.0" encoding="utf-8"?>
<svg version="1.1" xmlns:xlink="http://www.w3.org/1999/xlink" width="11px" height="14px" xmlns="http://www.w3.org/2000/svg">
  <defs>
    <mask fill="white" id="clip63">
      <path d="M 10.4652777777778 4.67329545454545  C 10.4652777777778 3.96235795454545  9.90668402777778 3.38068181818182  9.22395833333333 3.38068181818182  L 5.90342881944444 3.38068181818182  L 5.90342881944444 9.19421164772727  L 7.38990885416667 7.66892755681818  C 7.54817708333333 7.50735085227273  7.80264756944444 7.50735085227273  7.96091579861111 7.67215909090909  C 8.11608072916667 7.83696732954546  8.11608072916667 8.101953125  7.9578125 8.26676136363636  L 5.78550347222222 10.4965198863636  C 5.70792100694444 10.5740767045455  5.60551215277778 10.6160866477273  5.50310329861111 10.6160866477273  C 5.45034722222222 10.6160866477273  5.39759114583333 10.6063920454545  5.34793836805555 10.5837713068182  C 5.30138888888889 10.5643821022727  5.25794270833333 10.5320667613636  5.220703125 10.4965198863636  L 3.04839409722222 8.26676136363636  C 2.89012586805555 8.10518465909091  2.88702256944444 7.83696732954545  3.04529079861111 7.67215909090909  C 3.20045572916666 7.50735085227273  3.45802951388889 7.50411931818182  3.61629774305555 7.66892755681818  L 5.10277777777778 9.19421164772727  L 5.10277777777778 3.38068181818182  L 1.77604166666667 3.38068181818182  C 1.09331597222222 3.38068181818182  0.534722222222222 3.96235795454545  0.534722222222222 4.67329545454545  L 0.534722222222222 12.4289772727273  C 0.534722222222222 13.1399147727273  1.09331597222222 13.7215909090909  1.77604166666667 13.7215909090909  L 9.22395833333333 13.7215909090909  C 9.90668402777778 13.7215909090909  10.4652777777778 13.1399147727273  10.4652777777778 12.4289772727273  L 10.4652777777778 4.67329545454545  Z M 5.90342881944444 3.38068181818182  L 5.90342881944444 0.698508522727273  C 5.90342881944444 0.465838068181818  5.7234375 0.278409090909091  5.5 0.278409090909091  C 5.2765625 0.278409090909091  5.09657118055556 0.465838068181818  5.09657118055556 0.698508522727273  L 5.09657118055556 3.38068181818182  L 5.90342881944444 3.38068181818182  Z " fill-rule="evenodd" />
    </mask>
  </defs>
  <g transform="matrix(1 0 0 1 -156 -19 )">
    <path d="M 10.4652777777778 4.67329545454545  C 10.4652777777778 3.96235795454545  9.90668402777778 3.38068181818182  9.22395833333333 3.38068181818182  L 5.90342881944444 3.38068181818182  L 5.90342881944444 9.19421164772727  L 7.38990885416667 7.66892755681818  C 7.54817708333333 7.50735085227273  7.80264756944444 7.50735085227273  7.96091579861111 7.67215909090909  C 8.11608072916667 7.83696732954546  8.11608072916667 8.101953125  7.9578125 8.26676136363636  L 5.78550347222222 10.4965198863636  C 5.70792100694444 10.5740767045455  5.60551215277778 10.6160866477273  5.50310329861111 10.6160866477273  C 5.45034722222222 10.6160866477273  5.39759114583333 10.6063920454545  5.34793836805555 10.5837713068182  C 5.30138888888889 10.5643821022727  5.25794270833333 10.5320667613636  5.220703125 10.4965198863636  L 3.04839409722222 8.26676136363636  C 2.89012586805555 8.10518465909091  2.88702256944444 7.83696732954545  3.04529079861111 7.67215909090909  C 3.20045572916666 7.50735085227273  3.45802951388889 7.50411931818182  3.61629774305555 7.66892755681818  L 5.10277777777778 9.19421164772727  L 5.10277777777778 3.38068181818182  L 1.77604166666667 3.38068181818182  C 1.09331597222222 3.38068181818182  0.534722222222222 3.96235795454545  0.534722222222222 4.67329545454545  L 0.534722222222222 12.4289772727273  C 0.534722222222222 13.1399147727273  1.09331597222222 13.7215909090909  1.77604166666667 13.7215909090909  L 9.22395833333333 13.7215909090909  C 9.90668402777778 13.7215909090909  10.4652777777778 13.1399147727273  10.4652777777778 12.4289772727273  L 10.4652777777778 4.67329545454545  Z M 5.90342881944444 3.38068181818182  L 5.90342881944444 0.698508522727273  C 5.90342881944444 0.465838068181818  5.7234375 0.278409090909091  5.5 0.278409090909091  C 5.2765625 0.278409090909091  5.09657118055556 0.465838068181818  5.09657118055556 0.698508522727273  L 5.09657118055556 3.38068181818182  L 5.90342881944444 3.38068181818182  Z " fill-rule="nonzero" fill="#a0a0a1" stroke="none" transform="matrix(1 0 0 1 156 19 )" />
    <path d="M 10.4652777777778 4.67329545454545  C 10.4652777777778 3.96235795454545  9.90668402777778 3.38068181818182  9.22395833333333 3.38068181818182  L 5.90342881944444 3.38068181818182  L 5.90342881944444 9.19421164772727  L 7.38990885416667 7.66892755681818  C 7.54817708333333 7.50735085227273  7.80264756944444 7.50735085227273  7.96091579861111 7.67215909090909  C 8.11608072916667 7.83696732954546  8.11608072916667 8.101953125  7.9578125 8.26676136363636  L 5.78550347222222 10.4965198863636  C 5.70792100694444 10.5740767045455  5.60551215277778 10.6160866477273  5.50310329861111 10.6160866477273  C 5.45034722222222 10.6160866477273  5.39759114583333 10.6063920454545  5.34793836805555 10.5837713068182  C 5.30138888888889 10.5643821022727  5.25794270833333 10.5320667613636  5.220703125 10.4965198863636  L 3.04839409722222 8.26676136363636  C 2.89012586805555 8.10518465909091  2.88702256944444 7.83696732954545  3.04529079861111 7.67215909090909  C 3.20045572916666 7.50735085227273  3.45802951388889 7.50411931818182  3.61629774305555 7.66892755681818  L 5.10277777777778 9.19421164772727  L 5.10277777777778 3.38068181818182  L 1.77604166666667 3.38068181818182  C 1.09331597222222 3.38068181818182  0.534722222222222 3.96235795454545  0.534722222222222 4.67329545454545  L 0.534722222222222 12.4289772727273  C 0.534722222222222 13.1399147727273  1.09331597222222 13.7215909090909  1.77604166666667 13.7215909090909  L 9.22395833333333 13.7215909090909  C 9.90668402777778 13.7215909090909  10.4652777777778 13.1399147727273  10.4652777777778 12.4289772727273  L 10.4652777777778 4.67329545454545  Z " stroke-width="8" stroke="#ffffff" fill="none" transform="matrix(1 0 0 1 156 19 )" mask="url(#clip63)" />
    <path d="M 5.90342881944444 3.38068181818182  L 5.90342881944444 0.698508522727273  C 5.90342881944444 0.465838068181818  5.7234375 0.278409090909091  5.5 0.278409090909091  C 5.2765625 0.278409090909091  5.09657118055556 0.465838068181818  5.09657118055556 0.698508522727273  L 5.09657118055556 3.38068181818182  L 5.90342881944444 3.38068181818182  Z " stroke-width="8" stroke="#ffffff" fill="none" transform="matrix(1 0 0 1 156 19 )" mask="url(#clip63)" />
  </g>
</svg>