<?xml version="1.0" encoding="utf-8"?>
<svg version="1.1" xmlns:xlink="http://www.w3.org/1999/xlink" width="12px" height="13px" xmlns="http://www.w3.org/2000/svg">
  <defs>
    <mask fill="white" id="clip66">
      <path d="M 11.4478125 3.55240234375  C 11.9840625 3.28833984375  11.9840625 2.8559375  11.4478125 2.591875  L 6.89578125 0.34404296875  C 6.4021875 0.0997851562500002  5.594765625 0.0997851562500002  5.101171875 0.34404296875  L 0.5521875 2.591875  C 0.0159375000000002 2.8559375  0.0159375000000002 3.28833984375  0.5521875 3.55240234375  L 5.0615625 5.7804296875  C 5.576484375 6.03458984375  6.423515625 6.03458984375  6.9384375 5.7804296875  L 11.4478125 3.55240234375  Z M 6.9384375 10.43453125  C 6.423515625 10.68869140625  5.576484375 10.68869140625  5.0615625 10.43453125  L 2.02078125 8.93267578125  C 1.8928125 8.8699609375  1.743515625 8.8699609375  1.615546875 8.93267578125  L 0.5521875 9.4575  C 0.0159374999999996 9.7215625  0.0159374999999996 10.15396484375  0.5521875 10.41802734375  L 5.0615625 12.6460546875  C 5.576484375 12.90021484375  6.423515625 12.90021484375  6.9384375 12.6460546875  L 11.4478125 10.41802734375  C 11.9840625 10.15396484375  11.9840625 9.7215625  11.4478125 9.4575  L 10.384453125 8.93267578125  C 10.256484375 8.8699609375  10.1071875 8.8699609375  9.97921875 8.93267578125  L 6.9384375 10.43453125  Z " fill-rule="evenodd" />
    </mask>
  </defs>
  <g transform="matrix(1 0 0 1 -109 -21 )">
    <path d="M 11.4478125 3.55240234375  C 11.9840625 3.28833984375  11.9840625 2.8559375  11.4478125 2.591875  L 6.89578125 0.34404296875  C 6.4021875 0.0997851562500002  5.594765625 0.0997851562500002  5.101171875 0.34404296875  L 0.5521875 2.591875  C 0.0159375000000002 2.8559375  0.0159375000000002 3.28833984375  0.5521875 3.55240234375  L 5.0615625 5.7804296875  C 5.576484375 6.03458984375  6.423515625 6.03458984375  6.9384375 5.7804296875  L 11.4478125 3.55240234375  Z M 6.9384375 10.43453125  C 6.423515625 10.68869140625  5.576484375 10.68869140625  5.0615625 10.43453125  L 2.02078125 8.93267578125  C 1.8928125 8.8699609375  1.743515625 8.8699609375  1.615546875 8.93267578125  L 0.5521875 9.4575  C 0.0159374999999996 9.7215625  0.0159374999999996 10.15396484375  0.5521875 10.41802734375  L 5.0615625 12.6460546875  C 5.576484375 12.90021484375  6.423515625 12.90021484375  6.9384375 12.6460546875  L 11.4478125 10.41802734375  C 11.9840625 10.15396484375  11.9840625 9.7215625  11.4478125 9.4575  L 10.384453125 8.93267578125  C 10.256484375 8.8699609375  10.1071875 8.8699609375  9.97921875 8.93267578125  L 6.9384375 10.43453125  Z " fill-rule="nonzero" fill="#a0a0a1" stroke="none" transform="matrix(1 0 0 1 109 21 )" />
    <path d="M 11.4478125 3.55240234375  C 11.9840625 3.28833984375  11.9840625 2.8559375  11.4478125 2.591875  L 6.89578125 0.34404296875  C 6.4021875 0.0997851562500002  5.594765625 0.0997851562500002  5.101171875 0.34404296875  L 0.5521875 2.591875  C 0.0159375000000002 2.8559375  0.0159375000000002 3.28833984375  0.5521875 3.55240234375  L 5.0615625 5.7804296875  C 5.576484375 6.03458984375  6.423515625 6.03458984375  6.9384375 5.7804296875  L 11.4478125 3.55240234375  Z " stroke-width="8" stroke="#ffffff" fill="none" transform="matrix(1 0 0 1 109 21 )" mask="url(#clip66)" />
    <path d="M 6.9384375 10.43453125  C 6.423515625 10.68869140625  5.576484375 10.68869140625  5.0615625 10.43453125  L 2.02078125 8.93267578125  C 1.8928125 8.8699609375  1.743515625 8.8699609375  1.615546875 8.93267578125  L 0.5521875 9.4575  C 0.0159374999999996 9.7215625  0.0159374999999996 10.15396484375  0.5521875 10.41802734375  L 5.0615625 12.6460546875  C 5.576484375 12.90021484375  6.423515625 12.90021484375  6.9384375 12.6460546875  L 11.4478125 10.41802734375  C 11.9840625 10.15396484375  11.9840625 9.7215625  11.4478125 9.4575  L 10.384453125 8.93267578125  C 10.256484375 8.8699609375  10.1071875 8.8699609375  9.97921875 8.93267578125  L 6.9384375 10.43453125  Z " stroke-width="8" stroke="#ffffff" fill="none" transform="matrix(1 0 0 1 109 21 )" mask="url(#clip66)" />
  </g>
</svg>