<?xml version="1.0" encoding="utf-8"?>
<svg version="1.1" xmlns:xlink="http://www.w3.org/1999/xlink" width="9px" height="9px" xmlns="http://www.w3.org/2000/svg">
  <defs>
    <mask fill="white" id="clip71">
      <path d="M 8.67857142857143 3.078125  C 8.67857142857143 2.74296875  8.32600446428571 2.46875  7.89508928571429 2.46875  L 1.10491071428571 2.46875  C 0.673995535714286 2.46875  0.321428571428571 2.74296875  0.321428571428571 3.078125  L 0.321428571428571 7.953125  C 0.321428571428571 8.28828125  0.673995535714286 8.5625  1.10491071428571 8.5625  L 7.89508928571429 8.5625  C 8.32600446428571 8.5625  8.67857142857143 8.28828125  8.67857142857143 7.953125  L 8.67857142857143 3.078125  Z M 0.321428571428571 0.79296875  C 0.321428571428571 0.9884765625  0.527092633928572 1.1484375  0.778459821428571 1.1484375  L 4.04296875 1.1484375  C 4.2943359375 1.1484375  4.5 0.9884765625  4.5 0.79296875  C 4.5 0.5974609375  4.2943359375 0.4375  4.04296875 0.4375  L 0.778459821428571 0.4375  C 0.527092633928572 0.4375  0.321428571428571 0.5974609375  0.321428571428571 0.79296875  Z " fill-rule="evenodd" />
    </mask>
  </defs>
  <g transform="matrix(1 0 0 1 -20 -7 )">
    <path d="M 8.67857142857143 3.078125  C 8.67857142857143 2.74296875  8.32600446428571 2.46875  7.89508928571429 2.46875  L 1.10491071428571 2.46875  C 0.673995535714286 2.46875  0.321428571428571 2.74296875  0.321428571428571 3.078125  L 0.321428571428571 7.953125  C 0.321428571428571 8.28828125  0.673995535714286 8.5625  1.10491071428571 8.5625  L 7.89508928571429 8.5625  C 8.32600446428571 8.5625  8.67857142857143 8.28828125  8.67857142857143 7.953125  L 8.67857142857143 3.078125  Z M 0.321428571428571 0.79296875  C 0.321428571428571 0.9884765625  0.527092633928572 1.1484375  0.778459821428571 1.1484375  L 4.04296875 1.1484375  C 4.2943359375 1.1484375  4.5 0.9884765625  4.5 0.79296875  C 4.5 0.5974609375  4.2943359375 0.4375  4.04296875 0.4375  L 0.778459821428571 0.4375  C 0.527092633928572 0.4375  0.321428571428571 0.5974609375  0.321428571428571 0.79296875  Z " fill-rule="nonzero" fill="#8c8c8d" stroke="none" transform="matrix(1 0 0 1 20 7 )" />
    <path d="M 8.67857142857143 3.078125  C 8.67857142857143 2.74296875  8.32600446428571 2.46875  7.89508928571429 2.46875  L 1.10491071428571 2.46875  C 0.673995535714286 2.46875  0.321428571428571 2.74296875  0.321428571428571 3.078125  L 0.321428571428571 7.953125  C 0.321428571428571 8.28828125  0.673995535714286 8.5625  1.10491071428571 8.5625  L 7.89508928571429 8.5625  C 8.32600446428571 8.5625  8.67857142857143 8.28828125  8.67857142857143 7.953125  L 8.67857142857143 3.078125  Z " stroke-width="8" stroke="#ffffff" fill="none" transform="matrix(1 0 0 1 20 7 )" mask="url(#clip71)" />
    <path d="M 0.321428571428571 0.79296875  C 0.321428571428571 0.9884765625  0.527092633928572 1.1484375  0.778459821428571 1.1484375  L 4.04296875 1.1484375  C 4.2943359375 1.1484375  4.5 0.9884765625  4.5 0.79296875  C 4.5 0.5974609375  4.2943359375 0.4375  4.04296875 0.4375  L 0.778459821428571 0.4375  C 0.527092633928572 0.4375  0.321428571428571 0.5974609375  0.321428571428571 0.79296875  Z " stroke-width="8" stroke="#ffffff" fill="none" transform="matrix(1 0 0 1 20 7 )" mask="url(#clip71)" />
  </g>
</svg>