<?xml version="1.0" encoding="utf-8"?>
<svg version="1.1" xmlns:xlink="http://www.w3.org/1999/xlink" width="12px" height="13px" xmlns="http://www.w3.org/2000/svg">
  <defs>
    <mask fill="white" id="clip68">
      <path d="M 11.694609375 12.68896484375  C 11.895703125 12.481015625  11.901796875 12.137734375  11.712890625 11.9198828125  L 8.458828125 8.361640625  C 9.095625 7.4968359375  9.47953125 6.4009765625  9.47953125 5.20939453125  C 9.47953125 2.420234375  7.392421875 0.159199218749999  4.814765625 0.159199218749999  C 2.237109375 0.159199218749999  0.15 2.42353515625  0.15 5.2126953125  C 0.15 8.00185546875  2.237109375 10.262890625  4.814765625 10.262890625  C 5.929921875 10.262890625  6.950625 9.840390625  7.755 9.1340234375  L 10.987734375 12.66916015625  C 11.085234375 12.78138671875  11.219296875 12.8375  11.3503125 12.8375  C 11.475234375 12.8375  11.60015625 12.78798828125  11.694609375 12.68896484375  Z M 7.404609375 8.01505859375  C 6.71296875 8.7643359375  5.7928125 9.17693359375  4.814765625 9.17693359375  C 3.83671875 9.17693359375  2.9165625 8.7643359375  2.224921875 8.01505859375  C 1.53328125 7.26578125  1.152421875 6.2689453125  1.152421875 5.2126953125  C 1.152421875 4.15314453125  1.53328125 3.15630859375  2.224921875 2.41033203125  C 2.9165625 1.6610546875  3.83671875 1.24845703125  4.814765625 1.24845703125  C 5.7928125 1.24845703125  6.71296875 1.6610546875  7.404609375 2.41033203125  C 8.09625 3.159609375  8.477109375 4.1564453125  8.477109375 5.2126953125  C 8.477109375 6.27224609375  8.09625 7.26908203125  7.404609375 8.01505859375  Z " fill-rule="evenodd" />
    </mask>
  </defs>
  <g transform="matrix(1 0 0 1 -202 -21 )">
    <path d="M 11.694609375 12.68896484375  C 11.895703125 12.481015625  11.901796875 12.137734375  11.712890625 11.9198828125  L 8.458828125 8.361640625  C 9.095625 7.4968359375  9.47953125 6.4009765625  9.47953125 5.20939453125  C 9.47953125 2.420234375  7.392421875 0.159199218749999  4.814765625 0.159199218749999  C 2.237109375 0.159199218749999  0.15 2.42353515625  0.15 5.2126953125  C 0.15 8.00185546875  2.237109375 10.262890625  4.814765625 10.262890625  C 5.929921875 10.262890625  6.950625 9.840390625  7.755 9.1340234375  L 10.987734375 12.66916015625  C 11.085234375 12.78138671875  11.219296875 12.8375  11.3503125 12.8375  C 11.475234375 12.8375  11.60015625 12.78798828125  11.694609375 12.68896484375  Z M 7.404609375 8.01505859375  C 6.71296875 8.7643359375  5.7928125 9.17693359375  4.814765625 9.17693359375  C 3.83671875 9.17693359375  2.9165625 8.7643359375  2.224921875 8.01505859375  C 1.53328125 7.26578125  1.152421875 6.2689453125  1.152421875 5.2126953125  C 1.152421875 4.15314453125  1.53328125 3.15630859375  2.224921875 2.41033203125  C 2.9165625 1.6610546875  3.83671875 1.24845703125  4.814765625 1.24845703125  C 5.7928125 1.24845703125  6.71296875 1.6610546875  7.404609375 2.41033203125  C 8.09625 3.159609375  8.477109375 4.1564453125  8.477109375 5.2126953125  C 8.477109375 6.27224609375  8.09625 7.26908203125  7.404609375 8.01505859375  Z " fill-rule="nonzero" fill="#a0a0a1" stroke="none" transform="matrix(1 0 0 1 202 21 )" />
    <path d="M 11.694609375 12.68896484375  C 11.895703125 12.481015625  11.901796875 12.137734375  11.712890625 11.9198828125  L 8.458828125 8.361640625  C 9.095625 7.4968359375  9.47953125 6.4009765625  9.47953125 5.20939453125  C 9.47953125 2.420234375  7.392421875 0.159199218749999  4.814765625 0.159199218749999  C 2.237109375 0.159199218749999  0.15 2.42353515625  0.15 5.2126953125  C 0.15 8.00185546875  2.237109375 10.262890625  4.814765625 10.262890625  C 5.929921875 10.262890625  6.950625 9.840390625  7.755 9.1340234375  L 10.987734375 12.66916015625  C 11.085234375 12.78138671875  11.219296875 12.8375  11.3503125 12.8375  C 11.475234375 12.8375  11.60015625 12.78798828125  11.694609375 12.68896484375  Z " stroke-width="8" stroke="#ffffff" fill="none" transform="matrix(1 0 0 1 202 21 )" mask="url(#clip68)" />
    <path d="M 7.404609375 8.01505859375  C 6.71296875 8.7643359375  5.7928125 9.17693359375  4.814765625 9.17693359375  C 3.83671875 9.17693359375  2.9165625 8.7643359375  2.224921875 8.01505859375  C 1.53328125 7.26578125  1.152421875 6.2689453125  1.152421875 5.2126953125  C 1.152421875 4.15314453125  1.53328125 3.15630859375  2.224921875 2.41033203125  C 2.9165625 1.6610546875  3.83671875 1.24845703125  4.814765625 1.24845703125  C 5.7928125 1.24845703125  6.71296875 1.6610546875  7.404609375 2.41033203125  C 8.09625 3.159609375  8.477109375 4.1564453125  8.477109375 5.2126953125  C 8.477109375 6.27224609375  8.09625 7.26908203125  7.404609375 8.01505859375  Z " stroke-width="8" stroke="#ffffff" fill="none" transform="matrix(1 0 0 1 202 21 )" mask="url(#clip68)" />
  </g>
</svg>