<?xml version="1.0" encoding="utf-8"?>
<svg version="1.1" xmlns:xlink="http://www.w3.org/1999/xlink" width="12px" height="10px" xmlns="http://www.w3.org/2000/svg">
  <defs>
    <mask fill="white" id="clip75">
      <path d="M 11.4478125 2.7326171875  C 11.9840625 2.5294921875  11.9840625 2.196875  11.4478125 1.99375  L 6.89578125 0.2646484375  C 6.4021875 0.0767578125000001  5.594765625 0.0767578125000001  5.101171875 0.2646484375  L 0.5521875 1.99375  C 0.0159375000000002 2.196875  0.0159375000000002 2.5294921875  0.5521875 2.7326171875  L 5.0615625 4.446484375  C 5.576484375 4.6419921875  6.423515625 4.6419921875  6.9384375 4.446484375  L 11.4478125 2.7326171875  Z M 6.9384375 8.0265625  C 6.423515625 8.2220703125  5.576484375 8.2220703125  5.0615625 8.0265625  L 2.02078125 6.8712890625  C 1.8928125 6.823046875  1.743515625 6.823046875  1.615546875 6.8712890625  L 0.5521875 7.275  C 0.0159374999999996 7.478125  0.0159374999999996 7.8107421875  0.5521875 8.0138671875  L 5.0615625 9.727734375  C 5.576484375 9.9232421875  6.423515625 9.9232421875  6.9384375 9.727734375  L 11.4478125 8.0138671875  C 11.9840625 7.8107421875  11.9840625 7.478125  11.4478125 7.275  L 10.384453125 6.8712890625  C 10.256484375 6.823046875  10.1071875 6.823046875  9.97921875 6.8712890625  L 6.9384375 8.0265625  Z " fill-rule="evenodd" />
    </mask>
  </defs>
  <g transform="matrix(1 0 0 1 -109 -7 )">
    <path d="M 11.4478125 2.7326171875  C 11.9840625 2.5294921875  11.9840625 2.196875  11.4478125 1.99375  L 6.89578125 0.2646484375  C 6.4021875 0.0767578125000001  5.594765625 0.0767578125000001  5.101171875 0.2646484375  L 0.5521875 1.99375  C 0.0159375000000002 2.196875  0.0159375000000002 2.5294921875  0.5521875 2.7326171875  L 5.0615625 4.446484375  C 5.576484375 4.6419921875  6.423515625 4.6419921875  6.9384375 4.446484375  L 11.4478125 2.7326171875  Z M 6.9384375 8.0265625  C 6.423515625 8.2220703125  5.576484375 8.2220703125  5.0615625 8.0265625  L 2.02078125 6.8712890625  C 1.8928125 6.823046875  1.743515625 6.823046875  1.615546875 6.8712890625  L 0.5521875 7.275  C 0.0159374999999996 7.478125  0.0159374999999996 7.8107421875  0.5521875 8.0138671875  L 5.0615625 9.727734375  C 5.576484375 9.9232421875  6.423515625 9.9232421875  6.9384375 9.727734375  L 11.4478125 8.0138671875  C 11.9840625 7.8107421875  11.9840625 7.478125  11.4478125 7.275  L 10.384453125 6.8712890625  C 10.256484375 6.823046875  10.1071875 6.823046875  9.97921875 6.8712890625  L 6.9384375 8.0265625  Z " fill-rule="nonzero" fill="#2391ff" stroke="none" transform="matrix(1 0 0 1 109 7 )" />
    <path d="M 11.4478125 2.7326171875  C 11.9840625 2.5294921875  11.9840625 2.196875  11.4478125 1.99375  L 6.89578125 0.2646484375  C 6.4021875 0.0767578125000001  5.594765625 0.0767578125000001  5.101171875 0.2646484375  L 0.5521875 1.99375  C 0.0159375000000002 2.196875  0.0159375000000002 2.5294921875  0.5521875 2.7326171875  L 5.0615625 4.446484375  C 5.576484375 4.6419921875  6.423515625 4.6419921875  6.9384375 4.446484375  L 11.4478125 2.7326171875  Z " stroke-width="8" stroke="#ffffff" fill="none" transform="matrix(1 0 0 1 109 7 )" mask="url(#clip75)" />
    <path d="M 6.9384375 8.0265625  C 6.423515625 8.2220703125  5.576484375 8.2220703125  5.0615625 8.0265625  L 2.02078125 6.8712890625  C 1.8928125 6.823046875  1.743515625 6.823046875  1.615546875 6.8712890625  L 0.5521875 7.275  C 0.0159374999999996 7.478125  0.0159374999999996 7.8107421875  0.5521875 8.0138671875  L 5.0615625 9.727734375  C 5.576484375 9.9232421875  6.423515625 9.9232421875  6.9384375 9.727734375  L 11.4478125 8.0138671875  C 11.9840625 7.8107421875  11.9840625 7.478125  11.4478125 7.275  L 10.384453125 6.8712890625  C 10.256484375 6.823046875  10.1071875 6.823046875  9.97921875 6.8712890625  L 6.9384375 8.0265625  Z " stroke-width="8" stroke="#ffffff" fill="none" transform="matrix(1 0 0 1 109 7 )" mask="url(#clip75)" />
  </g>
</svg>