<?xml version="1.0" encoding="utf-8"?>
<svg version="1.1" xmlns:xlink="http://www.w3.org/1999/xlink" width="12px" height="12px" xmlns="http://www.w3.org/2000/svg">
  <defs>
    <mask fill="white" id="clip70">
      <path d="M 11.85 1.8359375  C 11.85 0.9955078125  11.030390625 0.3125  10.021875 0.3125  L 1.978125 0.3125  C 0.969609375 0.3125  0.15 0.9955078125  0.15 1.8359375  L 0.15 10.1640625  C 0.15 11.0044921875  0.969609375 11.6875  1.978125 11.6875  L 10.021875 11.6875  C 11.030390625 11.6875  11.85 11.0044921875  11.85 10.1640625  L 11.85 1.8359375  Z M 10.996875 1.8359375  L 10.996875 10.1640625  C 10.996875 10.6109375  10.558125 10.9765625  10.021875 10.9765625  L 1.978125 10.9765625  C 1.441875 10.9765625  1.003125 10.6109375  1.003125 10.1640625  L 1.003125 1.8359375  C 1.003125 1.3890625  1.441875 1.0234375  1.978125 1.0234375  L 10.021875 1.0234375  C 10.558125 1.0234375  10.996875 1.3890625  10.996875 1.8359375  Z " fill-rule="evenodd" />
    </mask>
  </defs>
  <g transform="matrix(1 0 0 1 -18 -6 )">
    <path d="M 11.85 1.8359375  C 11.85 0.9955078125  11.030390625 0.3125  10.021875 0.3125  L 1.978125 0.3125  C 0.969609375 0.3125  0.15 0.9955078125  0.15 1.8359375  L 0.15 10.1640625  C 0.15 11.0044921875  0.969609375 11.6875  1.978125 11.6875  L 10.021875 11.6875  C 11.030390625 11.6875  11.85 11.0044921875  11.85 10.1640625  L 11.85 1.8359375  Z M 10.996875 1.8359375  L 10.996875 10.1640625  C 10.996875 10.6109375  10.558125 10.9765625  10.021875 10.9765625  L 1.978125 10.9765625  C 1.441875 10.9765625  1.003125 10.6109375  1.003125 10.1640625  L 1.003125 1.8359375  C 1.003125 1.3890625  1.441875 1.0234375  1.978125 1.0234375  L 10.021875 1.0234375  C 10.558125 1.0234375  10.996875 1.3890625  10.996875 1.8359375  Z " fill-rule="nonzero" fill="#8c8c8d" stroke="none" transform="matrix(1 0 0 1 18 6 )" />
    <path d="M 11.85 1.8359375  C 11.85 0.9955078125  11.030390625 0.3125  10.021875 0.3125  L 1.978125 0.3125  C 0.969609375 0.3125  0.15 0.9955078125  0.15 1.8359375  L 0.15 10.1640625  C 0.15 11.0044921875  0.969609375 11.6875  1.978125 11.6875  L 10.021875 11.6875  C 11.030390625 11.6875  11.85 11.0044921875  11.85 10.1640625  L 11.85 1.8359375  Z " stroke-width="8" stroke="#ffffff" fill="none" transform="matrix(1 0 0 1 18 6 )" mask="url(#clip70)" />
    <path d="M 10.996875 1.8359375  L 10.996875 10.1640625  C 10.996875 10.6109375  10.558125 10.9765625  10.021875 10.9765625  L 1.978125 10.9765625  C 1.441875 10.9765625  1.003125 10.6109375  1.003125 10.1640625  L 1.003125 1.8359375  C 1.003125 1.3890625  1.441875 1.0234375  1.978125 1.0234375  L 10.021875 1.0234375  C 10.558125 1.0234375  10.996875 1.3890625  10.996875 1.8359375  Z " stroke-width="8" stroke="#ffffff" fill="none" transform="matrix(1 0 0 1 18 6 )" mask="url(#clip70)" />
  </g>
</svg>