<?xml version="1.0" encoding="utf-8"?>
<svg version="1.1" xmlns:xlink="http://www.w3.org/1999/xlink" width="13px" height="14px" xmlns="http://www.w3.org/2000/svg">
  <defs>
    <mask fill="white" id="clip67">
      <path d="M 9.602734375 8.47357954545455  C 11.6552201704545 6.27613636363637  13.0685546875 2.30458096590909  12.6754616477273 0.459375  C 12.6634588068182 0.404438920454545  12.6274502840909 0.362428977272727  12.5764382102273 0.349502840909091  C 10.9440518465909 -0.0802911931818181  7.17215909090909 1.45145596590909  5.12867542613636 3.65213068181818  C 4.72958096590909 4.08192471590909  4.40250355113636 4.50525568181818  4.13544034090909 4.91566051136364  C 3.50529119318182 4.85426136363636  2.87514204545455 4.90596590909091  2.33801491477273 5.15802556818182  C 0.82265625 5.87542613636364  0.381551846590909 7.74971590909091  0.258522727272728 8.55436789772727  C 0.228515625000001 8.74502840909091  0.375550426136364 8.90983664772727  0.552592329545455 8.89044744318182  L 2.98616832386364 8.60284090909091  C 2.98916903409091 8.85490056818182  3.00417258522727 9.05525568181818  3.01917613636364 9.19421164772727  C 3.03117897727273 9.32993607954545  3.08819247159091 9.45596590909091  3.17821377840909 9.55291193181818  L 4.12043678977273 10.5676136363636  C 4.21045809659091 10.6645596590909  4.32748579545455 10.7259588068182  4.453515625 10.7388849431818  C 4.58254616477273 10.7550426136364  4.76859019886364 10.7712002840909  4.99964488636364 10.7744318181818  L 4.73258167613636 13.3919744318182  C 4.71457741477273 13.5826349431818  4.86761363636364 13.7409801136364  5.04465553977273 13.7086647727273  C 5.79183238636364 13.5794034090909  7.53524502840909 13.1043678977273  8.19840198863636 11.4724431818182  C 8.43245738636364 10.8939985795455  8.48046875 10.2186079545455  8.42645596590909 9.54321732954546  C 8.80754616477273 9.25561079545455  9.20363991477273 8.90337357954546  9.602734375 8.47357954545455  Z M 9.59073153409091 5.62659801136364  C 9.08961292613636 6.16626420454545  8.27942116477273 6.16626420454545  7.77830255681818 5.62659801136364  C 7.27718394886364 5.08693181818182  7.27718394886364 4.21441761363636  7.77830255681818 3.67475142045455  C 8.27942116477273 3.13508522727273  9.08961292613636 3.13508522727273  9.59073153409091 3.67475142045455  C 10.0918501420455 4.21441761363636  10.0918501420455 5.08693181818182  9.59073153409091 5.62659801136364  Z " fill-rule="evenodd" />
    </mask>
  </defs>
  <g transform="matrix(1 0 0 1 -64 -20 )">
    <path d="M 9.602734375 8.47357954545455  C 11.6552201704545 6.27613636363637  13.0685546875 2.30458096590909  12.6754616477273 0.459375  C 12.6634588068182 0.404438920454545  12.6274502840909 0.362428977272727  12.5764382102273 0.349502840909091  C 10.9440518465909 -0.0802911931818181  7.17215909090909 1.45145596590909  5.12867542613636 3.65213068181818  C 4.72958096590909 4.08192471590909  4.40250355113636 4.50525568181818  4.13544034090909 4.91566051136364  C 3.50529119318182 4.85426136363636  2.87514204545455 4.90596590909091  2.33801491477273 5.15802556818182  C 0.82265625 5.87542613636364  0.381551846590909 7.74971590909091  0.258522727272728 8.55436789772727  C 0.228515625000001 8.74502840909091  0.375550426136364 8.90983664772727  0.552592329545455 8.89044744318182  L 2.98616832386364 8.60284090909091  C 2.98916903409091 8.85490056818182  3.00417258522727 9.05525568181818  3.01917613636364 9.19421164772727  C 3.03117897727273 9.32993607954545  3.08819247159091 9.45596590909091  3.17821377840909 9.55291193181818  L 4.12043678977273 10.5676136363636  C 4.21045809659091 10.6645596590909  4.32748579545455 10.7259588068182  4.453515625 10.7388849431818  C 4.58254616477273 10.7550426136364  4.76859019886364 10.7712002840909  4.99964488636364 10.7744318181818  L 4.73258167613636 13.3919744318182  C 4.71457741477273 13.5826349431818  4.86761363636364 13.7409801136364  5.04465553977273 13.7086647727273  C 5.79183238636364 13.5794034090909  7.53524502840909 13.1043678977273  8.19840198863636 11.4724431818182  C 8.43245738636364 10.8939985795455  8.48046875 10.2186079545455  8.42645596590909 9.54321732954546  C 8.80754616477273 9.25561079545455  9.20363991477273 8.90337357954546  9.602734375 8.47357954545455  Z M 9.59073153409091 5.62659801136364  C 9.08961292613636 6.16626420454545  8.27942116477273 6.16626420454545  7.77830255681818 5.62659801136364  C 7.27718394886364 5.08693181818182  7.27718394886364 4.21441761363636  7.77830255681818 3.67475142045455  C 8.27942116477273 3.13508522727273  9.08961292613636 3.13508522727273  9.59073153409091 3.67475142045455  C 10.0918501420455 4.21441761363636  10.0918501420455 5.08693181818182  9.59073153409091 5.62659801136364  Z " fill-rule="nonzero" fill="#a0a0a1" stroke="none" transform="matrix(1 0 0 1 64 20 )" />
    <path d="M 9.602734375 8.47357954545455  C 11.6552201704545 6.27613636363637  13.0685546875 2.30458096590909  12.6754616477273 0.459375  C 12.6634588068182 0.404438920454545  12.6274502840909 0.362428977272727  12.5764382102273 0.349502840909091  C 10.9440518465909 -0.0802911931818181  7.17215909090909 1.45145596590909  5.12867542613636 3.65213068181818  C 4.72958096590909 4.08192471590909  4.40250355113636 4.50525568181818  4.13544034090909 4.91566051136364  C 3.50529119318182 4.85426136363636  2.87514204545455 4.90596590909091  2.33801491477273 5.15802556818182  C 0.82265625 5.87542613636364  0.381551846590909 7.74971590909091  0.258522727272728 8.55436789772727  C 0.228515625000001 8.74502840909091  0.375550426136364 8.90983664772727  0.552592329545455 8.89044744318182  L 2.98616832386364 8.60284090909091  C 2.98916903409091 8.85490056818182  3.00417258522727 9.05525568181818  3.01917613636364 9.19421164772727  C 3.03117897727273 9.32993607954545  3.08819247159091 9.45596590909091  3.17821377840909 9.55291193181818  L 4.12043678977273 10.5676136363636  C 4.21045809659091 10.6645596590909  4.32748579545455 10.7259588068182  4.453515625 10.7388849431818  C 4.58254616477273 10.7550426136364  4.76859019886364 10.7712002840909  4.99964488636364 10.7744318181818  L 4.73258167613636 13.3919744318182  C 4.71457741477273 13.5826349431818  4.86761363636364 13.7409801136364  5.04465553977273 13.7086647727273  C 5.79183238636364 13.5794034090909  7.53524502840909 13.1043678977273  8.19840198863636 11.4724431818182  C 8.43245738636364 10.8939985795455  8.48046875 10.2186079545455  8.42645596590909 9.54321732954546  C 8.80754616477273 9.25561079545455  9.20363991477273 8.90337357954546  9.602734375 8.47357954545455  Z " stroke-width="8" stroke="#ffffff" fill="none" transform="matrix(1 0 0 1 64 20 )" mask="url(#clip67)" />
    <path d="M 9.59073153409091 5.62659801136364  C 9.08961292613636 6.16626420454545  8.27942116477273 6.16626420454545  7.77830255681818 5.62659801136364  C 7.27718394886364 5.08693181818182  7.27718394886364 4.21441761363636  7.77830255681818 3.67475142045455  C 8.27942116477273 3.13508522727273  9.08961292613636 3.13508522727273  9.59073153409091 3.67475142045455  C 10.0918501420455 4.21441761363636  10.0918501420455 5.08693181818182  9.59073153409091 5.62659801136364  Z " stroke-width="8" stroke="#ffffff" fill="none" transform="matrix(1 0 0 1 64 20 )" mask="url(#clip67)" />
  </g>
</svg>