<svg t="1563535033851" class="icon" viewBox="0 0 1024 1024" version="1.1" xmlns="http://www.w3.org/2000/svg" p-id="11540" width="16" height="16"><path d="M736 256a64 64 0 1 0-64 64 64 64 0 0 0 64-64z m64 0a128 128 0 1 1-128-128 128 128 0 0 1 128 128zM288 512a64 64 0 1 0-64 64 64 64 0 0 0 64-64z m64 0a128 128 0 1 1-128-128 128 128 0 0 1 128 128z m480 256a96 96 0 1 0-96 96 96 96 0 0 0 96-96z m64 0a160 160 0 1 1-160-160 160 160 0 0 1 160 160z" p-id="11541" fill="#FFFFFF"></path><path d="M334.4 476.48a32 32 0 1 1-28.8-56.96l256-128a32 32 0 1 1 28.8 56.96z m-30.08 95.36a32 32 0 0 1 32-55.68l288 160a32 32 0 1 1-32 55.68z" p-id="11542" fill="#FFFFFF"></path></svg>