<?xml version="1.0" encoding="utf-8"?>
<svg version="1.1" xmlns:xlink="http://www.w3.org/1999/xlink" width="6px" height="6px" xmlns="http://www.w3.org/2000/svg">
  <g transform="matrix(1 0 0 1 -4 -5 )">
    <path d="M 7 5  C 8.68 5  10 6.32  10 8  C 10 9.68  8.68 11  7 11  C 5.32 11  4 9.68  4 8  C 4 6.32  5.32 5  7 5  Z " fill-rule="nonzero" fill="#ffffff" stroke="none" />
    <path d="M 7 5.5  C 8.4 5.5  9.5 6.6  9.5 8  C 9.5 9.4  8.4 10.5  7 10.5  C 5.6 10.5  4.5 9.4  4.5 8  C 4.5 6.6  5.6 5.5  7 5.5  Z " stroke-width="1" stroke="#ffffff" fill="none" />
  </g>
</svg>