<?xml version="1.0" encoding="utf-8"?>
<svg version="1.1" xmlns:xlink="http://www.w3.org/1999/xlink" width="14px" height="14px" xmlns="http://www.w3.org/2000/svg">
  <g transform="matrix(1 0 0 1 0 -1 )">
    <path d="M 7 1  C 10.92 1  14 4.08  14 8  C 14 11.92  10.92 15  7 15  C 3.08 15  0 11.92  0 8  C 0 4.08  3.08 1  7 1  Z " fill-rule="nonzero" fill="#ffffff" stroke="none" />
    <path d="M 7 1.5  C 10.64 1.5  13.5 4.36  13.5 8  C 13.5 11.64  10.64 14.5  7 14.5  C 3.36 14.5  0.5 11.64  0.5 8  C 0.5 4.36  3.36 1.5  7 1.5  Z " stroke-width="1" stroke="#dcdfe6" fill="none" />
  </g>
</svg>