<?xml version="1.0" encoding="utf-8"?>
<svg version="1.1" xmlns:xlink="http://www.w3.org/1999/xlink" width="11px" height="12px" xmlns="http://www.w3.org/2000/svg">
  <g transform="matrix(1 0 0 1 -720 -53 )">
    <path d="M 725.5 53  C 728.58 53  731 55.64  731 59  C 731 62.36  728.58 65  725.5 65  C 722.42 65  720 62.36  720 59  C 720 55.64  722.42 53  725.5 53  Z " fill-rule="nonzero" fill="#ffffff" stroke="none" />
    <path d="M 725.5 53.5  C 728.3 53.5  730.5 55.92  730.5 59  C 730.5 62.08  728.3 64.5  725.5 64.5  C 722.7 64.5  720.5 62.08  720.5 59  C 720.5 55.92  722.7 53.5  725.5 53.5  Z " stroke-width="1" stroke="#ffffff" fill="none" />
  </g>
</svg>