<?xml version="1.0" encoding="utf-8"?>
<svg version="1.1" xmlns:xlink="http://www.w3.org/1999/xlink" width="12px" height="8px" xmlns="http://www.w3.org/2000/svg">
  <g transform="matrix(1 0 0 1 -631 -566 )">
    <path d="M 11.8797595190381 0.824742268041237  C 11.9599198396794 0.916380297823594  12 1.02176403207331  12 1.14089347079038  C 12 1.26002290950744  11.9599198396794 1.36540664375716  11.8797595190381 1.45704467353952  L 6.27655310621242 7.86254295532646  C 6.19639278557114 7.95418098510882  6.10420841683367 8  6 8  C 5.89579158316633 8  5.80360721442886 7.95418098510882  5.72344689378757 7.86254295532646  L 0.120240480961924 1.45704467353952  C 0.0400801603206414 1.36540664375716  0 1.26002290950744  0 1.14089347079038  C 0 1.02176403207331  0.0400801603206414 0.916380297823594  0.120240480961924 0.824742268041237  L 0.721442885771543 0.13745704467354  C 0.801603206412826 0.0458190148911788  0.893787575150301 0  0.997995991983968 0  C 1.10220440881764 0  1.19438877755511 0.0458190148911788  1.27454909819639 0.13745704467354  L 6 5.53951890034364  L 10.7254509018036 0.13745704467354  C 10.8056112224449 0.0458190148911788  10.8977955911824 0  11.002004008016 0  C 11.1062124248497 0  11.1983967935872 0.0458190148911788  11.2785571142285 0.13745704467354  L 11.8797595190381 0.824742268041237  Z " fill-rule="nonzero" fill="#333333" stroke="none" transform="matrix(1 0 0 1 631 566 )" />
  </g>
</svg>