<?xml version="1.0" encoding="utf-8"?>
<svg version="1.1" xmlns:xlink="http://www.w3.org/1999/xlink" width="22px" height="22px" xmlns="http://www.w3.org/2000/svg">
  <g>
    <path d="M 6.11111111111111 7  L 6.11111111111111 10  L 15.8888888888889 10  L 15.8888888888889 7  C 15.8888888888889 5.89583333333333  15.4114583333333 4.953125  14.4565972222222 4.171875  C 13.5017361111111 3.390625  12.349537037037 3  11 3  C 9.65046296296296 3  8.49826388888889 3.390625  7.54340277777778 4.171875  C 6.58854166666667 4.953125  6.11111111111111 5.89583333333333  6.11111111111111 7  Z M 21.4652777777778 10.4375  C 21.8217592592593 10.7291666666667  22 11.0833333333333  22 11.5  L 22 20.5  C 22 20.9166666666667  21.8217592592593 21.2708333333333  21.4652777777778 21.5625  C 21.1087962962963 21.8541666666667  20.6759259259259 22  20.1666666666667 22  L 1.83333333333333 22  C 1.32407407407407 22  0.891203703703704 21.8541666666667  0.534722222222222 21.5625  C 0.178240740740741 21.2708333333333  0 20.9166666666667  0 20.5  L 0 11.5  C 0 11.0833333333333  0.178240740740741 10.7291666666667  0.534722222222222 10.4375  C 0.891203703703704 10.1458333333333  1.32407407407407 10  1.83333333333333 10  L 2.44444444444444 10  L 2.44444444444444 7  C 2.44444444444444 5.08333333333333  3.28472222222222 3.4375  4.96527777777778 2.0625  C 6.64583333333333 0.6875  8.65740740740741 0  11 0  C 13.3425925925926 0  15.3541666666667 0.6875  17.0347222222222 2.0625  C 18.7152777777778 3.4375  19.5555555555556 5.08333333333333  19.5555555555556 7  L 19.5555555555556 10  L 20.1666666666667 10  C 20.6759259259259 10  21.1087962962963 10.1458333333333  21.4652777777778 10.4375  Z " fill-rule="nonzero" fill="#02a7f0" stroke="none" />
  </g>
</svg>