<?xml version="1.0" encoding="utf-8"?>
<svg version="1.1" xmlns:xlink="http://www.w3.org/1999/xlink" width="22px" height="22px" xmlns="http://www.w3.org/2000/svg">
  <g>
    <path d="M 20.2614182692308 2.0546875  C 21.4204727564103 3.42447916666666  22 5.07291666666666  22 7  L 22 11  C 22 11.2708333333333  21.916266025641 11.5052083333333  21.7487980769231 11.703125  C 21.5813301282051 11.9010416666667  21.3830128205128 12  21.1538461538462 12  L 20.3076923076923 12  C 20.0785256410256 12  19.8802083333333 11.9010416666667  19.7127403846154 11.703125  C 19.5452724358974 11.5052083333333  19.4615384615385 11.2708333333333  19.4615384615385 11  L 19.4615384615385 7  C 19.4615384615385 5.89583333333333  19.1310096153846 4.953125  18.4699519230769 4.171875  C 17.8088942307692 3.390625  17.0112179487179 3  16.0769230769231 3  C 15.1426282051282 3  14.3449519230769 3.390625  13.6838942307692 4.171875  C 13.0228365384615 4.953125  12.6923076923077 5.89583333333333  12.6923076923077 7  L 12.6923076923077 10  L 13.9615384615385 10  C 14.3141025641026 10  14.6137820512821 10.1458333333333  14.8605769230769 10.4375  C 15.1073717948718 10.7291666666667  15.2307692307692 11.0833333333333  15.2307692307692 11.5  L 15.2307692307692 20.5  C 15.2307692307692 20.9166666666667  15.1073717948718 21.2708333333333  14.8605769230769 21.5625  C 14.6137820512821 21.8541666666667  14.3141025641026 22  13.9615384615385 22  L 1.26923076923077 22  C 0.916666666666667 22  0.61698717948718 21.8541666666667  0.370192307692308 21.5625  C 0.123397435897436 21.2708333333333  0 20.9166666666667  0 20.5  L 0 11.5  C 0 11.0833333333333  0.123397435897436 10.7291666666667  0.370192307692308 10.4375  C 0.61698717948718 10.1458333333333  0.916666666666667 10  1.26923076923077 10  L 10.1538461538462 10  L 10.1538461538462 7  C 10.1538461538462 5.07291666666666  10.7333733974359 3.42447916666666  11.8924278846154 2.0546875  C 13.0514823717949 0.684895833333333  14.4463141025641 0  16.0769230769231 0  C 17.7075320512821 0  19.1023637820513 0.684895833333333  20.2614182692308 2.0546875  Z " fill-rule="nonzero" fill="#000000" stroke="none" />
  </g>
</svg>