<?xml version="1.0" encoding="utf-8"?>
<svg version="1.1" xmlns:xlink="http://www.w3.org/1999/xlink" width="300px" height="170px" xmlns="http://www.w3.org/2000/svg">
  <g transform="matrix(1 0 0 1 -63 -140 )">
    <path d="M 63 140  L 363 140  L 363 310  L 63 310  L 63 140  " fill-rule="nonzero" fill="#cccccc" stroke="none" />
    <path d="M 75 152  L 351 152  L 351 298  L 75 298  L 75 152  " fill-rule="nonzero" fill="#ffffff" stroke="none" />
    <path d="M 231.75 191  C 224.61 191  219 185.39  219 178.25  C 219 171.11  224.61 165.5  231.75 165.5  C 238.89 165.5  244.5 171.11  244.5 178.25  C 244.5 185.39  238.89 191  231.75 191  " fill-rule="nonzero" fill="#cccccc" stroke="none" />
    <path d="M 80 294  L 80 218.65  L 146.75 184.4  L 240.2 247.42  L 293.6 204.95  L 347 247.42  L 347 294  L 80 294  " fill-rule="nonzero" fill="#169bd5" stroke="none" />
  </g>
</svg>