<?xml version="1.0" encoding="utf-8"?>
<svg version="1.1" xmlns:xlink="http://www.w3.org/1999/xlink" width="201px" height="170px" xmlns="http://www.w3.org/2000/svg">
  <g transform="matrix(1 0 0 1 -117 -140 )">
    <path d="M 117 140  L 318 140  L 318 310  L 117 310  L 117 140  " fill-rule="nonzero" fill="#cccccc" stroke="none" />
    <path d="M 129 152  L 306 152  L 306 298  L 129 298  L 129 152  " fill-rule="nonzero" fill="#ffffff" stroke="none" />
    <path d="M 234.27 191  C 227.13 191  221.52 185.39  221.52 178.25  C 221.52 171.11  227.13 165.5  234.27 165.5  C 241.41 165.5  247.02 171.11  247.02 178.25  C 247.02 185.39  241.41 191  234.27 191  " fill-rule="nonzero" fill="#cccccc" stroke="none" />
    <path d="M 134 294  L 134 218.65  L 176 184.4  L 234.8 224.477611940299  L 268.4 204.95  L 302 224.477611940299  L 302 294  L 134 294  " fill-rule="nonzero" fill="#169bd5" stroke="none" />
  </g>
</svg>