<?xml version="1.0" encoding="utf-8"?>
<svg version="1.1" xmlns:xlink="http://www.w3.org/1999/xlink" width="300px" height="188px" xmlns="http://www.w3.org/2000/svg">
  <g transform="matrix(1 0 0 1 -59 -333 )">
    <path d="M 59 333  L 359 333  L 359 521  L 59 521  L 59 333  " fill-rule="nonzero" fill="#cccccc" stroke="none" />
    <path d="M 72 346  L 346 346  L 346 508  L 72 508  L 72 346  " fill-rule="nonzero" fill="#ffffff" stroke="none" />
    <path d="M 229.1 389.4  C 221.204 389.4  215 383.196  215 375.3  C 215 367.404  221.204 361.2  229.1 361.2  C 236.996 361.2  243.2 367.404  243.2 375.3  C 243.2 383.196  236.996 389.4  229.1 389.4  " fill-rule="nonzero" fill="#cccccc" stroke="none" />
    <path d="M 77 504  L 77 419.85  L 143.25 381.6  L 236 446.472  L 289 404.55  L 342 446.472  L 342 504  L 77 504  " fill-rule="nonzero" fill="#169bd5" stroke="none" />
  </g>
</svg>