<?xml version="1.0" encoding="utf-8"?>
<svg version="1.1" xmlns:xlink="http://www.w3.org/1999/xlink" width="7px" height="8px" xmlns="http://www.w3.org/2000/svg">
  <g transform="matrix(1 0 0 1 -143 -11 )">
    <path d="M 6.96022727272728 3.97384510869565  C 6.96022727272728 1.88145380434783  5.40815873579544 0.183084239130436  3.49254261363637 0.183084239130435  C 1.57692649147728 0.183084239130435  0.024857954545439 1.87975543478261  0.024857954545439 3.97384510869565  C 0.024857954545439 6.0679347826087  1.57692649147728 7.76460597826087  3.49254261363637 7.76460597826087  C 5.40815873579544 7.76460597826087  6.96022727272728 6.0679347826087  6.96022727272728 3.97384510869565  Z M 5.28231534090909 3.32167119565217  L 5.28231534090909 4.62601902173913  L 4.08913352272728 4.62601902173913  L 4.08913352272728 5.93036684782609  L 2.89595170454544 5.93036684782609  L 2.89595170454544 4.62601902173913  L 1.70276988636363 4.62601902173913  L 1.70276988636363 3.32167119565217  L 2.89595170454544 3.32167119565217  L 2.89595170454544 2.01732336956522  L 4.08913352272728 2.01732336956522  L 4.08913352272728 3.32167119565217  L 5.28231534090909 3.32167119565217  Z " fill-rule="nonzero" fill="#436379" stroke="none" transform="matrix(1 0 0 1 143 11 )" />
  </g>
</svg>