<?xml version="1.0" encoding="utf-8"?>
<svg version="1.1" xmlns:xlink="http://www.w3.org/1999/xlink" width="14px" height="14px" xmlns="http://www.w3.org/2000/svg">
  <g transform="matrix(1 0 0 1 -176 -8 )">
    <path d="M 10.0912332857909 9.56616789202009  C 10.0912332857909 9.70387231626282  10.0261927297505 9.83348662748456  9.91579176897324 9.91579176897321  C 9.72029327096885 10.1022580906265  9.41279439644185 10.1022580906265  9.2172958984375 9.91579176897321  L 6.98346248604909 7.68120648716518  L 4.74812532087054 9.91579176897321  C 4.55287955416907 10.1021629546561  4.24562710040686 10.1021629546561  4.05038133370536 9.91579176897321  C 3.86343642295958 9.72019418102729  3.86343642295958 9.41214160301288  4.05038133370536 9.21654401506696  L 6.28421473214286 6.98346248604911  L 4.05038133370536 4.74812532087054  C 3.86401014802246 4.55287955416905  3.86401014802246 4.24562710040685  4.05038133370536 4.05038133370536  C 4.24562710040686 3.86401014802247  4.55287955416907 3.86401014802247  4.74812532087054 4.05038133370536  L 6.98346248604909 6.28496661551339  L 9.2172958984375 4.05038133370536  C 9.41279439644185 3.86391501205208  9.72029327096885 3.86391501205208  9.91579176897324 4.05038133370536  C 10.1021629546561 4.24562710040685  10.1021629546561 4.55287955416905  9.91579176897324 4.74812532087054  L 7.68120648716518 6.98346248604911  L 9.91579176897324 9.21654401506696  C 10.0261927297505 9.29884915655562  10.0912332857909 9.42846346777735  10.0912332857909 9.56616789202009  Z M 6.99249190284334 0  C 6.98948209629856 0  6.98647229007096 0  6.98346248604909 0  C 6.98020205884183 0  6.97694162882738 0  6.973681198413 0  C 3.12222378680519 0  0 3.12222378680519  0 6.973681198413  C 0 6.97694162882886  0 6.98020205884035  0 6.98346248604911  C 0 6.98647229006936  0 6.98948209630017  0 6.99249190284335  C 0 10.8439493144512  3.12222480084887 13.9661724413478  6.97368221245665 13.9661724413478  C 6.97694230485649 13.9661724413478  6.98020239685539 13.9661701552804  6.98346248604909 13.9661655831473  C 6.98622101315797 13.9661688563085  6.98897954196374 13.9661704928895  6.99173807101457 13.9661704928895  C 10.8436107363415 13.9661704928895  13.9661704928895 10.8436107363416  13.9661704928895 6.99173807101454  C 13.9661704928895 6.98897954196376  13.9661688563085 6.98622101315799  13.9661655831473 6.98346248604911  C 13.9661701552804 6.98020239685537  13.9661724413478 6.9769423048565  13.9661724413478 6.97368221245666  C 13.9661724413478 3.12222480084885  10.8439493144512 0  6.99249190284334 0  Z " fill-rule="nonzero" fill="#eb7172" stroke="none" transform="matrix(1 0 0 1 176 8 )" />
  </g>
</svg>