<svg t="1571200660654" class="icon" viewBox="0 0 1024 1024" version="1.1" xmlns="http://www.w3.org/2000/svg" p-id="929" width="50" height="50"><path d="M89.268706 530.733176A414.599529 414.599529 0 0 0 503.567059 945.091765a414.599529 414.599529 0 0 0 414.238117-414.298353A414.599529 414.599529 0 0 0 503.567059 116.495059 414.599529 414.599529 0 0 0 89.268706 530.672941z m-59.151059 0C30.117647 269.312 242.567529 57.283765 503.567059 57.283765c261.421176 0 473.449412 212.449882 473.449412 473.449411 0 261.421176-212.449882 473.449412-473.449412 473.449412-261.421176 0-473.449412-212.449882-473.449412-473.449412z" fill="#36C7CB" p-id="930"></path><path d="M252.024471 554.405647c0-21.323294 17.468235-38.490353 38.972235-38.490353h425.140706c21.323294 0 38.972235 17.468235 38.972235 38.550588 0 21.263059-17.468235 38.430118-38.972235 38.430118H290.996706a38.912 38.912 0 0 1-38.972235-38.490353z" fill="#36C7CB" p-id="931"></path><path d="M503.567059 302.923294c21.323294 0 38.490353 17.468235 38.490353 38.912v425.140706c0 21.323294-17.468235 38.972235-38.490353 38.972235a38.731294 38.731294 0 0 1-38.490353-38.972235V341.835294c0-21.323294 17.468235-38.912 38.490353-38.912z" fill="#36C7CB" p-id="932"></path></svg>