<?xml version="1.0" encoding="utf-8"?>
<svg version="1.1" xmlns:xlink="http://www.w3.org/1999/xlink" width="10px" height="7px" xmlns="http://www.w3.org/2000/svg">
  <g transform="matrix(1 0 0 1 -10 -12 )">
    <path d="M 9.814453125 0.230902777777757  C 9.93815104166666 0.384837962962976  10 0.567129629629612  10 0.777777777777757  C 10 0.98842592592591  9.93815104166666 1.17071759259259  9.814453125 1.32465277777776  L 5.439453125 6.76909722222224  C 5.31575520833333 6.92303240740741  5.16927083333333 7  5 7  C 4.83072916666666 7  4.68424479166666 6.92303240740741  4.560546875 6.76909722222224  L 0.185546875 1.32465277777776  C 0.0618489583333357 1.17071759259259  0 0.98842592592591  0 0.777777777777757  C 0 0.567129629629612  0.0618489583333357 0.384837962962976  0.185546875 0.230902777777757  C 0.309244791666664 0.0769675925925881  0.455729166666664 0  0.625 0  L 9.375 0  C 9.54427083333333 0  9.69075520833333 0.0769675925925881  9.814453125 0.230902777777757  Z " fill-rule="nonzero" fill="#cccccc" stroke="none" transform="matrix(1 0 0 1 10 12 )" />
  </g>
</svg>