<svg t="1636189850609" class="icon" viewBox="0 0 1024 1024" version="1.1" xmlns="http://www.w3.org/2000/svg" p-id="37459" width="24" height="24"><path d="M628.908992 788.368392c-12.13733 0-23.716621-6.975477-29.017984-18.694278-7.394005-16.043597-0.279019-35.016894 15.764578-42.271389 89.146594-40.736785 146.903542-130.441417 146.903542-228.516621 0-138.53297-112.723706-251.117166-251.117166-251.117167s-251.117166 112.723706-251.117166 251.117167c0 97.935695 57.617439 187.640327 146.624523 228.516621 16.043597 7.394005 23.019074 26.227793 15.764577 42.271389-7.394005 16.043597-26.227793 23.019074-42.271389 15.764578-54.1297-24.832698-100.028338-64.313896-132.67357-114.118801-33.482289-51.2-51.33951-110.770572-51.339509-172.294278 0-84.124251 32.784741-163.226158 92.215804-222.79673 59.431063-59.431063 138.53297-92.215804 222.79673-92.215804s163.226158 32.784741 222.79673 92.215804c59.431063 59.431063 92.215804 138.53297 92.215804 222.79673 0 61.523706-17.717711 121.233787-51.33951 172.433788-32.784741 49.944414-78.683379 89.425613-132.813079 114.118801-4.464305 1.953134-8.92861 2.790191-13.392915 2.79019z" p-id="37460" fill="#3CDCD2"></path><path d="M669.924796 968.056676c-13.532425 0-26.088283-8.370572-30.971118-21.763488-6.13842-17.020163 2.650681-35.99346 19.810355-42.13188C829.244687 842.637602 943.782016 679.411444 943.782016 497.909537c0-238.142779-193.778747-431.782016-431.782016-431.782017-238.142779 0-431.782016 193.778747-431.782016 431.782017 0 181.362398 114.53733 344.588556 284.878474 406.251771 17.020163 6.13842 25.948774 24.972207 19.670844 42.13188-6.13842 17.020163-24.972207 25.948774-42.13188 19.670845-95.145504-34.458856-176.758583-96.40109-235.910626-179.130246-60.407629-84.682289-92.355313-184.571117-92.355314-288.784741 0-67.104087 13.113896-132.39455 39.062671-193.639237 25.111717-59.291553 60.965668-112.444687 106.585286-158.203814s98.912262-81.613079 158.203814-106.585287c61.384196-25.948774 126.53515-39.06267 193.639237-39.06267 67.104087 0 132.39455 13.113896 193.639238 39.06267 59.291553 25.111717 112.444687 60.965668 158.203814 106.585287 45.619619 45.619619 81.613079 98.912262 106.585286 158.203814 25.948774 61.384196 39.06267 126.53515 39.062671 193.639237 0 104.353134-31.947684 204.241962-92.494823 288.924251-29.157493 40.736785-64.034877 76.730245-103.934605 107.143324-40.318256 30.692098-84.821798 54.966757-132.255041 71.986921-3.348229 1.395095-7.114986 1.953134-10.742234 1.953134z" p-id="37461" fill="#3CDCD2"></path><path d="M512.697548 497.630518m-101.841962 0a101.841962 101.841962 0 1 0 203.683924 0 101.841962 101.841962 0 1 0-203.683924 0Z" p-id="37462" fill="#3CDCD2"></path><path d="M512.697548 1023.581471c-19.531335 0-35.295913-15.764578-35.295913-35.295912V739.121526c0-19.531335 15.764578-35.295913 35.295913-35.295913s35.295913 15.764578 35.295912 35.295913v249.164033c0.13951 19.531335-15.764578 35.295913-35.295912 35.295912z" p-id="37463" fill="#3CDCD2"></path></svg>