<?xml version="1.0" encoding="utf-8"?>
<svg version="1.1" xmlns:xlink="http://www.w3.org/1999/xlink" width="100px" height="50px" xmlns="http://www.w3.org/2000/svg">
  <g>
    <path d="M 0.5 3  A 2.5 2.5 0 0 1 3 0.5 L 97 0.5  A 2.5 2.5 0 0 1 99.5 3 L 99.5 47  A 2.5 2.5 0 0 1 97 49.5 L 3 49.5  A 2.5 2.5 0 0 1 0.5 47 L 0.5 3  Z " fill-rule="nonzero" fill="#000000" stroke="none" fill-opacity="0.2" />
    <path d="M 0.5 3  A 2.5 2.5 0 0 1 3 0.5 L 97 0.5  A 2.5 2.5 0 0 1 99.5 3 L 99.5 47  A 2.5 2.5 0 0 1 97 49.5 L 3 49.5  A 2.5 2.5 0 0 1 0.5 47 L 0.5 3  Z " stroke-width="1" stroke="#3cdcd2" fill="none" />
  </g>
</svg>