<?xml version="1.0" encoding="utf-8"?>
<svg version="1.1" xmlns:xlink="http://www.w3.org/1999/xlink" width="106px" height="56px" xmlns="http://www.w3.org/2000/svg">
  <defs>
    <filter x="-3px" y="-3px" width="106px" height="56px" filterUnits="userSpaceOnUse" id="filter37">
      <feOffset dx="0" dy="0" in="SourceAlpha" result="shadowOffsetInner" />
      <feGaussianBlur stdDeviation="1.5" in="shadowOffsetInner" result="shadowGaussian" />
      <feComposite in2="shadowGaussian" operator="atop" in="SourceAlpha" result="shadowComposite" />
      <feColorMatrix type="matrix" values="0 0 0 0 0  0 0 0 0 0.474509803921569  0 0 0 0 0.996078431372549  0 0 0 0.8 0  " in="shadowComposite" />
    </filter>
    <g id="widget38">
      <path d="M 0.5 3  A 2.5 2.5 0 0 1 3 0.5 L 97 0.5  A 2.5 2.5 0 0 1 99.5 3 L 99.5 47  A 2.5 2.5 0 0 1 97 49.5 L 3 49.5  A 2.5 2.5 0 0 1 0.5 47 L 0.5 3  Z " fill-rule="nonzero" fill="#000000" stroke="none" fill-opacity="0.2" />
      <path d="M 0.5 3  A 2.5 2.5 0 0 1 3 0.5 L 97 0.5  A 2.5 2.5 0 0 1 99.5 3 L 99.5 47  A 2.5 2.5 0 0 1 97 49.5 L 3 49.5  A 2.5 2.5 0 0 1 0.5 47 L 0.5 3  Z " stroke-width="1" stroke="#3cdcd2" fill="none" />
    </g>
  </defs>
  <g transform="matrix(1 0 0 1 3 3 )">
    <use xlink:href="#widget38" filter="url(#filter37)" />
    <use xlink:href="#widget38" />
  </g>
</svg>