<?xml version="1.0" encoding="utf-8"?>
<svg version="1.1" xmlns:xlink="http://www.w3.org/1999/xlink" width="386px" height="56px" xmlns="http://www.w3.org/2000/svg">
  <defs>
    <filter x="37px" y="237px" width="386px" height="56px" filterUnits="userSpaceOnUse" id="filter33">
      <feOffset dx="0" dy="0" in="SourceAlpha" result="shadowOffsetInner" />
      <feGaussianBlur stdDeviation="1.5" in="shadowOffsetInner" result="shadowGaussian" />
      <feComposite in2="shadowGaussian" operator="atop" in="SourceAlpha" result="shadowComposite" />
      <feColorMatrix type="matrix" values="0 0 0 0 0.235294117647059  0 0 0 0 0.862745098039216  0 0 0 0 0.823529411764706  0 0 0 1 0  " in="shadowComposite" />
    </filter>
    <g id="widget34">
      <path d="M 40.5 243  A 2.5 2.5 0 0 1 43 240.5 L 417 240.5  A 2.5 2.5 0 0 1 419.5 243 L 419.5 287  A 2.5 2.5 0 0 1 417 289.5 L 43 289.5  A 2.5 2.5 0 0 1 40.5 287 L 40.5 243  Z " fill-rule="nonzero" fill="#ffffff" stroke="none" fill-opacity="0" />
      <path d="M 40.5 243  A 2.5 2.5 0 0 1 43 240.5 L 417 240.5  A 2.5 2.5 0 0 1 419.5 243 L 419.5 287  A 2.5 2.5 0 0 1 417 289.5 L 43 289.5  A 2.5 2.5 0 0 1 40.5 287 L 40.5 243  Z " stroke-width="1" stroke="#3cdcd2" fill="none" />
    </g>
  </defs>
  <g transform="matrix(1 0 0 1 -37 -237 )">
    <use xlink:href="#widget34" filter="url(#filter33)" />
    <use xlink:href="#widget34" />
  </g>
</svg>