<?xml version="1.0" encoding="utf-8"?>
<svg version="1.1" xmlns:xlink="http://www.w3.org/1999/xlink" width="270px" height="50px" xmlns="http://www.w3.org/2000/svg">
  <g transform="matrix(1 0 0 1 -40 -380 )">
    <path d="M 41 383  A 2 2 0 0 1 43 381 L 307 381  A 2 2 0 0 1 309 383 L 309 427  A 2 2 0 0 1 307 429 L 43 429  A 2 2 0 0 1 41 427 L 41 383  Z " fill-rule="nonzero" fill="#ffffff" stroke="none" fill-opacity="0" />
    <path d="M 40.5 383  A 2.5 2.5 0 0 1 43 380.5 L 307 380.5  A 2.5 2.5 0 0 1 309.5 383 L 309.5 427  A 2.5 2.5 0 0 1 307 429.5 L 43 429.5  A 2.5 2.5 0 0 1 40.5 427 L 40.5 383  Z " stroke-width="1" stroke="#3cdcd2" fill="none" stroke-opacity="0.2" />
  </g>
</svg>