<?xml version="1.0" encoding="utf-8"?>
<svg version="1.1" xmlns:xlink="http://www.w3.org/1999/xlink" width="380px" height="50px" xmlns="http://www.w3.org/2000/svg">
  <g transform="matrix(1 0 0 1 -40 -240 )">
    <path d="M 40.5 243  A 2.5 2.5 0 0 1 43 240.5 L 417 240.5  A 2.5 2.5 0 0 1 419.5 243 L 419.5 287  A 2.5 2.5 0 0 1 417 289.5 L 43 289.5  A 2.5 2.5 0 0 1 40.5 287 L 40.5 243  Z " fill-rule="nonzero" fill="#ffffff" stroke="none" fill-opacity="0" />
    <path d="M 40.5 243  A 2.5 2.5 0 0 1 43 240.5 L 417 240.5  A 2.5 2.5 0 0 1 419.5 243 L 419.5 287  A 2.5 2.5 0 0 1 417 289.5 L 43 289.5  A 2.5 2.5 0 0 1 40.5 287 L 40.5 243  Z " stroke-width="1" stroke="#3cdcd2" fill="none" />
  </g>
</svg>