<?xml version="1.0" encoding="utf-8"?>
<svg version="1.1" xmlns:xlink="http://www.w3.org/1999/xlink" width="246px" height="46px" xmlns="http://www.w3.org/2000/svg">
  <defs>
    <filter x="719px" y="342px" width="246px" height="46px" filterUnits="userSpaceOnUse" id="filter41">
      <feOffset dx="0" dy="0" in="SourceAlpha" result="shadowOffsetInner" />
      <feGaussianBlur stdDeviation="1.5" in="shadowOffsetInner" result="shadowGaussian" />
      <feComposite in2="shadowGaussian" operator="atop" in="SourceAlpha" result="shadowComposite" />
      <feColorMatrix type="matrix" values="0 0 0 0 0  0 0 0 0 0.474509803921569  0 0 0 0 0.996078431372549  0 0 0 0.8 0  " in="shadowComposite" />
    </filter>
    <g id="widget42">
      <path d="M 722.5 348  A 2.5 2.5 0 0 1 725 345.5 L 959 345.5  A 2.5 2.5 0 0 1 961.5 348 L 961.5 382  A 2.5 2.5 0 0 1 959 384.5 L 725 384.5  A 2.5 2.5 0 0 1 722.5 382 L 722.5 348  Z " fill-rule="nonzero" fill="#ffffff" stroke="none" />
      <path d="M 722.5 348  A 2.5 2.5 0 0 1 725 345.5 L 959 345.5  A 2.5 2.5 0 0 1 961.5 348 L 961.5 382  A 2.5 2.5 0 0 1 959 384.5 L 725 384.5  A 2.5 2.5 0 0 1 722.5 382 L 722.5 348  Z " stroke-width="1" stroke="#0079fe" fill="none" />
    </g>
  </defs>
  <g transform="matrix(1 0 0 1 -719 -342 )">
    <use xlink:href="#widget42" filter="url(#filter41)" />
    <use xlink:href="#widget42" />
  </g>
</svg>