<?xml version="1.0" encoding="utf-8"?>
<svg version="1.1" xmlns:xlink="http://www.w3.org/1999/xlink" width="240px" height="40px" xmlns="http://www.w3.org/2000/svg">
  <g transform="matrix(1 0 0 1 -722 -345 )">
    <path d="M 723 348  A 2 2 0 0 1 725 346 L 959 346  A 2 2 0 0 1 961 348 L 961 382  A 2 2 0 0 1 959 384 L 725 384  A 2 2 0 0 1 723 382 L 723 348  Z " fill-rule="nonzero" fill="#ffffff" stroke="none" />
    <path d="M 722.5 348  A 2.5 2.5 0 0 1 725 345.5 L 959 345.5  A 2.5 2.5 0 0 1 961.5 348 L 961.5 382  A 2.5 2.5 0 0 1 959 384.5 L 725 384.5  A 2.5 2.5 0 0 1 722.5 382 L 722.5 348  Z " stroke-width="1" stroke="#cccccc" fill="none" stroke-opacity="0.698039215686274" />
  </g>
</svg>