<?xml version="1.0" encoding="utf-8"?>
<svg version="1.1" xmlns:xlink="http://www.w3.org/1999/xlink" width="78px" height="62px" xmlns="http://www.w3.org/2000/svg">
  <g transform="matrix(1 0 0 1 -201 -522 )">
    <path d="M 201 522  L 279 522  L 279 584  L 201 584  L 201 522  " fill-rule="nonzero" fill="#cccccc" stroke="none" />
    <path d="M 205 526  L 275 526  L 275 580  L 205 580  L 205 526  " fill-rule="nonzero" fill="#ffffff" stroke="none" />
    <path d="M 246.21 540.6  C 243.606 540.6  241.56 538.554  241.56 535.95  C 241.56 533.346  243.606 531.3  246.21 531.3  C 248.814 531.3  250.86 533.346  250.86 535.95  C 250.86 538.554  248.814 540.6  246.21 540.6  " fill-rule="nonzero" fill="#cccccc" stroke="none" />
    <path d="M 207 579  L 207 550.95  L 223.75 538.2  L 247.2 554.676923076923  L 260.6 545.85  L 274 554.676923076923  L 274 579  L 207 579  " fill-rule="nonzero" fill="#169bd5" stroke="none" />
  </g>
</svg>