<?xml version="1.0" encoding="utf-8"?>
<svg version="1.1" xmlns:xlink="http://www.w3.org/1999/xlink" width="252px" height="152px" xmlns="http://www.w3.org/2000/svg">
  <g transform="matrix(1 0 0 1 -90 -134 )">
    <path d="M 90 134  L 342 134  L 342 286  L 90 286  L 90 134  " fill-rule="nonzero" fill="#cccccc" stroke="none" />
    <path d="M 101 145  L 331 145  L 331 275  L 101 275  L 101 145  " fill-rule="nonzero" fill="#ffffff" stroke="none" />
    <path d="M 232.44 179.6  C 226.056 179.6  221.04 174.584  221.04 168.2  C 221.04 161.816  226.056 156.8  232.44 156.8  C 238.824 156.8  243.84 161.816  243.84 168.2  C 243.84 174.584  238.824 179.6  232.44 179.6  " fill-rule="nonzero" fill="#cccccc" stroke="none" />
    <path d="M 105 271  L 105 203.9  L 160.5 173.4  L 238.2 226.847619047619  L 282.6 191.7  L 327 226.847619047619  L 327 271  L 105 271  " fill-rule="nonzero" fill="#169bd5" stroke="none" />
  </g>
</svg>