<?xml version="1.0" encoding="utf-8"?>
<svg version="1.1" xmlns:xlink="http://www.w3.org/1999/xlink" width="11px" height="3px" xmlns="http://www.w3.org/2000/svg">
  <g transform="matrix(1 0 0 1 -400 -53 )">
    <path d="M 2.78125 0.21875  C 2.92708333333333 0.364583333333332  3 0.541666666666666  3 0.75  L 3 2.25  C 3 2.45833333333333  2.92708333333333 2.63541666666667  2.78125 2.78125  C 2.63541666666667 2.92708333333333  2.45833333333333 3  2.25 3  L 0.75 3  C 0.541666666666667 3  0.364583333333333 2.92708333333333  0.21875 2.78125  C 0.0729166666666667 2.63541666666667  0 2.45833333333333  0 2.25  L 0 0.75  C 0 0.541666666666666  0.0729166666666667 0.364583333333332  0.21875 0.21875  C 0.364583333333333 0.0729166666666661  0.541666666666667 0  0.75 0  L 2.25 0  C 2.45833333333333 0  2.63541666666667 0.0729166666666661  2.78125 0.21875  Z M 6.78125 0.21875  C 6.92708333333333 0.364583333333332  7 0.541666666666666  7 0.75  L 7 2.25  C 7 2.45833333333333  6.92708333333333 2.63541666666667  6.78125 2.78125  C 6.63541666666667 2.92708333333333  6.45833333333333 3  6.25 3  L 4.75 3  C 4.54166666666667 3  4.36458333333333 2.92708333333333  4.21875 2.78125  C 4.07291666666667 2.63541666666667  4 2.45833333333333  4 2.25  L 4 0.75  C 4 0.541666666666666  4.07291666666667 0.364583333333332  4.21875 0.21875  C 4.36458333333333 0.0729166666666661  4.54166666666667 0  4.75 0  L 6.25 0  C 6.45833333333333 0  6.63541666666667 0.0729166666666661  6.78125 0.21875  Z M 10.78125 0.21875  C 10.9270833333333 0.364583333333332  11 0.541666666666666  11 0.75  L 11 2.25  C 11 2.45833333333333  10.9270833333333 2.63541666666667  10.78125 2.78125  C 10.6354166666667 2.92708333333333  10.4583333333333 3  10.25 3  L 8.75 3  C 8.54166666666667 3  8.36458333333333 2.92708333333333  8.21875 2.78125  C 8.07291666666667 2.63541666666667  8 2.45833333333333  8 2.25  L 8 0.75  C 8 0.541666666666666  8.07291666666667 0.364583333333332  8.21875 0.21875  C 8.36458333333333 0.0729166666666661  8.54166666666667 0  8.75 0  L 10.25 0  C 10.4583333333333 0  10.6354166666667 0.0729166666666661  10.78125 0.21875  Z " fill-rule="nonzero" fill="#595151" stroke="none" transform="matrix(1 0 0 1 400 53 )" />
  </g>
</svg>