<?xml version="1.0" encoding="utf-8"?>
<svg version="1.1" xmlns:xlink="http://www.w3.org/1999/xlink" width="23px" height="7px" xmlns="http://www.w3.org/2000/svg">
  <defs>
    <mask fill="white" id="clip49">
      <path d="M 21.93580078125 2.746484375  C 22.969453125 2.340234375  22.969453125 1.675  21.941640625 1.26875  L 20.09041015625 0.5375  C 19.84513671875 0.441015624999999  19.56482421875 0.441015624999999  19.31955078125 0.5375  L 13.01251953125 3.020703125  C 12.1190234375 3.284765625  10.87513671875 3.284765625  9.981640625 3.020703125  L 3.674609375 0.537499999999998  C 3.4293359375 0.441015624999999  3.1490234375 0.441015624999999  2.90375 0.537499999999998  L 1.05251953125 1.26875  C 0.024707031250001 1.675  0.024707031250001 2.340234375  1.05251953125 2.746484375  L 9.69548828125 6.17421875  C 10.682421875 6.565234375  12.3058984375 6.565234375  13.29283203125 6.17421875  L 21.93580078125 2.746484375  Z " fill-rule="evenodd" />
    </mask>
  </defs>
  <g transform="matrix(1 0 0 1 -202 -20 )">
    <path d="M 21.93580078125 2.746484375  C 22.969453125 2.340234375  22.969453125 1.675  21.941640625 1.26875  L 20.09041015625 0.5375  C 19.84513671875 0.441015624999999  19.56482421875 0.441015624999999  19.31955078125 0.5375  L 13.01251953125 3.020703125  C 12.1190234375 3.284765625  10.87513671875 3.284765625  9.981640625 3.020703125  L 3.674609375 0.537499999999998  C 3.4293359375 0.441015624999999  3.1490234375 0.441015624999999  2.90375 0.537499999999998  L 1.05251953125 1.26875  C 0.024707031250001 1.675  0.024707031250001 2.340234375  1.05251953125 2.746484375  L 9.69548828125 6.17421875  C 10.682421875 6.565234375  12.3058984375 6.565234375  13.29283203125 6.17421875  L 21.93580078125 2.746484375  Z " fill-rule="nonzero" fill="#a0a0a1" stroke="none" transform="matrix(1 0 0 1 202 20 )" />
    <path d="M 21.93580078125 2.746484375  C 22.969453125 2.340234375  22.969453125 1.675  21.941640625 1.26875  L 20.09041015625 0.5375  C 19.84513671875 0.441015624999999  19.56482421875 0.441015624999999  19.31955078125 0.5375  L 13.01251953125 3.020703125  C 12.1190234375 3.284765625  10.87513671875 3.284765625  9.981640625 3.020703125  L 3.674609375 0.537499999999998  C 3.4293359375 0.441015624999999  3.1490234375 0.441015624999999  2.90375 0.537499999999998  L 1.05251953125 1.26875  C 0.024707031250001 1.675  0.024707031250001 2.340234375  1.05251953125 2.746484375  L 9.69548828125 6.17421875  C 10.682421875 6.565234375  12.3058984375 6.565234375  13.29283203125 6.17421875  L 21.93580078125 2.746484375  Z " stroke-width="8" stroke="#ffffff" fill="none" transform="matrix(1 0 0 1 202 20 )" mask="url(#clip49)" />
  </g>
</svg>