<?xml version="1.0" encoding="utf-8"?>
<svg version="1.1" xmlns:xlink="http://www.w3.org/1999/xlink" width="7px" height="6px" xmlns="http://www.w3.org/2000/svg">
  <defs>
    <mask fill="white" id="clip56">
      <path d="M 6.01516927083333 3.464453125  C 6.03294270833333 3.301953125  5.80188802083333 3.20546875  5.67154947916667 3.322265625  C 5.42272135416667 3.535546875  4.97838541666667 3.657421875  4.49850260416667 3.728515625  C 3.42024739583333 3.8859375  2.47825520833333 3.078515625  2.6619140625 2.154296875  C 2.74485677083333 1.74296875  2.88111979166667 1.362109375  3.12994791666667 1.15390625  L 3.13587239583333 1.148828125  C 3.27213541666667 1.03203125  3.1595703125 0.839062499999997  2.96998697916667 0.859375  C 2.38938802083333 0.920312499999998  1.82063802083333 1.14375  1.37630208333333 1.524609375  C 0.309895833333331 2.438671875  0.209179687499998 5.830859375  0.209179687499998 5.830859375  C 0.209179687499998 5.830859375  4.17265625 5.74453125  5.2390625 4.83046875  C 5.68932291666667 4.44453125  5.94407552083333 3.962109375  6.01516927083333 3.464453125  Z " fill-rule="evenodd" />
    </mask>
  </defs>
  <g transform="matrix(1 0 0 1 -121 -25 )">
    <path d="M 6.01516927083333 3.464453125  C 6.03294270833333 3.301953125  5.80188802083333 3.20546875  5.67154947916667 3.322265625  C 5.42272135416667 3.535546875  4.97838541666667 3.657421875  4.49850260416667 3.728515625  C 3.42024739583333 3.8859375  2.47825520833333 3.078515625  2.6619140625 2.154296875  C 2.74485677083333 1.74296875  2.88111979166667 1.362109375  3.12994791666667 1.15390625  L 3.13587239583333 1.148828125  C 3.27213541666667 1.03203125  3.1595703125 0.839062499999997  2.96998697916667 0.859375  C 2.38938802083333 0.920312499999998  1.82063802083333 1.14375  1.37630208333333 1.524609375  C 0.309895833333331 2.438671875  0.209179687499998 5.830859375  0.209179687499998 5.830859375  C 0.209179687499998 5.830859375  4.17265625 5.74453125  5.2390625 4.83046875  C 5.68932291666667 4.44453125  5.94407552083333 3.962109375  6.01516927083333 3.464453125  Z " fill-rule="nonzero" fill="#2391ff" stroke="none" transform="matrix(1 0 0 1 121 25 )" />
    <path d="M 6.01516927083333 3.464453125  C 6.03294270833333 3.301953125  5.80188802083333 3.20546875  5.67154947916667 3.322265625  C 5.42272135416667 3.535546875  4.97838541666667 3.657421875  4.49850260416667 3.728515625  C 3.42024739583333 3.8859375  2.47825520833333 3.078515625  2.6619140625 2.154296875  C 2.74485677083333 1.74296875  2.88111979166667 1.362109375  3.12994791666667 1.15390625  L 3.13587239583333 1.148828125  C 3.27213541666667 1.03203125  3.1595703125 0.839062499999997  2.96998697916667 0.859375  C 2.38938802083333 0.920312499999998  1.82063802083333 1.14375  1.37630208333333 1.524609375  C 0.309895833333331 2.438671875  0.209179687499998 5.830859375  0.209179687499998 5.830859375  C 0.209179687499998 5.830859375  4.17265625 5.74453125  5.2390625 4.83046875  C 5.68932291666667 4.44453125  5.94407552083333 3.962109375  6.01516927083333 3.464453125  Z " stroke-width="8" stroke="#ffffff" fill="none" transform="matrix(1 0 0 1 121 25 )" mask="url(#clip56)" />
  </g>
</svg>