<?xml version="1.0" encoding="utf-8"?>
<svg version="1.1" xmlns:xlink="http://www.w3.org/1999/xlink" width="23px" height="20px" xmlns="http://www.w3.org/2000/svg">
  <defs>
    <mask fill="white" id="clip48">
      <path d="M 21.941640625 5.465234375  C 22.969453125 5.058984375  22.969453125 4.39375  21.941640625 3.9875  L 13.2169140625 0.529296875  C 12.270859375 0.153515625  10.72330078125 0.153515625  9.77724609375 0.529296875  L 1.058359375 3.9875  C 0.0305468750000003 4.39375  0.0305468750000003 5.058984375  1.058359375 5.465234375  L 9.701328125 8.89296875  C 10.68826171875 9.283984375  12.31173828125 9.283984375  13.298671875 8.89296875  L 21.941640625 5.465234375  Z M 13.298671875 16.053125  C 12.31173828125 16.444140625  10.68826171875 16.444140625  9.701328125 16.053125  L 3.8731640625 13.742578125  C 3.627890625 13.64609375  3.34173828125 13.64609375  3.09646484375 13.742578125  L 1.058359375 14.55  C 0.0305468749999993 14.95625  0.0305468749999993 15.621484375  1.058359375 16.027734375  L 9.701328125 19.45546875  C 10.68826171875 19.846484375  12.31173828125 19.846484375  13.298671875 19.45546875  L 21.941640625 16.027734375  C 22.969453125 15.621484375  22.969453125 14.95625  21.941640625 14.55  L 19.90353515625 13.742578125  C 19.65826171875 13.64609375  19.372109375 13.64609375  19.1268359375 13.742578125  L 13.298671875 16.053125  Z " fill-rule="evenodd" />
    </mask>
  </defs>
  <g transform="matrix(1 0 0 1 -202 -12 )">
    <path d="M 21.941640625 5.465234375  C 22.969453125 5.058984375  22.969453125 4.39375  21.941640625 3.9875  L 13.2169140625 0.529296875  C 12.270859375 0.153515625  10.72330078125 0.153515625  9.77724609375 0.529296875  L 1.058359375 3.9875  C 0.0305468750000003 4.39375  0.0305468750000003 5.058984375  1.058359375 5.465234375  L 9.701328125 8.89296875  C 10.68826171875 9.283984375  12.31173828125 9.283984375  13.298671875 8.89296875  L 21.941640625 5.465234375  Z M 13.298671875 16.053125  C 12.31173828125 16.444140625  10.68826171875 16.444140625  9.701328125 16.053125  L 3.8731640625 13.742578125  C 3.627890625 13.64609375  3.34173828125 13.64609375  3.09646484375 13.742578125  L 1.058359375 14.55  C 0.0305468749999993 14.95625  0.0305468749999993 15.621484375  1.058359375 16.027734375  L 9.701328125 19.45546875  C 10.68826171875 19.846484375  12.31173828125 19.846484375  13.298671875 19.45546875  L 21.941640625 16.027734375  C 22.969453125 15.621484375  22.969453125 14.95625  21.941640625 14.55  L 19.90353515625 13.742578125  C 19.65826171875 13.64609375  19.372109375 13.64609375  19.1268359375 13.742578125  L 13.298671875 16.053125  Z " fill-rule="nonzero" fill="#a0a0a1" stroke="none" transform="matrix(1 0 0 1 202 12 )" />
    <path d="M 21.941640625 5.465234375  C 22.969453125 5.058984375  22.969453125 4.39375  21.941640625 3.9875  L 13.2169140625 0.529296875  C 12.270859375 0.153515625  10.72330078125 0.153515625  9.77724609375 0.529296875  L 1.058359375 3.9875  C 0.0305468750000003 4.39375  0.0305468750000003 5.058984375  1.058359375 5.465234375  L 9.701328125 8.89296875  C 10.68826171875 9.283984375  12.31173828125 9.283984375  13.298671875 8.89296875  L 21.941640625 5.465234375  Z " stroke-width="8" stroke="#ffffff" fill="none" transform="matrix(1 0 0 1 202 12 )" mask="url(#clip48)" />
    <path d="M 13.298671875 16.053125  C 12.31173828125 16.444140625  10.68826171875 16.444140625  9.701328125 16.053125  L 3.8731640625 13.742578125  C 3.627890625 13.64609375  3.34173828125 13.64609375  3.09646484375 13.742578125  L 1.058359375 14.55  C 0.0305468749999993 14.95625  0.0305468749999993 15.621484375  1.058359375 16.027734375  L 9.701328125 19.45546875  C 10.68826171875 19.846484375  12.31173828125 19.846484375  13.298671875 19.45546875  L 21.941640625 16.027734375  C 22.969453125 15.621484375  22.969453125 14.95625  21.941640625 14.55  L 19.90353515625 13.742578125  C 19.65826171875 13.64609375  19.372109375 13.64609375  19.1268359375 13.742578125  L 13.298671875 16.053125  Z " stroke-width="8" stroke="#ffffff" fill="none" transform="matrix(1 0 0 1 202 12 )" mask="url(#clip48)" />
  </g>
</svg>