<?xml version="1.0" encoding="utf-8"?>
<svg version="1.1" xmlns:xlink="http://www.w3.org/1999/xlink" width="16px" height="18px" xmlns="http://www.w3.org/2000/svg">
  <defs>
    <mask fill="white" id="clip54">
      <path d="M 15.4285714285714 6.15625  C 15.4285714285714 5.4859375  14.8017857142857 4.9375  14.0357142857143 5  L 1.96428571428571 5  C 1.19821428571429 4.9375  0.571428571428571 5.4859375  0.571428571428571 6.15625  L 0.571428571428571 15.90625  C 0.571428571428571 16.5765625  1.19821428571429 17.125  1.96428571428571 17.125  L 14.0357142857143 17.125  C 14.8017857142857 17.125  15.4285714285714 16.5765625  15.4285714285714 15.90625  L 15.4285714285714 6.15625  Z M 0.571428571428571 1.5859375  C 0.571428571428571 1.976953125  0.937053571428572 2.296875  1.38392857142857 2.296875  L 7.1875 2.296875  C 7.634375 2.296875  8 1.976953125  8 1.5859375  C 8 1.194921875  7.634375 0.875  7.1875 0.875  L 1.38392857142857 0.875  C 0.937053571428572 0.875  0.571428571428571 1.194921875  0.571428571428571 1.5859375  Z " fill-rule="evenodd" />
    </mask>
  </defs>
  <g transform="matrix(1 0 0 1 -37 -13 )">
    <path d="M 15.4285714285714 6.15625  C 15.4285714285714 5.4859375  14.8017857142857 4.9375  14.0357142857143 5  L 1.96428571428571 5  C 1.19821428571429 4.9375  0.571428571428571 5.4859375  0.571428571428571 6.15625  L 0.571428571428571 15.90625  C 0.571428571428571 16.5765625  1.19821428571429 17.125  1.96428571428571 17.125  L 14.0357142857143 17.125  C 14.8017857142857 17.125  15.4285714285714 16.5765625  15.4285714285714 15.90625  L 15.4285714285714 6.15625  Z M 0.571428571428571 1.5859375  C 0.571428571428571 1.976953125  0.937053571428572 2.296875  1.38392857142857 2.296875  L 7.1875 2.296875  C 7.634375 2.296875  8 1.976953125  8 1.5859375  C 8 1.194921875  7.634375 0.875  7.1875 0.875  L 1.38392857142857 0.875  C 0.937053571428572 0.875  0.571428571428571 1.194921875  0.571428571428571 1.5859375  Z " fill-rule="nonzero" fill="#8c8c8d" stroke="none" transform="matrix(1 0 0 1 37 13 )" />
    <path d="M 15.4285714285714 6.15625  C 15.4285714285714 5.4859375  14.8017857142857 4.9375  14.0357142857143 5  L 1.96428571428571 5  C 1.19821428571429 4.9375  0.571428571428571 5.4859375  0.571428571428571 6.15625  L 0.571428571428571 15.90625  C 0.571428571428571 16.5765625  1.19821428571429 17.125  1.96428571428571 17.125  L 14.0357142857143 17.125  C 14.8017857142857 17.125  15.4285714285714 16.5765625  15.4285714285714 15.90625  L 15.4285714285714 6.15625  Z " stroke-width="8" stroke="#ffffff" fill="none" transform="matrix(1 0 0 1 37 13 )" mask="url(#clip54)" />
    <path d="M 0.571428571428571 1.5859375  C 0.571428571428571 1.976953125  0.937053571428572 2.296875  1.38392857142857 2.296875  L 7.1875 2.296875  C 7.634375 2.296875  8 1.976953125  8 1.5859375  C 8 1.194921875  7.634375 0.875  7.1875 0.875  L 1.38392857142857 0.875  C 0.937053571428572 0.875  0.571428571428571 1.194921875  0.571428571428571 1.5859375  Z " stroke-width="8" stroke="#ffffff" fill="none" transform="matrix(1 0 0 1 37 13 )" mask="url(#clip54)" />
  </g>
</svg>