<?xml version="1.0" encoding="utf-8"?>
<svg version="1.1" xmlns:xlink="http://www.w3.org/1999/xlink" width="23px" height="20px" xmlns="http://www.w3.org/2000/svg">
  <defs>
    <mask fill="white" id="clip52">
      <path d="M 22.41466796875 19.521484375  C 22.80009765625 19.2015625  22.81177734375 18.6734375  22.44970703125 18.33828125  L 16.21275390625 12.8640625  C 17.43328125 11.53359375  18.1691015625 9.84765625  18.1691015625 8.014453125  C 18.1691015625 3.7234375  14.16880859375 0.244921874999999  9.22830078125 0.244921874999999  C 4.28779296875 0.244921874999999  0.2875 3.728515625  0.2875 8.01953125  C 0.2875 12.310546875  4.28779296875 15.7890625  9.22830078125 15.7890625  C 11.36568359375 15.7890625  13.32203125 15.1390625  14.86375 14.05234375  L 21.05982421875 19.491015625  C 21.24669921875 19.663671875  21.50365234375 19.75  21.754765625 19.75  C 21.99419921875 19.75  22.2336328125 19.673828125  22.41466796875 19.521484375  Z M 14.19216796875 12.330859375  C 12.8665234375 13.48359375  11.102890625 14.118359375  9.22830078125 14.118359375  C 7.3537109375 14.118359375  5.590078125 13.48359375  4.26443359375 12.330859375  C 2.9387890625 11.178125  2.20880859375 9.64453125  2.20880859375 8.01953125  C 2.20880859375 6.389453125  2.9387890625 4.855859375  4.26443359375 3.708203125  C 5.590078125 2.55546875  7.3537109375 1.920703125  9.22830078125 1.920703125  C 11.102890625 1.920703125  12.8665234375 2.55546875  14.19216796875 3.708203125  C 15.5178125 4.8609375  16.24779296875 6.39453125  16.24779296875 8.01953125  C 16.24779296875 9.649609375  15.5178125 11.183203125  14.19216796875 12.330859375  Z " fill-rule="evenodd" />
    </mask>
  </defs>
  <g transform="matrix(1 0 0 1 -375 -12 )">
    <path d="M 22.41466796875 19.521484375  C 22.80009765625 19.2015625  22.81177734375 18.6734375  22.44970703125 18.33828125  L 16.21275390625 12.8640625  C 17.43328125 11.53359375  18.1691015625 9.84765625  18.1691015625 8.014453125  C 18.1691015625 3.7234375  14.16880859375 0.244921874999999  9.22830078125 0.244921874999999  C 4.28779296875 0.244921874999999  0.2875 3.728515625  0.2875 8.01953125  C 0.2875 12.310546875  4.28779296875 15.7890625  9.22830078125 15.7890625  C 11.36568359375 15.7890625  13.32203125 15.1390625  14.86375 14.05234375  L 21.05982421875 19.491015625  C 21.24669921875 19.663671875  21.50365234375 19.75  21.754765625 19.75  C 21.99419921875 19.75  22.2336328125 19.673828125  22.41466796875 19.521484375  Z M 14.19216796875 12.330859375  C 12.8665234375 13.48359375  11.102890625 14.118359375  9.22830078125 14.118359375  C 7.3537109375 14.118359375  5.590078125 13.48359375  4.26443359375 12.330859375  C 2.9387890625 11.178125  2.20880859375 9.64453125  2.20880859375 8.01953125  C 2.20880859375 6.389453125  2.9387890625 4.855859375  4.26443359375 3.708203125  C 5.590078125 2.55546875  7.3537109375 1.920703125  9.22830078125 1.920703125  C 11.102890625 1.920703125  12.8665234375 2.55546875  14.19216796875 3.708203125  C 15.5178125 4.8609375  16.24779296875 6.39453125  16.24779296875 8.01953125  C 16.24779296875 9.649609375  15.5178125 11.183203125  14.19216796875 12.330859375  Z " fill-rule="nonzero" fill="#a0a0a1" stroke="none" transform="matrix(1 0 0 1 375 12 )" />
    <path d="M 22.41466796875 19.521484375  C 22.80009765625 19.2015625  22.81177734375 18.6734375  22.44970703125 18.33828125  L 16.21275390625 12.8640625  C 17.43328125 11.53359375  18.1691015625 9.84765625  18.1691015625 8.014453125  C 18.1691015625 3.7234375  14.16880859375 0.244921874999999  9.22830078125 0.244921874999999  C 4.28779296875 0.244921874999999  0.2875 3.728515625  0.2875 8.01953125  C 0.2875 12.310546875  4.28779296875 15.7890625  9.22830078125 15.7890625  C 11.36568359375 15.7890625  13.32203125 15.1390625  14.86375 14.05234375  L 21.05982421875 19.491015625  C 21.24669921875 19.663671875  21.50365234375 19.75  21.754765625 19.75  C 21.99419921875 19.75  22.2336328125 19.673828125  22.41466796875 19.521484375  Z " stroke-width="8" stroke="#ffffff" fill="none" transform="matrix(1 0 0 1 375 12 )" mask="url(#clip52)" />
    <path d="M 14.19216796875 12.330859375  C 12.8665234375 13.48359375  11.102890625 14.118359375  9.22830078125 14.118359375  C 7.3537109375 14.118359375  5.590078125 13.48359375  4.26443359375 12.330859375  C 2.9387890625 11.178125  2.20880859375 9.64453125  2.20880859375 8.01953125  C 2.20880859375 6.389453125  2.9387890625 4.855859375  4.26443359375 3.708203125  C 5.590078125 2.55546875  7.3537109375 1.920703125  9.22830078125 1.920703125  C 11.102890625 1.920703125  12.8665234375 2.55546875  14.19216796875 3.708203125  C 15.5178125 4.8609375  16.24779296875 6.39453125  16.24779296875 8.01953125  C 16.24779296875 9.649609375  15.5178125 11.183203125  14.19216796875 12.330859375  Z " stroke-width="8" stroke="#ffffff" fill="none" transform="matrix(1 0 0 1 375 12 )" mask="url(#clip52)" />
  </g>
</svg>