<?xml version="1.0" encoding="utf-8"?>
<svg version="1.1" xmlns:xlink="http://www.w3.org/1999/xlink" width="25px" height="22px" xmlns="http://www.w3.org/2000/svg">
  <defs>
    <mask fill="white" id="clip59">
      <path d="M 18.466796875 13.315625  C 22.4138849431818 9.8625  25.1318359375 3.621484375  24.3758877840909 0.721875  C 24.3528053977273 0.635546875  24.2835582386364 0.56953125  24.1854580965909 0.54921875  C 21.0462535511364 -0.126171875  13.7926136363636 2.280859375  9.86283735795455 5.7390625  C 9.09534801136364 6.414453125  8.46635298295455 7.0796875  7.95276988636364 7.724609375  C 6.74094460227273 7.628125  5.52911931818182 7.709375  4.49618252840909 8.10546875  C 1.58203125 9.2328125  0.733753551136364 12.178125  0.497159090909092 13.442578125  C 0.439453125000001 13.7421875  0.722212357954546 14.001171875  1.06267755681818 13.970703125  L 5.74263139204545 13.51875  C 5.74840198863636 13.91484375  5.77725497159091 14.2296875  5.80610795454545 14.448046875  C 5.82919034090909 14.661328125  5.93883167613636 14.859375  6.11194957386364 15.01171875  L 7.92391690340909 16.60625  C 8.09703480113637 16.75859375  8.32208806818182 16.855078125  8.564453125 16.875390625  C 8.81258877840909 16.90078125  9.17036576704546 16.926171875  9.61470170454546 16.93125  L 9.10111860795455 21.04453125  C 9.06649502840909 21.344140625  9.36079545454545 21.59296875  9.70126065340909 21.5421875  C 11.1381392045455 21.3390625  14.4908558238636 20.592578125  15.7661576704545 18.028125  C 16.2162642045455 17.119140625  16.30859375 16.0578125  16.2047230113636 14.996484375  C 16.9375887784091 14.54453125  17.6993075284091 13.991015625  18.466796875 13.315625  Z M 18.4437144886364 8.841796875  C 17.4800248579546 9.68984375  15.9219637784091 9.68984375  14.9582741477273 8.841796875  C 13.9945845170455 7.99375  13.9945845170455 6.62265625  14.9582741477273 5.774609375  C 15.9219637784091 4.9265625  17.4800248579546 4.9265625  18.4437144886364 5.774609375  C 19.4074041193182 6.62265625  19.4074041193182 7.99375  18.4437144886364 8.841796875  Z " fill-rule="evenodd" />
    </mask>
  </defs>
  <g transform="matrix(1 0 0 1 -119 -11 )">
    <path d="M 18.466796875 13.315625  C 22.4138849431818 9.8625  25.1318359375 3.621484375  24.3758877840909 0.721875  C 24.3528053977273 0.635546875  24.2835582386364 0.56953125  24.1854580965909 0.54921875  C 21.0462535511364 -0.126171875  13.7926136363636 2.280859375  9.86283735795455 5.7390625  C 9.09534801136364 6.414453125  8.46635298295455 7.0796875  7.95276988636364 7.724609375  C 6.74094460227273 7.628125  5.52911931818182 7.709375  4.49618252840909 8.10546875  C 1.58203125 9.2328125  0.733753551136364 12.178125  0.497159090909092 13.442578125  C 0.439453125000001 13.7421875  0.722212357954546 14.001171875  1.06267755681818 13.970703125  L 5.74263139204545 13.51875  C 5.74840198863636 13.91484375  5.77725497159091 14.2296875  5.80610795454545 14.448046875  C 5.82919034090909 14.661328125  5.93883167613636 14.859375  6.11194957386364 15.01171875  L 7.92391690340909 16.60625  C 8.09703480113637 16.75859375  8.32208806818182 16.855078125  8.564453125 16.875390625  C 8.81258877840909 16.90078125  9.17036576704546 16.926171875  9.61470170454546 16.93125  L 9.10111860795455 21.04453125  C 9.06649502840909 21.344140625  9.36079545454545 21.59296875  9.70126065340909 21.5421875  C 11.1381392045455 21.3390625  14.4908558238636 20.592578125  15.7661576704545 18.028125  C 16.2162642045455 17.119140625  16.30859375 16.0578125  16.2047230113636 14.996484375  C 16.9375887784091 14.54453125  17.6993075284091 13.991015625  18.466796875 13.315625  Z M 18.4437144886364 8.841796875  C 17.4800248579546 9.68984375  15.9219637784091 9.68984375  14.9582741477273 8.841796875  C 13.9945845170455 7.99375  13.9945845170455 6.62265625  14.9582741477273 5.774609375  C 15.9219637784091 4.9265625  17.4800248579546 4.9265625  18.4437144886364 5.774609375  C 19.4074041193182 6.62265625  19.4074041193182 7.99375  18.4437144886364 8.841796875  Z " fill-rule="nonzero" fill="#8c8c8d" stroke="none" transform="matrix(1 0 0 1 119 11 )" />
    <path d="M 18.466796875 13.315625  C 22.4138849431818 9.8625  25.1318359375 3.621484375  24.3758877840909 0.721875  C 24.3528053977273 0.635546875  24.2835582386364 0.56953125  24.1854580965909 0.54921875  C 21.0462535511364 -0.126171875  13.7926136363636 2.280859375  9.86283735795455 5.7390625  C 9.09534801136364 6.414453125  8.46635298295455 7.0796875  7.95276988636364 7.724609375  C 6.74094460227273 7.628125  5.52911931818182 7.709375  4.49618252840909 8.10546875  C 1.58203125 9.2328125  0.733753551136364 12.178125  0.497159090909092 13.442578125  C 0.439453125000001 13.7421875  0.722212357954546 14.001171875  1.06267755681818 13.970703125  L 5.74263139204545 13.51875  C 5.74840198863636 13.91484375  5.77725497159091 14.2296875  5.80610795454545 14.448046875  C 5.82919034090909 14.661328125  5.93883167613636 14.859375  6.11194957386364 15.01171875  L 7.92391690340909 16.60625  C 8.09703480113637 16.75859375  8.32208806818182 16.855078125  8.564453125 16.875390625  C 8.81258877840909 16.90078125  9.17036576704546 16.926171875  9.61470170454546 16.93125  L 9.10111860795455 21.04453125  C 9.06649502840909 21.344140625  9.36079545454545 21.59296875  9.70126065340909 21.5421875  C 11.1381392045455 21.3390625  14.4908558238636 20.592578125  15.7661576704545 18.028125  C 16.2162642045455 17.119140625  16.30859375 16.0578125  16.2047230113636 14.996484375  C 16.9375887784091 14.54453125  17.6993075284091 13.991015625  18.466796875 13.315625  Z " stroke-width="8" stroke="#ffffff" fill="none" transform="matrix(1 0 0 1 119 11 )" mask="url(#clip59)" />
    <path d="M 18.4437144886364 8.841796875  C 17.4800248579546 9.68984375  15.9219637784091 9.68984375  14.9582741477273 8.841796875  C 13.9945845170455 7.99375  13.9945845170455 6.62265625  14.9582741477273 5.774609375  C 15.9219637784091 4.9265625  17.4800248579546 4.9265625  18.4437144886364 5.774609375  C 19.4074041193182 6.62265625  19.4074041193182 7.99375  18.4437144886364 8.841796875  Z " stroke-width="8" stroke="#ffffff" fill="none" transform="matrix(1 0 0 1 119 11 )" mask="url(#clip59)" />
  </g>
</svg>