<?xml version="1.0" encoding="utf-8"?>
<svg version="1.1" xmlns:xlink="http://www.w3.org/1999/xlink" width="21px" height="22px" xmlns="http://www.w3.org/2000/svg">
  <defs>
    <mask fill="white" id="clip61">
      <path d="M 19.9791666666667 7.34375  C 19.9791666666667 6.2265625  18.9127604166667 5.3125  17.609375 5.3125  L 11.2701822916667 5.3125  L 11.2701822916667 14.448046875  L 14.1080078125 12.051171875  C 14.41015625 11.797265625  14.8959635416667 11.797265625  15.1981119791667 12.05625  C 15.4943359375 12.315234375  15.4943359375 12.731640625  15.1921875 12.990625  L 11.0450520833333 16.49453125  C 10.8969401041667 16.61640625  10.7014322916667 16.682421875  10.5059244791667 16.682421875  C 10.4052083333333 16.682421875  10.3044921875 16.6671875  10.2097005208333 16.631640625  C 10.1208333333333 16.601171875  10.037890625 16.550390625  9.96679687499999 16.49453125  L 5.81966145833333 12.990625  C 5.51751302083333 12.73671875  5.51158854166666 12.315234375  5.81373697916666 12.05625  C 6.1099609375 11.797265625  6.60169270833333 11.7921875  6.90384114583333 12.051171875  L 9.74166666666666 14.448046875  L 9.74166666666666 5.3125  L 3.390625 5.3125  C 2.08723958333333 5.3125  1.02083333333333 6.2265625  1.02083333333333 7.34375  L 1.02083333333333 19.53125  C 1.02083333333333 20.6484375  2.08723958333333 21.5625  3.390625 21.5625  L 17.609375 21.5625  C 18.9127604166667 21.5625  19.9791666666667 20.6484375  19.9791666666667 19.53125  L 19.9791666666667 7.34375  Z M 11.2701822916667 5.3125  L 11.2701822916667 1.09765625  C 11.2701822916667 0.73203125  10.9265625 0.4375  10.5 0.4375  C 10.0734375 0.4375  9.72981770833333 0.73203125  9.72981770833333 1.09765625  L 9.72981770833333 5.3125  L 11.2701822916667 5.3125  Z " fill-rule="evenodd" />
    </mask>
  </defs>
  <g transform="matrix(1 0 0 1 -291 -10 )">
    <path d="M 19.9791666666667 7.34375  C 19.9791666666667 6.2265625  18.9127604166667 5.3125  17.609375 5.3125  L 11.2701822916667 5.3125  L 11.2701822916667 14.448046875  L 14.1080078125 12.051171875  C 14.41015625 11.797265625  14.8959635416667 11.797265625  15.1981119791667 12.05625  C 15.4943359375 12.315234375  15.4943359375 12.731640625  15.1921875 12.990625  L 11.0450520833333 16.49453125  C 10.8969401041667 16.61640625  10.7014322916667 16.682421875  10.5059244791667 16.682421875  C 10.4052083333333 16.682421875  10.3044921875 16.6671875  10.2097005208333 16.631640625  C 10.1208333333333 16.601171875  10.037890625 16.550390625  9.96679687499999 16.49453125  L 5.81966145833333 12.990625  C 5.51751302083333 12.73671875  5.51158854166666 12.315234375  5.81373697916666 12.05625  C 6.1099609375 11.797265625  6.60169270833333 11.7921875  6.90384114583333 12.051171875  L 9.74166666666666 14.448046875  L 9.74166666666666 5.3125  L 3.390625 5.3125  C 2.08723958333333 5.3125  1.02083333333333 6.2265625  1.02083333333333 7.34375  L 1.02083333333333 19.53125  C 1.02083333333333 20.6484375  2.08723958333333 21.5625  3.390625 21.5625  L 17.609375 21.5625  C 18.9127604166667 21.5625  19.9791666666667 20.6484375  19.9791666666667 19.53125  L 19.9791666666667 7.34375  Z M 11.2701822916667 5.3125  L 11.2701822916667 1.09765625  C 11.2701822916667 0.73203125  10.9265625 0.4375  10.5 0.4375  C 10.0734375 0.4375  9.72981770833333 0.73203125  9.72981770833333 1.09765625  L 9.72981770833333 5.3125  L 11.2701822916667 5.3125  Z " fill-rule="nonzero" fill="#2391ff" stroke="none" transform="matrix(1 0 0 1 291 10 )" />
    <path d="M 19.9791666666667 7.34375  C 19.9791666666667 6.2265625  18.9127604166667 5.3125  17.609375 5.3125  L 11.2701822916667 5.3125  L 11.2701822916667 14.448046875  L 14.1080078125 12.051171875  C 14.41015625 11.797265625  14.8959635416667 11.797265625  15.1981119791667 12.05625  C 15.4943359375 12.315234375  15.4943359375 12.731640625  15.1921875 12.990625  L 11.0450520833333 16.49453125  C 10.8969401041667 16.61640625  10.7014322916667 16.682421875  10.5059244791667 16.682421875  C 10.4052083333333 16.682421875  10.3044921875 16.6671875  10.2097005208333 16.631640625  C 10.1208333333333 16.601171875  10.037890625 16.550390625  9.96679687499999 16.49453125  L 5.81966145833333 12.990625  C 5.51751302083333 12.73671875  5.51158854166666 12.315234375  5.81373697916666 12.05625  C 6.1099609375 11.797265625  6.60169270833333 11.7921875  6.90384114583333 12.051171875  L 9.74166666666666 14.448046875  L 9.74166666666666 5.3125  L 3.390625 5.3125  C 2.08723958333333 5.3125  1.02083333333333 6.2265625  1.02083333333333 7.34375  L 1.02083333333333 19.53125  C 1.02083333333333 20.6484375  2.08723958333333 21.5625  3.390625 21.5625  L 17.609375 21.5625  C 18.9127604166667 21.5625  19.9791666666667 20.6484375  19.9791666666667 19.53125  L 19.9791666666667 7.34375  Z " stroke-width="8" stroke="#ffffff" fill="none" transform="matrix(1 0 0 1 291 10 )" mask="url(#clip61)" />
    <path d="M 11.2701822916667 5.3125  L 11.2701822916667 1.09765625  C 11.2701822916667 0.73203125  10.9265625 0.4375  10.5 0.4375  C 10.0734375 0.4375  9.72981770833333 0.73203125  9.72981770833333 1.09765625  L 9.72981770833333 5.3125  L 11.2701822916667 5.3125  Z " stroke-width="8" stroke="#ffffff" fill="none" transform="matrix(1 0 0 1 291 10 )" mask="url(#clip61)" />
  </g>
</svg>