<?xml version="1.0" encoding="utf-8"?>
<svg version="1.1" xmlns:xlink="http://www.w3.org/1999/xlink" width="23px" height="24px" xmlns="http://www.w3.org/2000/svg">
  <defs>
    <mask fill="white" id="clip46">
      <path d="M 22.7125 3.671875  C 22.7125 1.991015625  21.14158203125 0.625  19.20859375 0.625  L 3.79140625 0.625  C 1.85841796875 0.625  0.2875 1.991015625  0.2875 3.671875  L 0.2875 20.328125  C 0.2875 22.008984375  1.85841796875 23.375  3.79140625 23.375  L 19.20859375 23.375  C 21.14158203125 23.375  22.7125 22.008984375  22.7125 20.328125  L 22.7125 3.671875  Z M 21.07734375 3.671875  L 21.07734375 20.328125  C 21.07734375 21.221875  20.23640625 21.953125  19.20859375 21.953125  L 3.79140625 21.953125  C 2.76359375 21.953125  1.92265625 21.221875  1.92265625 20.328125  L 1.92265625 3.671875  C 1.92265625 2.778125  2.76359375 2.046875  3.79140625 2.046875  L 19.20859375 2.046875  C 20.23640625 2.046875  21.07734375 2.778125  21.07734375 3.671875  Z " fill-rule="evenodd" />
    </mask>
  </defs>
  <g transform="matrix(1 0 0 1 -33 -10 )">
    <path d="M 22.7125 3.671875  C 22.7125 1.991015625  21.14158203125 0.625  19.20859375 0.625  L 3.79140625 0.625  C 1.85841796875 0.625  0.2875 1.991015625  0.2875 3.671875  L 0.2875 20.328125  C 0.2875 22.008984375  1.85841796875 23.375  3.79140625 23.375  L 19.20859375 23.375  C 21.14158203125 23.375  22.7125 22.008984375  22.7125 20.328125  L 22.7125 3.671875  Z M 21.07734375 3.671875  L 21.07734375 20.328125  C 21.07734375 21.221875  20.23640625 21.953125  19.20859375 21.953125  L 3.79140625 21.953125  C 2.76359375 21.953125  1.92265625 21.221875  1.92265625 20.328125  L 1.92265625 3.671875  C 1.92265625 2.778125  2.76359375 2.046875  3.79140625 2.046875  L 19.20859375 2.046875  C 20.23640625 2.046875  21.07734375 2.778125  21.07734375 3.671875  Z " fill-rule="nonzero" fill="#0079fe" stroke="none" transform="matrix(1 0 0 1 33 10 )" />
    <path d="M 22.7125 3.671875  C 22.7125 1.991015625  21.14158203125 0.625  19.20859375 0.625  L 3.79140625 0.625  C 1.85841796875 0.625  0.2875 1.991015625  0.2875 3.671875  L 0.2875 20.328125  C 0.2875 22.008984375  1.85841796875 23.375  3.79140625 23.375  L 19.20859375 23.375  C 21.14158203125 23.375  22.7125 22.008984375  22.7125 20.328125  L 22.7125 3.671875  Z " stroke-width="8" stroke="#ffffff" fill="none" transform="matrix(1 0 0 1 33 10 )" mask="url(#clip46)" />
    <path d="M 21.07734375 3.671875  L 21.07734375 20.328125  C 21.07734375 21.221875  20.23640625 21.953125  19.20859375 21.953125  L 3.79140625 21.953125  C 2.76359375 21.953125  1.92265625 21.221875  1.92265625 20.328125  L 1.92265625 3.671875  C 1.92265625 2.778125  2.76359375 2.046875  3.79140625 2.046875  L 19.20859375 2.046875  C 20.23640625 2.046875  21.07734375 2.778125  21.07734375 3.671875  Z " stroke-width="8" stroke="#ffffff" fill="none" transform="matrix(1 0 0 1 33 10 )" mask="url(#clip46)" />
  </g>
</svg>